<svg version="1.1" id="Слой_1" xmlns="http://www.w3.org/2000/svg" xmlns:xlink="http://www.w3.org/1999/xlink" x="0px" y="0px"
	 viewBox="0 0 32 32" style="enable-background:new 0 0 32 32;" xml:space="preserve">
<style type="text/css">
	.st0{fill:#330033;}
</style>
<path class="st0" d="M27.4,4.6C24.2,1.6,20.2,0,16,0S7.8,1.6,4.6,4.6C1.6,7.8,0,11.8,0,16s1.6,8.2,4.6,11.4c3.2,3,7.2,4.6,11.4,4.6
	s8.2-1.6,11.4-4.6S32,20.2,32,16S30.4,7.8,27.4,4.6z M26,26c-2.6,2.6-6.2,4.2-10,4.2S8.6,28.8,6,26C0.4,20.4,0.4,11.6,6,6
	c2.6-2.6,6.2-4.2,10-4.2S23.4,3.2,26,6C31.6,11.6,31.6,20.4,26,26z"/>
<path class="st0" d="M16,6c-0.6,0-1,0.4-1,1v8.2H7C6.4,15,6,15.4,6,16s0.4,1,1,1h8.2v8.2C15,25.6,15.4,26,16,26c0.2,0,0.4,0,0.6-0.2
	s0.2-0.4,0.2-0.6V17H25c0.2,0,0.4,0,0.6-0.2c0.2-0.4,0.4-0.6,0.4-0.8c0-0.6-0.4-1-1-1h-8.2V7C17,6.4,16.6,6,16,6z"/>
</svg>
