<?xml version="1.0" encoding="utf-8"?>
<!-- Generator: Adobe Illustrator 24.0.1, SVG Export Plug-In . SVG Version: 6.00 Build 0)  -->
<svg version="1.1" id="Слой_1" xmlns="http://www.w3.org/2000/svg" xmlns:xlink="http://www.w3.org/1999/xlink" x="0px" y="0px"
	 viewBox="0 0 32 32" style="enable-background:new 0 0 32 32;" xml:space="preserve">
<style type="text/css">
	.st0{fill:#C4C4C4;}
</style>
<path class="st0" d="M16,0C7.2,0,0,7.2,0,16s7.2,16,16,16s16-7.2,16-16S24.8,0,16,0z M16,31.1C7.7,31.1,0.9,24.3,0.9,16
	S7.7,0.9,16,0.9S31.1,7.7,31.1,16S24.3,31.1,16,31.1z"/>
<path class="st0" d="M18,10.4c-0.4-0.4-1-0.4-1.3-0.1l-5.5,5c-0.2,0.2-0.3,0.4-0.3,0.7c0,0.3,0.1,0.5,0.3,0.7l5.5,5
	c0.2,0.2,0.4,0.2,0.6,0.2s0.5-0.1,0.7-0.3c0.3-0.4,0.3-1-0.1-1.3L13.2,16l4.8-4.4C18.3,11.3,18.3,10.7,18,10.4z"/>
</svg>
