<?xml version="1.0" encoding="utf-8"?>
<!-- Generator: Adobe Illustrator 24.0.1, SVG Export Plug-In . SVG Version: 6.00 Build 0)  -->
<svg version="1.1" id="Слой_1" xmlns="http://www.w3.org/2000/svg" xmlns:xlink="http://www.w3.org/1999/xlink" x="0px" y="0px"
	 viewBox="0 0 32 32" style="enable-background:new 0 0 32 32;" xml:space="preserve">
<style type="text/css">
	.st0{fill:#CC6699;}
</style>
<path class="st0" d="M16,0C7.2,0,0,7.2,0,16s7.2,16,16,16s16-7.2,16-16S24.8,0,16,0z M16,31.1C7.7,31.1,0.9,24.3,0.9,16
	S7.7,0.9,16,0.9S31.1,7.7,31.1,16S24.3,31.1,16,31.1z"/>
<path class="st0" d="M15.3,10.3C15,10,14.4,10,14,10.4c-0.3,0.4-0.3,1,0.1,1.3l4.8,4.4l-4.8,4.4c-0.4,0.3-0.4,0.9-0.1,1.3
	c0.2,0.2,0.4,0.3,0.7,0.3c0.2,0,0.4-0.1,0.6-0.2l5.5-5c0.2-0.2,0.3-0.4,0.3-0.7c0-0.3-0.1-0.5-0.3-0.7L15.3,10.3z"/>
</svg>
