<?xml version="1.0" encoding="utf-8"?>
<!-- Generator: Adobe Illustrator 24.0.1, SVG Export Plug-In . SVG Version: 6.00 Build 0)  -->
<svg version="1.1" id="Слой_1" xmlns="http://www.w3.org/2000/svg" xmlns:xlink="http://www.w3.org/1999/xlink" x="0px" y="0px"
	 viewBox="0 0 32 32" style="enable-background:new 0 0 32 32;" xml:space="preserve">
<style type="text/css">
	.st0{fill:#330033;}
</style>
<path class="st0" d="M31.7,15.3L21.3,6.7c-0.4-0.3-0.9-0.3-1.2,0.1c-0.3,0.4-0.3,0.9,0.1,1.2l8.5,7.1H0.9C0.4,15.1,0,15.5,0,16
	s0.4,0.9,0.9,0.9h27.9L20.2,24c-0.4,0.3-0.4,0.9-0.1,1.2c0.2,0.2,0.4,0.3,0.7,0.3c0.2,0,0.4-0.1,0.6-0.2l10.4-8.6
	c0.2-0.2,0.3-0.4,0.3-0.7C32,15.7,31.9,15.5,31.7,15.3z"/>
</svg>
