
<svg version="1.1" id="Слой_1" xmlns="http://www.w3.org/2000/svg" xmlns:xlink="http://www.w3.org/1999/xlink" x="0px" y="0px"
	 viewBox="0 0 32 32" style="enable-background:new 0 0 32 32;" xml:space="preserve">
<style type="text/css">
	.st0{fill:#999999;}
</style>
<g>
	<path class="st0" d="M15.8,17.6h0.2h0c2,0,3.6-0.7,4.9-2.1c2.6-2.9,2.2-7.8,2.1-8.3c-0.2-3.6-1.9-5.3-3.3-6.2C18.7,0.3,17.4,0,16,0
		h-0.1c-0.8,0-2.2,0.1-3.7,0.9C10.8,1.7,9,3.5,8.9,7.1c-0.1,0.5-0.5,5.5,2.1,8.4C12.2,16.8,13.8,17.5,15.8,17.6z M11.3,7.3L11.3,7.3
		c0.2-4.3,3-4.9,4.7-4.9c2,0,4.5,0.9,4.6,4.8l0,0.1l0,0c0,0.5,0.3,4.4-1.5,6.5c-0.8,0.8-1.8,1.3-3.2,1.3c-1.3,0-2.4-0.4-3.1-1.3
		C10.9,11.7,11.3,7.5,11.3,7.3z"/>
	<path class="st0" d="M29.7,25.2l-0.3,0l0,0L29.7,25.2l0-0.2c0-1.4-0.1-4.5-3.2-5.5l-0.1,0c-2.9-0.7-5.3-2.4-5.3-2.4
		c-0.5-0.4-1.3-0.3-1.7,0.3c-0.2,0.3-0.3,0.6-0.2,0.9c0.1,0.3,0.2,0.6,0.5,0.8c0,0,2.7,1.9,6.1,2.7c1.3,0.5,1.5,1.9,1.5,3.3
		c0,0.1,0,0.1,0,0.2c0,0.5,0,1.3-0.1,1.8c-1.3,0.7-5.2,2.5-11.2,2.5c-6,0-10-1.9-11.2-2.5c-0.1-0.5-0.1-1.3-0.1-1.8l0-0.1
		c0-1.4,0.2-2.9,1.5-3.3c2.9-0.8,5.4-2.3,6.1-2.8c0.3-0.2,0.4-0.5,0.5-0.8c0.1-0.3,0-0.6-0.2-0.9c-0.4-0.5-1.1-0.7-1.7-0.3
		c0,0-2.4,1.7-5.3,2.4l-0.1,0c-3,1-3.1,4.2-3.2,5.6c0,0,0,0.1,0,0.2c0,0.2,0,2.1,0.4,3.1c0.1,0.2,0.3,0.4,0.5,0.6
		c0,0,4.9,3.2,12.9,3.2c7.7,0,12.4-2.8,12.9-3.2c0.2-0.1,0.4-0.3,0.5-0.6C29.8,27.3,29.7,25.4,29.7,25.2z"/>
</g>
</svg>
