<?xml version="1.0" encoding="utf-8"?>
<!-- Generator: Adobe Illustrator 24.1.2, SVG Export Plug-In . SVG Version: 6.00 Build 0)  -->
<svg version="1.1" id="Слой_1" xmlns="http://www.w3.org/2000/svg" xmlns:xlink="http://www.w3.org/1999/xlink" x="0px" y="0px"
	 viewBox="0 0 32 32" style="enable-background:new 0 0 32 32;" xml:space="preserve">
<style type="text/css">
	.st0{fill:#330033;}
</style>
<path class="st0" d="M25.7,2.4h-1.9V1.2c0-0.7-0.6-1.2-1.2-1.2s-1.2,0.6-1.2,1.2v1.1H10.7V1.2c0-0.7-0.6-1.2-1.2-1.2
	S8.2,0.6,8.2,1.2v1.1H6.3c-2.6,0-4.7,1.8-4.7,4.1v21.4c0,2.3,2.1,4.1,4.7,4.1h19.4c2.6,0,4.7-1.8,4.7-4.1V6.5
	C30.4,4.2,28.3,2.4,25.7,2.4z M6.3,4.8h1.9V6c0,0.7,0.6,1.2,1.2,1.2s1.2-0.6,1.2-1.2V4.8h10.7V6c0,0.7,0.6,1.2,1.2,1.2
	s1.2-0.6,1.2-1.2V4.8h1.9c1.2,0,2.2,0.8,2.2,1.6v3.4H4.1V6.5C4.1,5.6,5.1,4.8,6.3,4.8z M25.7,29.5H6.3c-1.2,0-2.2-0.8-2.2-1.6V12.4
	h23.8v15.5C27.9,28.8,26.9,29.5,25.7,29.5z"/>
</svg>
