<?xml version="1.0" encoding="utf-8"?>
<!-- Generator: Adobe Illustrator 24.0.1, SVG Export Plug-In . SVG Version: 6.00 Build 0)  -->
<svg version="1.1" id="Слой_1" xmlns="http://www.w3.org/2000/svg" xmlns:xlink="http://www.w3.org/1999/xlink" x="0px" y="0px"
	 viewBox="0 0 32 32" style="enable-background:new 0 0 32 32;" xml:space="preserve">
<style type="text/css">
	.st0{fill:#330033;}
	.st1{fill:#E71F75;}
</style>
<path class="st0" d="M26.4,2.5h-1.8V0.7c0-0.4-0.3-0.7-0.7-0.7c-0.4,0-0.7,0.3-0.7,0.7v1.8H8.7V0.7C8.7,0.3,8.4,0,8.1,0
	C7.7,0,7.4,0.3,7.4,0.7v1.8H5.6c-2.4,0-4.3,1.6-4.3,3.6v22.3c0,2,1.9,3.6,4.3,3.6h20.7c2.4,0,4.3-1.6,4.3-3.6V6.1
	C30.7,4.1,28.7,2.5,26.4,2.5z M5.6,3.8h1.8v1.8c0,0.4,0.3,0.7,0.7,0.7c0.4,0,0.7-0.3,0.7-0.7V3.8h14.5v1.8c0,0.4,0.3,0.7,0.7,0.7
	c0.4,0,0.7-0.3,0.7-0.7V3.8h1.8c1.7,0,3,1,3,2.3v2.5H2.6V6.1C2.6,4.8,4,3.8,5.6,3.8z M26.4,30.7H5.6c-1.7,0-3-1-3-2.3V9.9h26.7v18.5
	C29.4,29.6,28,30.7,26.4,30.7z"/>
<path class="st1" d="M23.3,17.8c0-0.1-0.2-0.3-0.3-0.3l-4.5-0.7l-2-4.2c-0.1-0.1-0.2-0.2-0.4-0.2c-0.2,0-0.3,0.1-0.4,0.2l-2,4.1
	l-4.5,0.7c-0.2,0-0.3,0.1-0.3,0.3c0,0.1,0,0.3,0.1,0.4l3.3,3.2l-0.8,4.5c0,0,0,0.1,0,0.1c0,0.2,0.2,0.4,0.4,0.4c0.1,0,0.1,0,0.2,0
	l4.1-2.1l4.1,2.2c0.1,0,0.1,0,0.2,0c0.1,0,0.2,0,0.2-0.1c0.1-0.1,0.2-0.2,0.2-0.4l-0.8-4.6l3.3-3.2C23.3,18.1,23.3,17.9,23.3,17.8z"
	/>
</svg>
