<svg version="1.1" id="Слой_1" xmlns="http://www.w3.org/2000/svg" xmlns:xlink="http://www.w3.org/1999/xlink" x="0px" y="0px"
	 viewBox="0 0 32 32" style="enable-background:new 0 0 32 32;" xml:space="preserve">
<style type="text/css">
	.st0{fill:#FFFFFF;}
</style>
<g>
	<path class="st0" d="M22.3,3.2C22.3,3.2,22.4,3.2,22.3,3.2c0-0.3-0.1-0.7-0.3-0.8C21.8,2.1,21.4,2,21,2c0,0,0,0,0,0
		c-0.8,0-1.4,0.5-1.4,1.1C16.4,3.4,9.4,4.5,7.8,9.5c-1.5,4.6-1.3,7.5-1.1,8.7l-6.4,6c-0.3,0.3-0.4,0.6-0.2,1
		c0.1,0.3,0.5,0.6,0.8,0.6c0,0,2.6,0,5.7,1.2c0.9,0.3,1.8,0.8,2.7,1.3c1.8,0.9,3.6,1.9,5.9,1.9c0.6,0,1.3-0.1,2-0.2
		c4.1-0.9,8.2-5.6,9.2-6.8c1.8-0.3,4.8-1.8,5.3-5.4C32.2,13.5,33.1,5.2,22.3,3.2z M21,2.6c0.1,0,0.3,0.2,0.4,0.5c0,0,0,0,0,0
		c0,0,0,0-0.1,0c0,0,0,0-0.1,0c-0.1,0-0.3,0-0.6,0C20.6,2.7,20.9,2.6,21,2.6z M9.5,10c1.5-4.6,9.6-5.1,11.4-5.2
		c4.8,4.2,4.2,13.7,4,16.3c-7,0.6-14.6-2.5-16.4-3.3C8.3,16.9,8.1,14.3,9.5,10z M16.9,28c-2.7,0.6-4.6-0.4-6.7-1.5
		c-0.9-0.5-1.9-1-2.9-1.4c-1.6-0.6-3.1-0.9-4.2-1.1l4.9-4.5C9.8,20.4,16.3,23,23,23c0.3,0,0.7,0,1-0.1C22.4,24.7,19.6,27.4,16.9,28z
		 M29.9,17.4c-0.3,2.4-2.2,3.3-3.3,3.6c0.3-3.1,0.5-10.7-2.9-15.6C31.1,7.5,30.4,13.6,29.9,17.4z"/>
	<path class="st0" d="M14.3,17.3c0.4,0.1,0.8,0.1,1.2,0.1c1.1,0,2.3-0.4,3.5-1.1c0.4-0.3,0.6-0.8,0.3-1.2c-0.3-0.4-0.8-0.6-1.2-0.3
		c-3.4,2.1-5-0.3-5.2-0.5c-0.3-0.4-0.8-0.6-1.2-0.3c-0.4,0.3-0.6,0.8-0.3,1.2C11.4,15.2,12.3,16.8,14.3,17.3z"/>
	<path class="st0" d="M12.6,11.7l0.8,0.1c0,0,0.1,0,0.1,0c0.5,0,0.8-0.3,0.9-0.8c0.1-0.5-0.3-0.9-0.8-1l-0.8-0.1
		c-0.5-0.1-0.9,0.3-1,0.8C11.7,11.2,12.1,11.7,12.6,11.7z"/>
	<path class="st0" d="M17.4,12.4l0.8,0.1c0,0,0.1,0,0.1,0c0.4,0,0.8-0.3,0.9-0.8c0.1-0.5-0.3-1-0.8-1l-0.8-0.1
		c-0.5-0.1-0.9,0.3-1,0.8C16.6,11.9,16.9,12.3,17.4,12.4z"/>
</g>
</svg>
