<?xml version="1.0" encoding="utf-8"?>
<!-- Generator: Adobe Illustrator 24.0.1, SVG Export Plug-In . SVG Version: 6.00 Build 0)  -->
<svg version="1.1" id="Capa_1" xmlns="http://www.w3.org/2000/svg" xmlns:xlink="http://www.w3.org/1999/xlink" x="0px" y="0px"
	 viewBox="0 0 32 32" style="enable-background:new 0 0 32 32;" xml:space="preserve">
<g>
	<g>
		<path d="M27.3,4.7c-3-3-7-4.7-11.3-4.7S7.7,1.7,4.7,4.7c-5.8,5.8-6.3,15.1-1.1,21.5c-0.7,1.5-1.6,2.4-2.5,2.9
			c-0.6,0.3-0.9,0.9-0.8,1.6c0.1,0.6,0.6,1.2,1.2,1.3C1.9,31.9,2.3,32,2.7,32l0,0c2,0,4-0.7,5.8-1.9c2.3,1.2,4.9,1.9,7.6,1.9
			c4.3,0,8.3-1.7,11.3-4.7S32,20.3,32,16S30.3,7.7,27.3,4.7z M26,26c-2.7,2.7-6.2,4.2-10,4.2c-2.5,0-5-0.7-7.2-1.9
			c-0.1-0.1-0.3-0.1-0.5-0.1c-0.2,0-0.4,0.1-0.6,0.2c-2.1,1.6-4.1,1.8-5,1.8c1.1-0.8,2-2.1,2.7-3.8c0.1-0.3,0.1-0.7-0.2-1
			C0.4,19.8,0.7,11.2,6,6c2.7-2.7,6.2-4.2,10-4.2S23.4,3.3,26,6C31.6,11.5,31.6,20.5,26,26z"/>
		<path d="M22.7,10.7H9.3c-0.5,0-0.9,0.4-0.9,0.9c0,0.5,0.4,0.9,0.9,0.9h13.4c0.5,0,0.9-0.4,0.9-0.9C23.6,11.1,23.2,10.7,22.7,10.7z
			"/>
		<path d="M22.7,15.1H9.3c-0.5,0-0.9,0.4-0.9,0.9c0,0.5,0.4,0.9,0.9,0.9h13.4c0.5,0,0.9-0.4,0.9-0.9C23.6,15.5,23.2,15.1,22.7,15.1z
			"/>
		<path d="M22.7,19.5H9.3c-0.5,0-0.9,0.4-0.9,0.9s0.4,0.9,0.9,0.9h13.4c0.5,0,0.9-0.4,0.9-0.9S23.2,19.5,22.7,19.5z"/>
	</g>
</g>
</svg>
