<?xml version="1.0" encoding="utf-8"?>
<!-- Generator: Adobe Illustrator 24.1.1, SVG Export Plug-In . SVG Version: 6.00 Build 0)  -->
<svg version="1.1" id="Capa_1" xmlns="http://www.w3.org/2000/svg" xmlns:xlink="http://www.w3.org/1999/xlink" x="0px" y="0px"
	 viewBox="0 0 32 32" style="enable-background:new 0 0 32 32;" xml:space="preserve">
<g>
	<g>
		<path d="M27.3,4.7c-3-3-7-4.7-11.3-4.7S7.7,1.7,4.7,4.7c-5.8,5.8-6.3,15.2-1,21.5c-0.5,1-1.3,2.2-2.6,2.8
			c-0.6,0.3-0.9,0.9-0.8,1.6s0.6,1.2,1.3,1.3c0.3,0,0.7,0.1,1.3,0.1c1.4,0,3.5-0.3,5.6-1.9c2.4,1.3,5,1.9,7.6,1.9
			c4.1,0,8.2-1.6,11.3-4.7c3-3,4.7-7,4.7-11.3S30.3,7.7,27.3,4.7z M26,26c-4.6,4.6-11.6,5.5-17.2,2.2C8.4,28,8,28.1,7.7,28.4
			c0,0-0.1,0-0.1,0.1c-1.8,1.4-3.6,1.7-4.8,1.7h0c1.4-1,2.2-2.5,2.7-3.6c0.1-0.2,0.1-0.4,0-0.6c0-0.2-0.1-0.4-0.2-0.5
			C0.4,19.8,0.7,11.3,6,6c5.5-5.5,14.5-5.5,20,0C31.5,11.5,31.5,20.5,26,26z"/>
		<circle cx="16" cy="16" r="1.1"/>
		<circle cx="21.8" cy="16" r="1.1"/>
		<circle cx="10.2" cy="16" r="1.1"/>
	</g>
</g>
</svg>
