<svg version="1.1" id="Слой_1" xmlns="http://www.w3.org/2000/svg" xmlns:xlink="http://www.w3.org/1999/xlink" x="0px" y="0px"
	 viewBox="0 0 32 32" style="enable-background:new 0 0 32 32;" xml:space="preserve">
<style type="text/css">
	.st0{fill:#FFFFFF;}
</style>
<path class="st0" d="M29,8c-1.7-0.5-3.9,1.2-5,3.8c0-0.1,0-0.1-0.1-0.2c-0.8-2.8-2.3-2.8-3-2.7c-0.9-1.7-1.4-3.4-1.8-4.6
	c-0.8-3-2.2-3.4-3-3.3c-0.3,0-0.7,0.1-0.9,0.3c-0.4-0.8-1-1.4-2.1-1.2c-0.9,0.1-1.5,1.1-1.9,2.1c-0.1,0-0.2,0-0.3,0
	C9.8,2.2,8.9,3.9,8.8,4.7C8.7,5.3,8.7,5.6,8.7,5.9C8.2,6.1,7.6,6.5,7.3,8.4c-0.4,0-0.7,0.1-1,0.3C6.1,8.9,5.9,9.1,5.7,9.4
	C5,8.9,4.2,8.7,3.3,9.3C2.6,9.9,2.5,11,2.6,12.1c-0.1,0-0.2,0.1-0.3,0.1c-1,0.7-1,2.5-0.7,3.3c0.2,0.5,0.3,0.8,0.5,1.1
	C1,17.8,2.8,21,2.9,21.1c3.1,5.5,8.5,9.5,14.6,10.6c1.1,0.2,2,0.3,3,0.3c2,0,3.6-0.5,4.8-1.4c2.3-1.7,2.9-4.5,3.1-6.5c0,0,0,0,0,0
	c0,0,0,0,0,0c0-0.1,0.7-6.5,2-12.3C31,8.9,29.6,8.2,29,8z M10,8.3c0.4-0.1,0.7-0.5,0.6-1C10.5,6,10.5,6,10.7,5
	c0-0.2,0.2-0.5,0.4-0.7c0.2,0.4,0.6,0.7,1,0.6c0.5-0.1,0.8-0.5,0.8-0.9c0-0.8,0.5-1.9,0.6-2C13.7,2,13.9,2.8,14,3.3l0.1,0.5
	c0.1,0.4,0.5,0.7,1,0.7c0.4,0,0.8-0.4,0.8-0.8c0.1-0.6,0.3-0.8,0.3-0.8c0.1,0,0.6,0.4,1.1,2c0.4,1.4,0.9,3.2,2,5.2
	c-0.9,1.1-1.3,3-1,5c0,0.2,0,0.3,0,0.3c-1.1,0.1-5.6-2.8-7.9-5.1c-0.5-0.5-1-0.9-1.4-1.2c0-0.3,0.1-0.6,0.1-0.8
	C9.5,8.3,9.8,8.4,10,8.3z M24.1,29.1c-1.4,1-3.5,1.3-6.3,0.7c-5.5-1-10.6-4.7-13.4-9.7c-0.2-0.3-0.3-0.6-0.4-0.9l3.5,4.4
	C7.7,23.8,8,24,8.2,24c0.2,0,0.4-0.1,0.6-0.2c0.4-0.3,0.5-0.9,0.2-1.3l-4.6-5.8c0,0-0.1-0.1-0.1-0.1c-0.5-0.7-0.5-0.8-0.8-1.7
	c-0.1-0.2-0.1-0.6,0-0.8c0,0,0,0,0.1,0l4.6,5.8c0.2,0.2,0.5,0.4,0.7,0.4c0.2,0,0.4-0.1,0.6-0.2c0.4-0.3,0.5-0.9,0.1-1.3l-4.8-6
	C4.4,12,4.4,11,4.4,10.8c0.2,0,0.8,0.6,1.2,1l0.3,0.3l3.8,4.3c0.2,0.2,0.4,0.3,0.7,0.3c0.2,0,0.4-0.1,0.6-0.2
	c0.4-0.3,0.4-0.9,0.1-1.3l-3.7-4.1c-0.1-0.4-0.1-0.7-0.1-0.8c0.1,0,0.8,0.1,1.9,1.2c0.9,0.9,7.5,6.7,10.1,5.5
	c0.4-0.2,1.1-0.8,0.9-2.2c-0.3-2.3,0.6-3.9,1.1-4.1c0.1,0,0.5,0.3,0.8,1.4c1.5,5.2,3.8,10.8,4.3,12.1C26.2,26.6,25.4,28.2,24.1,29.1
	z M28.5,11.4c-0.7,3.2-1.2,6.5-1.5,9c-0.7-1.7-1.5-4-2.3-6.3c0.3-0.2,0.6-0.6,0.9-1.2c0.8-2.2,2.4-3.2,2.9-3
	C28.6,9.8,28.8,10.2,28.5,11.4z"/>
</svg>
