<svg version="1.1" id="Слой_1" xmlns="http://www.w3.org/2000/svg" xmlns:xlink="http://www.w3.org/1999/xlink" x="0px" y="0px"
	 viewBox="0 0 32 32" style="enable-background:new 0 0 32 32;" xml:space="preserve">
<style type="text/css">
	.st0{fill:#FFFFFF;}
</style>
<g>
	<path class="st0" d="M16,0C7.2,0,0,7.2,0,16s7.2,16,16,16c8.8,0,16-7.2,16-16S24.8,0,16,0z M16,30.1C8.2,30.1,1.9,23.8,1.9,16
		C1.9,8.2,8.2,1.9,16,1.9S30.1,8.2,30.1,16C30.1,23.8,23.8,30.1,16,30.1z"/>
	<path class="st0" d="M16,5.5c-0.5,0-0.9,0.4-0.9,0.9V16l-3.5-2.4c-0.4-0.3-1-0.2-1.3,0.2c-0.3,0.4-0.2,1,0.2,1.3l4.9,3.4
		c0.2,0.1,0.3,0.2,0.5,0.2c0.1,0,0.3,0,0.4-0.1c0.3-0.2,0.5-0.5,0.5-0.8V6.4C16.9,5.9,16.5,5.5,16,5.5z"/>
	<path class="st0" d="M27.4,15.1h-2c-0.5,0-0.9,0.4-0.9,0.9c0,0.5,0.4,0.9,0.9,0.9h2c0.5,0,0.9-0.4,0.9-0.9
		C28.3,15.5,27.9,15.1,27.4,15.1z"/>
	<path class="st0" d="M6.6,15.1h-2c-0.5,0-0.9,0.4-0.9,0.9c0,0.5,0.4,0.9,0.9,0.9h2c0.5,0,0.9-0.4,0.9-0.9
		C7.5,15.5,7.1,15.1,6.6,15.1z"/>
	<path class="st0" d="M16,24.5c-0.5,0-0.9,0.4-0.9,0.9v2c0,0.5,0.4,0.9,0.9,0.9s0.9-0.4,0.9-0.9v-2C16.9,24.9,16.5,24.5,16,24.5z"/>
</g>
</svg>
