<svg version="1.1" xmlns="http://www.w3.org/2000/svg" viewBox="0 0 32 32">
<path d="M24.8,6.6h-1.5V4.2c0-2.3-1.9-4.2-4.2-4.2H7.2C4.9,0,3,1.9,3,4.2v20.2c0,1.7,1.1,3.3,2.6,3.9
	C6,30.4,7.8,32,10,32c2.1,0,3.8-1.4,4.3-3.3h2.3c0.5,1.9,2.3,3.3,4.3,3.3c2.1,0,3.8-1.4,4.3-3.4c2.1-0.3,3.7-2,3.7-4.2v-5.8v-7.8
	v-0.1C29,8.5,27.1,6.6,24.8,6.6z M25.4,26.5c-0.5-2-2.2-3.5-4.4-3.5c-0.6,0-1.2,0.1-1.7,0.3V10.9c0-1,0.7-1.9,1.7-2v6.5
	c0,3.3,1.8,4.4,3.4,4.4c0.2,0,0.3,0,0.5,0c0.7,0,0.9,0,1,0c0.1,0,0.3,0,1,0v4.8C26.9,25.4,26.2,26.2,25.4,26.5z M21,29.9
	c-1.3,0-2.4-1.1-2.4-2.4c0-1.3,1.1-2.4,2.4-2.4c1.3,0,2.4,1.1,2.4,2.4C23.4,28.8,22.3,29.9,21,29.9z M24.8,17.6c-0.1,0-0.1,0-0.2,0
	c0,0-0.1,0-0.2,0c-0.9,0-1.3-0.8-1.3-2.3V8.7h1.7c1.1,0,2.1,0.9,2.1,2.1v0.1v6.7c-0.7,0-0.9,0-1.1,0C25.7,17.6,25.5,17.6,24.8,17.6z
	 M5.1,4.2c0-1.1,0.9-2.1,2.1-2.1h11.9c1.1,0,2.1,0.9,2.1,2.1v2.5c-2.2,0.1-4,2-4,4.2v13.6c0,0.2,0,0.4,0,0.5c-0.3,0.5-0.5,1-0.6,1.5
	h-2.2C14,24.5,12.1,23,10,23c-1.9,0-3.6,1.2-4.2,3c-0.4-0.4-0.6-0.9-0.6-1.5V4.2z M12.4,27.5c0,1.3-1.1,2.4-2.4,2.4
	s-2.4-1.1-2.4-2.4c0-1.3,1.1-2.4,2.4-2.4S12.4,26.2,12.4,27.5z"/>
</svg>
