<svg version="1.1" id="Слой_1" xmlns="http://www.w3.org/2000/svg" xmlns:xlink="http://www.w3.org/1999/xlink" x="0px" y="0px"
	 viewBox="0 0 32 32" style="enable-background:new 0 0 32 32;" xml:space="preserve">
<style type="text/css">
	.st0{fill:#FFFFFF;}
	.st1{fill:#E71F75;}
</style>
<g>
	<path class="st0" d="M20.1,14v9.9h9.7c0,0,0-1.3,0-2.8C29.9,15.1,25.1,14,20.1,14z"/>
	<path class="st1" d="M29.9,24.5h-9.7c-0.4,0-0.7-0.3-0.7-0.7V14c0-0.4,0.3-0.7,0.7-0.7c4.5,0,10.4,0.8,10.4,7.7v2.8
		C30.5,24.2,30.2,24.5,29.9,24.5z M20.8,23.2h8.4v-2.1c0-4.3-2.5-6.3-8.4-6.4V23.2z"/>
</g>
<g>
	<path class="st1" d="M20,24.5H4.5c-0.4,0-0.7-0.3-0.7-0.7s0.3-0.7,0.7-0.7h14.8V8.4h-5.7c-0.4,0-0.7-0.3-0.7-0.7
		c0-0.4,0.3-0.7,0.7-0.7H20c0.4,0,0.7,0.3,0.7,0.7v16.1C20.7,24.2,20.4,24.5,20,24.5z"/>
</g>
<g>
	<path class="st1" d="M8.3,17.6c-3.7,0-6.8-3.1-6.8-6.8S4.5,4,8.3,4s6.8,3.1,6.8,6.8S12,17.6,8.3,17.6z M8.3,5.3
		c-3,0-5.5,2.5-5.5,5.5s2.5,5.5,5.5,5.5s5.5-2.5,5.5-5.5S11.3,5.3,8.3,5.3z"/>
</g>
<g>
	<path class="st1" d="M29.9,21.5c-3.9,0-6.8-3-6.8-7.1c0-0.4,0.3-0.7,0.7-0.7c0.1,0,3.1,0,5.1,2.4c1.9,2,1.8,4.6,1.7,4.7
		C30.5,21.2,30.2,21.5,29.9,21.5z M24.4,15.1c0.3,2.7,2.1,4.7,4.7,5c-0.1-0.8-0.4-2-1.4-3.1C26.8,15.7,25.3,15.3,24.4,15.1z"/>
</g>
<g>
	<path class="st1" d="M7.9,12.8c-0.2,0-0.4-0.1-0.5-0.2l-2-2.1c-0.3-0.3-0.2-0.7,0-0.9c0.3-0.3,0.7-0.2,0.9,0l1.5,1.6l2-2.3
		c0.2-0.3,0.7-0.3,0.9,0c0.3,0.2,0.3,0.7,0,0.9l-2.5,2.8C8.2,12.7,8.1,12.8,7.9,12.8C7.9,12.8,7.9,12.8,7.9,12.8z"/>
</g>
<g>
	<path class="st1" d="M9.5,20.8H2.1c-0.4,0-0.7-0.3-0.7-0.7c0-0.4,0.3-0.7,0.7-0.7h7.3c0.4,0,0.7,0.3,0.7,0.7
		C10.1,20.5,9.8,20.8,9.5,20.8z"/>
</g>
<g>
	<path class="st1" d="M24.5,28.1c-1.3,0-2.4-1.1-2.4-2.4s1.1-2.4,2.4-2.4c1.3,0,2.4,1.1,2.4,2.4S25.9,28.1,24.5,28.1z M24.5,24.7
		c-0.6,0-1.1,0.5-1.1,1.1s0.5,1.1,1.1,1.1c0.6,0,1.1-0.5,1.1-1.1S25.1,24.7,24.5,24.7z"/>
</g>
<g>
	<path class="st1" d="M9.3,28.1c-1.3,0-2.4-1.1-2.4-2.4s1.1-2.4,2.4-2.4c1.3,0,2.4,1.1,2.4,2.4S10.7,28.1,9.3,28.1z M9.3,24.7
		c-0.6,0-1.1,0.5-1.1,1.1s0.5,1.1,1.1,1.1c0.6,0,1.1-0.5,1.1-1.1S9.9,24.7,9.3,24.7z"/>
</g>
</svg>
