<svg version="1.1" id="Слой_1" xmlns="http://www.w3.org/2000/svg" xmlns:xlink="http://www.w3.org/1999/xlink" x="0px" y="0px"
	 viewBox="0 0 32 32" style="enable-background:new 0 0 32 32;" xml:space="preserve">
<style type="text/css">
	.st0{fill:#FFFFFF;}
</style>
<g>
	<path class="st0" d="M22.5,11.1V5.8c0-0.4-0.3-0.8-0.8-0.8H9.1C8.7,5,8.3,5.3,8.3,5.8c0,0.4,0.3,0.8,0.8,0.8H21v14.1H3.2
		c-0.1,0-0.2,0-0.3,0.1C1.3,20.8,0,22.2,0,23.8C0,25.6,1.4,27,3.2,27s3.2-1.4,3.2-3.2c0-0.6-0.2-1.2-0.5-1.7h15.7
		c-0.3,0.5-0.5,1-0.5,1.7c0,1.7,1.4,3.2,3.2,3.2c1.7,0,3.2-1.4,3.2-3.2c0-0.6-0.2-1.1-0.5-1.6h4.4c0.4,0,0.8-0.3,0.8-0.8v-2.7
		C32,12.3,26.8,11.2,22.5,11.1z M3.2,25.5c-0.9,0-1.6-0.7-1.6-1.6c0-0.9,0.7-1.6,1.6-1.6c0.9,0,1.6,0.7,1.6,1.6
		C4.8,24.7,4,25.5,3.2,25.5z M25.8,23.8c0,0.9-0.7,1.6-1.6,1.6c-0.9,0-1.6-0.7-1.6-1.6c0-0.9,0.7-1.6,1.6-1.6h0
		C25.1,22.2,25.8,22.9,25.8,23.8z M30.5,20.7h-6.3c0,0,0,0,0,0c0,0,0,0,0,0h-1.5v-8c5.5,0.2,7.8,2,7.8,6V20.7z"/>
	<path class="st0" d="M4.6,16.9h7.6c0.4,0,0.8-0.3,0.8-0.8c0-0.4-0.3-0.8-0.8-0.8H4.6c-0.4,0-0.8,0.3-0.8,0.8
		C3.8,16.6,4.2,16.9,4.6,16.9z"/>
	<path class="st0" d="M6.6,11.6h6.6c0.4,0,0.8-0.3,0.8-0.8s-0.3-0.8-0.8-0.8H6.6c-0.4,0-0.8,0.3-0.8,0.8S6.2,11.6,6.6,11.6z"/>
</g>
</svg>
