<svg version="1.1" id="Слой_1" xmlns="http://www.w3.org/2000/svg" xmlns:xlink="http://www.w3.org/1999/xlink" x="0px" y="0px"
	 viewBox="0 0 32 32" style="enable-background:new 0 0 32 32;" xml:space="preserve">
<style type="text/css">
	.st0{fill:#FFFFFF;}
</style>
<path class="st0" d="M31.9,10.3C31.9,10.3,31.9,10.3,31.9,10.3c0-0.2,0-0.2,0-0.3c0-0.1-0.1-0.1-0.1-0.1c0,0,0,0,0-0.1l-4.7-7.3
	c0,0,0,0,0,0c-0.1-0.1-0.2-0.2-0.4-0.3c0,0-0.1,0-0.1,0c-0.1,0-0.1,0-0.2-0.1L16.2,0.5c-0.1,0-0.2,0-0.3,0L6.1,2.3c0,0-0.1,0-0.1,0
	c0,0-0.1,0-0.1,0C5.8,2.5,5.6,2.6,5.6,2.7c0,0,0,0,0,0l-5.2,7c0,0,0,0,0,0.1c0,0.1-0.1,0.1-0.1,0.2c0,0.1,0,0.2,0,0.2
	c0,0,0,0.1,0,0.1c0,0.2,0.1,0.3,0.2,0.5c0,0,0,0,0,0l15,20.3c0,0,0,0,0,0c0.1,0.1,0.1,0.1,0.2,0.2c0,0,0.1,0.1,0.1,0.1c0,0,0,0,0,0
	c0.1,0,0.2,0.1,0.3,0.1c0,0,0,0,0,0c0.2,0,0.3-0.1,0.5-0.1c0,0,0.1-0.1,0.1-0.1c0.1,0,0.1-0.1,0.2-0.1l14.9-20.3c0,0,0,0,0-0.1
	C31.8,10.7,31.9,10.5,31.9,10.3z M3.5,12.1L9.4,14c0.1,0,0.2,0,0.3,0h11.7l-5.6,14.6L3.5,12.1z M6.7,4.3l7.6,1.4L9.3,12L2.6,9.8
	L6.7,4.3z M29.5,9.8l-7,2.4h-11l4.9-6.2L25.8,4L29.5,9.8z M23.4,13.8l5-1.7l-9.1,12.3L23.4,13.8z M16.1,2.4l4.9,0.7l-5,1l-4.6-0.9
	L16.1,2.4z"/>
</svg>
