<svg version="1.1" xmlns="http://www.w3.org/2000/svg" viewBox="0 0 32 32">
	<path d="M30.6,10.2c0.1-0.3,0.2-0.8,0.3-1.3c0-0.9-0.2-2.3-1.5-3.5c0.1-0.6,0.1-1.6-0.5-2.6c-0.7-1.3-2.1-2.2-4.1-2.6
		c-1.4-0.3-3.2-0.4-5.3-0.2C15,0,10.7,0.5,10.5,0.6L8.9,0.8c-0.5-0.3-1-0.5-1.6-0.5H3.3C1.7,0.3,0.5,1.5,0.5,3v10.9
		c0,1.5,1.2,2.8,2.8,2.8h4.1c0.5,0,0.9-0.1,1.3-0.3c0.3,0.6,0.7,1.3,1.3,2c0,0,0.1,0.1,0.1,0.1c2.1,1.6,4.6,7.4,5.4,9.8
		c-0.1,0.7-0.2,2.3,0.6,3.2c0.3,0.4,0.8,0.6,1.3,0.6c0.5,0,2.3-0.1,3.4-1.7c1-1.5,1.1-3.6,0.2-6.5c-0.8-2.4-0.9-3.5-0.8-3.9
		c0.4,0.1,0.7,0.2,1.1,0.2h0c0.1,0,1.5,0.3,3.3,0.4c2.5,0.1,4.3-0.3,5.4-1.3c1.5-1.3,1.3-3,0.8-4.1c0.4-0.5,0.8-1.3,0.9-2.3
		C31.5,12,31.2,11.1,30.6,10.2z M7.3,14.9H3.3c-0.5,0-1-0.4-1-1V3c0-0.5,0.4-1,1-1h4.1c0.5,0,1,0.4,1,1v10.9
		C8.3,14.5,7.9,14.9,7.3,14.9z M28.8,15.6c0,0,0.2,0.4,0.3,0.9c0.1,0.6-0.1,1.1-0.5,1.6c-1.3,1.2-4.9,0.9-7,0.4c0,0-0.1,0-0.1,0
		c-0.4-0.1-0.8-0.1-1.2-0.2c-0.4-0.2-1-0.1-1.5,0.3c-0.9,0.8-0.8,2.6,0.3,6c0.7,2.2,0.8,3.9,0.1,4.9c-0.6,0.8-1.5,0.9-1.9,0.9
		c-0.2-0.3-0.2-1.2-0.1-1.9c0-0.1,0-0.3,0-0.4c-0.1-0.3-3.1-8.4-6-10.8c-0.8-0.8-1.1-1.8-1.2-2.3c0.1-0.3,0.1-0.5,0.1-0.8V3
		c0-0.2,0-0.4-0.1-0.6l0.7-0.1h0c0,0,4.4-0.6,8.7-0.5c0,0,0.1,0,0.1,0c2-0.2,3.7-0.1,4.9,0.1c1.5,0.3,2.5,0.9,2.9,1.7
		c0.5,0.8,0.2,1.7,0.2,1.8c-0.1,0.4,0,0.8,0.3,1c2,1.5,1.1,3.2,0.9,3.4c-0.2,0.3-0.2,0.8,0.1,1.1c0.6,0.6,0.9,1.2,0.8,1.8
		c0,0.9-0.7,1.5-0.7,1.6C28.6,14.7,28.6,15.2,28.8,15.6z"/>
</svg>
