<svg version="1.1" id="Layer_1" xmlns="http://www.w3.org/2000/svg" xmlns:xlink="http://www.w3.org/1999/xlink" x="0px" y="0px"
	 viewBox="0 0 32 32" style="enable-background:new 0 0 32 32;" xml:space="preserve">
<path class="st0" d="M27.6,6.7c-0.7-0.6-7.8-5-9.7-6.1c-1.4-0.8-2.4-0.6-3.9,0.2c-1.7,0.9-8.5,5.1-9.2,5.6c-1.4,1-1.5,2.5-1.5,2.9
	v18.6c0,2.3,1.8,4.1,4.1,4.1h17.4c2.2,0,4.1-1.9,4.1-4.1V9.2C28.7,8.2,28.3,7.3,27.6,6.7z M13.7,29.9v-11h4.6v11H13.7z M26.8,27.9
	c0,1.2-0.9,2.2-2.1,2.2h-4.4V17.9c0-0.5-0.4-1-1-1h-6.6c-0.5,0-1,0.4-1,1V30H7.3c-1.2,0-2.1-1-2.1-2.2V9.3c0-0.2,0.1-0.9,0.7-1.4
	c0.4-0.3,7.1-4.5,9-5.4C15.6,2.1,16,2,16.2,2c0.2,0,0.4,0.1,0.6,0.2c2.1,1.2,8.9,5.5,9.4,6c0.5,0.4,0.5,0.9,0.5,1.1V27.9z"/>
</svg>
