<svg version="1.1" id="Слой_1" xmlns="http://www.w3.org/2000/svg" xmlns:xlink="http://www.w3.org/1999/xlink" x="0px" y="0px"
	 viewBox="0 0 32 32" style="enable-background:new 0 0 32 32;" xml:space="preserve">
<style type="text/css">
	.st0{fill:#9B9B9A;}
</style>
<g>
	<path class="st0" d="M24.8,0H7.2C4.9,0,3,1.9,3,4.2v23.5C3,30.1,4.9,32,7.2,32h17.6c2.3,0,4.2-1.9,4.2-4.2V4.2
		C29,1.9,27.1,0,24.8,0z M26.9,27.8c0,1.1-0.9,2.1-2.1,2.1H7.2c-1.1,0-2.1-0.9-2.1-2.1V4.2c0-1.1,0.9-2.1,2.1-2.1h17.6
		c1.1,0,2.1,0.9,2.1,2.1V27.8z"/>
	<path class="st0" d="M13.1,5.9h5.7c0.6,0,1.1-0.5,1.1-1.1s-0.5-1.1-1.1-1.1h-5.7c-0.6,0-1.1,0.5-1.1,1.1S12.5,5.9,13.1,5.9z"/>
	<path class="st0" d="M22.3,11.5H9.7c-0.6,0-1.1,0.5-1.1,1.1c0,0.6,0.5,1.1,1.1,1.1h12.5c0.6,0,1.1-0.5,1.1-1.1
		C23.3,12,22.8,11.5,22.3,11.5z"/>
	<path class="st0" d="M22.3,16.8H9.7c-0.6,0-1.1,0.5-1.1,1.1c0,0.6,0.5,1.1,1.1,1.1h12.5c0.6,0,1.1-0.5,1.1-1.1
		C23.3,17.3,22.8,16.8,22.3,16.8z"/>
	<path class="st0" d="M22.3,22.1H9.7c-0.6,0-1.1,0.5-1.1,1.1c0,0.6,0.5,1.1,1.1,1.1h12.5c0.6,0,1.1-0.5,1.1-1.1
		C23.3,22.5,22.8,22.1,22.3,22.1z"/>
</g>
</svg>
