<svg version="1.1" id="Capa_1" xmlns="http://www.w3.org/2000/svg" xmlns:xlink="http://www.w3.org/1999/xlink" x="0px" y="0px"
	 viewBox="0 0 32 32" style="enable-background:new 0 0 32 32;" xml:space="preserve">
<path d="M29.1,4.4H2.9C1.3,4.4,0,5.7,0,7.3v17.5c0,1.6,1.3,2.9,2.9,2.9h26.2c1.6,0,2.9-1.3,2.9-2.9V7.3C32,5.7,30.7,4.4,29.1,4.4z
	 M28.7,6.2L16,15.9L3.3,6.2H28.7z M29.1,25.8H2.9c-0.6,0-1.1-0.5-1.1-1.1V7.3l13.7,10.4c0.2,0.1,0.4,0.2,0.5,0.2s0.4-0.1,0.5-0.2
	L30.2,7.3v17.4C30.2,25.3,29.7,25.8,29.1,25.8z"/>
</svg>
