<svg version="1.1" id="Слой_1" xmlns="http://www.w3.org/2000/svg" xmlns:xlink="http://www.w3.org/1999/xlink" x="0px" y="0px"
	 viewBox="0 0 32 32" style="enable-background:new 0 0 32 32;" xml:space="preserve">
<style type="text/css">
	.st0{fill:#FFFFFF;}
</style>
<path class="st0" d="M32,7.8c0-0.4-0.2-0.7-0.6-0.9l-4.7-6.5C26.5,0.1,26.3,0,25.9,0H6.2C5.9,0,5.6,0.1,5.4,0.4L0.2,7.2
	C0,7.5-0.1,7.9,0.2,8.3L8.3,21c0,0,0,0.1,0,0.1c0,0,0,0,0.1,0.1L15,31.6c0.2,0.3,0.5,0.4,0.8,0.4c0.3,0,0.6-0.2,0.8-0.4L31.8,8.5
	C32,8.3,32,8.1,32,7.9C32,7.9,32,7.8,32,7.8z M14.5,9.2l-1.1-0.1c-1.5-0.2-2.3-0.9-2.2-1.6c0-0.7,1.2-1.8,4.3-1.8
	c5,0,5.8,2.2,5.8,2.3c0.1,0.4,0.5,0.7,0.9,0.7h7.3l-3.6,5.5C24.2,10.1,18.5,9.6,14.5,9.2z M6.9,15.3c1.6,0.4,4,0.6,7.4,0.4
	c1.7-0.1,2.9,0.2,3.2,1c0.2,0.5,0,1.1-0.5,1.5c-0.5,0.4-1.3,0.4-2.6,0.4c-1.4-0.1-3.2-0.1-5,0.7L6.9,15.3z M15.9,29.3l-5.3-8.3
	c1.3-0.6,2.6-0.5,3.8-0.5c1.4,0.1,2.8,0.1,3.9-0.8c1.1-1,1.6-2.4,1-3.7c-0.3-0.7-1.4-2.4-5.1-2.2c-6.5,0.5-8.8-1.1-9-1.2l-3-4.7
	l4.5-5.9h18.8L29,6.8h-6.3c-0.6-1.1-2.5-3-7.3-3c-4.4,0-6.1,1.9-6.2,3.6c-0.1,1.6,1.3,3.3,4,3.6l1.2,0.1c5.2,0.5,9.9,1.3,9.9,5.4
	c0,0,0,0,0,0.1L15.9,29.3z"/>
</svg>
