
<svg version="1.1" id="Слой_1" xmlns="http://www.w3.org/2000/svg" xmlns:xlink="http://www.w3.org/1999/xlink" x="0px" y="0px"
	 viewBox="0 0 32 32" style="enable-background:new 0 0 32 32;" xml:space="preserve">
<style type="text/css">
	.st0{fill:#999999;}
</style>
<path class="st0" d="M31.6,14.4l-14.9-13c0,0-0.1-0.1-0.1-0.1h0c-0.4-0.4-1-0.4-1.5,0l-14.9,13C0.1,14.5,0,14.8,0,15.1
	c0,0.3,0.1,0.6,0.3,0.8c0.4,0.4,1.1,0.5,1.5,0.1l2.3-2v14.7c0,1.3,1.1,2.4,2.4,2.4h4.7c1.3,0,2.3-1,2.3-2.2V21c0-0.1,0-0.1,0.1-0.1
	h4.7c0.1,0,0.1,0,0.1,0.1v7.7c0,1.2,1,2.2,2.3,2.2h4.7c1.4,0,2.4-1.3,2.4-2.9V14l2.3,2c0.4,0.4,1.1,0.3,1.5-0.1
	C32.1,15.5,32.1,14.8,31.6,14.4z M18.4,18.8h-4.7c-1.3,0-2.3,1-2.3,2.2v7.7c0,0.1,0,0.1-0.1,0.1H6.6c-0.1,0-0.2-0.1-0.2-0.2V12
	L16,3.5l9.7,8.5v16c0,0.5-0.2,0.8-0.2,0.8h-4.7c-0.1,0-0.1,0-0.1-0.1V21C20.6,19.8,19.6,18.8,18.4,18.8z"/>
</svg>
