<svg version="1.1" id="Слой_1" xmlns="http://www.w3.org/2000/svg" xmlns:xlink="http://www.w3.org/1999/xlink" x="0px" y="0px"
	 viewBox="0 0 32 32" style="enable-background:new 0 0 32 32;" xml:space="preserve">
<style type="text/css">
	.st0{fill:#CC6699;}
</style>
<g>
	<path class="st0" d="M16,0C7.2,0,0,7.2,0,16c0,8.8,7.2,16,16,16c8.8,0,16-7.2,16-16C32,7.2,24.8,0,16,0z M16,29.9
		C8.3,29.9,2.1,23.7,2.1,16C2.1,8.3,8.3,2.1,16,2.1c7.7,0,13.9,6.2,13.9,13.9C29.9,23.7,23.7,29.9,16,29.9z"/>
	<path class="st0" d="M18.2,7.7c-1,0-1.8,0.8-1.8,1.8c0,1,0.8,1.8,1.8,1.8c1,0,1.8-0.8,1.8-1.8C20,8.5,19.2,7.7,18.2,7.7z"/>
	<path class="st0" d="M13,20.3c-0.3,0.7-0.3,1.8,1.3,3c0.2,0.2,0.4,0.2,0.7,0.2c0.3,0,0.6-0.1,0.8-0.4c0.4-0.4,0.3-1.1-0.1-1.5
		C15,21.3,14.9,21,15,21c0.5-1.4,2.6-6.6,2.6-6.6l-1.9-0.8C15.6,13.7,13.5,18.9,13,20.3z"/>
</g>
</svg>
