<svg version="1.1" id="Слой_1" xmlns="http://www.w3.org/2000/svg" xmlns:xlink="http://www.w3.org/1999/xlink" x="0px" y="0px"
	 viewBox="0 0 32 32" style="enable-background:new 0 0 32 32;" xml:space="preserve">
<style type="text/css">
	.st0{fill:#CC6699;}
</style>
<path class="st0" d="M25.8,0H6.2C4.6,0,3,0.7,1.8,1.8C0.7,3,0,4.6,0,6.2v19.6c0,0.8,0.2,1.6,0.5,2.4c0.3,0.8,0.8,1.4,1.3,2
	c0.6,0.6,1.3,1,2,1.3C4.6,31.8,5.4,32,6.2,32h19.6c0.8,0,1.6-0.2,2.4-0.5c0.8-0.3,1.4-0.8,2-1.3c0.6-0.6,1-1.3,1.3-2
	c0.3-0.8,0.5-1.6,0.5-2.4V6.2c0-0.8-0.2-1.6-0.5-2.4c-0.3-0.8-0.8-1.4-1.3-2c-0.6-0.6-1.3-1-2-1.3C27.4,0.2,26.6,0,25.8,0L25.8,0z
	 M27.6,3.7h0.7v5.4h-5.4V3.7H27.6z M11.4,12.7c0.8-1.1,1.9-1.9,3.2-2.2c1.3-0.3,2.7-0.2,3.9,0.5c1.2,0.6,2.1,1.6,2.6,2.9
	c0.5,1.2,0.6,2.6,0.2,3.9c-0.4,1.3-1.3,2.4-2.4,3.1c-1.1,0.7-2.5,1-3.8,0.8c-1.3-0.2-2.5-0.9-3.4-1.9c-0.9-1-1.3-2.3-1.3-3.7
	C10.4,14.8,10.7,13.7,11.4,12.7L11.4,12.7z M28.9,25.8c0,0.4-0.1,0.8-0.2,1.2c-0.2,0.4-0.4,0.7-0.7,1c-0.3,0.3-0.6,0.5-1,0.7
	c-0.4,0.2-0.8,0.2-1.2,0.2H6.2c-0.4,0-0.8-0.1-1.2-0.2c-0.4-0.2-0.7-0.4-1-0.7c-0.3-0.3-0.5-0.6-0.7-1c-0.2-0.4-0.2-0.8-0.2-1.2
	V12.7h4.8c-0.5,1.3-0.7,2.8-0.6,4.2c0.1,1.4,0.6,2.8,1.4,4c0.8,1.2,1.9,2.2,3.1,2.8s2.7,1,4.1,1c1.4,0,2.8-0.4,4.1-1
	c1.3-0.7,2.3-1.6,3.1-2.8c0.8-1.2,1.3-2.6,1.4-4c0.1-1.4-0.1-2.9-0.6-4.2h4.8V25.8z"/>
</svg>
