<svg version="1.1" id="Слой_1" xmlns="http://www.w3.org/2000/svg" xmlns:xlink="http://www.w3.org/1999/xlink" x="0px" y="0px"
	 viewBox="0 0 32 32" style="enable-background:new 0 0 32 32;" xml:space="preserve">
<style type="text/css">
	.st0{fill:#9B9B9A;}
</style>
<path class="st0" d="M28.9,3.6c0,0,0-0.1,0-0.1c0,0,0-0.1,0-0.1C28.6,1.5,26.9,0,25,0H7.3C4.4,0,3,2.3,3,3.9v0c0,0.1,0,0.2,0,0.3
	v23.5C3,30.1,4.9,32,7.2,32h17.6c2.3,0,4.2-1.9,4.2-4.2V4.2C29,4,29,3.8,28.9,3.6z M26.8,4c0,1.4,0,4.3,0,4.3l0,0.6
	c0,1.3-1,2.3-2.3,2.3c-1.3,0-2.3-1-2.3-2.3c0-0.6-0.5-1.1-1.1-1.1h-2c-0.6,0-1.1,0.5-1.1,1.1c0,1.3-1,2.3-2.3,2.3s-2.3-1-2.3-2.3
	c0-0.6-0.5-1.1-1.1-1.1h-1.6c-0.6,0-1.1,0.5-1.1,1.1c0,1.3-1,2.3-2.3,2.3s-2.3-1-2.3-2.3V4.1c0.1-1.1,1-1.9,2-1.9h17.6
	c1,0,1.8,0.7,2,1.6C26.8,3.8,26.8,3.9,26.8,4z M5.1,12.7c0.7,0.4,1.5,0.7,2.3,0.7c1.9,0,3.6-1.3,4.2-3c0.6,1.8,2.2,3,4.2,3
	c2.1,0,3.8-1.4,4.3-3.4h0.2c0.5,1.9,2.2,3.4,4.3,3.4c0.8,0,1.6-0.2,2.3-0.7v7.7H5.1V12.7z M24.8,29.8H7.2c-1.1,0-2.1-0.9-2.1-2.1
	v-5.2h21.8v5.2C26.9,28.9,25.9,29.8,24.8,29.8z"/>
</svg>
