<svg version="1.1" id="Слой_1" xmlns="http://www.w3.org/2000/svg" xmlns:xlink="http://www.w3.org/1999/xlink" x="0px" y="0px"
	 viewBox="0 0 32 32" style="enable-background:new 0 0 32 32;" xml:space="preserve">
<style type="text/css">
	.st0{fill:#CC6699;}
</style>
<g>
	<path class="st0" d="M19.5,0c-2,0-3.7,1.7-3.7,3.7c0,2,1.7,3.7,3.7,3.7c2,0,3.7-1.7,3.7-3.7C23.2,1.7,21.5,0,19.5,0z"/>
	<path class="st0" d="M14.2,12c0,0-4.1,10.5-5.2,13.4c-0.5,1.4-0.5,3.6,2.5,6.1c0.4,0.3,0.9,0.5,1.3,0.5c0.6,0,1.2-0.3,1.6-0.7
		c0.7-0.9,0.6-2.2-0.3-2.9c-1.2-1-1.3-1.5-1.3-1.5c1.1-2.9,5.2-13.3,5.2-13.3L14.2,12z"/>
</g>
</svg>
