<svg width="30" height="28" viewBox="0 0 30 28" fill="none" xmlns="http://www.w3.org/2000/svg">
<path fill-rule="evenodd" clip-rule="evenodd" d="M23.0588 7.59311C24.5916 9.34676 25.5 11.5955 25.5 14C25.5 19.3917 20.9325 24 15 24C9.06755 24 4.5 19.3917 4.5 14C4.5 8.6083 9.06755 4 15 4C15.629 4 16.2426 4.0518 16.8371 4.15085L17.5704 0.219297C16.7362 0.0752035 15.8772 0 15 0C6.99187 0 0.5 6.26801 0.5 14C0.5 21.732 6.99187 28 15 28C23.0081 28 29.5 21.732 29.5 14C29.5 10.62 28.2594 7.51976 26.1939 5.1006L23.0588 7.59311Z" fill="white"/>
</svg>
