<svg version="1.1" id="Capa_1" xmlns="http://www.w3.org/2000/svg" xmlns:xlink="http://www.w3.org/1999/xlink" x="0px" y="0px"
	 viewBox="0 0 32 32" style="enable-background:new 0 0 32 32;" xml:space="preserve">
<g>
	<path d="M31.7,30.4l-7.8-7.8c2.1-2.4,3.3-5.5,3.3-8.9C27.3,6.1,21.2,0,13.6,0C6.1,0,0,6.1,0,13.6s6.1,13.6,13.6,13.6
		c3.4,0,6.6-1.3,8.9-3.3l7.8,7.8c0.2,0.2,0.4,0.3,0.7,0.3s0.5-0.1,0.7-0.3C32.1,31.3,32.1,30.7,31.7,30.4z M1.9,13.6
		c0-6.5,5.3-11.7,11.7-11.7c6.5,0,11.7,5.3,11.7,11.7S20,25.3,13.6,25.3C7.2,25.4,1.9,20.1,1.9,13.6z"/>
</g>
<g>
	<path d="M13.7,5.2c-0.4,0-0.8,0.3-0.8,0.8v6.9h-7c-0.4,0-0.8,0.3-0.8,0.8c0,0.4,0.3,0.8,0.8,0.8h7v6.9c0,0.4,0.3,0.8,0.8,0.8
		c0.2,0,0.4-0.1,0.5-0.2c0.1-0.1,0.2-0.3,0.2-0.5v-7.1h7c0.2,0,0.4-0.1,0.5-0.2c0.1-0.1,0.2-0.3,0.2-0.5c0-0.4-0.3-0.8-0.8-0.8h-6.9
		V6.2C14.4,5.4,14.1,5.2,13.7,5.2z"/>
</g>
</svg>
