<svg width="16" height="16" viewBox="0 0 16 16" fill="none" xmlns="http://www.w3.org/2000/svg">
<path d="M8.00479 15.2095C11.9837 15.2095 15.2093 11.984 15.2093 8.00504C15.2093 4.0261 11.9837 0.800537 8.00479 0.800537C4.02586 0.800537 0.800293 4.0261 0.800293 8.00504C0.800293 11.984 4.02586 15.2095 8.00479 15.2095Z"  stroke-miterlimit="10" stroke-linecap="round" stroke-linejoin="round"/>
<path d="M9.06332 5.778C9.5543 5.778 9.95232 5.37998 9.95232 4.889C9.95232 4.39802 9.5543 4 9.06332 4C8.57234 4 8.17432 4.39802 8.17432 4.889C8.17432 5.37998 8.57234 5.778 9.06332 5.778Z" />
<path d="M8.27141 7.06006C8.27141 7.06006 7.28741 9.57206 7.02891 10.2626C6.91159 10.5756 7.16882 10.9034 7.48536 11.1685" stroke-miterlimit="10" stroke-linecap="round" stroke-linejoin="round"/>
</svg>
