<svg version="1.1" id="Layer_1" xmlns="http://www.w3.org/2000/svg" xmlns:xlink="http://www.w3.org/1999/xlink" x="0px" y="0px"
	 viewBox="0 0 32 32" style="enable-background:new 0 0 32 32;" xml:space="preserve">
<g>
	<path fill-rule="evenodd" clip-rule="evenodd" d="M29.5,0.3c-0.5-0.5-1.2-0.4-1.7,0.1L2.2,29.9c-0.4,0.5-0.4,1.3,0.1,1.8c0.5,0.5,1.2,0.4,1.7-0.1L29.5,2.1
		C30,1.6,30,0.8,29.5,0.3z"/>
	<path fill-rule="evenodd" clip-rule="evenodd" d="M6.8,11.2c2.8,0.8,5.7-1,6.4-4c0.7-3-0.9-6.1-3.7-6.9c-2.8-0.8-5.7,1-6.4,4S4,10.4,6.8,11.2z M5.3,4.9
		c0.4-1.7,2-2.7,3.6-2.2s2.5,2.1,2.1,3.8c-0.4,1.7-2,2.7-3.6,2.2S4.9,6.6,5.3,4.9z"/>
	<path fill-rule="evenodd" clip-rule="evenodd" d="M26.2,20.7c-2.8-0.8-5.7,1-6.4,4c-0.7,3,0.9,6.1,3.7,6.9c2.8,0.8,5.7-1,6.4-4C30.7,24.6,29,21.5,26.2,20.7z
		 M27.7,26.9c-0.4,1.7-2,2.7-3.6,2.2c-1.6-0.4-2.5-2.1-2.1-3.8c0.4-1.7,2-2.7,3.6-2.2C27.2,23.6,28.1,25.3,27.7,26.9z"/>
</g>
</svg>
