<svg version="1.1" id="Capa_1" xmlns="http://www.w3.org/2000/svg" xmlns:xlink="http://www.w3.org/1999/xlink" x="0px" y="0px"
	 viewBox="0 0 32 32" style="enable-background:new 0 0 32 32;" xml:space="preserve">
<g>
	<g>
		<path d="M25.3,19.8c-0.7-0.7-1.4-1-2.3-1c-0.8,0-1.6,0.4-2.3,1l-2.1,2.1c-0.2-0.1-0.4-0.2-0.5-0.3c-0.2-0.1-0.5-0.2-0.7-0.4
			c-2-1.3-3.8-2.9-5.6-5.1c-0.8-1.1-1.4-2-1.8-2.9c0.6-0.5,1.1-1,1.6-1.5c0.2-0.2,0.4-0.4,0.6-0.6c1.4-1.4,1.4-3.3,0-4.7l-1.8-1.8
			c-0.2-0.2-0.4-0.4-0.6-0.6C9.2,3.7,8.8,3.2,8.4,2.8c-0.7-0.6-1.4-1-2.3-1s-1.6,0.3-2.3,1c0,0,0,0,0,0L1.5,5.2C0.6,6,0.1,7.1,0,8.3
			c-0.2,2,0.4,3.8,0.9,5c1.1,3,2.7,5.7,5.2,8.6c3,3.5,6.5,6.3,10.6,8.3c1.6,0.7,3.6,1.6,6,1.8c0.1,0,0.3,0,0.4,0
			c1.6,0,2.9-0.6,3.9-1.7c0,0,0,0,0,0c0.4-0.4,0.8-0.8,1.2-1.2c0.3-0.3,0.6-0.6,0.9-0.9c0.7-0.7,1-1.5,1-2.3c0-0.8-0.4-1.6-1-2.3
			L25.3,19.8z M27.7,26.9C27.7,26.9,27.7,26.9,27.7,26.9c-0.3,0.3-0.5,0.5-0.8,0.8c-0.4,0.4-0.9,0.9-1.3,1.4
			c-0.7,0.7-1.5,1.1-2.5,1.1c-0.1,0-0.2,0-0.3,0c-2-0.1-3.9-0.9-5.3-1.6c-3.8-1.9-7.2-4.5-10-7.8c-2.3-2.8-3.8-5.3-4.9-8.1
			C2,11,1.8,9.7,1.9,8.5c0.1-0.8,0.4-1.4,0.9-2l2.3-2.3c0.3-0.3,0.7-0.5,1-0.5c0.4,0,0.8,0.3,1,0.5c0,0,0,0,0,0
			C7.5,4.6,7.9,5,8.3,5.4C8.6,5.6,8.8,5.8,9,6l1.8,1.8c0.7,0.7,0.7,1.4,0,2.1c-0.2,0.2-0.4,0.4-0.6,0.6c-0.6,0.6-1.1,1.1-1.7,1.6
			c0,0,0,0,0,0c-0.6,0.6-0.5,1.1-0.4,1.5c0,0,0,0,0,0.1c0.5,1.2,1.2,2.3,2.2,3.6l0,0c1.9,2.3,3.8,4.1,6,5.5c0.3,0.2,0.6,0.3,0.8,0.5
			c0.2,0.1,0.5,0.2,0.7,0.4c0,0,0.1,0,0.1,0c0.2,0.1,0.4,0.2,0.7,0.2c0.6,0,0.9-0.4,1-0.5l2.3-2.3c0.2-0.2,0.6-0.5,1-0.5
			c0.4,0,0.8,0.3,1,0.5c0,0,0,0,0,0l3.7,3.7C28.4,25.5,28.4,26.2,27.7,26.9z"/>
		<path d="M17.3,7.6c1.8,0.3,3.4,1.1,4.7,2.4s2.1,2.9,2.4,4.7c0.1,0.4,0.5,0.8,0.9,0.8c0.1,0,0.1,0,0.2,0c0.5-0.1,0.8-0.6,0.8-1.1
			c-0.4-2.1-1.4-4.1-2.9-5.6s-3.5-2.6-5.6-2.9c-0.5-0.1-1,0.2-1.1,0.7C16.5,7.1,16.8,7.5,17.3,7.6z"/>
		<path d="M32,14.1c-0.6-3.5-2.3-6.7-4.8-9.3S21.4,0.6,17.9,0c-0.5-0.1-1,0.2-1,0.7c-0.1,0.5,0.3,1,0.8,1.1c3.2,0.5,6,2,8.3,4.3
			c2.3,2.3,3.8,5.2,4.3,8.3c0.1,0.4,0.5,0.8,0.9,0.8c0.1,0,0.1,0,0.2,0C31.7,15.1,32.1,14.6,32,14.1z"/>
	</g>
</g>
</svg>
