<svg version="1.1" id="Слой_1" xmlns="http://www.w3.org/2000/svg" xmlns:xlink="http://www.w3.org/1999/xlink" x="0px" y="0px"
	 viewBox="0 0 32 32" style="enable-background:new 0 0 32 32;" xml:space="preserve">
<style type="text/css">
	.st0{fill:#9B9B9A;}
</style>
<g>
	<path class="st0" d="M29,13.5V4.2C29,1.9,27.1,0,24.8,0H7.2C4.9,0,3,1.9,3,4.2v9.2c0,2.3,1.9,4.2,4.2,4.2h7.2l-11,12.4
		c-0.4,0.4-0.4,1.1,0.1,1.5C3.6,31.9,3.9,32,4.1,32c0.3,0,0.6-0.1,0.8-0.4l10-11.3v10.7c0,0.6,0.5,1.1,1.1,1.1
		c0.6,0,1.1-0.5,1.1-1.1V20.6l9.8,11c0.2,0.2,0.5,0.4,0.8,0.4c0.3,0,0.5-0.1,0.7-0.3c0.4-0.4,0.5-1.1,0.1-1.5l-11-12.5h7.4
		C27.1,17.7,29,15.8,29,13.5z M5.1,13.5V4.2c0-1.2,0.9-2.1,2.1-2.1h17.6c1.1,0,2.1,0.9,2.1,2.1v9.2c0,1.2-0.9,2.1-2.1,2.1H7.2
		C6,15.6,5.1,14.6,5.1,13.5z"/>
	<path class="st0" d="M9.8,4.6H7.7c-0.6,0-1.1,0.5-1.1,1.1s0.5,1.1,1.1,1.1h2.1c0.6,0,1.1-0.5,1.1-1.1S10.3,4.6,9.8,4.6z"/>
	<path class="st0" d="M16.1,5.4c-2.2,0-4,1.8-4,4c0,2.2,1.8,4,4,4c2.2,0,4-1.8,4-4c0-1.1-0.4-2.1-1.2-2.8
		C18.1,5.8,17.1,5.4,16.1,5.4z M16.1,11.2c-1,0-1.8-0.8-1.8-1.9c0-1,0.8-1.9,1.8-1.9c0,0,0,0,0,0c0.5,0,0.9,0.2,1.3,0.5
		c0.3,0.4,0.5,0.8,0.5,1.3C17.9,10.4,17.1,11.2,16.1,11.2z"/>
</g>
</svg>
