<svg version="1.1" id="Capa_1" xmlns="http://www.w3.org/2000/svg" xmlns:xlink="http://www.w3.org/1999/xlink" x="0px" y="0px"
	 viewBox="0 0 32 32" style="enable-background:new 0 0 32 32;" xml:space="preserve">
<g>
	<g>
		<path d="M16,0C8.8,0,3,5.8,3,12.8c0,0.8,0.1,1.6,0.2,2.4c0,0,0,0.2,0.1,0.4c0.2,0.9,0.5,1.7,0.9,2.5c1.4,3.3,4.5,8.3,11.2,13.6
			c0.2,0.1,0.4,0.2,0.6,0.2c0.2,0,0.4-0.1,0.6-0.2c6.7-5.4,9.8-10.4,11.2-13.6c0.4-0.8,0.7-1.7,0.9-2.5c0.1-0.2,0.1-0.4,0.1-0.4
			c0.1-0.8,0.2-1.6,0.2-2.4C29,5.8,23.2,0,16,0z M26.9,14.9C26.9,14.9,26.9,14.9,26.9,14.9c0,0.1,0,0.2-0.1,0.3c0,0,0,0,0,0
			c-0.2,0.8-0.4,1.5-0.8,2.2c0,0,0,0,0,0c-1.3,3-4.1,7.5-10.1,12.5C9.9,25,7.1,20.4,5.9,17.5c0,0,0,0,0,0c-0.3-0.7-0.6-1.4-0.8-2.2
			c0,0,0,0,0,0C5.1,15.1,5.1,15,5,15c0,0,0,0,0,0c-0.1-0.7-0.2-1.4-0.2-2.1c0-6.1,5-11,11.2-11s11.2,4.9,11.2,11
			C27.2,13.5,27.1,14.2,26.9,14.9z"/>
		<path d="M16,4.8c-4.5,0-8.2,3.7-8.2,8.1s3.7,8.1,8.2,8.1s8.2-3.7,8.2-8.1S20.5,4.8,16,4.8z M16,19.3c-3.5,0-6.4-2.8-6.4-6.3
			s2.9-6.3,6.4-6.3s6.4,2.8,6.4,6.3S19.5,19.3,16,19.3z"/>
	</g>
</g>
</svg>
