<svg version="1.1" id="Слой_1" xmlns="http://www.w3.org/2000/svg" xmlns:xlink="http://www.w3.org/1999/xlink" x="0px" y="0px"
	 viewBox="0 0 16 16" style="enable-background:new 0 0 16 16;" xml:space="preserve">
<g>
	<path d="M8.1,0C7.7,0,7.3,0.3,7.3,0.7v6.5H0.8C0.4,7.3,0,7.5,0,8c0,0.4,0.3,0.7,0.8,0.7h6.6v6.5c0,0.4,0.3,0.7,0.8,0.7
		c0.2,0,0.4-0.1,0.5-0.2c0.1-0.1,0.2-0.3,0.2-0.5V8.7h6.6c0.2,0,0.4-0.1,0.5-0.2C15.9,8.4,16,8.2,16,8c0-0.4-0.3-0.7-0.8-0.7H8.8
		V0.9C8.8,0.2,8.4,0,8.1,0z"/>
</g>
</svg>
