<svg version="1.1" id="Слой_1" xmlns="http://www.w3.org/2000/svg" xmlns:xlink="http://www.w3.org/1999/xlink" x="0px" y="0px"
	 viewBox="0 0 32 32" style="enable-background:new 0 0 32 32;" xml:space="preserve">
<style type="text/css">
	.st0{fill:#E71F75;}
</style>
<path class="st0" d="M27.5,8.7c0-1.1-0.8-1.9-1.9-1.9h-0.1l-6.4,1.7C19.3,8.3,19.7,8,20,7.7c1.1-0.9,1.6-2.3,1.6-3.3
	c-0.1-0.9-0.5-1.7-1.3-2.1c-0.8-0.5-1.9-0.5-2.8-0.1c-0.5,0.3-0.9,0.7-1.3,1.2c-0.3-0.5-0.8-0.9-1.3-1.2c-0.9-0.4-2-0.4-2.8,0.1
	c-0.8,0.5-1.3,1.3-1.3,2.1c-0.1,1.2,0.4,2.4,1.5,3.5c0.3,0.3,0.5,0.5,0.9,0.8L6.5,6.9H6.4C5.3,6.8,4.5,7.7,4.5,8.7v16.8
	c0,0.9,0.8,1.9,1.7,1.9l9.6,2.7H16c0.1,0,0.3,0,0.4-0.1l9.5-2.5c0.9,0,1.7-0.9,1.7-1.9L27.5,8.7z M16.8,5.6c0-0.9,0.5-1.7,1.2-2
	c0.1-0.1,0.4-0.1,0.7-0.1s0.4,0,0.7,0.3C19.7,3.9,20,4.1,20,4.7c0,0.7-0.4,1.5-1.1,2.1c-0.7,0.7-1.6,1.3-2.3,1.7
	C16.7,7.7,16.7,6.7,16.8,5.6z M12,4.7c0-0.4,0.3-0.8,0.7-1.1c0.3-0.1,0.4-0.3,0.7-0.3c0.3,0,0.5,0.1,0.7,0.1c0.7,0.4,1.2,1.2,1.2,2
	c0,1.1,0,2.1,0,2.9c-0.5-0.3-1.3-0.9-2.1-1.6C12.4,6.1,12,5.3,12,4.7z M15.3,28.4L6.5,26H6.4C6.1,26,6,25.9,6,25.6V8.7
	c0-0.3,0.1-0.4,0.3-0.4l8.4,2.3c0.7,0.3,0.7,0.4,0.7,0.5V28.4z M25.6,26h-0.1l-8.8,2.4V11.1c0-0.1,0-0.3,0.5-0.4l8.4-2.3
	c0.1,0,0.3,0.3,0.3,0.4v16.8C26,25.9,25.9,26,25.6,26z"/>
<path class="st0" d="M23.5,13.6l-4.4,1.2c-0.4,0.1-0.7,0.5-0.5,0.9c0.1,0.3,0.4,0.5,0.7,0.5h0.1l4.4-1.2c0.4-0.1,0.7-0.5,0.5-0.9
	C24.3,13.7,23.9,13.5,23.5,13.6z"/>
<path class="st0" d="M23.5,17.3l-4.5,1.3c-0.4,0.1-0.7,0.5-0.5,0.9c0.1,0.3,0.4,0.5,0.7,0.5h0.1l4.4-1.2c0.4-0.1,0.7-0.5,0.5-0.9
	C24.3,17.5,23.9,17.3,23.5,17.3z"/>
</svg>
