<svg version="1.1" xmlns="http://www.w3.org/2000/svg" xmlns:xlink="http://www.w3.org/1999/xlink" x="0px" y="0px"
	 width="32px" height="32px" viewBox="0 0 32 32" enable-background="new 0 0 32 32" xml:space="preserve">
  <rect x="6" y="6" fill="none" width="20" height="20"/>
  <g>
    <path fill="#666666" d="M16,12.169c-5.519,0-9.992,4.01-9.992,8.957c0,4.946,3.305,4.833,9.992,4.833
      c6.562,0,9.993,0.113,9.993-4.833C25.993,16.179,21.519,12.169,16,12.169z"/>
    <path fill="#666666" d="M16.032,10.428c3.067,0,4.474-2.384,4.474-2.384c0.106-0.196,0.185-0.41,0.185-0.651
      c0-0.746-0.586-1.351-1.309-1.351c-0.722,0-1.307,0.604-1.307,1.351c0,0.06,0.024,0.11,0.033,0.169
      c-0.479,0.305-1.205,0.536-2.076,0.536c-0.87,0-1.593-0.23-2.071-0.533c0.008-0.059,0.033-0.11,0.033-0.172
      c0-0.746-0.586-1.351-1.309-1.351c-0.721,0-1.307,0.604-1.307,1.351c0,0.239,0.076,0.453,0.182,0.648
      C11.561,8.041,12.959,10.428,16.032,10.428z"/>
  </g>
</svg>
