<svg version="1.1" id="Слой_1" xmlns="http://www.w3.org/2000/svg" xmlns:xlink="http://www.w3.org/1999/xlink" x="0px" y="0px"
	 viewBox="0 0 32 32" style="enable-background:new 0 0 32 32;" xml:space="preserve">
<style type="text/css">
	.st0{fill:#FFFFFF;}
</style>
<g>
	<path class="st0" d="M10.5,21.4c0.5,0.1,1.1-0.2,1.2-0.7c0.1-0.6,0.3-1.1,0.6-1.4c0.3-0.4,0.7-0.7,1.2-0.9c1.2-0.5,3.5-0.5,4.7,0
		c0.5,0.2,0.9,0.5,1.2,0.9c0.3,0.4,0.5,0.8,0.6,1.4c0.1,0.5,0.5,0.8,1,0.8c0.1,0,0.1,0,0.2,0c0.5-0.1,0.9-0.6,0.7-1.2
		c-0.2-0.9-0.5-1.6-1-2.2c-0.5-0.7-1.2-1.2-2-1.5c-0.2-0.1-0.5-0.2-0.8-0.2c1-0.7,1.7-1.9,1.7-3.2c0-2.2-1.8-3.9-3.9-3.9
		c-2.2,0-4,1.8-4,3.9c0,1.3,0.7,2.5,1.7,3.2c-0.3,0.1-0.6,0.1-0.8,0.2c-0.8,0.3-1.5,0.9-2.1,1.5c-0.4,0.6-0.8,1.3-1,2.2
		C9.7,20.7,10,21.3,10.5,21.4z M15.9,11.1c1.1,0,2,0.9,2,2s-0.9,2-2,2c-1.1,0-2-0.9-2-2S14.8,11.1,15.9,11.1z"/>
	<path class="st0" d="M24.1,3h-5.2c0-1.7-1.4-3-3-3c-1.6,0-3,1.4-3,3H7.9C5.7,3,4,4.8,4,6.9v21.3C4,30.3,5.7,32,7.9,32h16.3
		c2.1,0,3.9-1.7,3.9-3.8V6.9C28,4.8,26.3,3,24.1,3z M15.9,2c0.6,0,1,0.5,1,1.1h-2.1C14.9,2.4,15.4,2,15.9,2z M26,28.2
		c0,1-0.8,1.9-1.9,1.9H7.9c-1,0-1.9-0.8-1.9-1.9V6.9C6,5.8,6.8,5,7.9,5h16.3c1,0,1.9,0.8,1.9,1.9V28.2z"/>
	<path class="st0" d="M21.5,24.5H10.6c-0.5,0-1,0.4-1,1s0.4,1,1,1h10.9c0.5,0,1-0.4,1-1S22,24.5,21.5,24.5z"/>
</g>
</svg>
