<svg version="1.1" id="Слой_1" xmlns="http://www.w3.org/2000/svg" xmlns:xlink="http://www.w3.org/1999/xlink" x="0px" y="0px"
	 width="32px" height="32px" viewBox="0 0 32 32" enable-background="new 0 0 32 32" xml:space="preserve">
<g>
	<g>
		<path fill="#666666" d="M16.001,5.792c-5.641,0-10.21,4.568-10.21,10.207c0,5.64,4.569,10.209,10.21,10.209
			c5.638,0,10.208-4.569,10.208-10.209C26.209,10.36,21.639,5.792,16.001,5.792z M21.496,15.707l-5.452,2.361
			c-0.094,0.041-0.188,0.062-0.283,0.062c-0.141,0-0.274-0.039-0.396-0.114c-0.201-0.134-0.324-0.357-0.324-0.601v-6.906
			c0-0.398,0.32-0.717,0.72-0.717c0.394,0,0.714,0.317,0.714,0.717v5.813l4.451-1.932c0.365-0.155,0.785,0.01,0.943,0.371
			C22.025,15.128,21.861,15.549,21.496,15.707z"/>
	</g>
</g>
</svg>
