<svg version="1.1" id="Слой_1" xmlns="http://www.w3.org/2000/svg" xmlns:xlink="http://www.w3.org/1999/xlink" x="0px" y="0px"
	 viewBox="0 0 32 32" style="enable-background:new 0 0 32 32;" xml:space="preserve">
<style type="text/css">
	.st0{fill:#CC6699;}
</style>
<path class="st0" d="M32,6.8c-1.2,0.5-2.5,0.8-3.8,1c1.4-0.8,2.4-1.9,2.9-3.3c-1.3,0.7-2.7,1.2-4.2,1.5C26,5,24.9,4.4,23.6,4.1
	C22.3,3.9,21,4,19.7,4.4c-1.2,0.4-2.3,1.2-3,2.2c-0.7,1-1.1,2.2-1.1,3.4c0,0.5,0.1,0.9,0.2,1.4c-2.6-0.1-5.2-0.7-7.5-1.8
	C5.9,8.5,3.9,7,2.2,5.1C1.4,6.4,1.1,8,1.5,9.5c0.4,1.5,1.4,2.8,2.8,3.7c-1,0-2.1-0.3-3-0.8v0.1c0,1.4,0.5,2.8,1.5,3.8
	c1,1.1,2.3,1.8,3.8,2.1c-0.6,0.1-1.1,0.2-1.7,0.2c-0.4,0-0.8,0-1.3-0.1c0.4,1.2,1.2,2.3,2.3,3s2.4,1.2,3.8,1.2
	c-2.7,2-6.2,2.9-9.7,2.5C3,27.1,6.5,28,10.1,28c12.1,0,18.7-9.2,18.7-17.2c0-0.3,0-0.5,0-0.8C30,9.1,31.1,8,32,6.8z"/>
</svg>
