<?xml version="1.0" encoding="utf-8"?>
<!-- Generator: Adobe Illustrator 24.0.1, SVG Export Plug-In . SVG Version: 6.00 Build 0)  -->
<svg version="1.1" id="Capa_1" xmlns="http://www.w3.org/2000/svg" xmlns:xlink="http://www.w3.org/1999/xlink" x="0px" y="0px"
	 viewBox="0 0 32 32" style="enable-background:new 0 0 32 32;" xml:space="preserve">
<g>
	<path d="M30.7,21.6c-1-1.1-2.1-2.1-3.1-3.2c-1-0.9-1-1.5-0.2-2.6c0.8-1.2,1.7-2.3,2.6-3.5c0.8-1.1,1.6-2.2,2-3.5
		c0.3-0.8,0-1.2-0.8-1.3c-0.1,0-0.3,0-0.4,0l-5.1,0c-0.6,0-1,0.3-1.2,0.8c-0.3,0.7-0.6,1.5-1,2.2c-0.8,1.6-1.7,3.2-3,4.6
		c-0.3,0.3-0.6,0.7-1.1,0.5c-0.6-0.2-0.8-1.2-0.7-1.5l0-5.9c-0.1-0.8-0.3-1.2-1.1-1.4l-5.3,0c-0.7,0-1.1,0.3-1.4,0.7
		c-0.2,0.3-0.3,0.4,0.2,0.5c0.9,0.2,1.4,0.7,1.5,1.6c0.2,1.4,0.2,2.8,0.1,4.2c0,0.4-0.1,0.8-0.3,1.2c-0.3,0.6-0.7,0.7-1.2,0.4
		c-0.5-0.3-0.8-0.8-1.2-1.3c-1.3-1.8-2.3-3.7-3.1-5.7C6.6,7.9,6.2,7.6,5.5,7.6c-1.5,0-3,0-4.6,0C0.1,7.6-0.2,8,0.2,8.9
		c1.7,3.7,3.5,7.3,5.9,10.5c1.2,1.7,2.7,3.2,4.5,4.2c2.1,1.2,4.3,1.5,6.7,1.4c1.1-0.1,1.4-0.3,1.5-1.4c0-0.8,0.1-1.5,0.5-2.2
		c0.4-0.7,0.9-0.8,1.6-0.4c0.3,0.2,0.6,0.5,0.8,0.7c0.6,0.7,1.2,1.4,1.9,2c0.8,0.8,1.8,1.3,3,1.2l4.7,0c0.8,0,1.1-1,0.7-1.8
		C31.5,22.6,31.1,22.1,30.7,21.6z"/>
</g>
</svg>
