<svg version="1.1" id="Слой_1" xmlns="http://www.w3.org/2000/svg" xmlns:xlink="http://www.w3.org/1999/xlink" x="0px" y="0px"
	 viewBox="0 0 32 32" style="enable-background:new 0 0 32 32;" xml:space="preserve">
<style type="text/css">
	.st0{fill:#E71F75;}
</style>
<g>
	<path class="st0" d="M16,28.8c-0.1,0-0.1,0-0.2,0c-0.4-0.1-9.3-2.6-9.3-8.9V7.5c0-0.5,0.2-0.9,0.5-1.2c0.5-0.5,7.4-3.1,9-3.1
		c1.5,0,8.5,2.6,9,3.1c0.3,0.3,0.5,0.8,0.5,1.2v12.3c0,6.7-8.9,8.9-9.3,8.9C16.1,28.8,16.1,28.8,16,28.8z M8.2,7.4l0,12.4
		c0,4.6,6.6,6.9,7.9,7.3c1.2-0.3,7.9-2.4,7.9-7.3V7.5c-0.5-0.3-6.6-2.7-7.9-2.7C14.8,4.8,9.3,6.9,8.2,7.4z"/>
</g>
<g>
	<path class="st0" d="M15.1,19.7c-0.2,0-0.4-0.1-0.6-0.3l-3.1-3.3c-0.3-0.3-0.3-0.8,0-1.1c0.3-0.3,0.8-0.3,1.1,0l2.5,2.7l4.6-4.8
		c0.3-0.3,0.8-0.3,1.1,0c0.3,0.3,0.3,0.8,0,1.1l-5.2,5.4C15.5,19.6,15.3,19.7,15.1,19.7z"/>
</g>
</svg>
