<?xml version="1.0" encoding="utf-8"?>
<!-- Generator: Adobe Illustrator 24.0.1, SVG Export Plug-In . SVG Version: 6.00 Build 0)  -->
<svg version="1.1" id="Capa_1" xmlns="http://www.w3.org/2000/svg" xmlns:xlink="http://www.w3.org/1999/xlink" x="0px" y="0px"
	 viewBox="0 0 32 32" style="enable-background:new 0 0 32 32;" xml:space="preserve">
<g>
	<path d="M32,15.6c0,8.6-7,15.6-15.7,15.6c-2.8,0-5.3-0.7-7.6-1.9L0,32l2.8-8.4c-1.4-2.3-2.3-5.1-2.3-8C0.6,7,7.6,0,16.3,0
		C25,0,32,7,32,15.6z M16.3,2.5C9,2.5,3.1,8.4,3.1,15.6c0,2.9,0.9,5.5,2.5,7.7l-1.6,4.9L9,26.5c2.1,1.4,4.6,2.2,7.3,2.2
		c7.3,0,13.2-5.9,13.2-13.1C29.5,8.4,23.6,2.5,16.3,2.5z M24.2,19.2c-0.1-0.2-0.4-0.3-0.7-0.4c-0.4-0.2-2.3-1.1-2.6-1.2
		c-0.4-0.1-0.6-0.2-0.9,0.2c-0.3,0.4-1,1.2-1.2,1.5c-0.2,0.3-0.4,0.3-0.8,0.1c-0.4-0.2-1.6-0.6-3.1-1.9c-1.1-1-1.9-2.3-2.1-2.6
		c-0.2-0.4,0-0.6,0.2-0.8c0.2-0.2,0.4-0.4,0.6-0.7c0.2-0.2,0.3-0.4,0.4-0.6c0.1-0.3,0.1-0.5,0-0.7c-0.1-0.2-0.9-2.1-1.2-2.8
		c-0.3-0.8-0.6-0.6-0.9-0.6c-0.2,0-0.5,0-0.7,0S10.3,8.6,10,9c-0.4,0.4-1.3,1.3-1.3,3.2c0,1.9,1.4,3.7,1.6,4
		c0.2,0.3,2.7,4.2,6.6,5.8c3.9,1.5,3.9,1,4.6,1c0.7-0.1,2.3-0.9,2.6-1.8C24.3,20.1,24.3,19.3,24.2,19.2z"/>
</g>
</svg>
