<?xml version="1.0" encoding="utf-8"?>
<!-- Generator: Adobe Illustrator 15.0.0, SVG Export Plug-In . SVG Version: 6.00 Build 0)  -->
<!DOCTYPE svg PUBLIC "-//W3C//DTD SVG 1.1//EN" "http://www.w3.org/Graphics/SVG/1.1/DTD/svg11.dtd">
<svg version="1.1" id="Слой_1" xmlns="http://www.w3.org/2000/svg" xmlns:xlink="http://www.w3.org/1999/xlink" x="0px" y="0px"
	 width="72px" height="48px" viewBox="-12 0 72 48" enable-background="new -12 0 72 48" xml:space="preserve">
<path fill="#C6327B" d="M54.003,0H-4.329c-2.605,0-4.814,1.66-5.642,3.981v1.069C-8.83,5.17-7.938,6.124-7.938,7.297
	c0,1.172-0.892,2.125-2.033,2.244v2.156c1.141,0.12,2.033,1.073,2.033,2.248c0,1.172-0.892,2.125-2.033,2.245v2.153
	c1.141,0.12,2.033,1.076,2.033,2.248c0,1.171-0.892,2.125-2.033,2.244v2.156c1.141,0.121,2.033,1.072,2.033,2.246
	s-0.892,2.125-2.033,2.246v2.156c1.141,0.119,2.033,1.07,2.033,2.246c0,1.172-0.892,2.125-2.033,2.244v2.154
	c1.141,0.121,2.033,1.074,2.033,2.246s-0.892,2.127-2.033,2.248v1.068c0.828,2.318,3.038,3.98,5.642,3.98h58.332
	c3.312,0,5.997-2.682,5.997-6.002V6.002C60,2.686,57.315,0,54.003,0z"/>
<polygon fill="#C6327B" points="-9.971,38.285 -9.971,36.131 -9.971,31.641 -9.971,29.484 -9.971,24.992 -9.971,22.836 
	-9.971,18.344 -9.971,16.191 -9.971,11.698 -9.971,9.542 -9.971,5.051 -9.971,3.982 -9.971,4 -11.971,4 -11.971,44 -9.971,44 
	-9.971,43.848 -9.971,42.779 "/>
</svg>
