<svg width="16" height="19" viewBox="0 0 16 19" fill="none" xmlns="http://www.w3.org/2000/svg">
<path d="M10.4992 2.95091C9.85786 3.72402 8.83165 4.33381 7.80545 4.24669C7.67717 3.20135 8.17959 2.09068 8.76752 1.40468C9.40889 0.609782 10.5313 0.0435558 11.4399 0C11.5468 1.0889 11.1299 2.15601 10.4992 2.95091ZM11.4292 4.45358C9.94338 4.36647 8.67131 5.31381 7.96579 5.31381C7.24959 5.31381 6.16993 4.49714 4.99407 4.51892C3.46545 4.5407 2.04373 5.4227 1.26338 6.82738C-0.340062 9.63673 0.846488 13.7963 2.39649 16.083C3.15545 17.2154 4.06407 18.4568 5.26131 18.4132C6.39441 18.3697 6.84338 17.6619 8.21165 17.6619C9.59062 17.6619 9.98614 18.4132 11.1834 18.3915C12.4234 18.3697 13.2037 17.259 13.9627 16.1266C14.8285 14.8417 15.1813 13.5894 15.2027 13.5241C15.1813 13.5023 12.8082 12.5767 12.7868 9.78918C12.7654 7.45894 14.6575 6.34826 14.743 6.28293C13.6741 4.67136 12.0065 4.49714 11.4292 4.45358Z" fill="white"/>
</svg>
