<svg width="118" height="35" fill="none" xmlns="http://www.w3.org/2000/svg"><path d="M114.028 34.5H3.972A3.477 3.477 0 01.5 31.016V3.984A3.477 3.477 0 013.972.5h110.056a3.477 3.477 0 013.472 3.484v27.032a3.483 3.483 0 01-3.472 3.484z" stroke="#E5E5E5"/><path d="M24.883 8.665c-.804.986-2.085 1.763-3.366 1.654-.159-1.335.466-2.75 1.201-3.616.805-1.016 2.205-1.733 3.337-1.793.139 1.385-.388 2.74-1.172 3.755zm1.023 2.341c-1.867 0-3.207 1.016-4.081 1.016-.884 0-2.215-1.006-3.744-1.006-1.866 0-3.703 1.165-4.666 2.868-1.986 3.407-.517 8.456 1.4 11.225.943 1.375 2.075 2.82 3.604 2.82 1.4-.05 1.877-.848 3.575-.848 1.707 0 2.214.847 3.743.847s2.462-1.394 3.396-2.769c1.072-1.554 1.509-3.078 1.539-3.157-.03-.03-2.97-1.146-2.989-4.532-.03-2.829 2.314-4.173 2.423-4.253-1.32-1.952-3.515-2.221-4.022-2.221l-.178.01zm20.47 15.663l-1.051-3.115h-4.38l-1.051 3.115h-1.855l4.148-11.526h1.927l4.149 11.526h-1.887zm-3.265-9.61l-1.712 5.057h3.472l-1.712-5.056h-.048zm10.574 1.071c1.067 0 1.922.392 2.564 1.174.643.783.964 1.838.964 3.164 0 1.325-.319 2.382-.956 3.17-.637.783-1.483 1.175-2.54 1.175-.594 0-1.123-.136-1.584-.408a2.732 2.732 0 01-1.051-1.118h-.04v4.162h-1.72V18.266h1.664v1.446h.032c.25-.49.608-.876 1.075-1.158a3.018 3.018 0 011.592-.424zm-.453 7.221c.68 0 1.218-.258 1.616-.775.398-.522.597-1.225.597-2.108 0-.88-.199-1.58-.597-2.101-.398-.522-.937-.783-1.616-.783-.659 0-1.19.264-1.593.79-.404.528-.605 1.226-.605 2.094 0 .873.199 1.573.597 2.1.404.522.937.783 1.6.783zm9.674-7.221c1.067 0 1.922.392 2.565 1.174.642.783.963 1.838.963 3.164 0 1.325-.319 2.382-.956 3.17-.637.783-1.483 1.175-2.54 1.175-.594 0-1.123-.136-1.584-.408a2.732 2.732 0 01-1.051-1.118h-.04v4.162h-1.72V18.266h1.664v1.446h.032c.25-.49.608-.876 1.075-1.158a3.018 3.018 0 011.592-.424zm-.453 7.221c.679 0 1.218-.258 1.616-.775.398-.522.597-1.225.597-2.108 0-.88-.199-1.58-.597-2.101-.398-.522-.937-.783-1.617-.783-.658 0-1.189.264-1.592.79-.404.528-.605 1.226-.605 2.094 0 .873.199 1.573.597 2.1.404.522.937.783 1.6.783zm8.321-1.893h1.76c.063.57.347 1.028.851 1.374.505.346 1.137.519 1.896.519.722 0 1.316-.168 1.783-.503.473-.336.71-.762.71-1.278 0-.448-.168-.812-.503-1.095-.334-.287-.873-.521-1.616-.702l-1.49-.36c-1.056-.256-1.836-.636-2.34-1.142-.5-.506-.749-1.161-.749-1.965 0-.99.388-1.797 1.163-2.42.78-.623 1.786-.935 3.018-.935 1.21 0 2.197.312 2.962.935.764.617 1.16 1.424 1.186 2.42H77.67c-.052-.57-.3-1.02-.74-1.35-.435-.33-1-.495-1.696-.495-.69 0-1.253.16-1.688.48-.43.319-.645.734-.645 1.245 0 .405.162.738.485.999.324.255.858.476 1.601.663l1.266.311c1.179.277 2.028.668 2.548 1.174.526.5.789 1.174.789 2.021 0 1.076-.399 1.93-1.195 2.564-.796.629-1.876.943-3.24.943-1.28 0-2.318-.306-3.114-.919-.791-.618-1.213-1.446-1.266-2.484zm10.71-7.181h1.728v1.989h1.592v1.366h-1.592v4.633c0 .362.082.628.246.798.165.17.423.256.773.256.255 0 .443-.013.565-.04v1.366c-.212.053-.53.08-.955.08-.844 0-1.45-.173-1.816-.52-.36-.35-.541-.934-.541-1.749v-4.824h-1.219v-1.366h1.219v-1.989zm11.02 9.386c-.722.777-1.685 1.166-2.89 1.166s-2.169-.389-2.89-1.166c-.723-.783-1.084-1.848-1.084-3.195 0-1.342.361-2.402 1.083-3.18.722-.782 1.686-1.174 2.89-1.174 1.206 0 2.17.392 2.891 1.174.722.778 1.083 1.838 1.083 3.18 0 1.347-.36 2.412-1.083 3.195zm-2.89-.256c.685 0 1.226-.258 1.624-.775.398-.516.597-1.238.597-2.165 0-.92-.201-1.64-.605-2.156-.398-.517-.937-.775-1.616-.775-.68 0-1.221.258-1.625.775-.398.516-.597 1.235-.597 2.157 0 .926.2 1.648.597 2.164.404.517.945.775 1.625.775zm5.303 1.262v-8.403h1.64v1.43h.04c.138-.49.385-.873.74-1.15.356-.277.781-.416 1.275-.416.164 0 .36.021.59.064V19.8c-.155-.064-.412-.096-.773-.096-.552 0-.99.173-1.314.519-.319.346-.478.817-.478 1.414v5.032h-1.72zm9.946-6.558c-.377-.405-.863-.607-1.458-.607-.594 0-1.088.205-1.481.615-.392.405-.61.93-.653 1.574h4.189c-.021-.65-.22-1.177-.597-1.582zm.589 4.09h1.632c-.122.772-.515 1.403-1.178 1.893-.664.49-1.473.735-2.429.735-1.226 0-2.192-.386-2.898-1.159-.701-.777-1.051-1.831-1.051-3.163 0-1.32.35-2.383 1.051-3.187.706-.804 1.648-1.206 2.826-1.206 1.158 0 2.076.381 2.756 1.142.679.757 1.019 1.774 1.019 3.052v.59h-5.917v.105c0 .735.205 1.323.614 1.765.408.442.955.663 1.64.663.483 0 .897-.112 1.242-.336.345-.223.576-.521.693-.894zM39.96 8.705v-.582h.706c.319 0 .58-.087.783-.261a.857.857 0 00.304-.676c0-.271-.093-.486-.279-.643-.186-.158-.44-.237-.76-.237-.324 0-.586.08-.787.237a.902.902 0 00-.337.65h-.634c.034-.455.21-.814.526-1.075.319-.262.737-.393 1.257-.393.488 0 .888.132 1.202.396.317.262.475.597.475 1.007 0 .29-.09.548-.272.774a1.243 1.243 0 01-.699.443v.029c.348.046.622.187.822.422.2.232.301.526.301.883 0 .43-.177.795-.532 1.093-.355.296-.791.444-1.308.444-.55 0-1.001-.136-1.351-.407a1.41 1.41 0 01-.562-1.083h.63a.897.897 0 00.388.661c.232.165.528.247.888.247.35 0 .634-.09.85-.269a.876.876 0 00.327-.705c0-.3-.106-.534-.319-.701-.212-.17-.507-.254-.884-.254h-.735zm4.568 1.915c.297 0 .546-.092.746-.276a.897.897 0 00.304-.687v-.31l-1.007.063c-.253.017-.45.078-.59.185a.515.515 0 00-.207.429c0 .179.07.323.207.432.137.11.32.164.547.164zm-.142.537c-.374 0-.677-.104-.909-.312-.23-.208-.344-.482-.344-.821 0-.325.118-.584.355-.778.24-.194.576-.303 1.01-.327l1.08-.062v-.316c0-.23-.072-.41-.217-.541-.145-.131-.348-.196-.609-.196-.239 0-.433.053-.583.16a.694.694 0 00-.286.44h-.609c.022-.338.167-.614.435-.83.27-.217.623-.326 1.058-.326.442 0 .792.111 1.05.334.261.223.392.522.392.897v2.613h-.598v-.65h-.015c-.113.215-.28.388-.5.52a1.37 1.37 0 01-.71.195zm5.115-3.324h-1.8v3.259h-.623V7.313H49.5v.52zm2.518-.585c.483 0 .872.178 1.166.534.297.356.446.83.446 1.42s-.148 1.063-.442 1.421a1.43 1.43 0 01-1.156.534c-.265 0-.503-.06-.713-.181a1.247 1.247 0 01-.486-.498h-.014v1.875h-.63v-5.04h.597v.64h.015c.118-.218.284-.39.496-.516.212-.126.453-.19.72-.19zm-.123 3.353a.955.955 0 00.797-.377c.195-.252.293-.593.293-1.021 0-.43-.098-.77-.293-1.022a.955.955 0 00-.797-.377.94.94 0 00-.783.385c-.198.256-.297.594-.297 1.014 0 .421.1.76.297 1.017a.943.943 0 00.783.381zm2.64 1.904c-.113 0-.204-.007-.271-.021v-.53c.058.011.14.017.246.017a.614.614 0 00.424-.141c.106-.092.195-.249.268-.47l.087-.264-1.391-3.783h.674l1.043 3.147h.01l1.044-3.147h.663l-1.482 4.044c-.161.441-.337.743-.525.905-.186.162-.45.243-.79.243zm4.615-1.348c-.415 0-.76-.094-1.032-.283a1.02 1.02 0 01-.456-.763h.637a.588.588 0 00.275.385c.15.092.342.138.576.138.268 0 .477-.057.627-.17a.552.552 0 00.225-.459c0-.21-.07-.365-.21-.465-.14-.101-.354-.152-.642-.152h-.565v-.516h.565c.483 0 .725-.184.725-.552a.487.487 0 00-.181-.397c-.119-.099-.295-.149-.53-.149a1.03 1.03 0 00-.55.135.52.52 0 00-.257.36h-.612c.04-.313.188-.561.442-.745.253-.184.58-.276.978-.276.42 0 .746.093.978.28a.898.898 0 01.348.74.837.837 0 01-.174.52.759.759 0 01-.45.295v.029c.244.053.43.156.558.309.13.15.196.335.196.555 0 .354-.135.64-.406.858-.268.216-.623.323-1.065.323zm2.815-.065h-.623V7.313h.623v2.813h.029l1.884-2.813h.623v3.779h-.623V8.28h-.03l-1.883 2.812zm6.176-3.779v.52h-1.217v3.259h-.623v-3.26h-1.217v-.519h3.057zm2.025.483a.962.962 0 00-.728.306c-.19.2-.296.46-.315.777h2.047c-.008-.32-.103-.58-.287-.781a.926.926 0 00-.717-.302zm.989 2.213h.62c-.056.335-.23.61-.522.825-.29.216-.639.323-1.047.323-.539 0-.962-.174-1.271-.523-.31-.349-.464-.821-.464-1.417 0-.591.154-1.067.464-1.428.311-.36.725-.541 1.242-.541.507 0 .908.17 1.203.512.294.342.442.8.442 1.373v.24H69.12v.037c0 .363.1.654.297.872.198.218.466.327.805.327.236 0 .438-.055.604-.164a.766.766 0 00.33-.436zm4.412-2.184h-.902v1.058h.808c.468 0 .703-.18.703-.538 0-.167-.052-.296-.156-.385-.104-.09-.255-.135-.453-.135zm-.043 1.566h-.859v1.189h.971c.227 0 .4-.05.522-.15.12-.101.18-.248.18-.439 0-.4-.271-.6-.814-.6zm-1.482 1.701V7.313h1.612c.353 0 .63.086.833.258.203.172.305.408.305.709a.84.84 0 01-.182.523.725.725 0 01-.438.29v.03a.9.9 0 01.569.29.85.85 0 01.217.592c0 .335-.116.6-.348.796-.229.194-.544.291-.945.291h-1.623z" fill="#999"/></svg>