<svg xmlns="http://www.w3.org/2000/svg" viewBox="0 0 73 32"><path d="M15.2 4.5c-1 1.2-2.5 2.1-4.1 2-.2-1.6.6-3.3 1.5-4.3C13.6 1 15.3.1 16.7.1c.1 1.6-.5 3.2-1.5 4.4zm1.4 2.3c-2.3-.1-4.2 1.3-5.3 1.3-1.1 0-2.7-1.2-4.5-1.2-2.3 0-4.5 1.4-5.7 3.5C-1.3 14.7.5 21 2.9 24.5c1.2 1.7 2.5 3.6 4.4 3.6C9 28 9.7 27 11.8 27s2.7 1.1 4.5 1.1c1.9 0 3.1-1.7 4.2-3.5 1.3-2 1.9-3.9 1.9-4 0 0-3.6-1.4-3.7-5.7 0-3.6 2.8-5.2 3-5.3-1.7-2.5-4.2-2.7-5.1-2.8zM33.2 8v18.9h2.9v-6.5h4c3.7 0 6.3-2.5 6.3-6.2S43.8 8 40.2 8h-7zm2.9 2.5h3.4c2.5 0 4 1.4 4 3.7 0 2.4-1.5 3.8-4 3.8h-3.4v-7.5zM51.8 27c1.8 0 3.5-.9 4.3-2.4h.1v2.3h2.7v-9.4c0-2.7-2.2-4.5-5.5-4.5-3.1 0-5.4 1.8-5.5 4.2h2.6c.2-1.2 1.3-1.9 2.8-1.9 1.8 0 2.8.8 2.8 2.4v1l-3.7.2c-3.4.2-5.2 1.6-5.2 4 0 2.5 1.9 4.1 4.6 4.1zm.8-2.2c-1.6 0-2.6-.8-2.6-1.9 0-1.2 1-1.9 2.8-2l3.3-.2v1.1c0 1.7-1.5 3-3.5 3zm9.9 7.2c2.9 0 4.2-1.1 5.4-4.4L73 13.2h-3l-3.4 11.1h-.1l-3.4-11.1H60l5 13.7-.3.8c-.4 1.4-1.2 2-2.5 2h-.9V32h1.2z"/></svg>