<?xml version="1.0" encoding="utf-8"?>
<!-- Generator: Adobe Illustrator 15.0.0, SVG Export Plug-In . SVG Version: 6.00 Build 0)  -->
<!DOCTYPE svg PUBLIC "-//W3C//DTD SVG 1.1//EN" "http://www.w3.org/Graphics/SVG/1.1/DTD/svg11.dtd">
<svg version="1.1" id="Слой_1" xmlns="http://www.w3.org/2000/svg" xmlns:xlink="http://www.w3.org/1999/xlink" x="0px" y="0px"
	 width="42.326px" height="32.95px" viewBox="0 0 42.326 32.95" enable-background="new 0 0 42.326 32.95" xml:space="preserve">
<g>
	
		<path fill="#F8DB1C" stroke="#311833" stroke-width="2" stroke-linecap="round" stroke-linejoin="round" stroke-miterlimit="10" d="
		M11.011,31.486c-1.135,0.579-2.526,0.13-3.106-1.007L1.253,17.458c-0.58-1.136-0.13-2.527,1.005-3.107L27.899,1.253
		c1.135-0.579,2.527-0.129,3.107,1.007l6.651,13.021c0.58,1.136,0.129,2.528-1.006,3.107L11.011,31.486z"/>
	
		<path fill="#FFFFFF" stroke="#311833" stroke-width="2" stroke-linecap="round" stroke-linejoin="round" stroke-miterlimit="10" d="
		M10.224,31.95c-1.273,0-2.309-1.034-2.309-2.31V15.019c0-1.275,1.035-2.31,2.309-2.31h28.793c1.274,0,2.31,1.034,2.31,2.31v14.622
		c0,1.275-1.035,2.31-2.31,2.31H10.224z"/>
	
		<line fill="#FFED00" stroke="#311833" stroke-width="2" stroke-linecap="round" stroke-linejoin="round" stroke-miterlimit="10" x1="8.2" y1="19.142" x2="41.219" y2="19.142"/>
	
		<line fill="none" stroke="#311833" stroke-width="2" stroke-linecap="round" stroke-linejoin="round" stroke-miterlimit="10" x1="35.582" y1="26.055" x2="31.679" y2="26.085"/>
	
		<line fill="#FFED00" stroke="#311833" stroke-width="2" stroke-linecap="round" stroke-linejoin="round" stroke-miterlimit="10" x1="8.2" y1="16.801" x2="41.219" y2="16.801"/>
	
		<line fill="#FFED00" stroke="#311833" stroke-width="2" stroke-linecap="round" stroke-linejoin="round" stroke-miterlimit="10" x1="8.2" y1="17.956" x2="41.219" y2="17.956"/>
</g>
</svg>
