<svg xmlns="http://www.w3.org/2000/svg" viewBox="0 0 109 32"><path d="M104.9 12.8s-.1 0 0 0v.3h.6v2h.3v-2h.6v-.3h-1.5zm3.6 0s-.6 1.4-.7 1.6c-.1-.1-.6-1.5-.6-1.5h-.4v2.3h.3v-1.6c.1.3.6 1.4.6 1.4h.2s.5-1.1.6-1.4v1.6h.3v-2.3h-.3v-.1zm-7 0c-.2 0-.4.2-.4.4V17h-4.6v-3.8c0-.2-.2-.4-.4-.4h-1.3c-.2 0-.4.2-.4.4v9.6c0 .2.2.4.4.4H96c.2 0 .4-.2.4-.4v-4h4.6v4c0 .2.2.4.4.4h1.3c.2 0 .4-.2.4-.4v-9.6c0-.2-.2-.4-.4-.4h-1.2zm-9.9-4.3c.2 0 .4.2.4.4v1.2c0 .2-.2.4-.4.4h-7.9c-.2 0-.4-.2-.4-.4V8.9c0-.2.2-.4.4-.4h7.9zm-51.2 0c-.2 0-.4.2-.4.4v9.9c0 2.7.8 4.4 4.1 4.4h.4c4.7 0 5.4-3.1 5.4-4.8 0-1.4-.5-4.8-5.2-4.8h-2.6v-3.2h6c.2 0 .4-.2.4-.4V8.9c0-.2-.2-.4-.4-.4h-7.7zm4.4 7.2c1.9 0 3 1.1 3 2.9 0 1.8-1.1 2.8-3 2.8h-.7c-1.4 0-2-.6-2-2.2v-3.4l2.7-.1zM74.2 13c-.1.1-.2.2-.2.3v1.2c0 .1.1.2.2.3s.2.1.3.1c.7-.2 1.5-.5 2.8-.5 1.6 0 1.9.5 1.9 1.7v.2l-2.3.2c-3.6.3-3.8 2.7-3.8 3.4 0 2.2 1.1 3.5 3.9 3.5.9 0 1.8-.3 2.6-.8l.2.4c.1.1.2.2.3.2h.8c.2 0 .4-.2.4-.4V16c0-2.5-1.3-3.7-4-3.7-1.2.1-2.3.3-3.1.7zm1 6.9c0-.7.1-1.5 1.6-1.6l2.3-.2v2.8c-.7.4-1.3.7-2.2.7-.8-.1-1.7-.5-1.7-1.7zM58.5 23c.1.1.2.2.3.2h.9c.2 0 .4-.2.4-.4v-9.7c0-.2-.2-.4-.4-.4h-1.2c-.2 0-.4.2-.4.4V20c-.7.7-1.9 1.4-2.8 1.4-1.3 0-1.9-.7-1.9-2.5v-5.6c0-.2-.2-.4-.4-.4h-1.2c-.2 0-.4.2-.4.4v6.3c0 2.3 1.2 3.9 3.6 3.9 1.5 0 2.7-.8 3.3-1.3l.2.8zm31.9 0c.1.1.2.2.3.2h.9c.2 0 .4-.2.4-.4v-9.7c0-.2-.2-.4-.4-.4h-1.2c-.2 0-.4.2-.4.4V20c-.7.7-1.9 1.4-2.8 1.4-1.3 0-1.9-.7-1.9-2.5v-5.6c0-.2-.2-.4-.4-.4h-1.2c-.2 0-.4.2-.4.4v6.3c0 2.3 1.2 3.9 3.6 3.9 1.5 0 2.7-.8 3.3-1.3l.2.8zm-27.1-3.4c-.1 1.4-.5 1.7-1.7 1.9-.2 0-.4.2-.4.4V23c0 .2.2.4.4.4 2.3 0 3.4-1.1 3.7-3.9l.2-2.5c.2-1.7.5-2.2 2-2.2h1.7v8.1c0 .2.2.4.4.4h1.2c.2 0 .4-.2.4-.4v-9.6c0-.2-.2-.4-.4-.4h-3.4c-2.8 0-3.7 1.7-3.9 4l-.2 2.7z" fill="#131108"/><linearGradient id="a" gradientUnits="userSpaceOnUse" x1="0" y1="826" x2="32" y2="826" gradientTransform="translate(0 -810)"><stop offset="0" stop-color="#faa61a"/><stop offset="1" stop-color="#ffe100"/></linearGradient><path d="M0 16c0 8.8 7.2 16 16 16s16-7.2 16-16S24.8 0 16 0 0 7.2 0 16" fill="url(#a)"/><path d="M3.8 5.7h24.4C25.3 2.2 20.9 0 16 0S6.7 2.2 3.8 5.7zM.4 12.6C.1 13.7 0 14.8 0 16s.1 2.3.4 3.4h31.3c.2-1.1.4-2.2.4-3.4s-.1-2.3-.4-3.4H.4zm27.8 13.7H3.8C6.7 29.8 11.1 32 16 32s9.3-2.2 12.2-5.7z"/></svg>