<svg width="120" height="141" fill="none" xmlns="http://www.w3.org/2000/svg"><path fill-rule="evenodd" clip-rule="evenodd" d="M0 109.615c0-6.627 5.373-12 12-12h96c6.627 0 12 5.373 12 12V129c0 6.627-5.373 12-12 12h-.471c-1.237-1.83-3.237-3.018-5.494-3.018-2.257 0-4.257 1.188-5.494 3.018h-5.756c-1.238-1.83-3.238-3.018-5.495-3.018-2.256 0-4.256 1.188-5.494 3.018h-5.755c-1.238-1.83-3.238-3.018-5.495-3.018-2.256 0-4.256 1.188-5.494 3.018h-5.755c-1.238-1.83-3.238-3.018-5.495-3.018s-4.257 1.188-5.494 3.018h-5.755c-1.238-1.83-3.238-3.018-5.495-3.018s-4.257 1.188-5.494 3.018h-5.756c-1.237-1.83-3.237-3.018-5.494-3.018-2.257 0-4.257 1.188-5.494 3.018H12c-6.627 0-12-5.373-12-12v-19.385zm120-24c0 6.628-5.373 12-12 12H12c-6.627 0-12-5.372-12-12V12C0 5.373 5.373 0 12 0h.471a6.786 6.786 0 005.494 2.8A6.787 6.787 0 0023.459 0h5.756a6.787 6.787 0 005.494 2.8A6.786 6.786 0 0040.203 0h5.756a6.787 6.787 0 005.494 2.8A6.786 6.786 0 0056.947 0h5.756a6.787 6.787 0 005.495 2.8A6.787 6.787 0 0073.692 0h5.756a6.787 6.787 0 005.494 2.8A6.787 6.787 0 0090.436 0h5.756a6.787 6.787 0 005.494 2.799A6.788 6.788 0 00107.18 0h.82c6.627 0 12 5.373 12 12v73.615z" fill="#E8287E"/><ellipse cx="11.976" cy="97.79" rx="1.511" ry="1.515" fill="#CD1467"/><ellipse cx="62.209" cy="97.79" rx="1.511" ry="1.515" fill="#CD1467"/><ellipse cx="28.72" cy="97.79" rx="1.511" ry="1.515" fill="#CD1467"/><ellipse cx="78.953" cy="97.79" rx="1.511" ry="1.515" fill="#CD1467"/><ellipse cx="45.464" cy="97.79" rx="1.511" ry="1.515" fill="#CD1467"/><ellipse cx="95.697" cy="97.79" rx="1.511" ry="1.515" fill="#CD1467"/><ellipse cx="20.348" cy="97.79" rx="1.511" ry="1.515" fill="#CD1467"/><ellipse cx="70.581" cy="97.79" rx="1.511" ry="1.515" fill="#CD1467"/><ellipse cx="37.092" cy="97.79" rx="1.511" ry="1.515" fill="#CD1467"/><ellipse cx="87.325" cy="97.79" rx="1.511" ry="1.515" fill="#CD1467"/><ellipse cx="53.836" cy="97.79" rx="1.511" ry="1.515" fill="#CD1467"/><ellipse cx="104.069" cy="97.79" rx="1.511" ry="1.515" fill="#CD1467"/><ellipse cx="16.162" cy="97.79" rx="1.511" ry="1.515" fill="#CD1467"/><ellipse cx="66.395" cy="97.79" rx="1.511" ry="1.515" fill="#CD1467"/><ellipse cx="32.906" cy="97.79" rx="1.511" ry="1.515" fill="#CD1467"/><ellipse cx="83.139" cy="97.79" rx="1.511" ry="1.515" fill="#CD1467"/><ellipse cx="49.651" cy="97.79" rx="1.511" ry="1.515" fill="#CD1467"/><ellipse cx="99.883" cy="97.79" rx="1.511" ry="1.515" fill="#CD1467"/><ellipse cx="24.534" cy="97.79" rx="1.511" ry="1.515" fill="#CD1467"/><ellipse cx="74.767" cy="97.79" rx="1.511" ry="1.515" fill="#CD1467"/><ellipse cx="41.278" cy="97.79" rx="1.511" ry="1.515" fill="#CD1467"/><ellipse cx="91.511" cy="97.79" rx="1.511" ry="1.515" fill="#CD1467"/><ellipse cx="58.022" cy="97.79" rx="1.511" ry="1.515" fill="#CD1467"/><ellipse cx="108.255" cy="97.79" rx="1.511" ry="1.515" fill="#CD1467"/></svg>