<svg width="67" height="45" fill="none" xmlns="http://www.w3.org/2000/svg"><path fill-rule="evenodd" clip-rule="evenodd" d="M54 6V1l-5.556 5H5a4 4 0 00-4 4v30a4 4 0 004 4h57a4 4 0 004-4V10a4 4 0 00-4-4h-8z" fill="#fff"/><path d="M54 1l-.334-.372A.5.5 0 0154.5 1H54zm0 5v.5a.5.5 0 01-.5-.5h.5zm-5.556 0l.335.372a.5.5 0 01-.335.128V6zM54.5 1v5h-1V1h1zm-6.39 4.628l5.556-5 .669.744-5.556 5-.669-.744zm.334.872H5v-1h43.444v1zM5 6.5A3.5 3.5 0 001.5 10h-1A4.5 4.5 0 015 5.5v1zM1.5 10v30h-1V10h1zm0 30A3.5 3.5 0 005 43.5v1A4.5 4.5 0 01.5 40h1zM5 43.5h57v1H5v-1zm57 0a3.5 3.5 0 003.5-3.5h1a4.5 4.5 0 01-4.5 4.5v-1zm3.5-3.5V10h1v30h-1zm0-30A3.5 3.5 0 0062 6.5v-1a4.5 4.5 0 014.5 4.5h-1zM62 6.5h-8v-1h8v1z" fill="#E71F75"/></svg>