<svg width="77" height="45" fill="none" xmlns="http://www.w3.org/2000/svg"><path fill-rule="evenodd" clip-rule="evenodd" d="M13 6V1l5.556 5H72a4 4 0 014 4v30a4 4 0 01-4 4H5a4 4 0 01-4-4V10a4 4 0 014-4h8z" fill="#fff"/><path d="M13 1l.335-.372A.5.5 0 0012.5 1h.5zm0 5v.5a.5.5 0 00.5-.5H13zm5.556 0l-.335.372a.5.5 0 00.335.128V6zM12.5 1v5h1V1h-1zm6.39 4.628l-5.556-5-.668.744 5.555 5 .669-.744zm-.334.872H72v-1H18.556v1zM72 6.5a3.5 3.5 0 013.5 3.5h1A4.5 4.5 0 0072 5.5v1zm3.5 3.5v30h1V10h-1zm0 30a3.5 3.5 0 01-3.5 3.5v1a4.5 4.5 0 004.5-4.5h-1zM72 43.5H5v1h67v-1zm-67 0A3.5 3.5 0 011.5 40h-1A4.5 4.5 0 005 44.5v-1zM1.5 40V10h-1v30h1zm0-30A3.5 3.5 0 015 6.5v-1A4.5 4.5 0 00.5 10h1zM5 6.5h8v-1H5v1z" fill="#303"/></svg>