<svg xmlns="http://www.w3.org/2000/svg" width="51.39" height="39.913"><g stroke="#311833" stroke-width="2" stroke-linecap="round" stroke-linejoin="round" stroke-miterlimit="10"><path fill="#F8DB1C" d="M1.961 22.211a2.267 2.267 0 01-.547-3.159l6.654-9.444a2.267 2.267 0 013.159-.549l23.117 16.287a2.27 2.27 0 01.548 3.161l-6.654 9.444a2.27 2.27 0 01-3.16.548L1.961 22.211z"/><path fill="#FFF" d="M3.979 13.041a2.268 2.268 0 01.001-3.207l8.169-8.169a2.268 2.268 0 013.207-.001l19.996 19.995a2.27 2.27 0 010 3.208l-8.17 8.17a2.269 2.269 0 01-3.207 0L3.979 13.041z"/><circle fill="#F8DB1C" cx="19.57" cy="17.412" r="4.159"/><path fill="#FFF" d="M40.42 19.751c-1.041.26-2.793-.731-3.833-1.866-1.041-1.135-4.443-4.443-4.443-4.443s-2.08.852-3.403 1.702c-1.322.851-2.931.756-3.498 0-.566-.756-1.134-2.646.567-3.403 1.702-.757 7.279-3.403 7.279-3.403s1.701-.757 3.687 1.134 6.239 5.956 6.239 5.956 1.229 1.04 3.593 1.04h3.782v15.125H37.627s-2.646.379-3.971-.944"/></g></svg>