<svg width="100" height="175" fill="none" xmlns="http://www.w3.org/2000/svg"><circle opacity=".03" cx="83" cy="166" r="9" fill="#C69"/><circle opacity=".03" cx="9" cy="28" r="9" fill="#C69"/><path opacity=".05" d="M71.804 147.102S75.648 77.878 6.684 82.8c6.296 72.889 65.12 64.302 65.12 64.302zm50.473-68.652s3.845-69.223-65.12-64.302c6.297 72.89 65.12 64.302 65.12 64.302z" fill="#C69" stroke="#C69"/><circle opacity=".1" cx="36.5" cy="4.5" r="4.5" fill="#C69"/><circle opacity=".07" cx="47" cy="159" r="4" fill="#C69"/><path opacity=".03" fill="#C69" d="M37 43h53v70H37z"/><path opacity=".8" d="M77.31 96.012c-.18.4-.237.717-.163.948a.624.624 0 00.302.368c.143.076.32.093.48.041.233-.072.467-.292.7-.664.139.358.4.857.855.857.063 0 .126-.01.185-.027.424-.131.557-.555.386-1.268.237.104.505.193.738.193.08 0 .153-.01.219-.03a.636.636 0 00.372-.3.61.61 0 00.045-.476c-.073-.23-.299-.461-.675-.692.69-.262.975-.606.842-1.03-.052-.169-.219-.454-.74-.454-.157 0-.335.024-.54.072.181-.4.237-.72.167-.947a.626.626 0 00-.786-.41c-.233.072-.466.296-.7.665-.135-.359-.4-.858-.855-.858a.661.661 0 00-.185.028c-.428.13-.556.557-.386 1.267-.32-.141-.7-.241-.957-.162a.621.621 0 00-.376.303.626.626 0 00-.041.475c.073.231.299.465.675.693a1.995 1.995 0 00-.599.323c-.32.27-.292.558-.243.706.052.17.219.455.744.455a2.56 2.56 0 00.536-.076zm-.78-.537c-.006-.024-.02-.072.084-.162.09-.076.282-.193.69-.317.117-.034.218-.062.32-.082a.257.257 0 00.048-.493 3.156 3.156 0 01-.303-.141c-.417-.217-.64-.424-.671-.53a.097.097 0 01.007-.083c.01-.02.035-.038.066-.048a.233.233 0 01.066-.007c.163 0 .438.093.751.258.108.059.202.114.29.172a.27.27 0 00.309-.013.26.26 0 00.076-.297 4.551 4.551 0 01-.114-.317c-.178-.571-.147-.864-.004-.902.08 0 .261.162.449.768.038.117.063.224.083.32.025.11.119.193.23.204a.255.255 0 00.264-.159c.039-.093.084-.193.143-.303.22-.413.428-.63.532-.665a.114.114 0 01.084.004.096.096 0 01.049.065c.03.097-.018.369-.254.81a4.962 4.962 0 01-.17.289.252.252 0 00.02.307.265.265 0 00.303.072c.094-.041.195-.076.31-.11.274-.083.497-.128.664-.128.215 0 .236.066.243.09.035.11-.191.3-.769.475a4.464 4.464 0 01-.32.083.257.257 0 00-.048.492c.115.049.222.1.302.142.418.216.64.423.672.53a.098.098 0 01-.007.082c-.01.021-.035.038-.063.049a.229.229 0 01-.066.007c-.167 0-.445-.097-.755-.259-.111-.055-.202-.113-.289-.168a.26.26 0 00-.386.313c.038.096.077.196.115.313.178.576.146.865.035.9a.113.113 0 01-.032.006c-.08 0-.26-.162-.452-.768a4.016 4.016 0 01-.083-.324.262.262 0 00-.233-.203h-.025a.256.256 0 00-.24.162 3.658 3.658 0 01-.139.3c-.22.413-.428.63-.536.661a.105.105 0 01-.08-.004.11.11 0 01-.052-.065c-.035-.107.031-.4.257-.816.042-.08.101-.18.168-.283a.256.256 0 00-.018-.306.269.269 0 00-.302-.072 3.281 3.281 0 01-.314.11 2.447 2.447 0 01-.664.124c-.212.01-.233-.055-.24-.083zm6.13.981s-.076-.007-.204-.007c-.442 0-1.27.08-1.834.62-.383.365-.557.865-.633 1.271.285.283.445.544.46.565a.258.258 0 01-.06.334c-.007.004-.045.035-.1.076h.083c.441 0 1.266-.08 1.833-.62.752-.72.696-1.942.692-1.994a.257.257 0 00-.236-.245zm-.817 1.867c-.41.393-1.057.465-1.388.475.021-.34.118-.964.529-1.357.41-.392 1.058-.465 1.388-.475-.02.341-.118.964-.529 1.357z" fill="#999"/><path opacity=".8" d="M80.448 98.905c-.014-.02-.177-.282-.46-.565-.295-.293-.72-.61-1.245-.699a1.852 1.852 0 00-.313-.024c-.904 0-1.687.627-1.722.654a.258.258 0 00-.06.334c.029.045.676 1.089 1.706 1.264.1.018.208.025.313.025.737 0 1.385-.41 1.621-.58a.764.764 0 00.1-.075.25.25 0 00.06-.334zm-2.004.455c-.557-.093-.995-.558-1.207-.827.292-.183.856-.479 1.416-.382.556.096.995.558 1.207.826-.289.186-.849.48-1.416.383zm-28.498-2.195c-.153-.128-.306-.245-.448-.355l-.087-.069.02-.079c.175-.592 1.027-4.319.55-4.742-.264-.238-.602-.307-.9-.369-.133-.028-.262-.052-.366-.093-.108-.038-.22-.1-.341-.165-.258-.138-.55-.293-.887-.293h-.039c-.358.014-.66.2-.925.365-.122.076-.237.148-.348.196-.111.052-.24.093-.376.135-.299.093-.636.203-.876.465-.24.261-.31.596-.37.892a2.6 2.6 0 01-.093.361c-.038.107-.101.217-.164.338-.146.265-.306.565-.295.916.024.634 3.402 2.366 3.99 2.628l.125.055c-.014.196-.024.413-.027.665-.004.337.02.65.062.878.028.144.108.578.449.578h.014a.992.992 0 00.337-.072 1.77 1.77 0 00.286-.138c.062-.037.125-.075.184-.113l.056-.035c.07-.041.139-.082.209-.117.07-.034.146-.058.243-.09.084-.023.167-.051.247-.079.115-.04.205-.079.289-.124.108-.061.198-.13.275-.213.236-.258-.056-.606-.15-.723a6.668 6.668 0 00-.644-.603zm.261 1.099a1.42 1.42 0 01-.208.09 4.693 4.693 0 01-.258.082 2.503 2.503 0 00-.282.107c-.087.04-.174.09-.264.144l-.06.035c-.058.034-.114.072-.17.103a1.008 1.008 0 01-.275.124 1.386 1.386 0 01-.034-.141 4.453 4.453 0 01-.053-.782 8.61 8.61 0 01.042-.802.257.257 0 00-.153-.262l-.296-.131c-1.367-.606-3.433-1.88-3.68-2.215.007-.2.118-.403.233-.613.07-.13.146-.265.194-.406.053-.141.084-.29.115-.438.052-.251.101-.489.247-.647.146-.159.39-.238.65-.32a3.51 3.51 0 00.44-.159c.142-.065.274-.148.403-.227.23-.145.449-.28.685-.29.209 0 .418.114.64.231.133.07.268.145.41.197.143.051.293.082.44.11.24.048.465.096.626.22.1.41-.251 2.814-.668 4.243l-.07.245a.26.26 0 00.087.272l.226.176c.14.107.285.224.438.348.237.192.439.389.571.544a.98.98 0 01.087.113c-.02.021-.042.035-.063.049z" fill="#999"/><path opacity=".8" d="M46.502 94.63a.261.261 0 00-.369.018.255.255 0 00.017.365l.4.361a.255.255 0 00.175.066.26.26 0 00.194-.086.255.255 0 00-.017-.365l-.4-.359zm.671-1.426a.26.26 0 00-.348-.124.254.254 0 00-.125.345l.557 1.188a.264.264 0 00.348.124.254.254 0 00.125-.344l-.557-1.189zm1.357.341a.26.26 0 00-.25.269l.02.537a.262.262 0 00.262.248h.01a.26.26 0 00.25-.269l-.02-.537a.251.251 0 00-.272-.248zm16.165-34.481a.84.84 0 00-.588-1.026.859.859 0 00-1.036.578.833.833 0 00.588 1.026.844.844 0 001.037-.579zm-.504-.138a.326.326 0 01-.393.22.318.318 0 01.087-.626.336.336 0 01.282.162.331.331 0 01.024.244zm.376 2.487c.257.454.678.937 1.075.937a.43.43 0 00.216-.056c.41-.23.246-.943-.098-1.55-.257-.454-.675-.936-1.075-.936-.08 0-.15.017-.216.055-.114.065-.299.241-.222.703.041.258.153.557.32.847zm.737-.41c.21.368.275.668.275.806-.122-.069-.344-.28-.556-.651-.213-.372-.275-.668-.275-.806.121.069.344.279.556.651zm-2.223-3.134c.077 0 .15-.017.216-.055.115-.066.3-.241.223-.703a2.659 2.659 0 00-.324-.847c-.257-.455-.675-.937-1.075-.937a.428.428 0 00-.216.055c-.41.231-.247.944.098 1.55.264.451.682.937 1.078.937zm-.337-1.35c.209.368.278.668.275.806-.122-.07-.348-.28-.557-.648-.209-.368-.275-.668-.275-.806.122.07.348.28.557.648zm2.139 1.384a.457.457 0 00.035.358c.052.09.185.242.501.242.293 0 .679-.124 1.062-.338.292-.165.55-.365.716-.561.306-.355.24-.603.174-.717-.063-.11-.202-.237-.504-.237-.293 0-.679.124-1.062.337-.379.21-.82.565-.922.916zm1.187-.471c.362-.204.668-.273.814-.27-.073.121-.285.342-.654.552-.362.203-.668.275-.814.269.07-.121.282-.341.654-.551zm-3.222 1.987c-.063-.11-.202-.238-.501-.238-.292 0-.678.124-1.061.337a2.786 2.786 0 00-.717.562c-.306.355-.24.602-.174.716.063.11.198.238.501.238.292 0 .679-.124 1.061-.338.61-.34 1.124-.871.891-1.277zm-1.148.826c-.362.203-.672.269-.814.269.073-.12.282-.341.654-.551.362-.203.654-.266.814-.269-.073.124-.285.344-.654.551zm4.113-1.481c-.585 0-.742.245-.783.393-.126.451.497.84 1.176 1.026.264.072.525.11.758.11.588 0 .745-.244.783-.389.125-.451-.501-.84-1.176-1.026a2.797 2.797 0 00-.758-.114zm.532.92c-.41-.114-.672-.28-.77-.38.13-.034.505-.027.857.07.41.113.671.279.769.379-.126.03-.505.027-.856-.07zm-4.391-.769c.585 0 .741-.244.783-.389.125-.451-.501-.84-1.176-1.026a2.924 2.924 0 00-.758-.11c-.588 0-.745.244-.787.392-.125.452.501.84 1.176 1.027.268.065.529.106.762.106zm-.532-.92c.41.114.671.28.769.38-.13.034-.508.027-.856-.07-.41-.113-.672-.278-.77-.378.13-.035.505-.028.857.069zm2.779-.291c.039.01.077.013.115.013.439 0 .773-.633.922-1.178.09-.32.129-.64.108-.898-.038-.465-.26-.593-.39-.627a.408.408 0 00-.11-.014c-.44 0-.773.634-.923 1.178-.09.32-.129.64-.108.899.038.465.258.592.386.627zm.223-1.388c.115-.41.282-.669.383-.762.035.135.045.441-.07.848-.115.41-.282.664-.382.76-.039-.13-.046-.437.07-.846zm-.577 5.186c.188-.668.174-1.401-.282-1.525a.392.392 0 00-.111-.014c-.439 0-.773.634-.926 1.178-.188.668-.174 1.401.282 1.526.035.01.073.013.111.013.439 0 .773-.633.926-1.178zm-.887.624c-.035-.134-.046-.441.07-.85.114-.41.281-.666.382-.762.035.134.045.44-.07.847-.114.414-.281.668-.382.765zm5.305 40.148l-.515-4.064a.256.256 0 00-.289-.223l-7.233.898a.26.26 0 00-.226.29l.515 4.064c.01.069.045.131.097.172a.27.27 0 00.16.055c.01 0 .021 0 .032-.003l7.233-.899a.262.262 0 00.226-.29zm-7.264.641l-.45-3.55 6.715-.838.45 3.551-6.715.837z" fill="#999"/><path opacity=".8" d="M63.965 99.381a1.355 1.355 0 00-1.183 1.509 1.361 1.361 0 001.524 1.174 1.356 1.356 0 001.183-1.508 1.367 1.367 0 00-1.524-1.175zm.275 2.17a.841.841 0 01-.94-.723.835.835 0 01.835-.937c.425 0 .783.313.835.73a.84.84 0 01-.73.93zm-2.157-1.981l-.839.104a.26.26 0 00-.226.29.26.26 0 00.257.226c.01 0 .021 0 .035-.003l.839-.103a.26.26 0 00.226-.29.26.26 0 00-.292-.224zM49.235 60.125a3.485 3.485 0 00-1.531-.072.262.262 0 00-.205.186c-.028.096.003.2.08.265a2.913 2.913 0 01.908 2.986 2.961 2.961 0 01-2.331 2.098.262.262 0 00-.205.186c-.028.096.003.2.08.265a3.506 3.506 0 002.278.84 3.473 3.473 0 003.344-2.521c.511-1.829-.574-3.727-2.418-4.233zm1.917 4.092a2.953 2.953 0 01-3.632 2.035 2.893 2.893 0 01-.72-.303 3.472 3.472 0 002.191-2.325 3.436 3.436 0 00-.671-3.11c.26 0 .522.038.776.107 1.565.434 2.49 2.046 2.056 3.596z" fill="#999"/><path opacity=".8" d="M44.41 62.67l-.314.655a.258.258 0 00.032.272.269.269 0 00.26.093l.714-.155.532.496a.267.267 0 00.178.07.264.264 0 00.09-.018.256.256 0 00.167-.217l.073-.72.64-.348a.259.259 0 00.136-.237.253.253 0 00-.157-.224l-.668-.293-.135-.71a.253.253 0 00-.188-.2.263.263 0 00-.265.077l-.487.54-.723-.09a.257.257 0 00-.25.114.25.25 0 00-.008.272l.373.624zm.685-.392c.087.01.17-.02.226-.086l.226-.251.063.33a.269.269 0 00.15.19l.309.134-.296.162a.264.264 0 00-.135.2l-.035.334-.247-.231a.267.267 0 00-.178-.069c-.017 0-.038 0-.055.007l-.33.072.145-.303a.268.268 0 00-.01-.24l-.17-.29.337.041zm36.863 2.236c.004.104-.003.207-.014.31.014-.086.025-.175.025-.265l-.01-.045zm-.956.885c-.341.22-.804.248-1.208.076-.612-.265-.737-.737-.657-1.058.052-.213.233-.458.56-.434.212.014.362.08.452.19.146.182.105.451.101.458a.26.26 0 00.212.3.26.26 0 00.303-.21c.01-.052.08-.503-.202-.862-.184-.234-.463-.365-.828-.389-.532-.034-.97.293-1.103.827-.139.558.101 1.285.954 1.656a1.867 1.867 0 00.98.145c.24-.141.45-.337.603-.582a1.77 1.77 0 00.254-.727.988.988 0 01-.421.61z" fill="#999"/><path opacity=".8" d="M77.686 63.353c-.202.32-.31.669-.341 1.02a.252.252 0 01.146.03.258.258 0 01.09.356c-.073.12-.128.244-.174.361.14.558.487 1.061 1.016 1.388a2.321 2.321 0 001.994.214h-.014a.258.258 0 01-.226-.29.26.26 0 01.292-.223c.306.037.588.013.842-.059a2.24 2.24 0 00.296-.372 2.278 2.278 0 00-.738-3.155 2.37 2.37 0 00-.918-.327 1.449 1.449 0 00-.306.338.26.26 0 01-.442-.276c.007-.014.02-.027.028-.041a2.292 2.292 0 00-1.545 1.036zm1.962-.56c.334 0 .661.092.946.268a1.76 1.76 0 01.825 1.715 1.72 1.72 0 01-.254.727 1.76 1.76 0 01-.602.582 1.804 1.804 0 01-1.865-.017 1.76 1.76 0 01-.57-2.442 1.79 1.79 0 011.52-.834z" fill="#999"/><path opacity=".8" d="M81.6 61.763c-.564-.317-1.065-.303-1.468-.155.059.065.093.113.097.12a.253.253 0 01-.063.358.259.259 0 01-.361-.062c-.004-.003-.053-.072-.147-.155a1.939 1.939 0 00-.452.49.256.256 0 00.084.354.26.26 0 00.358-.08c.024-.037.129-.192.306-.337.285-.23.759-.437 1.388-.086 1.152.644 1.451 1.891 1.152 2.79-.198.6-.623.995-1.18 1.15a2.107 2.107 0 01-.841.059.262.262 0 00-.293.224.26.26 0 00.226.29h.014c.126.013.247.023.362.023.338 0 .63-.062.89-.165a.876.876 0 00.004-.341.262.262 0 01.508-.12c.01.048.021.1.025.158.386-.3.647-.706.782-1.116.366-1.095.004-2.618-1.391-3.4z" fill="#999"/><path opacity=".8" d="M81.868 65.93a.26.26 0 00-.195.31.92.92 0 010 .34c-.056.283-.261.672-.943.93-.933.352-2.394-.054-3.069-.847-.386-.454-.466-.981-.254-1.54.046-.12.101-.24.174-.36a.256.256 0 00-.09-.356.24.24 0 00-.146-.03.258.258 0 00-.213.12 2.397 2.397 0 00-.358 1.078c.08.09.181.148.296.169a.259.259 0 01.212.3.263.263 0 01-.257.213c-.014 0-.032 0-.046-.003a.912.912 0 01-.139-.035c.077.272.212.534.421.779.609.716 1.715 1.157 2.707 1.157.337 0 .66-.052.946-.159 1.117-.42 1.336-1.23 1.294-1.711a1.533 1.533 0 00-.024-.159.266.266 0 00-.316-.196z" fill="#999"/><path opacity=".8" d="M77.025 66.254a.259.259 0 00.045-.513.516.516 0 01-.296-.17.917.917 0 01-.184-.347c-.24-.796.097-2.26.974-3.083.48-.45.936-.657 1.364-.62.334.031.588.214.734.348.09.086.142.152.146.155a.26.26 0 00.362.062.254.254 0 00.062-.358 1.517 1.517 0 00-.097-.12c-.174-.19-.567-.545-1.148-.6-.585-.058-1.183.197-1.778.758-1.026.968-1.406 2.645-1.113 3.606.132.434.396.727.748.84a.91.91 0 00.139.035c.01.007.024.007.042.007zM44.063 78.618c.01-.003.021-.013.031-.017h.007c.018-.007.039-.007.06-.007.014 0 .027-.003.041-.003.014 0 .028.007.046.014a.303.303 0 01.059.02l.177.104 1.781-.575c.547-.176.846-.758.668-1.299l-.702-2.142a1.035 1.035 0 00-.992-.713c-.108 0-.22.017-.323.052l-4.196 1.346c-.265.086-.48.269-.606.514-.125.244-.15.523-.062.785l.703 2.142a1.038 1.038 0 001.315.661l1.718-.55.084-.187a.243.243 0 01.191-.145zm-2.157.393a.527.527 0 01-.654-.33l-.703-2.143a.514.514 0 01.334-.647l4.2-1.35a.52.52 0 01.654.33l.702 2.143a.515.515 0 01-.334.647l-4.199 1.35z" fill="#999"/><path opacity=".8" d="M41.684 76.269l-.495.158a.257.257 0 10.16.49l.495-.159a.257.257 0 10-.16-.489zm2.24 2.649c-.007-.017-.003-.038-.007-.055l-.003-.045c0-.014.007-.028.01-.038.007-.02.01-.038.021-.058 0 0 0-.004.004-.007.007-.01.017-.018.024-.028.014-.017.024-.03.042-.045.014-.01.031-.017.045-.027 0 0 .003 0 .003-.004a.254.254 0 00-.195.145l-.083.186-1.68 3.75a.256.256 0 00.236.362.264.264 0 00.24-.155l1.531-3.416-.184-.569c-.004.01 0 .007-.004.004zm4.144 1.86l-3.587-2.056-.178-.104c-.003 0-.003 0-.006-.003.055.03.1.079.125.144l.209.641 3.176 1.819a.262.262 0 00.132.034c.09 0 .178-.045.226-.13a.252.252 0 00-.097-.345zm-3.865-2.188c.014 0 .027.007.044.014-.017-.007-.03-.013-.044-.013zm-.046.004c-.021 0-.038 0-.059.007.02-.007.041-.007.059-.007z" fill="#999"/><path opacity=".8" d="M43.924 78.917c-.007-.017-.003-.037-.007-.054.004.02.004.037.007.054zm.021-.196c.007-.014.017-.02.024-.03-.007.01-.017.013-.024.027.003 0 .003.003 0 .003zm-.028.096c0-.013.007-.027.01-.037-.003.013-.01.024-.01.037zm.094-.172c.014-.01.031-.017.045-.027-.014.01-.031.017-.045.027zm.289-.023a.153.153 0 00-.052-.018c-.014-.003-.028-.01-.045-.013l-.042.003c-.021 0-.038 0-.06.007h-.006c-.01.003-.021.014-.032.017 0 0-.003 0-.003.004-.014.007-.031.013-.045.027a.157.157 0 00-.039.045l-.024.03c-.01.018-.014.039-.02.06-.004.013-.011.024-.011.037-.004.014.003.028.003.045 0 .017 0 .038.007.055v.007l.185.568.817 2.49a.26.26 0 00.494-.158l-.793-2.418-.209-.64a.256.256 0 00-.125-.148zm-.752-2.704a.976.976 0 00-.94 1.278.982.982 0 001.243.627.977.977 0 00.633-1.23.977.977 0 00-.936-.675zm.143 1.409a.47.47 0 01-.584-.293.46.46 0 01.438-.603c.202 0 .38.128.438.317a.45.45 0 01-.292.579zm40.279-.745l-4.067-.572a.996.996 0 00-1.127.837l-.765 5.342a.983.983 0 00.842 1.113l4.067.575a.999.999 0 001.124-.837l.768-5.346a.982.982 0 00-.842-1.112zm.328 1.04l-.77 5.345a.472.472 0 01-.535.397l-4.064-.572a.46.46 0 01-.31-.183.462.462 0 01-.09-.348l.769-5.345a.473.473 0 01.466-.403c.021 0 .045 0 .066.004l4.067.575a.47.47 0 01.4.53z" fill="#999"/><path opacity=".8" d="M82.21 78.263c-.223 0-.421.062-.578.168a1.06 1.06 0 00-.821-.372c-.466 0-1.005.3-1.127 1.134-.17 1.174 1.277 2.41 1.34 2.462a.26.26 0 00.27.041c.074-.03 1.806-.77 1.984-1.997.08-.558-.098-.895-.258-1.078a1.071 1.071 0 00-.81-.358zm.553 1.367c-.1.7-1.026 1.285-1.524 1.526-.407-.383-1.134-1.22-1.037-1.888.063-.437.286-.688.61-.688.156 0 .309.065.4.168.058.07.086.148.072.231a.262.262 0 00.518.072c.029-.182.23-.268.408-.268.163 0 .316.065.417.179.13.148.178.379.136.668z" fill="#999"/><rect x="53" y="69" width="19" height="19" rx="4" fill="#C69"/><path d="M66.348 73.56l-.238-.665-.688.308c-.447.2-.871.401-1.275.603-.347-.414-.728-.84-1.145-1.277L62.5 72l-.503.529a27.78 27.78 0 00-1.145 1.276 31.331 31.331 0 00-1.275-.603l-.688-.308-.237.666c-1.187 3.333-1.364 5.822-.946 7.61.096.869.496 1.631 1.084 2.242l.004.004c.975 1.145 2.349 1.62 3.708 1.582 1.357.039 2.73-.436 3.706-1.582l.004-.004c.588-.61.989-1.374 1.085-2.242.417-1.787.24-4.277-.948-7.61zm-3.849-.062c.245.272.479.537.704.8a29.38 29.38 0 00-.703.41 34.1 34.1 0 00-.704-.41c.224-.263.459-.528.703-.8zm-2.812 1.111c.6.285 1.148.57 1.65.854-1.034.729-1.816 1.454-2.386 2.163.133-.893.37-1.896.736-3.017zm5.466 8.069c-1.013 1.188-2.655 1.345-3.987.833-1.332-.513-2.349-1.694-2.114-3.182.26-1.651 1.977-3.684 6.26-5.72 1.373 4.214.964 6.75-.16 8.069z" fill="#fff"/><path opacity=".7" d="M42.601 28h39.8c4.136 0 7.5 3.32 7.5 7.403v84.734c0 4.081-3.364 7.403-7.5 7.403h-39.8c-4.134 0-7.5-3.321-7.5-7.403V35.403c.002-4.082 3.366-7.403 7.5-7.403zM87.62 44.105H37.384v67.282h50.235V44.105zm-5.217-13.852h-39.8c-2.877 0-5.218 2.31-5.218 5.15v6.45H87.62v-6.45c0-2.84-2.34-5.15-5.217-5.15zm-39.8 95.033h39.8c2.876 0 5.217-2.311 5.217-5.151v-6.495H37.384v6.497c0 2.839 2.34 5.149 5.217 5.149z" fill="#999"/><path d="M67.449 37.26h-9.894c-.63 0-1.14-.505-1.14-1.126 0-.622.51-1.126 1.14-1.126h9.894c.63 0 1.14.504 1.14 1.126 0 .621-.51 1.125-1.14 1.125z" fill="#999"/></svg>