<svg preserveAspectRatio="none" width="457" height="45" viewBox="0 0 457 45" fill="none" xmlns="http://www.w3.org/2000/svg">
<path fill-rule="evenodd" clip-rule="evenodd" d="M331 0C327.686 0 325 2.68629 325 6V39C325 42.3137 327.686 45 331 45H451C454.314 45 457 42.3137 457 39V37C454.791 37 453 35.2091 453 33C453 30.7909 454.791 29 457 29V26C454.791 26 453 24.2091 453 22C453 19.7909 454.791 18 457 18V14C454.791 14 453 12.2091 453 10C453 7.79086 454.791 6 457 6C457 2.68629 454.314 0 451 0H331Z" fill="#C555E4"/>
<path fill-rule="evenodd" clip-rule="evenodd" d="M6 0C2.68629 0 0 2.68629 0 6V7C2.20914 7 4 8.79086 4 11C4 13.2091 2.20914 15 0 15V19C2.20914 19 4 20.7909 4 23C4 25.2091 2.20914 27 0 27V30C2.20914 30 4 31.7909 4 34C4 36.2091 2.20914 38 0 38V39C0 42.3137 2.68629 45 6 45H319C322.314 45 325 42.3137 325 39V6C325 2.68629 322.314 0 319 0H6Z" fill="#C555E4"/>
<circle cx="325" cy="11" r="2" fill="white"/>
<circle cx="325" cy="27" r="2" fill="white"/>
<circle cx="325" cy="35" r="2" fill="white"/>
<circle cx="325" cy="19" r="2" fill="white"/>
</svg>
