<?xml version="1.0" encoding="utf-8"?>
<!-- Generator: Adobe Illustrator 15.0.0, SVG Export Plug-In . SVG Version: 6.00 Build 0)  -->
<!DOCTYPE svg PUBLIC "-//W3C//DTD SVG 1.1//EN" "http://www.w3.org/Graphics/SVG/1.1/DTD/svg11.dtd">
<svg version="1.1" id="Слой_1" xmlns="http://www.w3.org/2000/svg" xmlns:xlink="http://www.w3.org/1999/xlink" x="0px" y="0px"
	 width="48px" height="48px" viewBox="0 0 48 48" enable-background="new 0 0 48 48" xml:space="preserve">
<g>
	<g>
		<path fill="#C6327B" d="M43.531,6.245H4.469c-2.215,0-4.046,1.616-4.391,3.735c0.009,0,0.017-0.002,0.026-0.002
			c0.931,0,1.685,0.753,1.685,1.685c0,0.931-0.754,1.684-1.685,1.684c-0.031,0-0.059-0.007-0.089-0.009v1.585
			c0.03-0.001,0.059-0.01,0.089-0.01c0.931,0,1.685,0.754,1.685,1.686c0,0.931-0.754,1.685-1.685,1.685
			c-0.031,0-0.059-0.007-0.089-0.01v1.584c0.03-0.001,0.059-0.01,0.089-0.01c0.931,0,1.685,0.756,1.685,1.686
			c0,0.93-0.754,1.685-1.685,1.685c-0.031,0-0.059-0.007-0.089-0.009v1.583c0.03-0.001,0.059-0.009,0.089-0.009
			c0.931,0,1.685,0.754,1.685,1.685c0,0.932-0.754,1.686-1.685,1.686c-0.031,0-0.059-0.008-0.089-0.01v1.586
			c0.03-0.002,0.059-0.01,0.089-0.01c0.931,0,1.685,0.752,1.685,1.686c0,0.93-0.754,1.684-1.685,1.684
			c-0.031,0-0.059-0.007-0.089-0.01v1.584c0.03-0.001,0.059-0.01,0.089-0.01c0.931,0,1.685,0.755,1.685,1.686
			c0,0.93-0.754,1.686-1.685,1.686c-0.009,0-0.018-0.002-0.026-0.002c0.345,2.117,2.177,3.733,4.391,3.733h39.062
			c2.46,0,4.453-1.991,4.453-4.456v-26.6C47.984,8.239,45.991,6.245,43.531,6.245z"/>
	</g>
</g>
</svg>
