<svg width="321" height="45" viewBox="0 0 321 45" fill="none" xmlns="http://www.w3.org/2000/svg">
<path fill-rule="evenodd" clip-rule="evenodd" d="M219 0C215.686 0 213 2.68629 213 6V39C213 42.3137 215.686 45 219 45H315C318.314 45 321 42.3137 321 39V37C318.791 37 317 35.2091 317 33C317 30.7909 318.791 29 321 29V26C318.791 26 317 24.2091 317 22C317 19.7909 318.791 18 321 18V14C318.791 14 317 12.2091 317 10C317 7.79086 318.791 6 321 6C321 2.68629 318.314 0 315 0H219Z" fill="#C555E4"/>
<path fill-rule="evenodd" clip-rule="evenodd" d="M6 0C2.68629 0 0 2.68629 0 6V7C2.20914 7 4 8.79086 4 11C4 13.2091 2.20914 15 0 15V19C2.20914 19 4 20.7909 4 23C4 25.2091 2.20914 27 0 27V30C2.20914 30 4 31.7909 4 34C4 36.2091 2.20914 38 0 38V39C0 42.3137 2.6863 45 6 45H207C210.314 45 213 42.3137 213 39V6C213 2.68629 210.314 0 207 0H6Z" fill="#C555E4"/>
<circle cx="213" cy="11" r="2" fill="white"/>
<circle cx="213" cy="27" r="2" fill="white"/>
<circle cx="213" cy="35" r="2" fill="white"/>
<circle cx="213" cy="19" r="2" fill="white"/>
</svg>
