<svg width="470" height="45" fill="none" xmlns="http://www.w3.org/2000/svg"><path fill-rule="evenodd" clip-rule="evenodd" d="M344 0a6 6 0 00-6 6v33a6 6 0 006 6h120a6 6 0 006-6v-2a4 4 0 010-8v-3a4 4 0 010-8v-4a4 4 0 010-8 6 6 0 00-6-6H344zM6 0a6 6 0 00-6 6v1a4 4 0 110 8v4a4 4 0 010 8v3a4 4 0 010 8v1a6 6 0 006 6h326a6 6 0 006-6V6a6 6 0 00-6-6H6z" fill="#E71F75"/><circle cx="338" cy="11" r="2" fill="#fff"/><circle cx="338" cy="27" r="2" fill="#fff"/><circle cx="338" cy="35" r="2" fill="#fff"/><circle cx="338" cy="19" r="2" fill="#fff"/></svg>