<svg width="459" height="45" viewBox="0 0 459 45" fill="none" xmlns="http://www.w3.org/2000/svg">
<path fill-rule="evenodd" clip-rule="evenodd" d="M345 0C341.686 0 339 2.68629 339 6V39C339 42.3137 341.686 45 345 45H453C456.314 45 459 42.3137 459 39V37C456.791 37 455 35.2091 455 33C455 30.7909 456.791 29 459 29V26C456.791 26 455 24.2091 455 22C455 19.7909 456.791 18 459 18V14C456.791 14 455 12.2091 455 10C455 7.79086 456.791 6 459 6C459 2.68629 456.314 0 453 0H345Z" fill="#3ECF8E"/>
<path fill-rule="evenodd" clip-rule="evenodd" d="M6 0C2.68629 0 0 2.68629 0 6V7C2.20914 7 4 8.79086 4 11C4 13.2091 2.20914 15 0 15V19C2.20914 19 4 20.7909 4 23C4 25.2091 2.20914 27 0 27V30C2.20914 30 4 31.7909 4 34C4 36.2091 2.20914 38 0 38V39C0 42.3137 2.68629 45 6 45H333C336.314 45 339 42.3137 339 39V6C339 2.68629 336.314 0 333 0H6Z" fill="#3ECF8E"/>
<circle cx="339" cy="11" r="2" fill="white"/>
<circle cx="339" cy="27" r="2" fill="white"/>
<circle cx="339" cy="35" r="2" fill="white"/>
<circle cx="339" cy="19" r="2" fill="white"/>
</svg>
