<svg width="18" height="18" fill="none" xmlns="http://www.w3.org/2000/svg"><path d="M3.772 2.685C3.772 1.755 4.55 1 5.505 1h6.605c.958 0 1.735.756 1.735 1.685v10.838c0 .93-.777 1.683-1.735 1.683H5.505c-.956 0-1.733-.753-1.733-1.683v-4.92" stroke="#303" stroke-miterlimit="10" stroke-linecap="round" stroke-linejoin="round"/><path d="M17 13.54c0 .929-.776 1.684-1.733 1.684H13.37c-.956 0-1.734-.755-1.734-1.684V8.12c0-.93.778-1.685 1.733-1.685h1.897c.957 0 1.733.755 1.733 1.685v5.42z" fill="#fff" stroke="#303" stroke-miterlimit="10" stroke-linecap="round" stroke-linejoin="round"/><path d="M17 10.42c-1.6 0-.776.018-1.733.018 0 0-1.506.315-1.506-1.788V6.384h1.506c.957 0 1.733.756 1.733 1.686v2.35zM7.06 17c1.05 0 1.903-.829 1.903-1.85 0-1.023-.852-1.851-1.903-1.851-1.051 0-1.904.828-1.904 1.85C5.156 16.171 6.01 17 7.06 17zm6.092 0c1.052 0 1.904-.829 1.904-1.85 0-1.023-.852-1.851-1.904-1.851-1.05 0-1.903.828-1.903 1.85 0 1.022.852 1.851 1.903 1.851z" fill="#fff" stroke="#303" stroke-miterlimit="10" stroke-linecap="round" stroke-linejoin="round"/><path d="M7.095 4.587H1m1.671 2.199H1" stroke="#303" stroke-miterlimit="10" stroke-linecap="round" stroke-linejoin="round"/></svg>