<svg width="18" height="23" fill="none" xmlns="http://www.w3.org/2000/svg"><path d="M15.106 4.723h-1.042V3.031C14.064 1.359 12.762 0 11.16 0H2.904C1.302 0 0 1.359 0 3.03v14.54c0 1.256.737 2.338 1.789 2.794C2.064 21.861 3.332 23 4.845 23c1.435 0 2.644-1.02 3.003-2.405h1.607C9.813 21.98 11.022 23 12.457 23c1.44 0 2.649-1.026 3.002-2.41 1.43-.19 2.54-1.462 2.54-3V7.754c.01-1.672-1.296-3.03-2.893-3.03zm.388 14.292c-.32-1.44-1.558-2.518-3.032-2.518-.408 0-.801.088-1.155.236V7.821c0-.734.511-1.344 1.18-1.467v4.677c0 2.354 1.223 3.19 2.363 3.19.133 0 .24-.01.315-.021.496 0 .594-.005.707-.01.094-.005.207-.01.659-.016v3.416a1.472 1.472 0 01-1.037 1.425zm-3.032 2.447c-.904 0-1.641-.77-1.641-1.713 0-.944.737-1.713 1.64-1.713.905 0 1.642.77 1.642 1.713 0 .943-.737 1.713-1.641 1.713zm2.644-8.8a.677.677 0 00-.143.015.434.434 0 01-.113.01c-.59 0-.89-.554-.89-1.651v-4.77h1.146c.786 0 1.43.667 1.43 1.493v4.882c-.502.005-.625.01-.738.015-.103 0-.196.005-.692.005zM1.474 3.03c0-.82.639-1.493 1.43-1.493h8.256c.786 0 1.43.667 1.43 1.493V4.8c-1.534.082-2.757 1.405-2.757 3.02v9.77c0 .128.01.256.025.384a3.322 3.322 0 00-.438 1.088H7.887c-.305-1.462-1.553-2.56-3.042-2.56-1.346 0-2.491.898-2.924 2.144a1.505 1.505 0 01-.447-1.077V3.031zm5.012 16.718c0 .943-.737 1.713-1.64 1.713-.905 0-1.642-.77-1.642-1.713 0-.944.737-1.713 1.641-1.713s1.641.77 1.641 1.713z" fill="#999"/></svg>