<svg xmlns="http://www.w3.org/2000/svg" width="24" height="24" viewBox="2 2 24 24"><g fill="#311833"><path d="M22.952 9.558h-1.311V4.962a3.05 3.05 0 00-3.048-3.047H9.478a3.05 3.05 0 00-3.046 3.047.654.654 0 101.308 0c0-.959.78-1.738 1.738-1.738h9.116c.96 0 1.737.779 1.737 1.738v4.667a3.05 3.05 0 00-3.043 3.045v7.693c0 .15.016.298.038.441a3.21 3.21 0 00-.518 1.273H14.85a3.282 3.282 0 00-3.227-2.709 3.287 3.287 0 00-3.153 2.383 1.73 1.73 0 01-.73-1.411V13.36a.654.654 0 10-1.308 0v6.985c0 1.296.814 2.403 1.958 2.842a3.283 3.283 0 003.233 2.748 3.283 3.283 0 003.193-2.544h2.024a3.286 3.286 0 003.195 2.544 3.281 3.281 0 003.191-2.536A3.047 3.047 0 0026 20.368v-7.765a3.05 3.05 0 00-3.048-3.045zm.31 12.516a3.285 3.285 0 00-3.226-2.7c-.518 0-1.003.125-1.438.337v-7.036c0-.919.718-1.666 1.624-1.725v2.478c0 2.985 1.876 3.216 2.452 3.216.142 0 .259-.013.333-.022.551 0 .663-.007.785-.013.114-.005.257-.012.898-.015v3.774c0 .854-.62 1.56-1.428 1.706zm-3.226 2.554a1.975 1.975 0 01-1.973-1.974c0-1.087.884-1.972 1.973-1.972 1.086 0 1.972.885 1.972 1.972a1.976 1.976 0 01-1.972 1.974zm2.916-9.316a.714.714 0 00-.129.013.916.916 0 01-.149.011c-.946 0-1.144-1.038-1.144-1.908v-2.561h1.422c.959 0 1.738.779 1.738 1.737v2.681c-.685.002-.83.01-.963.017-.118.005-.22.01-.775.01zm-9.357 7.342c0 1.089-.885 1.974-1.972 1.974s-1.972-.885-1.972-1.974c0-1.087.885-1.972 1.972-1.972s1.972.885 1.972 1.972z"/><path d="M2.654 8.315h8.413a.653.653 0 100-1.308H2.654a.654.654 0 000 1.308zm2.306 1.813H2.654a.654.654 0 100 1.309H4.96a.655.655 0 000-1.309z"/></g></svg>