<svg width="57" height="51" viewBox="0 0 57 51" fill="none" xmlns="http://www.w3.org/2000/svg">
<path d="M56.4559 44.6947L31.9751 2.29267C31.2498 1.03633 29.9507 0.286316 28.5 0.286316C27.0493 0.286316 25.7502 1.03633 25.0249 2.29267L0.544061 44.6947C-0.181353 45.951 -0.181353 47.4512 0.544061 48.7074C1.26936 49.9637 2.56845 50.7137 4.01917 50.7137H52.9808C54.4315 50.7137 55.7306 49.9637 56.4559 48.7074C57.1814 47.4512 57.1814 45.951 56.4559 44.6947ZM53.5601 47.0355C53.488 47.1604 53.3167 47.3699 52.9809 47.3699H4.01917C3.68318 47.3699 3.51196 47.1605 3.44004 47.0355C3.36801 46.9107 3.27204 46.6576 3.44004 46.3667L27.9208 3.9646C28.0888 3.6737 28.3557 3.63017 28.4999 3.63017C28.6442 3.63017 28.9111 3.67359 29.079 3.9646L53.56 46.3667C53.7281 46.6576 53.6321 46.9107 53.5601 47.0355Z" fill="#E71F75"/>
<path d="M30.1726 15.4911H26.8286V33.3255H30.1726V15.4911Z" fill="#E71F75"/>
<path d="M28.5006 41.1282C29.7318 41.1282 30.7299 40.1301 30.7299 38.8988C30.7299 37.6676 29.7318 36.6695 28.5006 36.6695C27.2694 36.6695 26.2712 37.6676 26.2712 38.8988C26.2712 40.1301 27.2694 41.1282 28.5006 41.1282Z" fill="#E71F75"/>
</svg>
