<svg xmlns="http://www.w3.org/2000/svg" width="32" height="32"><path fill="none" d="M6 6h20v20H6z"/><path fill="#999" d="M23.006 13.182c0-.89-1.039-1.336-3.085-1.336-.356 0-.673.015-.969.045.272-.229.524-.466.717-.658.569-.568 1.521-1.636 1.521-2.422a1 1 0 00-.282-.705.998.998 0 00-.712-.286c-.786 0-1.854.951-2.418 1.517a9.624 9.624 0 00-.657.719c.026-.292.045-.609.045-.97 0-2.047-.449-3.084-1.34-3.084-.89 0-1.341 1.037-1.341 3.084 0 .361.021.678.045.977a10.74 10.74 0 00-.652-.726c-.569-.566-1.638-1.517-2.422-1.517a1 1 0 00-.708.28 1.01 1.01 0 00-.288.711c0 .786.953 1.854 1.525 2.422.188.191.44.429.716.658a9.625 9.625 0 00-.972-.045c-2.047 0-3.087.446-3.087 1.336 0 .889 1.04 1.339 3.087 1.339.358 0 .673-.014.972-.044a9.731 9.731 0 00-.716.656c-.573.568-1.525 1.637-1.525 2.422a1 1 0 00.286.707.993.993 0 00.711.282c.785 0 1.853-.946 2.421-1.517.251-.254.464-.493.652-.723a11.45 11.45 0 00-.045.975c0 2.048.451 3.087 1.341 3.087.891 0 1.34-1.039 1.34-3.087 0-.356-.02-.678-.045-.975.189.23.4.469.656.723.563.57 1.633 1.517 2.42 1.517a.981.981 0 00.705-.282.981.981 0 00.289-.707c0-.785-.952-1.854-1.521-2.422a11.202 11.202 0 00-.717-.656c.296.03.611.044.969.044 2.045 0 3.084-.45 3.084-1.339zm-4.026 8.064c-2.269 1.15-3.03 4.207-3.03 4.207s2.914 1.195 5.188.045c2.268-1.148 3.028-4.209 3.028-4.209s-2.915-1.191-5.186-.043z"/><path fill="#999" d="M13.019 21.246c2.269 1.15 3.031 4.207 3.031 4.207s-2.914 1.195-5.188.045c-2.268-1.148-3.03-4.209-3.03-4.209s2.917-1.191 5.187-.043z"/></svg>