<?xml version="1.0" encoding="utf-8"?>
<!-- Generator: Adobe Illustrator 15.0.0, SVG Export Plug-In . SVG Version: 6.00 Build 0)  -->
<!DOCTYPE svg PUBLIC "-//W3C//DTD SVG 1.1//EN" "http://www.w3.org/Graphics/SVG/1.1/DTD/svg11.dtd">
<svg version="1.1" id="Слой_1" xmlns="http://www.w3.org/2000/svg" xmlns:xlink="http://www.w3.org/1999/xlink" x="0px" y="0px"
	 width="32px" height="32px" viewBox="0 0 32 32" enable-background="new 0 0 32 32" xml:space="preserve">
<g>
	<g>
		<path fill="#009933" d="M16.003,6.109c3.765,0,6.818,3.053,6.818,6.819c0,6.143-6.818,12.965-6.818,12.965
			s-6.819-6.957-6.819-12.965C9.184,9.162,12.237,6.109,16.003,6.109 M16.003,15.489c1.402,0,2.541-1.138,2.541-2.54
			c0-1.403-1.139-2.541-2.541-2.541c-1.403,0-2.541,1.138-2.541,2.541C13.462,14.352,14.6,15.489,16.003,15.489 M16.003,5.109
			c-4.312,0-7.819,3.508-7.819,7.819c0,6.343,6.815,13.369,7.105,13.665l0.708,0.722l0.714-0.715c0.29-0.291,7.11-7.189,7.11-13.672
			C23.821,8.617,20.314,5.109,16.003,5.109L16.003,5.109z M16.003,14.489c-0.85,0-1.541-0.691-1.541-1.54
			c0-0.85,0.691-1.541,1.541-1.541c0.849,0,1.541,0.691,1.541,1.541C17.544,13.798,16.853,14.489,16.003,14.489L16.003,14.489z"/>
	</g>
</g>
</svg>
