<svg xmlns="http://www.w3.org/2000/svg" width="17.305" height="21.63"><g stroke="#612158" stroke-linecap="round" stroke-linejoin="round" stroke-miterlimit="10"><path fill="#FFE320" d="M16.805 18.238c0 .482-.371.874-.83.874L8.66 21.104h0V7.217c0-.483.383-.701.83-.878l6.484-1.758c.459 0 .83.394.83.878v12.779z"/><path d="M11.066 9.585l3.366-.934m-3.366 3.818l3.366-.932" fill="none"/><path fill="#FFE320" d="M.5 18.238c0 .482.373.874.832.874l7.316 2.018c.018-.02.018-.02 0 0V7.217c0-.483-.324-.701-.83-.878L1.332 4.581c-.459 0-.832.394-.832.878v12.779z"/><path fill="none" d="M8.494 6.036s.031-1.684-.018-3.311C8.428 1.132 6.92-.021 5.721.74c-1.172.741-1.008 2.225.199 3.336 1.15 1.059 2.574 1.96 2.574 1.96zm.151 0s-.031-1.684.02-3.311C8.714 1.131 10.222-.022 11.421.74c1.172.741 1.008 2.225-.199 3.336-1.15 1.059-2.577 1.96-2.577 1.96z"/></g></svg>