<svg xmlns="http://www.w3.org/2000/svg" width="48" height="48"><g fill="none" stroke="#303" stroke-miterlimit="10"><path d="M22.905 21.874h2.188v11.399h-2.188zm0-3.697h2.188v3.606h-2.188z"/><path d="M33.17 21.382a.328.328 0 01-.328.328H15.159a.328.328 0 01-.328-.328V18.42c0-.18.147-.327.328-.327h17.683c.18 0 .328.147.328.327v2.962h0zm-1.482 11.561a.327.327 0 01-.328.328H16.64a.328.328 0 01-.328-.328V22.038c0-.181.147-.328.328-.328h14.719c.182 0 .328.147.328.328v10.905h.001z"/><path d="M19.412 18.25c-.8-1.248-.726-2.723.166-3.296.892-.571 2.265-.022 3.064 1.227.4.624.581 1.305.551 1.901m5.395.168c.801-1.248.727-2.723-.166-3.296-.893-.571-2.262-.022-3.064 1.227-.399.624-.58 1.305-.551 1.901"/></g></svg>