<svg width="16" height="18" fill="none" xmlns="http://www.w3.org/2000/svg"><path d="M15 14.757c0 .374-.319.678-.713.678l-6.28 1.545V6.21c0-.375.328-.544.712-.681l5.567-1.363c.395 0 .713.305.713.68v9.911H15zm-4.928-6.711l2.89-.724m-2.89 2.961l2.89-.723" stroke="#303" stroke-miterlimit="10" stroke-linecap="round" stroke-linejoin="round"/><path d="M1 14.757c0 .374.32.678.714.678L7.996 17c.016-.015.016-.015 0 0V6.21c0-.375-.278-.544-.713-.681L1.714 4.166c-.394 0-.714.305-.714.68v9.911zm6.864-9.463s.027-1.306-.016-2.568c-.04-1.235-1.336-2.13-2.365-1.54-1.006.575-.866 1.726.17 2.588.988.821 2.21 1.52 2.21 1.52zm.13 0s-.027-1.306.017-2.568c.042-1.236 1.337-2.13 2.366-1.54 1.006.575.866 1.726-.17 2.588-.988.821-2.213 1.52-2.213 1.52z" stroke="#303" stroke-miterlimit="10" stroke-linecap="round" stroke-linejoin="round"/></svg>