<?xml version="1.0" encoding="utf-8"?>
<!-- Generator: Adobe Illustrator 24.2.1, SVG Export Plug-In . SVG Version: 6.00 Build 0)  -->
<svg version="1.1" id="Layer_1" xmlns="http://www.w3.org/2000/svg" xmlns:xlink="http://www.w3.org/1999/xlink" x="0px" y="0px"
	 viewBox="0 0 32 32" style="enable-background:new 0 0 32 32;" xml:space="preserve">
<style type="text/css">
	.st0{fill:#4285F4;}
	.st1{fill:#34A853;}
	.st2{fill:#FBBC04;}
	.st3{fill:#EA4335;}
</style>
<path class="st0" d="M31.7,16.4c0-1.1-0.1-2.2-0.3-3.3H16.3v6.2H25c-0.2,1-0.6,1.9-1.1,2.8s-1.3,1.6-2.1,2.1v4H27
	C30,25.4,31.7,21.2,31.7,16.4z"/>
<path class="st1" d="M16.3,32c4.3,0,8-1.4,10.6-3.9l-5.2-4c-1.4,1-3.3,1.5-5.5,1.5c-4.2,0-7.7-2.8-9-6.6H2v4.1
	c1.3,2.6,3.4,4.9,5.9,6.4C10.4,31.2,13.3,32,16.3,32z"/>
<path class="st2" d="M7.3,19.1c-0.7-2-0.7-4.1,0-6.1V8.8H2C0.8,11,0.3,13.5,0.3,16c0,2.5,0.6,5,1.7,7.2L7.3,19.1z"/>
<path class="st3" d="M16.3,6.3c2.3,0,4.5,0.8,6.2,2.4l4.6-4.6C24.2,1.4,20.3,0,16.3,0c-3,0-5.9,0.8-8.4,2.4C5.4,3.9,3.3,6.2,2,8.8
	l5.3,4.1C8.6,9.1,12.1,6.3,16.3,6.3z"/>
</svg>
