<svg xmlns="http://www.w3.org/2000/svg" viewBox="0 0 72 29"><path d="M38.4 16.1v7.4H36V5.3h6.2c.7 0 1.5.1 2.2.4.7.3 1.3.7 1.9 1.2.5.5 1 1.1 1.3 1.7.2.7.4 1.4.4 2.1 0 .7-.1 1.5-.4 2.1-.3.7-.7 1.3-1.3 1.8-1.1 1-2.4 1.6-4 1.6l-3.9-.1zm0-8.6v6.4h3.9c.4 0 .9-.1 1.3-.2.4-.2.8-.4 1.1-.7.3-.3.5-.6.7-1 .2-.4.2-.8.2-1.2s-.1-.8-.2-1.2c-.2-.4-.4-.7-.7-1-.3-.3-.7-.6-1.1-.7-.4-.2-.8-.2-1.3-.2l-3.9-.2zm15 3.1c1.7 0 3.1.5 4.1 1.4 1 .9 1.5 2.2 1.5 3.8v7.7h-2.2v-1.7h-.1c-1 1.4-2.3 2.1-3.9 2.1-1.4 0-2.5-.4-3.5-1.2-.4-.4-.8-.8-1-1.4-.2-.5-.4-1.1-.4-1.7 0-1.3.5-2.3 1.5-3.1 1-.8 2.3-1.1 3.9-1.1 1.4 0 2.5.3 3.4.8v-.5c0-.4-.1-.8-.3-1.1-.2-.4-.4-.7-.7-.9-.6-.6-1.4-.9-2.3-.9-1.3 0-2.4.6-3.1 1.7l-2.1-1.3c1.3-1.8 2.9-2.6 5.2-2.6zm-3.1 9.1c0 .3.1.6.2.9.1.3.3.5.6.7.5.4 1.2.6 1.8.6 1 0 1.9-.4 2.6-1.1.8-.7 1.2-1.6 1.2-2.6-.7-.6-1.8-.9-3.1-.9-1 0-1.8.2-2.4.7-.5.4-.9 1-.9 1.7zM71.9 11L64 29h-2.4l2.9-6.3L59.4 11H62l3.7 9h.1l3.6-9h2.5z" fill="#5f6368"/><path d="M25.9 13.5c0-.9-.1-1.8-.2-2.7H13.2v5.1h7.1c-.1.8-.5 1.6-.9 2.3-.5.7-1 1.3-1.7 1.7v3.3H22c2.5-2.4 3.9-5.7 3.9-9.7z" fill="#4285f4"/><path d="M13.2 26.3c3.6 0 6.6-1.2 8.8-3.2l-4.3-3.3c-1.2.8-2.7 1.3-4.5 1.3-3.4 0-6.4-2.3-7.4-5.4H1.4v3.4c1.1 2.2 2.8 4 4.9 5.3 2.1 1.2 4.5 1.9 6.9 1.9z" fill="#34a853"/><path d="M5.8 15.7c-.6-1.6-.6-3.4 0-5V7.2H1.4C.5 9.1 0 11.1 0 13.2s.5 4.1 1.4 5.9l4.4-3.4z" fill="#fbbc04"/><path d="M13.2 5.2c1.9 0 3.7.7 5.1 2l3.8-3.8C19.7 1.2 16.5 0 13.2 0c-2.4 0-4.8.7-6.9 2-2.1 1.2-3.8 3.1-4.9 5.2l4.4 3.4c1-3.1 4-5.4 7.4-5.4z" fill="#ea4335"/></svg>