<?xml version="1.0" encoding="utf-8"?>
<!-- Generator: Adobe Illustrator 15.0.0, SVG Export Plug-In . SVG Version: 6.00 Build 0)  -->
<!DOCTYPE svg PUBLIC "-//W3C//DTD SVG 1.1//EN" "http://www.w3.org/Graphics/SVG/1.1/DTD/svg11.dtd">
<svg version="1.1" id="Слой_1" xmlns="http://www.w3.org/2000/svg" xmlns:xlink="http://www.w3.org/1999/xlink" x="0px" y="0px"
	 width="32px" height="32px" viewBox="0 0 32 32" enable-background="new 0 0 32 32" xml:space="preserve">
<g>
	<g>
		<path fill="#339933" d="M16,10.983c3.578,0,6.818,3.191,9.164,3.848c2.346,0.656,3.797,1.562,3.797,2.562
			c0,1-1.451,1.906-3.797,2.562c-2.346,0.654-5.586,1.061-9.164,1.061c-3.579,0-6.819-0.404-9.165-1.061
			c-2.346-0.657-3.796-1.562-3.796-2.562c0-1,1.45-1.906,3.796-2.562C9.181,14.174,12.422,10.983,16,10.983 M9.552,18.432
			c0.48,0,0.906-0.351,0.986-0.841c0.089-0.545-0.281-1.059-0.826-1.147c-0.286-0.046-0.57-0.094-0.853-0.146
			c-0.064-0.013-0.13-0.02-0.193-0.02c-0.471,0-0.884,0.341-0.973,0.82c-0.101,0.543,0.258,1.063,0.802,1.166
			c0.296,0.055,0.595,0.104,0.895,0.153C9.443,18.427,9.499,18.432,9.552,18.432 M22.168,18.432c0.053,0,0.107-0.005,0.162-0.015
			c0.301-0.05,0.598-0.101,0.896-0.153c0.543-0.101,0.9-0.623,0.801-1.166c-0.09-0.479-0.506-0.819-0.977-0.819
			c-0.062,0-0.127,0.006-0.189,0.019c-0.282,0.053-0.565,0.101-0.854,0.146c-0.545,0.09-0.914,0.604-0.824,1.147
			C21.262,18.081,21.688,18.432,22.168,18.432 M15.582,19.036c0.003,0,0.006,0,0.01,0c0.31-0.003,0.621-0.007,0.93-0.015
			c0.553-0.016,0.988-0.475,0.976-1.024c-0.015-0.535-0.457-0.978-0.972-0.978c-0.02,0-0.036,0-0.057,0.002
			c-0.297,0.008-0.598,0.012-0.896,0.015c-0.552,0.006-0.996,0.457-0.989,1.01C14.588,18.596,15.033,19.036,15.582,19.036 M16,9.983
			c-2.526,0-4.854,1.389-6.727,2.504c-1.011,0.603-1.966,1.172-2.708,1.38c-3.004,0.84-4.526,2.027-4.526,3.525
			c0,1.498,1.522,2.687,4.526,3.525c2.529,0.707,5.88,1.098,9.435,1.098c3.555,0,6.904-0.391,9.436-1.098
			c3.004-0.841,4.525-2.027,4.525-3.525c0-1.499-1.521-2.686-4.525-3.524c-0.742-0.208-1.697-0.777-2.709-1.381
			C20.854,11.372,18.525,9.983,16,9.983L16,9.983z"/>
	</g>
</g>
</svg>
