<svg version="1.1" id="Layer_1" xmlns="http://www.w3.org/2000/svg" x="0" y="0" viewBox="0 0 41 32" xml:space="preserve"><style>.st2{fill:#303}</style><path d="M.8 31.2V.7h10.6v30.5H.8z" fill="#ffdc00"/><path d="M11.3 31.2V.7h28.9v30.5H11.3z" fill="#fff"/><path class="st2" d="M40.2 0H.8C.3 0 0 .3 0 .8v30.5c0 .4.3.7.8.7h39.5c.4 0 .8-.3.8-.8V.8c-.1-.5-.4-.8-.9-.8zM1.5 1.5h9.1v29H1.5v-29zm38 29H12.1v-29h27.4v29z"/><path class="st2" d="M7.9 26.1H4c-.4 0-.8-.3-.8-.8s.3-.8.8-.8h4c.4 0 .8.3.8.8s-.5.8-.9.8zM17.2 9.1c-.4 0-.7-.3-.8-.7 0-.4.3-.8.7-.8l18-.1c.4 0 .8.3.8.7.1.4-.3.8-.7.8l-18 .1zM17.2 15.3c-.4 0-.7-.3-.8-.7 0-.4.3-.8.7-.8l18-.1c.4 0 .8.3.8.7 0 .4-.3.8-.7.8l-18 .1zM17.2 21.6c-.4 0-.7-.3-.8-.7 0-.4.3-.8.7-.8l9.4-.1c.4 0 .7.3.8.7 0 .4-.3.8-.7.8l-9.4.1z"/></svg>