<svg width="48" height="48" fill="none" xmlns="http://www.w3.org/2000/svg"><path d="M20.5 43.1c-9.1-1.7-16-9.6-16-19.2s6.9-17.5 16-19.2L11.9 1m4.9 12.1l3.7-8.4m7 .2c9.1 1.7 16 9.6 16 19.2s-6.9 17.5-16 19.2l8.6 3.6m-4.9-12l-3.7 8.4" stroke="#E71F75" stroke-width="2" stroke-miterlimit="10" stroke-linecap="round" stroke-linejoin="round"/><path d="M27.59 22.164s6.038-.82 5.212 4.037c-.89 5.048-6.037 2.335-6.037 2.335s2.605 4.353-2.224 5.173c-4.957.884-3.368-5.173-3.368-5.173-.7.757-4.13 2.523-5.783-1.073-1.461-3.217 3.495-3.911 3.495-3.911s-5.592-1.956-1.652-5.868c3.304-3.344 5.465 3.155 5.465 3.155s-.572-7.887 4.83-5.174c5.4 2.713.063 6.499.063 6.499z" stroke="#E71F75" stroke-width="2" stroke-miterlimit="10" stroke-linecap="round" stroke-linejoin="round"/><path d="M23.905 26.58c.983 0 1.78-.791 1.78-1.767 0-.976-.797-1.766-1.78-1.766-.982 0-1.779.79-1.779 1.766s.797 1.767 1.78 1.767z" fill="#E71F75"/></svg>