<svg width="48" height="48" fill="none" xmlns="http://www.w3.org/2000/svg"><path d="M8.4 32.7c1.9 1 4 1.5 6.3 1.5 7.6 0 13.7-6.1 13.7-13.7S22.3 6.8 14.7 6.8 1 12.9 1 20.5c0 3.4 1.2 6.5 3.2 8.9 0 0-1 3.4-3.1 4.7 0-.1 4.1.9 7.3-1.4z" fill="#fff" stroke="#E71F75" stroke-width="2" stroke-miterlimit="10" stroke-linecap="round" stroke-linejoin="round"/><path d="M39.5 39.7c-1.9 1-4 1.5-6.3 1.5-7.6 0-13.7-6.1-13.7-13.7s6.1-13.7 13.7-13.7 13.7 6.1 13.7 13.7c0 3.4-1.2 6.5-3.2 8.9 0 0 1 3.4 3.1 4.7 0-.1-4.1.9-7.3-1.4z" fill="#fff" stroke="#E71F75" stroke-width="2" stroke-miterlimit="10" stroke-linecap="round" stroke-linejoin="round"/><path d="M39.6 23.6H26.8m12.8 4H26.8m12.8 4H26.8" stroke="#E71F75" stroke-width="2" stroke-miterlimit="10" stroke-linecap="round" stroke-linejoin="round"/></svg>