<svg version="1.1" id="Layer_1" xmlns="http://www.w3.org/2000/svg" x="0" y="0" viewBox="0 0 42 34" xml:space="preserve"><style>.st1{fill:#666}</style><path d="M10.6 30c-1.1.6-2.4.1-3-1L1.2 16.7c-.6-1-.1-2.4 1-3L26.9 1.2c1.1-.6 2.4-.1 3 1l6.4 12.4c.6 1 .1 2.4-1 3L10.6 30z" fill="#ffdc00"/><path class="st1" d="M9.7 31c-1.1 0-2.1-.6-2.6-1.6L.6 17c-.3-.6-.4-1.4-.2-2.1.2-.8.8-1.4 1.5-1.8L26.5.6c1.4-.8 3.2-.2 4 1.3l6.4 12.4c.3.6.4 1.4.2 2.1-.2.8-.8 1.4-1.5 1.8L11 30.7c-.4.2-.9.3-1.3.3zM27.8 1.7c-.2 0-.4 0-.6.2L2.5 14.4c-.3.2-.6.5-.7.9-.1.3-.1.7.1 1l6.4 12.4c.4.7 1.3 1 2 .6L35 16.9c.3-.2.6-.5.7-.9.1-.3.1-.7-.1-1L29.2 2.5c-.3-.5-.8-.8-1.4-.8z"/><path d="M11.2 33C9.9 33 9 32 9 30.8V16.9c0-1.2 1-2.2 2.2-2.2h27.6c1.2 0 2.2 1 2.2 2.2v13.9c0 1.2-1 2.2-2.2 2.2H11.2z" fill="#fff"/><path class="st1" d="M35.5 28.2h-3.7c-.4 0-.8-.3-.8-.8s.3-.8.8-.8h3.7c.4 0 .8.3.8.8s-.4.8-.8.8z"/><path class="st1" d="M38.8 13.9H11.2c-1.7 0-3 1.3-3 2.9v13.9c0 1.7 1.3 2.9 3 2.9h27.6c1.7 0 3-1.3 3-2.9V16.9c0-1.7-1.3-3-3-3zm-27.6 1.5h27.6c.8 0 1.5.6 1.5 1.4v.2H9.7v-.1c0-.8.6-1.5 1.5-1.5zm27.6 16.9H11.2c-.8 0-1.5-.6-1.5-1.4v-8.6h30.5v8.6c.1.7-.6 1.4-1.4 1.4z"/></svg>