<svg width="49" height="48" fill="none" xmlns="http://www.w3.org/2000/svg"><path d="M30.9 16.5v16.3H47v-4.7c0-9.9-8-11.6-16.1-11.6zM20.1 6.1h10.6v26.7H4.9" stroke="#E71F75" stroke-width="2" stroke-miterlimit="10" stroke-linecap="round" stroke-linejoin="round"/><path d="M11.1 21.2c5.578 0 10.1-4.522 10.1-10.1C21.2 5.522 16.678 1 11.1 1 5.522 1 1 5.522 1 11.1c0 5.578 4.522 10.1 10.1 10.1zM47 27.8c-6.1 0-10.1-4.6-10.1-10.7 0 0 4.5-.1 7.6 3.5 2.7 3.3 2.5 7.2 2.5 7.2z" stroke="#E71F75" stroke-width="2" stroke-miterlimit="10" stroke-linecap="round" stroke-linejoin="round"/><path d="M14.7 8.8l-4.2 4.6-3.2-3.5m5.8 16.7H1m37.1 12.1a2.8 2.8 0 100-5.6 2.8 2.8 0 000 5.6zm-25.2 0a2.8 2.8 0 100-5.6 2.8 2.8 0 000 5.6z" stroke="#E71F75" stroke-width="2" stroke-miterlimit="10" stroke-linecap="round" stroke-linejoin="round"/></svg>