<svg version="1.1" id="Layer_1" xmlns="http://www.w3.org/2000/svg" x="0" y="0" viewBox="0 0 43 34" xml:space="preserve"><style>.st0{fill:#ffdc00}.st1{fill:#666}.st2{fill:#fff}</style><path class="st0" d="M1.8 18.9c-.8-.6-1.1-1.8-.4-2.7l3.3-4.3s-.2 0 .7.6l16.1 16 7.3-7c.8.6 1.1 1.8.4 2.7l-5.6 7.9c-.6.8-1.7 1.1-2.7.4L1.8 18.9z"/><path class="st1" d="M22 33.8c-.6 0-1.1-.2-1.6-.5l-19-13.8c-.6-.4-1-1-1.1-1.7-.1-.7.1-1.4.5-2L4 11.6c.1-.3.5-.5.8-.4.2 0 .4.2.6.4.1.1.2.2.5.4 0 0 .1 0 .1.1l15.5 15.5 6.8-6.5c.3-.3.7-.3 1-.1.6.4 1 1 1.1 1.7.1.7-.1 1.4-.5 2l-5.6 7.9c-.4.6-1 1-1.7 1.1-.3 0-.5.1-.6.1zM4.8 13L2 16.7c-.2.3-.3.6-.2.9.1.3.2.6.5.7l19 13.7c.3.3.7.3.9.2.3 0 .6-.2.7-.5l5.6-7.9c.2-.3.3-.6.2-.9 0-.1 0-.2-.1-.3L21.9 29c-.3.3-.8.3-1 0l-16-16c-.1.1-.1.1-.1 0z"/><path class="st2" d="M3.5 11.2c-.7-.8-.7-1.9 0-2.7l6.8-6.9c.7-.8 1.9-.8 2.7 0l16.6 16.8c.7.8.7 1.9 0 2.7L22.7 28c-.7.8-1.9.8-2.7 0L3.5 11.2z"/><path class="st1" d="M21.4 29.3c-.7 0-1.4-.3-1.9-.8L2.9 11.7c-1-1-1-2.7 0-3.7l6.8-7c1-1 2.7-1 3.7 0L30 17.9c1 1 1 2.7 0 3.7l-6.8 6.9c-.5.5-1.1.8-1.8.8zM4 10.6l16.6 16.8c.4.4 1.1.4 1.6 0l6.8-6.9c.5-.5.5-1.2 0-1.6L12.4 2.1c-.4-.4-1.1-.4-1.6 0L4 9c-.5.5-.5 1.2 0 1.6z"/><path class="st0" d="M19.8 14.9c0 1.9-1.6 3.5-3.5 3.5s-3.5-1.6-3.5-3.5 1.6-3.5 3.5-3.5c2 0 3.5 1.5 3.5 3.5z"/><path class="st1" d="M16.3 19.1c-2.3 0-4.2-1.9-4.2-4.3s1.9-4.3 4.2-4.3c2.4.1 4.2 1.9 4.2 4.3s-1.9 4.3-4.2 4.3zm0-7c-1.4 0-2.7 1.3-2.7 2.8s1.3 2.8 2.7 2.8c1.5 0 2.7-1.3 2.7-2.8 0-1.6-1.2-2.8-2.7-2.8z"/><path class="st2" d="M33.6 16.9c-.8.3-2.3-.6-3.2-1.6-.8-.9-3.6-3.7-3.6-3.7s-1.7.7-2.8 1.4c-1.1.8-2.4.7-2.9 0s-.9-2.2.5-2.9c1.4-.7 6.1-2.9 6.1-2.9s1.4-.7 3.1.9c1.7 1.6 5.1 5 5.1 5s1 .8 3 .8h3.2v12.7h-9.4s-2.1.1-3.2-1"/><path class="st1" d="M32.6 27.6c-.4 0-2.4-.1-3.7-1.2-.3-.3-.3-.8 0-1.1s.8-.3 1.1 0c.8.7 2.2.9 2.7.8h8.6V14.9h-2.4c-2.2 0-3.3-.9-3.5-1 0 0-3.5-3.5-5.2-5.1C29 7.6 28 8 28 8s-4.6 2.2-6 2.9c-.4.2-.5.4-.5.6-.1.4.1.9.3 1.2.2.3 1.1.4 1.9-.2 1.1-.7 2.9-1.5 3-1.5.3-.1.6-.1.8.2l3.7 3.7c.8.9 2 1.5 2.4 1.4.4-.1.8.1.9.5.1.4-.1.8-.5.9-1.2.4-3-.7-3.9-1.8-.6-.7-2.4-2.5-3.2-3.3-.6.3-1.6.7-2.3 1.2-1.3.9-3.1.9-3.9-.2-.6-.7-1-1.6-.7-2.6.1-.5.4-1.1 1.3-1.5 1.4-.7 6.1-2.9 6.1-2.9.1 0 1.9-.9 3.9 1.1 1.7 1.6 5.1 5.1 5.1 5.1s.8.6 2.5.6H42c.4 0 .8.3.8.8v12.7c0 .4-.3.8-.8.8l-9.4-.1z"/></svg>