<svg version="1.1" id="Слой_1" xmlns="http://www.w3.org/2000/svg" x="0" y="0" viewBox="0 0 32 32" xml:space="preserve"><style>.st1{fill:#e71f75}</style><path d="M20.1 14v9.9h9.7v-2.8c.1-6-4.7-7.1-9.7-7.1z" fill="#fff"/><path class="st1" d="M29.9 24.5h-9.7c-.4 0-.7-.3-.7-.7V14c0-.4.3-.7.7-.7 4.5 0 10.4.8 10.4 7.7v2.8c-.1.4-.4.7-.7.7zm-9.1-1.3h8.4v-2.1c0-4.3-2.5-6.3-8.4-6.4v8.5z"/><path class="st1" d="M20 24.5H4.5c-.4 0-.7-.3-.7-.7s.3-.7.7-.7h14.8V8.4h-5.7c-.4 0-.7-.3-.7-.7 0-.4.3-.7.7-.7H20c.4 0 .7.3.7.7v16.1c0 .4-.3.7-.7.7z"/><path class="st1" d="M8.3 17.6c-3.7 0-6.8-3.1-6.8-6.8S4.5 4 8.3 4s6.8 3.1 6.8 6.8-3.1 6.8-6.8 6.8zm0-12.3c-3 0-5.5 2.5-5.5 5.5s2.5 5.5 5.5 5.5 5.5-2.5 5.5-5.5-2.5-5.5-5.5-5.5zm21.6 16.2c-3.9 0-6.8-3-6.8-7.1 0-.4.3-.7.7-.7.1 0 3.1 0 5.1 2.4 1.9 2 1.8 4.6 1.7 4.7-.1.4-.4.7-.7.7zm-5.5-6.4c.3 2.7 2.1 4.7 4.7 5-.1-.8-.4-2-1.4-3.1-.9-1.3-2.4-1.7-3.3-1.9z"/><path class="st1" d="M7.9 12.8c-.2 0-.4-.1-.5-.2l-2-2.1c-.3-.3-.2-.7 0-.9.3-.3.7-.2.9 0l1.5 1.6 2-2.3c.2-.3.7-.3.9 0 .3.2.3.7 0 .9l-2.5 2.8c0 .1-.1.2-.3.2zm1.6 8H2.1c-.4 0-.7-.3-.7-.7 0-.4.3-.7.7-.7h7.3c.4 0 .7.3.7.7 0 .4-.3.7-.6.7zm15 7.3c-1.3 0-2.4-1.1-2.4-2.4s1.1-2.4 2.4-2.4c1.3 0 2.4 1.1 2.4 2.4s-1 2.4-2.4 2.4zm0-3.4c-.6 0-1.1.5-1.1 1.1s.5 1.1 1.1 1.1c.6 0 1.1-.5 1.1-1.1s-.5-1.1-1.1-1.1zM9.3 28.1c-1.3 0-2.4-1.1-2.4-2.4s1.1-2.4 2.4-2.4c1.3 0 2.4 1.1 2.4 2.4s-1 2.4-2.4 2.4zm0-3.4c-.6 0-1.1.5-1.1 1.1s.5 1.1 1.1 1.1c.6 0 1.1-.5 1.1-1.1s-.5-1.1-1.1-1.1z"/></svg>