<svg width="50" height="50" fill="none" xmlns="http://www.w3.org/2000/svg"><path d="M13 42h26" stroke="#303" stroke-width="2" stroke-miterlimit="10" stroke-linecap="round" stroke-linejoin="round"/><path d="M23 5.52h6" stroke="#303" stroke-miterlimit="10" stroke-linecap="round" stroke-linejoin="round"/><path d="M13 9h26" stroke="#303" stroke-width="2" stroke-miterlimit="10" stroke-linecap="round" stroke-linejoin="round"/><rect x="13" y="2" width="26" height="46" rx="3" stroke="#303" stroke-width="2"/><path d="M24.376 30H28.5c.93 0 1.394 0 1.78-.077a4 4 0 003.143-3.143c.077-.386.077-.85.077-1.78s0-1.394-.077-1.78a4 4 0 00-3.143-3.143C29.894 20 29.43 20 28.5 20h-5c-.93 0-1.394 0-1.78.077a4 4 0 00-3.143 3.143c-.077.386-.077.85-.077 1.78s0 1.394.077 1.78A4 4 0 0021 29.708" stroke="#303" stroke-width="1.5" stroke-linecap="round" stroke-linejoin="round"/><path d="M24.258 30.276c-1.291 2.147-4.297 2.29-4.297 2.29.945-1.258 1.029-2.716 1.029-2.716" stroke="#303" stroke-width="1.5" stroke-miterlimit="10" stroke-linecap="round" stroke-linejoin="round"/></svg>