<svg width="16" height="17" viewBox="0 0 16 17" fill="none" xmlns="http://www.w3.org/2000/svg">
<path d="M13.6566 2.39007C12.1448 0.878281 10.138 0.0466309 8 0.0466309C5.86195 0.0466309 3.85522 0.878281 2.34343 2.39007C0.83165 3.90185 0 5.90858 0 8.04663C0 10.1847 0.83165 12.1914 2.34343 13.7032C3.85522 15.215 5.86195 16.0466 8 16.0466C10.138 16.0466 12.1448 15.215 13.6566 13.7032C15.1684 12.1914 16 10.1847 16 8.04663C16 5.90858 15.1684 3.90185 13.6566 2.39007ZM13.0135 13.0601C11.6734 14.4002 9.89226 15.1375 8 15.1375C6.10774 15.1375 4.3266 14.4002 2.98653 13.0601C0.222222 10.2958 0.222222 5.79747 2.98653 3.03316C4.3266 1.6931 6.10774 0.955722 8 0.955722C9.89226 0.955722 11.6734 1.6931 13.0135 3.03316C15.7778 5.79747 15.7778 10.2958 13.0135 13.0601Z" fill="#999999"/>
<path d="M5 5L11 11M11 5L5 11" stroke="#999999" stroke-linecap="round" stroke-linejoin="round"/>
</svg>
