<svg width="24" height="18" viewBox="0 0 24 18" fill="none" xmlns="http://www.w3.org/2000/svg">
<path d="M23 14.5372C23 16.1843 21.7631 17.5 20.4907 17.5H3.50935C2.23693 17.5 1 16.1843 1 14.5372V5.4628C1 3.81567 2.23693 2.5 3.50935 2.5H6.5H17.5H20.4907C21.7631 2.5 23 3.81567 23 5.4628V14.5372Z" fill="#330033" stroke="#330033" stroke-miterlimit="10" stroke-linecap="round" stroke-linejoin="round"/>
<path d="M17 1.91703H7V1.37508C7 1.28768 7.07846 1.06094 7.29341 0.834113C7.49905 0.61712 7.73644 0.5 7.93925 0.5H16.0607C16.2636 0.5 16.5009 0.61712 16.7066 0.834113C16.9215 1.06094 17 1.28768 17 1.37508V1.91703Z" fill="#330033" stroke="#330033" stroke-miterlimit="10" stroke-linecap="round" stroke-linejoin="round"/>
<path d="M16.1466 9.68377C16.1466 11.9165 14.2328 13.8303 12 13.8303C9.76725 13.8303 7.85345 11.9165 7.85345 9.68377C7.85345 7.451 9.76725 5.5372 12 5.5372C14.3923 5.5372 16.1466 7.29152 16.1466 9.68377Z" stroke="white" stroke-width="1.5" stroke-miterlimit="10" stroke-linecap="round" stroke-linejoin="round"/>
</svg>
