<svg width="48" height="49" fill="none" xmlns="http://www.w3.org/2000/svg"><path d="M27.04 37.207c-1.7 1.7-4.6 1.7-6.3 0-.4-.4-.9-.4-1.3 0s-.4.9 0 1.3c1.2 1.2 2.8 1.8 4.4 1.8 1.6 0 3.2-.6 4.4-1.8.4-.4.4-.9 0-1.3-.3-.4-.9-.4-1.2 0z" fill="#E71F75" stroke="#E71F75" stroke-width=".5"/><path d="M44.44 46.207c-2.1-2.4-2.2-8.4-2-14.6.9-.9 1.5-2.1 1.5-3.5 0-1.2-.4-2.3-1.2-3.1.3-6.4.5-10.6-1.5-14.5-1.4-2.7-3.6-4.9-6.6-6.6-3.5-2-7.5-3-11.6-2.9-3.6.1-6.9 1.8-9.2 4.6-3 .2-5.7 1.8-7.1 4.3-.1.1-.2.3-.3.5-2 3.9-1.9 8.2-1.5 14.5-.7.8-1.2 1.9-1.2 3.1 0 1.4.6 2.6 1.5 3.5.3 6.2.2 12.3-2 14.6-.2.2-.3.5-.2.8.1.3.3.5.6.6 2.4.9 4.7 1.2 6.8 1.2 2.2 0 4.1-.4 5.6-.8 2.6-.7 4.5-1.7 5.1-2.1.9.1 1.8.2 2.7.2.9 0 1.8-.1 2.7-.2.6.4 2.5 1.4 5.1 2.1 2 .5 3.9.8 5.6.8 2.8 0 5.2-.6 6.9-1.2.3-.1.5-.3.6-.6 0-.2-.1-.5-.3-.7zm-4.3-16.2v-4.6c1.2.4 2 1.5 2 2.8 0 1.3-.9 2.4-2.1 2.8.1-.4.1-.7.1-1zm-32.1-18.7l.3-.6c1.2-2.1 3.5-3.4 6-3.4.3 0 .5-.1.7-.4 2-2.6 4.9-4.1 8.1-4.2 3.7-.1 7.4.8 10.6 2.6 2.7 1.6 4.7 3.5 5.9 5.9 1.6 3.1 1.7 6.6 1.4 12.4l-.9-.3v-.9c0-.5-.4-.9-.9-.9s-.9.4-.9.9v.1c-12.5.1-19.3-3.9-21.2-5.8-.2-.2-.5-.3-.8-.3-.3.1-.6.3-.7.5-1.3 3.2-3.6 4.9-7.3 5.3-.5.1-.8.4-.8.9v.2l-.9.3c-.3-5.8-.2-9.2 1.4-12.3zm-.5 19.6c-1.2-.4-2.1-1.5-2.1-2.8 0-1.3.9-2.4 2-2.8v4.7c.1.3.1.6.1.9zm-2.2 15.4c1.6-2.8 1.9-7.4 1.7-13.7.2.1.5.1.7.2 1 5.8 5.2 10.6 10.7 12.5-2.6 1.2-7.6 2.7-13.1 1zm18.5-1.9c-8 0-14.5-6.5-14.5-14.5v-5.9c3.4-.6 5.8-2.2 7.4-5.1.879.51 2.817 1.955 6.295 3.3 5.765 1.8 9.704 2.2 15.204 2.2v5.6c.1 8-6.4 14.4-14.4 14.4zm8.3 2c-1.2-.3-2.2-.7-3-1 5.5-1.9 9.6-6.7 10.7-12.5.3 0 .5-.1.7-.2-.2 6.3.1 10.9 1.7 13.7-3.1.9-6.5.9-10.1 0z" fill="#E71F75" stroke="#E71F75" stroke-width=".5"/><path d="M12.94 27.307c-.4.4-.4.9 0 1.3s.9.4 1.3 0c.6-.6 1.5-.6 2.1 0 .2.2.4.3.6.3.2 0 .5-.1.6-.3.4-.4.4-.9 0-1.3-1.2-1.3-3.3-1.3-4.6 0zm21.8 1.3c.4-.4.4-.9 0-1.3a3.32 3.32 0 00-4.7 0c-.4.4-.4.9 0 1.3s.9.4 1.3 0c.6-.6 1.5-.6 2.1 0 .2.2.4.3.6.3.2 0 .5-.1.7-.3z" fill="#E71F75" stroke="#E71F75" stroke-width=".5"/></svg>