<svg xmlns="http://www.w3.org/2000/svg" width="240" height="240" viewBox="-104 -104 240 240"><path fill="#F5F5F5" d="M134.319 78.8c.214 1.122.857 1.987 1.681 2.661v-6.558a.74.74 0 010-.667v-8.104c-1.461.841-3.111 1.897-3.637 2.285l1.956 10.383zm-182.151 32.208c-.829-.416-1.668-1.167-2.556-1.963-1.401-1.256-2.989-2.679-4.808-3.033a5.38 5.38 0 00-1.018-.095c-1.526 0-3.147.583-4.578 1.098-1.122.403-2.182.784-3.105.858-2.483.198-3.138.812-3.182 1.032-.042.22.334 1.033 2.561 2.153 2.027 1.016 4.815 1.901 7.851 2.492 3.01.589 5.982.82 8.212.641 2.486-.198 3.141-.811 3.183-1.03.044-.22-.332-1.035-2.56-2.153zm-13.436-.816a.749.749 0 01-.961.448 28.98 28.98 0 01-.778-.295.749.749 0 01-.421-.973.748.748 0 01.973-.422c.246.097.491.189.739.279.389.143.59.574.448.963zm5.43 2.243a.667.667 0 01-.125-.011 37.902 37.902 0 01-.842-.15.75.75 0 11.286-1.473c.265.052.535.1.803.145a.75.75 0 01-.122 1.489zm6.009.481h-.011a38.34 38.34 0 01-.827-.02.751.751 0 01-.723-.777c.015-.414.346-.722.776-.723.266.01.53.016.794.02a.75.75 0 01-.009 1.5zm18.552-137.634a1.331 1.331 0 00-1.267 1.742c.222.683.987 1.08 1.676.854a1.332 1.332 0 00.855-1.678 1.326 1.326 0 00-1.264-.918zm131.513 5.779a.132.132 0 00.065-.072l6.661-16.77a.129.129 0 00-.071-.171l-13.398-5.323-.104.006-6.728 16.842.003.102-.007.024 7.417.454c.159.01.312.07.435.173l5.689 4.746c.013-.003.026-.006.038-.011zm-1.274-5.817a.748.748 0 01-1.303.332l-2.12-2.474-3.24.345a.751.751 0 01-.72-1.136l1.697-2.783-1.328-2.976a.752.752 0 01.107-.785.758.758 0 01.751-.25l3.169.756 2.418-2.183a.752.752 0 011.251.496l.262 3.248 2.824 1.627a.748.748 0 01-.086 1.342l-3.008 1.251-.674 3.19zM-30.903 61.105c-.435-.359-.861-.694-1.259-1.007l-.65-.513a.751.751 0 01-.253-.789l.2-.713c1.209-4.158 2.215-11.139 1.925-12.324-.457-.359-1.108-.494-1.796-.637-.42-.087-.854-.178-1.262-.325-.409-.15-.8-.361-1.177-.565-.639-.345-1.242-.671-1.841-.671-.686.023-1.312.418-1.975.835-.372.233-.756.475-1.163.664-.408.19-.841.329-1.26.463-.745.239-1.449.464-1.868.929-.415.459-.558 1.15-.71 1.883-.087.422-.178.857-.327 1.266s-.36.799-.564 1.177c-.333.617-.65 1.202-.67 1.782.711.968 6.652 4.669 10.584 6.426l.847.379a.75.75 0 01.439.763 24.481 24.481 0 00-.117 2.328c-.006.889.049 1.695.154 2.268.033.182.067.313.096.406.065-.017.131-.039.2-.065.175-.064.359-.156.588-.291.166-.097.33-.2.495-.304l.166-.104c.253-.156.504-.302.758-.42.251-.118.525-.216.806-.309.299-.095.523-.166.744-.244.206-.072.408-.154.596-.259.065-.037.126-.074.181-.114a3.43 3.43 0 00-.248-.334c-.375-.456-.956-1.016-1.639-1.581zm-7.734-6.408a.749.749 0 01-1.059.051l-1.154-1.049a.75.75 0 111.009-1.11l1.154 1.049a.75.75 0 01.05 1.059zm1.961-1.808a.75.75 0 01-.997-.364l-1.604-3.448a.75.75 0 011.361-.633l1.604 3.448a.75.75 0 01-.364.997zm2.782-.4l-.029.001a.75.75 0 01-.749-.722l-.06-1.558a.75.75 0 01.721-.777c.421-.032.763.307.778.721l.06 1.558a.75.75 0 01-.721.777zM136-79.965v-4.854a5.73 5.73 0 00-1.423-.113c.176 1.093.6 3.177 1.423 4.967zm-2.612 84.18a5.1 5.1 0 00-5.047 4.297 5.081 5.081 0 00.895 3.815 5.09 5.09 0 003.333 2.065c.276.045.558.068.835.068.944 0 1.833-.254 2.597-.704v-8.82a5.1 5.1 0 00-2.613-.721zm1.142 2.092l-.664 4.055a.752.752 0 01-.74.629.75.75 0 01-.517-.207l-2.123-2.02a.75.75 0 111.034-1.087l1.096 1.042.435-2.655a.75.75 0 011.479.243zm-27.831 105.895c-.856-.049-1.723-.146-2.595-.344s-1.705-.469-2.5-.794c-.122.419-.239.854-.344 1.315a21.21 21.21 0 00-.27 1.443c.861.048 1.735.161 2.613.359.86.194 1.685.462 2.472.781.133-.446.26-.913.372-1.41.104-.454.182-.904.252-1.35zM71.659-75.763c-.291.28-.771 1.027-1.101 2.214-.33 1.188-.305 2.077-.199 2.466.29-.279.77-1.027 1.1-2.215.33-1.186.305-2.075.2-2.465zM11.182 6.729a2.426 2.426 0 00-2.406 2.724 2.433 2.433 0 002.705 2.104 2.43 2.43 0 002.1-2.708 2.424 2.424 0 00-2.399-2.12zm72.485 61.274c.948-.026 2.807-.234 3.99-1.378 1.178-1.136 1.457-2.949 1.519-3.937-.952.027-2.808.237-3.988 1.378-1.179 1.139-1.459 2.951-1.521 3.937z"/><path fill="#F5F5F5" d="M.881 5.211L2.176 15.52l19.298-2.425-1.293-10.308-19.3 2.424zm4.594 2.084l-2.409.303a.75.75 0 01-.187-1.488l2.408-.303a.75.75 0 01.188 1.488zm6.194 5.75A3.927 3.927 0 017.288 9.64a3.928 3.928 0 013.403-4.38 3.92 3.92 0 014.378 3.403 3.931 3.931 0 01-3.4 4.382zm63.323 45.213c.335-.104.626-.208.898-.323a.751.751 0 01.921 1.101 9.492 9.492 0 00-.481.82c-.648 1.21-.839 2.059-.742 2.368.025.084.079.15.151.189a.31.31 0 00.229.007c.312-.096.909-.728 1.541-1.925.162-.312.293-.6.404-.871a.751.751 0 011.427.126c.062.29.137.6.241.938.543 1.761 1.07 2.23 1.296 2.23a.302.302 0 00.092-.016c.318-.099.411-.943-.103-2.61a10.895 10.895 0 00-.328-.914.75.75 0 011.108-.908c.247.162.513.327.828.491.882.472 1.689.752 2.166.752a.688.688 0 00.19-.022.292.292 0 00.185-.139.305.305 0 00.021-.239c-.095-.307-.729-.901-1.933-1.536a12.237 12.237 0 00-.873-.412.75.75 0 01.145-1.427 9.44 9.44 0 00.922-.239c1.666-.513 2.313-1.065 2.215-1.385-.021-.07-.08-.26-.7-.26-.479 0-1.12.123-1.908.365a8.827 8.827 0 00-.893.321.751.751 0 01-.926-1.097c.193-.299.362-.6.491-.838.677-1.283.816-2.072.729-2.355a.309.309 0 00-.144-.186.315.315 0 00-.24-.013c-.307.094-.901.727-1.534 1.926-.168.317-.299.603-.413.875a.75.75 0 01-1.425-.135 10.418 10.418 0 00-.241-.931c-.541-1.761-1.066-2.23-1.292-2.23-.411.114-.506.96.007 2.624.106.343.218.64.33.916a.751.751 0 01-1.11.906 10.465 10.465 0 00-.828-.496c-.9-.475-1.69-.748-2.165-.748a.65.65 0 00-.188.022.312.312 0 00-.19.14.321.321 0 00-.016.24c.096.309.731.904 1.935 1.535.241.13.544.279.868.413a.749.749 0 01-.138 1.429c-.29.058-.588.134-.924.238-1.167.359-1.719.695-1.975.915-.308.262-.267.395-.244.467.022.071.081.263.706.263.481.002 1.122-.121 1.908-.362zm23.45-89.909l-.171-2.126-1.583 1.429a.75.75 0 01-.677.173l-2.074-.495.869 1.948a.75.75 0 01-.044.696l-1.111 1.822 2.121-.226a.749.749 0 01.648.258l1.389 1.62.441-2.087a.75.75 0 01.445-.537l1.969-.819-1.849-1.065a.764.764 0 01-.373-.591zm-121.41 8.611l-2.023-6.224a1.487 1.487 0 00-1.882-.959l-12.067 3.92c-.38.123-.688.387-.87.743a1.487 1.487 0 00-.09 1.14l2.022 6.225c.249.767 1.109 1.213 1.882.958l12.067-3.92a1.497 1.497 0 00.961-1.883zm-13.206-.726l-1.421.463a.75.75 0 01-.465-1.426l1.421-.463a.749.749 0 11.465 1.426zm5.77 3.071a2.824 2.824 0 01-3.567-1.818 2.835 2.835 0 012.694-3.705c1.23 0 2.311.786 2.691 1.955a2.835 2.835 0 01-1.818 3.568zm13.946-74.202a8.512 8.512 0 00-2.228-.309c2.047 2.484 2.805 5.871 1.932 9.026s-3.265 5.67-6.299 6.748a8.47 8.47 0 002.069.88c.743.206 1.506.31 2.27.31 3.795 0 7.153-2.558 8.167-6.221 1.247-4.505-1.405-9.185-5.911-10.434zm98.087 9.402c-.416-.007-1.297.193-2.339.784-1.07.604-1.68 1.248-1.884 1.597.417.017 1.296-.193 2.339-.784 1.068-.603 1.679-1.246 1.884-1.597zM19.639 93.629l1.103-.162-.22-1.488a1.267 1.267 0 00-1.432-1.064L8.173 92.523a1.253 1.253 0 00-.829.496 1.25 1.25 0 00-.236.938l1.889 12.809a1.265 1.265 0 001.434 1.064l.964-.142a2.96 2.96 0 012.51-2.675c1.393-.203 2.68.61 3.174 1.837l1.658-.244c.002-.026.008-.052.011-.077l-1.439-9.764a2.767 2.767 0 012.33-3.136zM75.461-87.704c.33-1.188.305-2.076.2-2.465-.291.279-.771 1.027-1.101 2.215-.33 1.188-.305 2.075-.2 2.465.291-.28.771-1.028 1.101-2.215zm-2.204 6.19a.926.926 0 00-1.136.642c-.137.49.151 1 .643 1.137a.944.944 0 001.135-.642.92.92 0 00-.642-1.137zm4.62 2.243c.281.291 1.027.768 2.211 1.097 1.004.278 2.092.294 2.461.195-.283-.291-1.029-.767-2.211-1.096-1.008-.28-2.093-.295-2.461-.196zm-170.74 155.63l-1.975-10.365.002-.004c-.835-.215-4.884-1.018-6.499-1.018-.135 0-.249.004-.334.02-.389.074-1.315.555-2.332 1.14v8.104c.021-.041.03-.086.059-.124a.749.749 0 011.05-.151l2.553 1.91 3.41-5.306a.75.75 0 111.262.81l-3.845 5.983a.747.747 0 01-1.08.196l-3.197-2.393a.73.73 0 01-.21-.257v6.557c2.001 1.638 5.097 2.119 5.904 2.218 1.012-.511 6.007-3.253 5.232-7.32zM70.526-85.02c.007-.404-.184-1.272-.789-2.344-.606-1.071-1.251-1.681-1.601-1.883-.007.404.183 1.271.788 2.343.606 1.071 1.252 1.682 1.602 1.884zM-101.55 10.166A5.09 5.09 0 00-104 4.935v8.822a5.11 5.11 0 002.45-3.591zm4.15-86.022c-.269-1.376-.971-4.229-2.414-5.991-1.418-1.733-2.707-2.672-4.186-2.976v4.857c.441.959.991 1.837 1.69 2.423 1.78 1.488 3.814 1.698 4.91 1.687zm.555-15.355a5.055 5.055 0 00-1.56-.081 5.068 5.068 0 00-1.641.502c.395.638 1.282 2.196 2.15 4.545.305-2.535.822-4.28 1.051-4.966zm2.006 8.777c-.991 2.047-1.012 4.983-.955 6.385 1.061-.25 3.015-.94 4.382-2.778 1.566-2.104 1.441-6.219 1.313-7.912-2.09.401-3.46 1.666-4.74 4.305zm66.442-6.242l-.415.881.952-.207a.748.748 0 01.673.187l.709.666.098-.968a.746.746 0 01.385-.582l.855-.47-.894-.394a.754.754 0 01-.435-.546l-.182-.957-.65.728a.759.759 0 01-.654.245l-.964-.122.491.842a.75.75 0 01.031.697zm-68.226 6.686a8.92 8.92 0 01.434-1.098c.945-1.949 2.016-3.279 3.324-4.127a5.01 5.01 0 00-1.813-3.024 5.159 5.159 0 00-.748-.48c-.302.923-1.226 4.148-1.197 8.729zm24.566 37.373l-11.688-1.665a1.363 1.363 0 00-1.537 1.155l-2.21 15.516c-.052.359.04.716.258 1.006.218.291.536.479.895.53l11.687 1.665a1.362 1.362 0 001.538-1.153l2.211-15.517a1.362 1.362 0 00-1.154-1.537zm-1.772 7.57c-.508 3.559-5.491 5.708-5.703 5.797a.748.748 0 01-.778-.119c-.177-.151-4.333-3.737-3.846-7.148.345-2.428 1.9-3.293 3.24-3.293.887 0 1.741.375 2.286 1.002l.066.079c.452-.312 1.026-.491 1.664-.491a3.07 3.07 0 012.329 1.041c.465.536.972 1.516.742 3.132z"/><path fill="#F5F5F5" d="M-76.901-39.721c-.508 0-1.09.244-1.167.779v.002a.75.75 0 01-1.486-.211.818.818 0 00-.21-.674c-.26-.299-.702-.485-1.153-.485-.934 0-1.574.73-1.755 2.004-.277 1.939 1.811 4.369 2.982 5.478 1.426-.702 4.085-2.401 4.375-4.431.119-.835-.016-1.505-.391-1.938a1.57 1.57 0 00-1.195-.524zm-24.884-49.68c-.761.964-1.116 2.147-1.06 3.363 1.468.52 2.818 1.563 4.191 3.241.142.173.277.354.406.542-1.004-4.07-2.488-6.771-3.031-7.671-.176.166-.353.331-.506.525zM77.883-72.005c.007-.404-.183-1.272-.788-2.344-.605-1.073-1.252-1.683-1.601-1.883-.008.403.181 1.271.787 2.343s1.252 1.681 1.602 1.884zm30.493 182.72a11.006 11.006 0 002.942-.59 8.01 8.01 0 00-3.384-4.034c.146.414.261.879.343 1.395.154.964.18 2.065.099 3.229zM78.491 66.128c-1.613-.279-3.237.572-4.072 1.105.609.782 1.864 2.126 3.468 2.4 1.624.279 3.239-.571 4.073-1.104-.609-.782-1.864-2.125-3.469-2.401z"/><path fill="#F5F5F5" d="M136 83.301c-1.492-.914-2.778-2.252-3.153-4.22l-1.975-10.364a1.567 1.567 0 01.233-1.166c.225-.344 2.868-2.038 4.895-3.122V15.414a6.595 6.595 0 01-2.597.547c-.358 0-.721-.03-1.077-.088-1.746-.286-3.276-1.234-4.309-2.67s-1.443-3.188-1.157-4.933a6.594 6.594 0 016.527-5.555c.358 0 .721.03 1.077.088a6.645 6.645 0 011.535.453v-80.393c-2.399-2.842-2.996-8.143-3.021-8.388a.75.75 0 01.641-.822 8.118 8.118 0 012.016-.044 6.524 6.524 0 01.365-2.042V-104h-240v15.566a6.551 6.551 0 011.038-1.897 6.513 6.513 0 014.382-2.45 6.517 6.517 0 014.832 1.365 6.503 6.503 0 012.28 3.505 8.158 8.158 0 011.972-.424.752.752 0 01.813.65c.035.268.825 6.597-1.525 9.753-2.333 3.138-5.944 3.49-6.207 3.512-.063.009-.438.064-1.031.064-1.267 0-3.708-.265-5.827-2.036a6.042 6.042 0 01-.728-.745V3.255a6.576 6.576 0 012.773 2.218 6.58 6.58 0 011.157 4.935 6.584 6.584 0 01-3.931 5.006v49.015c.888-.476 1.658-.835 2.051-.909.157-.03.365-.047.614-.047 1.644 0 6.893.939 7.329 1.243.335.235.562.588.641.995l1.975 10.367c1.079 5.66-5.963 8.917-6.264 9.053a.75.75 0 01-.372.063c-.209-.018-3.4-.318-5.974-1.894V136h240V83.301zm-4.707-65.76a.75.75 0 111.48.242l-.318 1.94a.751.751 0 01-.861.619.75.75 0 01-.619-.861l.318-1.94zm3.043-18.589a.75.75 0 111.48.243l-.318 1.941a.751.751 0 01-1.48-.244l.318-1.94zM-99.367-94.993a.75.75 0 01-.832-.658l-.175-1.49a.75.75 0 011.491-.175l.175 1.49a.752.752 0 01-.659.833zm9.747 2.063l-.93 1.177a.746.746 0 01-1.053.123.75.75 0 01-.124-1.053l.93-1.177a.75.75 0 011.177.93zm-10.478 111.324a.75.75 0 01-1.047-.171l-1.147-1.598a.75.75 0 011.219-.875l1.147 1.598a.75.75 0 01-.172 1.046zm.343-13.228a.75.75 0 01-.438-1.359l1.598-1.148a.75.75 0 01.876 1.218l-1.598 1.148a.756.756 0 01-.438.141zm3.417 6.604a.717.717 0 01-.122-.01l-1.942-.318a.75.75 0 01.242-1.48l1.942.318a.75.75 0 01-.12 1.49zm227.85-103.544a.75.75 0 011.053-.125l1.18.929a.75.75 0 11-.928 1.178l-1.18-.929a.75.75 0 01-.125-1.053zM126.889.281a.75.75 0 011.047.172l1.147 1.599a.752.752 0 01-1.219.876l-1.147-1.599a.753.753 0 01.172-1.048zm-42.77-77.822c-.117.424-.567 1.133-2.253 1.133h-.001a8.334 8.334 0 01-2.179-.322c-1.943-.54-3.741-1.67-3.378-2.979.117-.424.565-1.135 2.25-1.135.664 0 1.419.112 2.181.323 1.945.541 3.742 1.672 3.38 2.98zm-9.426-.105c.187-.106.396-.16.621-.16 1.144 0 2.345 1.404 3.087 2.719.991 1.755 1.463 3.827.284 4.497-.189.107-.397.16-.622.16-1.141 0-2.343-1.406-3.087-2.722-.478-.842-.807-1.715-.927-2.457-.217-1.333.31-1.849.644-2.037zm-1.683-.556a2.427 2.427 0 01-2.334-3.073c.35-1.257 1.727-2.04 2.982-1.685a2.397 2.397 0 011.46 1.141c.319.564.399 1.219.226 1.843a2.428 2.428 0 01-2.334 1.774zm8.592-8.793c.868 0 1.266.378 1.445.695.189.335.375 1.049-.5 2.08-.486.573-1.22 1.151-2.062 1.628-1.098.622-2.21.979-3.051.979-.915 0-1.298-.437-1.444-.697-.118-.208-.232-.559-.101-1.035.283-1.02 1.561-2.048 2.662-2.671 1.097-.622 2.21-.979 3.051-.979zm-8.487-1.36c.438-1.579 1.396-3.423 2.654-3.423.11 0 .22.015.325.044.37.103 1.007.476 1.118 1.824.062.749-.048 1.675-.307 2.608-.438 1.58-1.397 3.423-2.654 3.423-.11 0-.221-.015-.326-.044-.369-.103-1.006-.476-1.117-1.824-.061-.748.048-1.674.307-2.608zm-5.78-2.306a1.25 1.25 0 01.622-.16c1.141 0 2.343 1.405 3.086 2.72.477.844.806 1.716.927 2.458.219 1.336-.311 1.852-.645 2.041a1.244 1.244 0 01-.618.159c-1.143 0-2.345-1.406-3.089-2.721-.991-1.758-1.463-3.828-.283-4.497zm-98.294-.902a.746.746 0 01.72-.331l2.082.263 1.399-1.567a.751.751 0 011.297.359l.393 2.062 1.922.847a.75.75 0 01.059 1.344l-1.84 1.011-.21 2.088a.749.749 0 01-1.26.47l-1.529-1.437-2.052.446a.752.752 0 01-.838-1.053l.895-1.899-1.059-1.814a.742.742 0 01.021-.789zm-38.458 48.694l-2.211 15.518a2.873 2.873 0 01-3.234 2.427l-11.687-1.665a2.84 2.84 0 01-1.883-1.115 2.832 2.832 0 01-.543-2.119l2.209-15.515c.218-1.534 1.654-2.66 3.235-2.428l11.687 1.665a2.865 2.865 0 012.427 3.232zm16.915 168.817c-.897.224-1.916.336-3 .336-1.003 0-2.062-.096-3.133-.288-2.229-.4-4.265-1.172-5.732-2.174a.75.75 0 01.845-1.238c1.297.885 3.126 1.572 5.152 1.936 2.024.364 3.978.354 5.504-.026a.747.747 0 01.909.546.747.747 0 01-.545.908zm-5.352-4.688c1.373.247 2.746.24 3.771-.015a.748.748 0 01.909.546.749.749 0 01-.546.909 9.002 9.002 0 01-2.157.242c-.718 0-1.476-.068-2.241-.206-1.589-.284-3.049-.838-4.109-1.56a.75.75 0 01.844-1.24c.877.597 2.163 1.08 3.529 1.324zm-2.755-3.969a.748.748 0 011.05-.147c.551.415 1.374.744 2.258.901.885.16 1.77.137 2.427-.063a.754.754 0 01.936.5.752.752 0 01-.5.936 5.972 5.972 0 01-1.715.233c-.458 0-.934-.043-1.413-.129-1.123-.2-2.152-.619-2.896-1.181a.749.749 0 01-.147-1.05zm16.811-3.843c-.246 1.265-1.772 2.018-4.536 2.239-.533.042-1.11.063-1.714.063-2.082 0-4.47-.251-6.905-.728-3.165-.616-6.09-1.549-8.236-2.624-2.477-1.246-3.607-2.518-3.36-3.781.248-1.266 1.773-2.02 4.533-2.241.725-.058 1.693-.405 2.718-.774 1.546-.556 3.298-1.186 5.085-1.186.451 0 .89.041 1.305.122 2.224.434 3.976 2.004 5.521 3.389.812.727 1.578 1.414 2.228 1.74 2.477 1.244 3.608 2.517 3.361 3.781zm16.121-49.622a3.06 3.06 0 01-.792.617 5.334 5.334 0 01-.826.363c-.237.083-.476.159-.713.234a6.088 6.088 0 00-.701.263 5.972 5.972 0 00-.602.335l-.158.1c-.177.111-.353.222-.533.328a5.055 5.055 0 01-.818.4 3.03 3.03 0 01-.975.206l-.036.001c-.983 0-1.215-1.265-1.292-1.68-.122-.662-.185-1.568-.178-2.552.007-.727.032-1.353.076-1.928l-.357-.16c-1.688-.754-11.405-5.784-11.471-7.627-.036-1.024.434-1.896.849-2.663.187-.347.364-.673.475-.979.111-.305.187-.669.267-1.055.177-.855.378-1.823 1.065-2.585.69-.764 1.665-1.076 2.524-1.352.392-.125.762-.243 1.084-.394s.65-.356.998-.575c.765-.48 1.631-1.025 2.663-1.062l.111-.002c.978 0 1.815.452 2.554.852.346.187.673.363.979.476.304.11.667.186 1.052.266.855.177 1.825.378 2.586 1.067 1.369 1.237-1.078 12.059-1.577 13.774l-.063.226.25.197c.407.32.843.662 1.288 1.03.754.624 1.408 1.256 1.84 1.781.275.334 1.111 1.348.431 2.098zm9.668-74.902a.75.75 0 01-1.024.274l-9.125-5.281 2.281 7.018a.75.75 0 11-1.426.464l-2.351-7.233-4.401 9.915a.75.75 0 11-1.371-.608l4.832-10.885-4.936 1.604a2.986 2.986 0 01-3.773-1.921l-2.022-6.225c-.247-.76-.183-1.572.18-2.285s.982-1.242 1.743-1.489l12.066-3.92a2.983 2.983 0 013.773 1.921l2.023 6.224a2.998 2.998 0 01-1.924 3.773l-5.124 1.665 10.307 5.965a.75.75 0 01.272 1.024zm8.907-72.986c-1.192 4.31-5.145 7.321-9.612 7.321a10 10 0 01-2.67-.365 9.894 9.894 0 01-3.877-2.078.751.751 0 01.361-1.306 8.527 8.527 0 006.701-6.09 8.526 8.526 0 00-2.615-8.669.75.75 0 01.361-1.305 9.992 9.992 0 014.396.211c5.302 1.47 8.423 6.979 6.955 12.281zM1.525 17.107a.753.753 0 01-.744-.657L-.7 4.654a.749.749 0 01.651-.837l20.787-2.611a.746.746 0 01.838.651l1.481 11.797a.748.748 0 01-.65.837L1.619 17.102a.97.97 0 01-.094.005zm25.883 88.938a2.741 2.741 0 01-1.814 1.086l-1 .147a2.934 2.934 0 01-.541 1.348 2.94 2.94 0 01-2.378 1.194c-1.171 0-2.204-.71-2.677-1.735l-1.742.256a2.954 2.954 0 01-2.922 2.562c-1.172 0-2.206-.71-2.679-1.737l-1.006.148a2.776 2.776 0 01-3.136-2.33l-1.89-12.808c-.107-.73.076-1.459.517-2.052s1.085-.978 1.815-1.085L18.87 89.43a2.775 2.775 0 013.136 2.331l.211 1.428 1.293-.19c1.514-.216 2.919.853 3.137 2.331l.007.048.003.011.548 3.718.177 1.2v.002l.543 3.688a2.744 2.744 0 01-.517 2.048zm1.86-155.578c-.394 1.191-1.14 2.372-2.25 3.241.125 1.403-.503 3.753-3.716 4.973-.824.313-1.754.46-2.72.46-2.855 0-6.036-1.283-7.783-3.362a6.052 6.052 0 01-1.207-2.257c-1.018-.329-1.775-1.18-2.153-2.442-.837-2.79.25-7.663 3.202-10.47 1.712-1.628 3.434-2.368 5.115-2.203 1.67.165 2.803 1.191 3.299 1.74 1.159-.438 2.597-.472 4.221.447 4.011 2.273 5.044 6.687 3.992 9.873zM61.9-83.709c.119-.425.569-1.135 2.255-1.135.664 0 1.417.111 2.178.322 1.944.54 3.743 1.671 3.38 2.981-.117.423-.566 1.133-2.251 1.133-.666 0-1.42-.112-2.183-.324-1.943-.54-3.742-1.67-3.379-2.977zm2.517 9.452c-.868 0-1.264-.378-1.443-.695-.188-.333-.376-1.048.5-2.08.486-.572 1.218-1.15 2.062-1.627 1.101-.622 2.213-.978 3.053-.978.867 0 1.263.377 1.443.693.669 1.184-.805 2.715-2.561 3.709-1.101.622-2.214.978-3.054.978zm5.833 4.784c-.11 0-.22-.015-.325-.044-1.31-.367-1.351-2.491-.812-4.433.438-1.579 1.397-3.423 2.656-3.423.11 0 .22.015.325.044 1.309.364 1.35 2.489.81 4.433-.438 1.579-1.397 3.423-2.654 3.423zm.696 128.274c-.132-.428-.217-1.265.703-2.05.405-.345.971-.654 1.717-.938-1.081-.663-1.734-1.339-1.942-2.01a1.825 1.825 0 01.12-1.378 1.8 1.8 0 011.078-.877c.734-.229 1.832.064 2.748.471-.485-2.064-.112-3.301 1.113-3.68.178-.055.356-.082.533-.082 1.312 0 2.065 1.448 2.459 2.493.666-1.077 1.339-1.727 2.006-1.933a1.802 1.802 0 011.378.12c.427.226.737.605.88 1.072.205.664.045 1.589-.475 2.754.59-.141 1.101-.21 1.547-.21 1.501 0 1.981.825 2.134 1.317.377 1.227-.437 2.23-2.419 2.99 1.086.669 1.737 1.343 1.943 2.011a1.787 1.787 0 01-1.196 2.252 2.152 2.152 0 01-.633.089c-.672 0-1.445-.258-2.12-.559.487 2.066.115 3.304-1.109 3.682a1.793 1.793 0 01-.533.082c-1.311 0-2.065-1.446-2.461-2.491-.666 1.075-1.339 1.721-2.008 1.926a1.8 1.8 0 01-1.382-.12 1.805 1.805 0 01-.873-1.068c-.207-.669-.048-1.593.474-2.752-.588.141-1.097.209-1.542.209-1.507.001-1.987-.826-2.14-1.32zm17.753 8.903c-1.623 1.568-3.996 1.803-5.267 1.803a8.53 8.53 0 01-.239-.003c-.681.492-2.54 1.684-4.66 1.684-.306 0-.608-.025-.9-.075-2.962-.507-4.824-3.542-4.902-3.671a.752.752 0 01.167-.968c.095-.077 2.345-1.899 4.95-1.899.306 0 .607.025.898.075 1.51.261 2.731 1.176 3.579 2.027.222-1.181.718-2.624 1.819-3.688 1.625-1.569 4.002-1.804 5.273-1.804.366 0 .587.021.587.021.37.034.661.335.682.706.008.15.175 3.707-1.987 5.792zm-2.288-90.517a.753.753 0 01-.23-.051 1.61 1.61 0 01-.896-.875 1.609 1.609 0 01-.016-1.243l6.661-16.772c.162-.408.473-.726.876-.896a1.648 1.648 0 011.237-.02l13.401 5.324a1.629 1.629 0 01.913 2.119l-6.662 16.772a1.631 1.631 0 01-2.117.915.718.718 0 01-.204-.122l-5.636-4.702-7.327-.449zm26.697 137.857c-.968 4.286-4.854 7.397-9.242 7.397a9.546 9.546 0 01-2.099-.235 9.426 9.426 0 01-5.931-4.188 9.42 9.42 0 01-1.232-7.154c.985-4.356 4.787-7.399 9.246-7.399.702 0 1.407.079 2.098.235 5.102 1.154 8.314 6.243 7.16 11.344zM122.39 7.537a.754.754 0 01.861-.619l1.941.318a.75.75 0 11-.242 1.48l-1.941-.318a.749.749 0 01-.619-.861zm4.594 7.332l-1.598 1.147a.748.748 0 01-1.047-.171.75.75 0 01.172-1.047l1.598-1.147a.75.75 0 11.875 1.218z"/><path fill="#F5F5F5" d="M106.797 107.721c-.212-1.332-.681-2.235-1.224-2.358a.647.647 0 00-.146-.016c-.84 0-2.263 1.48-3.342 4.289.748.314 1.533.575 2.349.76.812.184 1.631.285 2.438.323.082-1.089.066-2.113-.075-2.998zm-92.248 1.666a1.458 1.458 0 001.101-.81l-2.385.352a1.46 1.46 0 001.284.458zm-.21-2.905a1.455 1.455 0 00-1.372.974l2.523-.371c-.269-.358-.681-.603-1.151-.603zM64.392-75.757c.407-.007 1.299-.194 2.341-.784 1.066-.603 1.675-1.245 1.881-1.596-.463.012-1.297.194-2.34.784-1.068.603-1.677 1.246-1.882 1.596zM21.027 107.856c-.11.029-.216.054-.322.078a1.44 1.44 0 001.186.37 1.449 1.449 0 001.087-.788l-1.264.187c-.246.036-.477.099-.687.153zm87.192 4.363a20.9 20.9 0 01-.777 3.383 12.74 12.74 0 012.856 2.048 7.903 7.903 0 001.421-6.082 12.595 12.595 0 01-3.5.651zm-7.478-3.229c.643-1.619 1.471-3.054 2.404-3.994a7.92 7.92 0 00-4.822 2.185 11.072 11.072 0 002.418 1.809zm1.398 11.579c.809.193 2.311-1.264 3.448-4.179a14.023 14.023 0 00-2.312-.745 14.06 14.06 0 00-2.449-.324c-.205 3.044.494 5.064 1.313 5.248zm-2.341-8.519c.123-.545.271-1.09.438-1.626a12.63 12.63 0 01-2.891-2.098 8.035 8.035 0 00-1.278 2.868 7.949 7.949 0 00-.052 3.26 12.642 12.642 0 013.463-.639c.083-.59.188-1.183.32-1.765zm-78.116-6.65a1.45 1.45 0 00-1.177.591 1.39 1.39 0 00-.188.36 4.695 4.695 0 001.63-.902c-.09-.016-.173-.049-.265-.049zM68.144-81.979c-.282-.292-1.028-.769-2.212-1.098-1.005-.279-2.092-.294-2.461-.195.283.291 1.03.767 2.211 1.095 1.005.279 2.089.295 2.462.198zm38.787 199.01c-.631 1.565-1.435 2.951-2.339 3.875a8.007 8.007 0 004.708-2.13 11.173 11.173 0 00-2.369-1.745zM26.303-51.412c.007.042.025.081.025.126 0 .264-.028.52-.069.771a6.588 6.588 0 01-.956 2.769c-.248.397-.54.751-.854 1.081 1.604-.448 2.819-1.594 3.395-3.338.861-2.605.001-6.222-3.307-8.096-1.809-1.023-3.169-.426-3.988.249a6.646 6.646 0 012.635.947 6.646 6.646 0 013.119 5.491zm-12.628-6.89c-2.515 2.391-3.493 6.637-2.799 8.952.128.426.305.76.525 1.008.071-1.022.404-2.075 1.031-3.129a.738.738 0 01.613-.353 6.602 6.602 0 015.436-5.971 5.64 5.64 0 011.22-1.296c-.422-.395-1.148-.919-2.107-1.01-1.227-.115-2.543.491-3.919 1.799zm10.818 159.817a2.289 2.289 0 01-.62.087c-.113 0-.263-.017-.424-.048l.445 3.017c.015.102.016.225.006.358.221.252.398.541.524.857l.95-.14c.334-.049.628-.226.829-.496s.285-.604.235-.937l-.434-2.945c-.427.065-.599.096-.749.123-.166.03-.317.057-.762.124z"/><path fill="#F5F5F5" d="M16.938-46.896a5.13 5.13 0 005.361.048 5.264 5.264 0 01-.652.045 5.415 5.415 0 01-2.17-.456c-2.448-1.074-3.14-3.188-2.739-4.806.381-1.542 1.644-2.5 3.174-2.397 1.054.075 1.855.457 2.382 1.133.814 1.046.608 2.357.582 2.503a.75.75 0 01-1.477-.26c.004-.022.121-.804-.294-1.329-.255-.323-.691-.508-1.3-.552-.94-.063-1.456.638-1.61 1.261-.231.934.124 2.298 1.886 3.072 1.161.509 2.491.427 3.473-.215a2.744 2.744 0 001.205-1.801c.229-1.92-.623-3.893-2.369-4.983a5.13 5.13 0 00-2.719-.781 5.128 5.128 0 00-4.375 2.423 5.156 5.156 0 001.642 7.095z"/><path fill="#F5F5F5" d="M19.655-44.616a6.632 6.632 0 01-6.434-5.038c-.615 1.621-.38 3.15.727 4.468 1.938 2.307 6.141 3.481 8.82 2.464 1.96-.744 2.556-1.878 2.713-2.696a6.877 6.877 0 01-2.556.478c-.334 0-.684-.023-1.045-.066a6.665 6.665 0 01-2.225.39zm79.671 159.943c-1.024.067-2 .263-2.89.571a7.953 7.953 0 003.329 3.91c-.412-1.214-.542-2.8-.439-4.481zM21.54 99.031l-.6-4.078-1.083.16a1.266 1.266 0 00-1.065 1.435l1.168 7.918a2.934 2.934 0 011.286-.533 2.9 2.9 0 011.045.046l-.689-4.674c-.02-.095-.047-.172-.062-.274zm2.384-4.504c-.061 0-.123.004-.186.014l-1.294.19.644 4.368c.146.652.404 1.002.785 1.002a.697.697 0 00.203-.028.94.94 0 01.139-.034c.464-.068.612-.095.777-.124.159-.028.333-.061.795-.131L25.17 95.6a1.269 1.269 0 00-1.246-1.073z"/><path fill="#E5E5E5" d="M131.105 67.551c-.228.34-.311.753-.233 1.166l1.975 10.364c.375 1.968 1.661 3.306 3.153 4.22v-1.84c-.823-.674-1.467-1.539-1.681-2.661l-1.956-10.383c.525-.388 2.176-1.444 3.637-2.285v-1.703c-2.026 1.084-4.67 2.778-4.895 3.122z"/><path fill="#E5E5E5" d="M136 74.903v-.667a.74.74 0 000 .667zm-61.372-14.99c-.521 1.159-.681 2.083-.474 2.752.141.461.45.84.873 1.068a1.8 1.8 0 001.382.12c.669-.205 1.342-.851 2.008-1.926.396 1.045 1.15 2.491 2.461 2.491.177 0 .356-.027.533-.082 1.225-.378 1.597-1.615 1.109-3.682.675.301 1.448.559 2.12.559.229 0 .44-.03.633-.089a1.785 1.785 0 001.196-2.252c-.206-.668-.857-1.342-1.943-2.011 1.982-.76 2.796-1.764 2.419-2.99-.152-.492-.633-1.317-2.134-1.317-.446 0-.957.069-1.547.21.52-1.165.68-2.09.475-2.754a1.789 1.789 0 00-.88-1.072 1.802 1.802 0 00-1.378-.12c-.667.206-1.34.855-2.006 1.933-.394-1.045-1.147-2.493-2.459-2.493-.177 0-.355.027-.533.082-1.226.379-1.599 1.615-1.113 3.68-.916-.406-2.014-.7-2.748-.471a1.798 1.798 0 00-1.078.877 1.825 1.825 0 00-.12 1.378c.208.671.861 1.347 1.942 2.01-.746.283-1.312.593-1.717.938-.92.785-.835 1.622-.703 2.05.152.494.633 1.321 2.14 1.321.445-.001.954-.069 1.542-.21zm-2.248-1.554c-.022-.072-.063-.205.244-.467.256-.22.808-.556 1.975-.915.336-.104.634-.181.924-.238a.749.749 0 00.138-1.429 9.582 9.582 0 01-.868-.413c-1.203-.631-1.839-1.227-1.935-1.535a.316.316 0 01.016-.24.319.319 0 01.19-.14.61.61 0 01.188-.022c.475 0 1.265.273 2.165.748.312.168.582.333.828.496a.75.75 0 001.11-.906 11.125 11.125 0 01-.33-.916c-.513-1.664-.418-2.51-.007-2.624.226 0 .751.47 1.292 2.23.106.34.181.646.241.931a.75.75 0 001.425.135c.114-.272.245-.558.413-.875.633-1.199 1.228-1.832 1.534-1.926a.315.315 0 01.24.013.313.313 0 01.144.186c.087.283-.053 1.072-.729 2.355-.129.238-.298.539-.491.838a.75.75 0 00.926 1.097 8.59 8.59 0 01.893-.321c.788-.242 1.43-.365 1.908-.365.62 0 .679.189.7.26.099.319-.549.872-2.215 1.385a8.902 8.902 0 01-.922.239.75.75 0 00-.145 1.427c.327.138.637.289.873.412 1.203.635 1.838 1.229 1.933 1.536a.3.3 0 01-.021.239.296.296 0 01-.185.139.655.655 0 01-.19.022c-.477 0-1.284-.28-2.166-.752a9.357 9.357 0 01-.828-.491.751.751 0 00-1.108.908c.112.276.224.575.328.914.514 1.667.421 2.512.103 2.61a.297.297 0 01-.092.016c-.226 0-.753-.47-1.296-2.23a10.959 10.959 0 01-.241-.938.75.75 0 00-1.427-.126c-.111.271-.242.56-.404.871-.632 1.197-1.229 1.829-1.541 1.925a.31.31 0 01-.229-.007.313.313 0 01-.151-.189c-.097-.31.094-1.158.742-2.368.119-.233.289-.525.481-.82a.75.75 0 00-.921-1.101c-.272.115-.563.22-.898.323-.786.241-1.427.364-1.906.364-.627-.002-.686-.193-.708-.265zm17.625 2.846s-.221-.021-.587-.021c-1.271 0-3.648.234-5.273 1.804-1.102 1.064-1.598 2.508-1.819 3.688a9.602 9.602 0 011.322 1.644.75.75 0 01-.165.967 8.868 8.868 0 01-.289.217c.071.002.15.003.239.003 1.271 0 3.644-.234 5.267-1.803 2.162-2.085 1.995-5.643 1.987-5.793a.753.753 0 00-.682-.706zm-2.348 5.42c-1.184 1.144-3.042 1.352-3.99 1.378.062-.986.342-2.798 1.521-3.937 1.181-1.141 3.036-1.351 3.988-1.378-.062.988-.341 2.801-1.519 3.937z"/><path fill="#E5E5E5" d="M83.647 68.32a9.688 9.688 0 00-1.322-1.644c-.848-.852-2.069-1.767-3.579-2.027a5.317 5.317 0 00-.898-.075c-2.605 0-4.855 1.822-4.95 1.899a.751.751 0 00-.167.968c.078.129 1.94 3.164 4.902 3.671.292.05.595.075.9.075 2.12 0 3.979-1.191 4.66-1.684.157-.114.271-.202.289-.217a.746.746 0 00.165-.966zm-5.76 1.314c-1.604-.274-2.858-1.618-3.468-2.4.835-.533 2.459-1.385 4.072-1.105 1.604.276 2.859 1.619 3.469 2.401-.834.532-2.449 1.383-4.073 1.104zm28.812 42.568c-.07.446-.148.896-.251 1.352-.112.497-.239.964-.372 1.41.472.192.928.404 1.366.638a20.792 20.792 0 00.777-3.383c-.226.011-.449.031-.678.031-.277 0-.561-.032-.842-.048zm-1.112 4.189c-1.138 2.915-2.64 4.372-3.448 4.179-.818-.185-1.518-2.204-1.313-5.248a13.612 13.612 0 00-1.499.006c-.104 1.681.026 3.267.439 4.481a7.995 7.995 0 004.101 1.133c.244 0 .485-.013.726-.035.904-.924 1.708-2.31 2.339-3.875a13.198 13.198 0 00-1.345-.641zm-3.501-6.755c1.079-2.809 2.502-4.289 3.342-4.289.05 0 .098.005.146.016.543.123 1.012 1.026 1.224 2.358.141.886.157 1.909.075 2.998.508.024 1.012.028 1.504-.004.081-1.164.055-2.265-.099-3.229a7.976 7.976 0 00-.343-1.395 7.961 7.961 0 00-4.789-1.095c-.934.94-1.762 2.375-2.404 3.994.427.239.879.45 1.344.646zm-.482 1.428c-.473-.193-.93-.406-1.368-.641a20.65 20.65 0 00-.757 3.392 14.705 14.705 0 011.513.008 19.946 19.946 0 01.612-2.759z"/><path fill="#E5E5E5" d="M107.442 115.602a15.859 15.859 0 00-3.838-1.419 15.77 15.77 0 00-4.126-.367 12.605 12.605 0 00-3.463.639c.094.492.233.976.421 1.444a11.02 11.02 0 012.89-.571c.49-.032.993-.029 1.499-.006.811.038 1.633.14 2.449.324.802.181 1.575.438 2.312.745.464.193.917.403 1.344.641a11.147 11.147 0 012.369 1.745c.367-.343.7-.721.999-1.127a12.687 12.687 0 00-2.856-2.048zm-7.206-5.178a15.81 15.81 0 003.868 1.435c.872.197 1.738.295 2.595.344.281.016.564.048.842.048.229 0 .452-.021.678-.031a12.609 12.609 0 003.501-.65 7.945 7.945 0 00-.401-1.443c-.904.318-1.897.521-2.942.59-.492.032-.996.028-1.504.004a14.129 14.129 0 01-2.438-.323 14.106 14.106 0 01-2.349-.76 13.338 13.338 0 01-1.345-.646 11.075 11.075 0 01-2.418-1.81c-.36.348-.687.732-.978 1.146a12.706 12.706 0 002.891 2.096z"/><path fill="#E5E5E5" d="M105.948 103.7a9.53 9.53 0 00-2.098-.235c-4.459 0-8.261 3.043-9.246 7.399a9.422 9.422 0 001.232 7.154 9.426 9.426 0 005.931 4.188c.69.156 1.396.235 2.099.235 4.388 0 8.274-3.111 9.242-7.397 1.154-5.101-2.058-10.19-7.16-11.344zm5.698 11.014a7.91 7.91 0 01-1.347 2.936 8.175 8.175 0 01-.999 1.127 8.013 8.013 0 01-5.434 2.165 8.006 8.006 0 01-6.761-3.724 8.133 8.133 0 01-.669-1.319 7.818 7.818 0 01-.421-1.444 7.949 7.949 0 01.052-3.26 8.045 8.045 0 011.278-2.868c.291-.413.617-.798.978-1.146a7.932 7.932 0 015.527-2.216 7.922 7.922 0 014.084 1.126 8.02 8.02 0 013.785 5.477 7.924 7.924 0 01-.073 3.146zm-95.865-6.985a1.417 1.417 0 00-.291-.645l-2.523.371a1.44 1.44 0 00-.075.699c.044.298.179.564.374.773l2.385-.352c.123-.252.174-.545.13-.846zm8.114-3.159l-.445-3.017c-.635-.126-1.518-.616-1.848-2.249l.689 4.674a3.01 3.01 0 011.609.95c.01-.133.009-.256-.005-.358zm-1.47-9.836l.6 4.078c.016.109.042.191.063.287l-.644-4.368-.019.003zm-.93 11.485l1.349-.199a1.434 1.434 0 00-.897-.57 4.695 4.695 0 01-1.63.902c-.019.05-.041.098-.054.148a6.19 6.19 0 00.382-.094c.259-.068.545-.142.85-.187zm-10.101 1.469l-.964.142a1.267 1.267 0 01-1.434-1.064L7.107 93.957a1.258 1.258 0 01.236-.938c.201-.271.496-.447.829-.496l10.917-1.609a1.267 1.267 0 011.432 1.064l.22 1.488.434-.064a.759.759 0 01.28-.102l.762-.112-.211-1.428a2.774 2.774 0 00-3.136-2.331l-10.915 1.61c-.729.107-1.375.492-1.815 1.085s-.624 1.321-.517 2.052l1.889 12.809a2.777 2.777 0 003.136 2.33l1.006-.148a2.913 2.913 0 01-.248-.792 3.044 3.044 0 01-.012-.687zm7.342-1.082l-1.658.244c.085.21.153.429.188.66.042.283.028.56-.01.83l1.742-.256a2.885 2.885 0 01-.248-.793 2.965 2.965 0 01-.014-.685zm8.645-6.298a.748.748 0 01-.633.85c-.316.046-.552.082-.742.111l.434 2.945c.05.333-.034.666-.235.937s-.495.447-.829.496l-.95.14c.082.205.146.418.18.644.042.286.029.569-.011.849l1-.147a2.741 2.741 0 001.814-1.086c.44-.592.623-1.32.516-2.05l-.544-3.689zm-.725-4.92l-.003-.011.551 3.728z"/><path fill="#E5E5E5" d="M23.12 106.647a1.42 1.42 0 00-.276-.628l-1.349.199a7.637 7.637 0 00-.851.188c-.13.035-.27.071-.382.094a1.448 1.448 0 00.443 1.434c.106-.024.212-.049.322-.078.21-.055.44-.117.687-.153l1.264-.187c.135-.266.187-.567.142-.869zm-3.263-11.534l1.083-.16-.118-.802a.75.75 0 01.353-.749l-.434.064-1.103.162a2.769 2.769 0 00-2.331 3.137l1.439 9.764a2.93 2.93 0 01.554-1.432c.186-.25.413-.455.659-.632l-1.168-7.918a1.267 1.267 0 011.066-1.434zm3.881-.572A1.269 1.269 0 0125.17 95.6l-.008-.053c-.1-.677-.743-1.175-1.433-1.065l-1.313.193.009.059.02-.003 1.293-.19z"/><path fill="#E5E5E5" d="M21.175 93.402a.752.752 0 00-.353.749l.118.802.6 4.078c.015.102.042.179.062.273.33 1.633 1.213 2.123 1.848 2.249.161.031.311.048.424.048.274 0 .497-.052.62-.087.445-.066.596-.094.764-.123.15-.027.322-.058.749-.123.19-.029.426-.065.742-.111a.748.748 0 00.633-.85v-.002l-.177-1.2-.551-3.729-.007-.048c-.218-1.479-1.623-2.547-3.137-2.331l-1.293.19-.762.112a.797.797 0 00-.28.103zm3.817 6.513c-.165.029-.313.056-.777.124a.94.94 0 00-.139.034.697.697 0 01-.203.028c-.381 0-.64-.35-.785-1.002-.021-.096-.048-.178-.063-.287l-.6-4.078-.009-.059 1.313-.193c.689-.109 1.333.389 1.433 1.065l.008.053.617 4.184c-.462.07-.636.103-.795.131zm-7.726 7.596a2.875 2.875 0 00-.188-.66c-.494-1.227-1.781-2.04-3.174-1.837a2.96 2.96 0 00-2.51 2.675c-.02.225-.021.453.013.686.042.281.133.543.248.792.473 1.027 1.507 1.737 2.679 1.737a2.954 2.954 0 002.922-2.562c.038-.272.052-.548.01-.831zm-2.717 1.876a1.458 1.458 0 01-1.284-.458 1.45 1.45 0 01-.374-.773 1.44 1.44 0 01.075-.699 1.455 1.455 0 011.372-.974c.47 0 .882.244 1.151.603.142.188.255.399.291.645a1.46 1.46 0 01-1.231 1.656zm10.055-2.957a2.845 2.845 0 00-.18-.644 2.982 2.982 0 00-2.133-1.807 2.9 2.9 0 00-1.045-.046c-.475.07-.908.261-1.286.533a2.946 2.946 0 00-.659.632 2.94 2.94 0 00-.554 1.432c-.003.025-.009.051-.011.077-.02.227-.021.455.014.686.041.281.133.544.248.793.473 1.025 1.506 1.735 2.677 1.735a2.937 2.937 0 002.378-1.194c.299-.402.473-.866.541-1.348.04-.28.052-.563.01-.849zm-1.755 1.301a1.445 1.445 0 01-2.144.203 1.454 1.454 0 01-.471-.862 1.445 1.445 0 01.028-.572c.013-.051.035-.099.054-.148.047-.126.105-.249.188-.36.232-.313.573-.518.961-.574a1.44 1.44 0 01.216-.017c.093 0 .176.032.265.049.367.071.683.273.897.57.135.186.242.391.276.628.045.302-.007.603-.143.869a1.37 1.37 0 01-.127.214zm-52.796-47.782c-.445-.368-.881-.71-1.288-1.03l-.25-.197.063-.226c.499-1.716 2.946-12.537 1.577-13.774-.761-.689-1.731-.891-2.586-1.067-.385-.08-.749-.155-1.052-.266-.306-.112-.633-.289-.979-.476-.738-.399-1.576-.852-2.554-.852l-.111.002c-1.031.037-1.898.582-2.663 1.062-.348.219-.676.425-.998.575s-.692.269-1.084.394c-.859.275-1.833.588-2.524 1.352-.688.762-.889 1.729-1.065 2.585-.08.386-.156.75-.267 1.055-.111.306-.288.632-.475.979-.415.768-.885 1.639-.849 2.663.066 1.843 9.784 6.873 11.471 7.627l.357.16a28.797 28.797 0 00-.076 1.928c-.006.983.057 1.89.178 2.552.076.415.308 1.68 1.292 1.68l.036-.001a3.03 3.03 0 00.975-.206c.25-.093.51-.22.818-.4.18-.106.356-.217.533-.328l.158-.1c.198-.122.396-.24.602-.335.202-.095.42-.171.701-.263.237-.075.476-.151.713-.234.328-.116.591-.232.826-.363.313-.175.572-.376.792-.617.68-.75-.156-1.764-.431-2.096-.433-.527-1.086-1.159-1.84-1.783zm.749 3.184c-.188.104-.39.187-.596.259-.221.078-.445.149-.744.244-.28.093-.554.19-.806.309a7.646 7.646 0 00-.758.42l-.166.104c-.165.104-.329.207-.495.304a3.633 3.633 0 01-.588.291 1.782 1.782 0 01-.2.065 3.464 3.464 0 01-.096-.406c-.105-.572-.16-1.379-.154-2.268.009-.911.046-1.65.117-2.328a.752.752 0 00-.439-.763l-.847-.379c-3.933-1.757-9.873-5.458-10.584-6.426.02-.58.336-1.165.67-1.782.204-.378.416-.769.564-1.177s.239-.844.327-1.266c.152-.732.295-1.424.71-1.883.419-.465 1.123-.689 1.868-.929.418-.134.852-.272 1.26-.463.407-.189.792-.431 1.163-.664.663-.417 1.29-.812 1.975-.835.599 0 1.202.326 1.841.671.377.204.768.415 1.177.565.407.147.842.238 1.262.325.688.143 1.339.277 1.796.637.29 1.186-.715 8.166-1.925 12.324l-.2.713a.753.753 0 00.253.789l.65.513c.398.312.824.647 1.259 1.007.683.564 1.264 1.125 1.638 1.579.117.142.196.252.248.334a1.43 1.43 0 01-.18.116z"/><path fill="#E5E5E5" d="M-39.842 52.59a.75.75 0 00-1.009 1.11l1.154 1.049a.745.745 0 001.059-.051.75.75 0 00-.051-1.059l-1.153-1.049zm1.926-4.146a.75.75 0 00-1.361.633l1.604 3.448a.75.75 0 001.361-.632l-1.604-3.449zm3.905.99a.75.75 0 00-.721.777l.06 1.558a.751.751 0 00.749.722l.029-.001a.75.75 0 00.721-.777l-.06-1.558c-.016-.415-.357-.754-.778-.721zm-63.951 35.763a.75.75 0 00.309-.066c.3-.136 7.342-3.393 6.264-9.053l-1.975-10.367a1.572 1.572 0 00-.641-.995c-.436-.304-5.685-1.243-7.329-1.243-.249 0-.458.017-.614.047-.393.074-1.164.434-2.051.909v1.703c1.017-.585 1.942-1.065 2.332-1.14.085-.016.199-.02.334-.02 1.614 0 5.664.803 6.499 1.018l-.002.004 1.975 10.365c.775 4.066-4.219 6.809-5.232 7.319-.808-.099-3.903-.58-5.904-2.218v1.84c2.574 1.575 5.765 1.876 5.974 1.894a.58.58 0 00.061.003z"/><path fill="#E5E5E5" d="M-100.592 77.554a.747.747 0 001.08-.196l3.845-5.983a.749.749 0 10-1.262-.81l-3.41 5.306-2.553-1.91a.749.749 0 00-1.05.151c-.029.038-.039.083-.059.124v.669a.73.73 0 00.21.257l3.199 2.392zm53.433 32.114c-.65-.326-1.417-1.014-2.228-1.74-1.545-1.385-3.297-2.955-5.521-3.389a6.831 6.831 0 00-1.305-.122c-1.788 0-3.54.63-5.085 1.186-1.025.369-1.993.717-2.718.774-2.76.222-4.286.976-4.533 2.241-.248 1.264.883 2.535 3.36 3.781 2.146 1.075 5.071 2.008 8.236 2.624 2.436.477 4.823.728 6.905.728.604 0 1.182-.021 1.714-.063 2.764-.222 4.29-.975 4.536-2.239.247-1.265-.884-2.538-3.361-3.781zm-1.295 4.523c-2.23.18-5.203-.052-8.212-.641-3.035-.591-5.824-1.477-7.851-2.492-2.227-1.12-2.604-1.934-2.561-2.153.043-.22.699-.834 3.182-1.032.923-.074 1.983-.455 3.105-.858 1.431-.515 3.052-1.098 4.578-1.098.354 0 .697.032 1.018.095 1.819.354 3.407 1.777 4.808 3.033.888.796 1.727 1.547 2.556 1.963 2.228 1.118 2.604 1.934 2.561 2.153-.043.22-.698.832-3.184 1.03z"/><path fill="#E5E5E5" d="M-61.716 109.23a31.17 31.17 0 01-.739-.279.75.75 0 00-.552 1.395c.258.103.517.199.778.295a.75.75 0 10.513-1.411zm6.001 1.715a29.906 29.906 0 01-.803-.145.75.75 0 00-.286 1.473c.278.054.561.104.842.15a.751.751 0 00.864-.615.751.751 0 00-.617-.863zm5.897.471c-.264-.004-.528-.01-.794-.02-.431.001-.762.309-.776.723a.75.75 0 00.723.777c.277.01.552.016.827.02h.011a.75.75 0 00.009-1.5zm-6.335 8.234c.618 0 1.203-.078 1.715-.233a.75.75 0 00-.436-1.436c-.658.2-1.542.224-2.427.063-.884-.157-1.707-.486-2.258-.901a.749.749 0 10-.903 1.197c.744.562 1.773.98 2.896 1.181.479.086.955.129 1.413.129zm3.288 4.843c-1.526.381-3.48.391-5.504.026-2.025-.363-3.855-1.051-5.152-1.936a.748.748 0 10-.845 1.238c1.468 1.002 3.503 1.773 5.732 2.174 1.071.192 2.129.288 3.133.288 1.084 0 2.103-.112 3-.336a.75.75 0 10-.364-1.454zm-9.56-4.358a.75.75 0 00.198 1.042c1.061.722 2.52 1.275 4.109 1.56.765.138 1.522.206 2.241.206.779 0 1.512-.081 2.157-.242a.75.75 0 00-.363-1.455c-1.025.255-2.398.262-3.771.015-1.366-.244-2.652-.727-3.529-1.323a.748.748 0 00-1.042.197zM103.104-29.839a.747.747 0 00-.374-.698l-2.824-1.627-.262-3.248a.752.752 0 00-1.251-.496l-2.418 2.183-3.169-.756a.748.748 0 00-.858 1.035l1.328 2.976-1.697 2.783a.751.751 0 00.72 1.136l3.24-.345 2.12 2.474a.753.753 0 00.755.239.75.75 0 00.548-.571l.675-3.188 3.008-1.251a.754.754 0 00.459-.646zm-4.408.661a.746.746 0 00-.445.537l-.441 2.087-1.389-1.62a.752.752 0 00-.648-.258l-2.121.226 1.111-1.822a.75.75 0 00.044-.696l-.869-1.948 2.074.495a.747.747 0 00.677-.173l1.583-1.429.171 2.126c.021.246.16.466.374.589l1.849 1.065-1.97.821z"/><path fill="#E5E5E5" d="M99.578-17.542a1.63 1.63 0 002.117-.915l6.662-16.772a1.629 1.629 0 00-.913-2.119L94.043-42.67a1.643 1.643 0 00-1.237.02c-.403.17-.714.489-.876.896l-6.661 16.772c-.162.405-.155.849.016 1.243.171.403.489.713.896.875a.753.753 0 00.23.051l7.327.448 5.636 4.702c.062.051.13.092.204.121zm-5.503-6.305l-7.417-.454.007-.024-.003-.102 6.728-16.842c.003-.001.102-.004.104-.006l13.398 5.323a.129.129 0 01.071.171l-6.661 16.77a.14.14 0 01-.065.072.192.192 0 01-.037.011l-5.689-4.746a.757.757 0 00-.436-.173zM75.344-79.976a2.402 2.402 0 00-.226-1.843 2.4 2.4 0 00-1.46-1.141c-1.256-.354-2.633.428-2.982 1.685a2.427 2.427 0 002.334 3.073c1.085 0 2.045-.73 2.334-1.774zm-1.446-.401a.944.944 0 01-1.135.642.925.925 0 01.244-1.814c.083 0 .166.011.249.035a.91.91 0 01.556.434.909.909 0 01.086.703zm1.079 7.226c.744 1.316 1.946 2.722 3.087 2.722.225 0 .433-.053.622-.16 1.179-.67.707-2.742-.284-4.497-.742-1.315-1.943-2.719-3.087-2.719a1.24 1.24 0 00-.621.16c-.334.188-.861.704-.644 2.038.12.741.449 1.613.927 2.456zm2.118-1.198c.605 1.072.795 1.94.788 2.344-.35-.203-.995-.813-1.602-1.885s-.795-1.94-.787-2.343c.349.201.995.811 1.601 1.884zm-6.388-9.096c.224 0 .433-.054.618-.159.334-.188.863-.704.645-2.041-.121-.741-.45-1.614-.927-2.458-.743-1.315-1.945-2.72-3.086-2.72a1.25 1.25 0 00-.622.16c-1.18.669-.708 2.739.283 4.495.744 1.317 1.946 2.723 3.089 2.723zm-.97-3.919c.605 1.072.796 1.94.789 2.344-.351-.203-.996-.813-1.602-1.884-.605-1.072-.795-1.939-.788-2.343.35.202.995.812 1.601 1.883zm6.152 4.019c-.132.476-.018.826.101 1.035.146.26.529.697 1.444.697.841 0 1.953-.357 3.051-.979.843-.477 1.576-1.055 2.062-1.628.875-1.031.689-1.745.5-2.08-.18-.317-.577-.695-1.445-.695-.841 0-1.953.357-3.051.979-1.102.622-2.379 1.651-2.662 2.671zm3.401-1.366c1.042-.59 1.923-.791 2.339-.784-.205.351-.815.994-1.884 1.597-1.043.591-1.922.8-2.339.784.204-.349.814-.992 1.884-1.597zm-9.259 5.767c-.181-.316-.576-.693-1.443-.693-.84 0-1.952.356-3.053.978-.844.478-1.575 1.055-2.062 1.627-.876 1.032-.688 1.747-.5 2.08.18.317.575.695 1.443.695.84 0 1.953-.356 3.054-.978 1.757-.994 3.23-2.525 2.561-3.709zm-3.299 2.403c-1.042.59-1.934.777-2.341.784.205-.35.814-.993 1.882-1.596 1.043-.589 1.877-.772 2.34-.784-.206.351-.814.993-1.881 1.596zm11.827-4.303c-1.685 0-2.133.711-2.25 1.135-.363 1.309 1.435 2.44 3.378 2.979a8.334 8.334 0 002.179.322h.001c1.686 0 2.136-.709 2.253-1.133.362-1.308-1.436-2.439-3.38-2.979-.762-.212-1.517-.324-2.181-.324zm1.529 2.669c-1.184-.329-1.93-.806-2.211-1.097.368-.099 1.453-.083 2.461.196 1.182.329 1.928.805 2.211 1.096-.369.099-1.457.084-2.461-.195zm-12.626-2.233c1.685 0 2.134-.71 2.251-1.133.363-1.31-1.436-2.441-3.38-2.981-.761-.21-1.514-.322-2.178-.322-1.686 0-2.136.71-2.255 1.135-.363 1.307 1.436 2.438 3.379 2.978.763.211 1.517.323 2.183.323zm-1.53-2.669c1.184.329 1.93.806 2.212 1.098-.372.098-1.457.082-2.462-.197-1.181-.328-1.928-.805-2.211-1.095.369-.101 1.456-.085 2.461.194zm7.994-.846c.105.029.216.044.326.044 1.257 0 2.216-1.844 2.654-3.423.259-.934.368-1.86.307-2.608-.111-1.348-.748-1.721-1.118-1.824a1.225 1.225 0 00-.325-.044c-1.258 0-2.216 1.844-2.654 3.423-.259.934-.368 1.86-.307 2.608.111 1.349.748 1.722 1.117 1.824zm.635-4.031c.33-1.188.81-1.936 1.101-2.215.104.389.13 1.277-.2 2.465-.33 1.187-.81 1.935-1.101 2.215-.105-.389-.131-1.277.2-2.465zm-1.657 15.058c.54-1.944.499-4.069-.81-4.433a1.225 1.225 0 00-.325-.044c-1.259 0-2.218 1.844-2.656 3.423-.539 1.942-.498 4.066.812 4.433.105.029.215.044.325.044h.001c1.256 0 2.215-1.844 2.653-3.423zm-2.545 1.813c-.105-.389-.131-1.277.199-2.466.33-1.187.81-1.935 1.101-2.214.104.39.13 1.278-.2 2.465-.33 1.189-.81 1.936-1.1 2.215zm63.029 73.798c-3.255 0-6 2.336-6.527 5.555-.286 1.745.125 3.497 1.157 4.933s2.562 2.384 4.309 2.67c.356.058.719.088 1.077.088.923 0 1.795-.205 2.597-.547v-1.656a5.11 5.11 0 01-3.432.636 5.093 5.093 0 01-3.333-2.065 5.088 5.088 0 01-.895-3.815 5.1 5.1 0 015.047-4.297 5.113 5.113 0 012.612.72v-1.68a6.645 6.645 0 00-1.535-.453 6.622 6.622 0 00-1.077-.089zm-7.279 10.935l-1.598 1.147a.75.75 0 10.875 1.218l1.598-1.147a.75.75 0 10-.875-1.218zm1.755-10.723a.749.749 0 001.047.171.751.751 0 00.172-1.047L127.936.452a.751.751 0 00-1.219.875l1.147 1.6zm-2.792 5.8a.75.75 0 00.12-1.49l-1.941-.318a.75.75 0 00-.242 1.481l1.941.318a.845.845 0 00.122.009zm9.565-6.972a.75.75 0 00.861-.618l.318-1.941a.75.75 0 00-1.48-.243l-.318 1.941a.75.75 0 00.619.861zm-3.043 18.588a.75.75 0 00.861-.619l.318-1.94a.75.75 0 00-1.48-.242l-.318 1.94a.75.75 0 00.619.861z"/><path fill="#E5E5E5" d="M133.05 6.064l-.435 2.655-1.096-1.042a.75.75 0 00-1.034 1.087l2.123 2.02a.749.749 0 001.257-.422l.664-4.055a.75.75 0 00-1.479-.243zm-.234-95.856a.75.75 0 10.928-1.178l-1.18-.929a.75.75 0 00-.928 1.178l1.18.929zm2.857 4.293a6.692 6.692 0 01-.038-.893 8.215 8.215 0 00-2.016.044.751.751 0 00-.641.822c.025.245.622 5.546 3.021 8.388v-2.828c-.823-1.79-1.247-3.874-1.423-4.966a5.73 5.73 0 011.423.113v-.158a.735.735 0 01-.326-.522z"/><path fill="#E5E5E5" d="M135.673-85.499a.733.733 0 00.327.522v-3.457a6.506 6.506 0 00-.365 2.042c-.005.296.003.594.038.893zM23.057 13.653L21.575 1.856a.746.746 0 00-.838-.651L-.049 3.816a.75.75 0 00-.651.838L.781 16.451a.746.746 0 00.837.651l20.788-2.611a.752.752 0 00.651-.838zM2.176 15.52L.881 5.211 20.18 2.786l1.294 10.309L2.176 15.52z"/><path fill="#E5E5E5" d="M10.691 5.26a3.928 3.928 0 00-3.403 4.38 3.928 3.928 0 004.381 3.405 3.93 3.93 0 003.4-4.382 3.92 3.92 0 00-4.378-3.403zm.79 6.297a2.432 2.432 0 01-2.705-2.104 2.426 2.426 0 012.406-2.724 2.423 2.423 0 01.299 4.828zm-6.194-5.75l-2.408.302a.75.75 0 10.188 1.488l2.408-.303a.75.75 0 10-.188-1.487zm-21.345-102.15a10.006 10.006 0 00-4.396-.211.749.749 0 00-.361 1.305A8.526 8.526 0 01-18.2-86.58a8.524 8.524 0 01-6.701 6.09.75.75 0 00-.361 1.306 9.888 9.888 0 003.877 2.078 9.995 9.995 0 002.67.365c4.467 0 8.419-3.011 9.612-7.321 1.469-5.302-1.652-10.811-6.955-12.281zm5.511 11.88c-1.014 3.663-4.372 6.221-8.167 6.221a8.499 8.499 0 01-2.27-.31 8.454 8.454 0 01-2.069-.88c3.034-1.078 5.426-3.593 6.299-6.748s.115-6.542-1.932-9.026a8.47 8.47 0 012.228.309c4.506 1.249 7.158 5.929 5.911 10.434z"/><path fill="#E5E5E5" d="M-29.923-88.958l-.895 1.899a.75.75 0 00.838 1.053l2.052-.446 1.529 1.437a.751.751 0 001.26-.47l.21-2.088 1.84-1.011a.75.75 0 00-.059-1.344l-1.922-.847-.393-2.062a.751.751 0 00-1.297-.359l-1.399 1.567-2.082-.263a.75.75 0 00-.742 1.123l1.06 1.811zm1.967-1.135a.759.759 0 00.654-.245l.65-.728.182.957a.75.75 0 00.435.546l.894.394-.855.47a.75.75 0 00-.385.582l-.098.968-.709-.666a.752.752 0 00-.673-.187l-.952.207.415-.881a.748.748 0 00-.031-.697l-.491-.842.964.122zm54.259 38.681c.007.299-.011.598-.044.897.041-.251.069-.507.069-.771 0-.045-.018-.084-.025-.126zm-2.751 2.565c-.981.643-2.312.725-3.473.215-1.762-.773-2.117-2.138-1.886-3.072.154-.624.67-1.325 1.61-1.261.608.043 1.045.229 1.3.552.415.525.298 1.306.294 1.329a.75.75 0 001.477.26c.026-.146.232-1.457-.582-2.503-.526-.677-1.328-1.058-2.382-1.133-1.53-.104-2.793.855-3.174 2.397-.4 1.618.291 3.731 2.739 4.806a5.411 5.411 0 002.17.456c.219 0 .437-.018.652-.045a5.123 5.123 0 001.73-1.692 5.094 5.094 0 00.728-2.109 2.74 2.74 0 01-1.203 1.8z"/><path fill="#E5E5E5" d="M14.021-54.784a6.612 6.612 0 00-.977 2.96.73.73 0 01.415.091.75.75 0 01.261 1.028 6.658 6.658 0 00-.5 1.051 6.632 6.632 0 006.434 5.038h.001c.774 0 1.521-.142 2.225-.39l-.037-.002a.749.749 0 11.184-1.488 6.143 6.143 0 002.421-.169c.314-.329.606-.684.854-1.081.541-.868.85-1.814.956-2.769.033-.299.051-.599.044-.897a6.645 6.645 0 00-3.12-5.492 6.646 6.646 0 00-2.635-.947 4.383 4.383 0 00-.88.976.75.75 0 01-1.27-.798c.024-.04.056-.081.083-.122a6.607 6.607 0 00-4.459 3.011zm5.648-1.629c.96 0 1.9.271 2.719.781 1.746 1.09 2.598 3.062 2.369 4.983a5.08 5.08 0 01-.728 2.109 5.132 5.132 0 01-1.73 1.692 5.14 5.14 0 01-5.361-.048 5.155 5.155 0 01-1.644-7.093 5.127 5.127 0 014.375-2.424z"/><path fill="#E5E5E5" d="M25.275-59.405c-1.624-.918-3.062-.884-4.221-.447.173.191.271.326.285.346a.75.75 0 01-1.225.866c-.006-.008-.152-.205-.415-.451-.529.41-.939.878-1.22 1.296-.027.041-.059.083-.083.122a.75.75 0 001.27.798c.072-.114.374-.56.88-.976.819-.675 2.18-1.272 3.988-.249 3.308 1.874 4.168 5.491 3.307 8.096-.575 1.744-1.791 2.891-3.395 3.338a6.143 6.143 0 01-2.421.169.749.749 0 10-.184 1.488l.037.002c.361.043.711.066 1.045.066.965 0 1.809-.182 2.556-.478a2.56 2.56 0 00.005-.988.752.752 0 01.561-.897c.4-.096.802.149.898.549.033.137.057.294.072.462 1.11-.87 1.856-2.05 2.25-3.241 1.055-3.185.022-7.599-3.99-9.871z"/><path fill="#E5E5E5" d="M26.047-47.303a.754.754 0 00-.561.897 2.56 2.56 0 01-.005.988c-.157.818-.753 1.952-2.713 2.696-2.68 1.017-6.882-.157-8.82-2.464-1.107-1.318-1.342-2.847-.727-4.468.132-.347.289-.697.5-1.051a.75.75 0 00-.261-1.028.719.719 0 00-.415-.091.734.734 0 00-.613.353c-.627 1.054-.96 2.107-1.031 3.129.234.264.518.431.853.491a.75.75 0 01-.265 1.476 2.983 2.983 0 01-.396-.102A6.038 6.038 0 0012.8-44.22c1.747 2.079 4.927 3.362 7.783 3.362.966 0 1.896-.147 2.72-.46 3.213-1.22 3.841-3.57 3.716-4.973a3.376 3.376 0 00-.072-.462.748.748 0 00-.9-.55z"/><path fill="#E5E5E5" d="M12.122-46.363a.75.75 0 00.132-1.488 1.464 1.464 0 01-.853-.491c-.22-.248-.397-.582-.525-1.008-.694-2.315.285-6.561 2.799-8.952 1.375-1.308 2.691-1.914 3.917-1.798.959.09 1.686.615 2.107 1.01.263.247.409.443.415.451a.75.75 0 001.225-.866 4.058 4.058 0 00-.285-.346c-.496-.549-1.629-1.575-3.299-1.74-1.681-.165-3.403.574-5.115 2.203-2.951 2.807-4.039 7.68-3.202 10.47.378 1.263 1.136 2.114 2.153 2.442.128.042.259.078.396.102a.899.899 0 00.135.011zm-112.191 56.771a6.58 6.58 0 00-1.157-4.935 6.56 6.56 0 00-2.773-2.218v1.68a5.09 5.09 0 012.45 5.231 5.11 5.11 0 01-2.45 3.591v1.657a6.585 6.585 0 003.93-5.006zm2.52-7.578a.75.75 0 00-1.047-.171l-1.598 1.148a.75.75 0 00.876 1.218l1.598-1.148a.751.751 0 00.171-1.047zm-3.524 12.919a.751.751 0 00-1.219.875l1.147 1.598a.747.747 0 001.047.171.752.752 0 00.172-1.047l-1.147-1.597zm4.855-5.47l-1.942-.318a.75.75 0 10-.242 1.48l1.942.318a.75.75 0 10.242-1.48zm66.42-28.655c.031-.015.056-.039.089-.05.007-.002.014 0 .021-.002.054-.016.109-.016.166-.019.042-.002.083-.013.123-.008.043.004.083.024.125.036.052.015.105.026.154.052l.018.006.512.296 5.124-1.665a2.998 2.998 0 001.924-3.773l-2.023-6.224a2.982 2.982 0 00-3.773-1.921l-12.066 3.92c-.761.247-1.38.776-1.743 1.489s-.427 1.524-.18 2.285l2.022 6.225a2.986 2.986 0 003.773 1.921l4.936-1.604.24-.541a.736.736 0 01.558-.423zm-6.199 1.14c-.773.254-1.633-.192-1.882-.958l-2.022-6.225a1.482 1.482 0 01.09-1.14c.182-.356.49-.62.87-.743l12.067-3.92a1.487 1.487 0 011.882.959l2.023 6.224a1.497 1.497 0 01-.961 1.883l-12.067 3.92z"/><path fill="#E5E5E5" d="M-36.639-25.191l-1.421.463a.751.751 0 00.465 1.426l1.421-.463a.748.748 0 00.48-.945.747.747 0 00-.945-.481zm6.447 7.69c-.016-.052-.015-.107-.019-.162-.003-.043-.014-.086-.009-.129.004-.039.022-.075.032-.112.016-.058.028-.115.056-.167.003-.005.002-.012.006-.018.018-.03.046-.048.067-.075.036-.046.068-.093.115-.13.041-.033.086-.051.132-.075l.014-.008a.737.737 0 00-.558.421l-.24.541-4.832 10.885a.75.75 0 101.371.608l4.401-9.915-.535-1.646c-.001-.005.001-.012-.001-.018zm11.909 5.401l-10.307-5.965-.512-.296-.018-.006a.746.746 0 01.356.423l.605 1.861 9.125 5.281a.746.746 0 001.024-.274.748.748 0 00-.273-1.024zm-11.115-6.356c.044.004.083.023.125.036-.042-.012-.082-.032-.125-.036zm-.123.008c-.056.003-.112.003-.166.019.055-.016.11-.015.166-.019z"/><path fill="#E5E5E5" d="M-30.192-17.501c-.016-.054-.015-.108-.019-.162.004.055.003.109.019.162zm.061-.57c.019-.035.048-.062.073-.093-.021.027-.049.045-.067.075-.004.006-.003.013-.006.018zm-.089.279c.004-.04.022-.075.032-.112-.01.037-.028.073-.032.112zm.276-.501c.039-.031.086-.051.132-.075-.045.023-.091.042-.132.075z"/><path fill="#E5E5E5" d="M-29.119-18.368c-.048-.026-.102-.037-.154-.052-.042-.012-.082-.031-.125-.036-.041-.004-.082.006-.123.008-.055.003-.11.003-.166.019-.007.002-.014 0-.021.002-.034.011-.058.035-.089.05l-.014.008c-.045.023-.093.043-.132.075-.046.037-.079.083-.115.13-.024.031-.054.058-.073.093-.028.052-.041.109-.056.167-.01.038-.028.073-.032.112-.005.042.006.085.009.129.003.054.003.108.019.162.002.007 0 .014.002.021l.535 1.646 2.351 7.233a.75.75 0 101.426-.464l-2.281-7.018-.605-1.861a.745.745 0 00-.356-.424zm-2.158-7.85a2.836 2.836 0 00-2.694 3.705 2.824 2.824 0 003.567 1.818 2.834 2.834 0 001.817-3.568 2.82 2.82 0 00-2.69-1.955zm.409 4.096a1.345 1.345 0 01-1.676-.854 1.332 1.332 0 012.531-.824 1.332 1.332 0 01-.855 1.678zm-72.404-54.271c2.118 1.771 4.56 2.036 5.827 2.036.593 0 .967-.055 1.031-.064l-.018.001-.057.002a.75.75 0 01-.745-.673c-.01-.1-.133-1.348-.052-2.964a.743.743 0 01-.666-.66 35.24 35.24 0 01-.171-3.01 32.21 32.21 0 00-.125-.532 8.403 8.403 0 00-.406-.542c-1.373-1.678-2.723-2.721-4.191-3.241.006.122-.007.242.007.364a.75.75 0 01-.746.838.74.74 0 01-.417-.14v.154c1.479.304 2.767 1.243 4.186 2.976 1.443 1.762 2.145 4.615 2.414 5.991-1.095.012-3.13-.198-4.909-1.687-.7-.585-1.25-1.464-1.69-2.423v2.828c.228.271.466.527.728.746z"/><path fill="#E5E5E5" d="M-91.955-86.202a.753.753 0 01-.832-.657c-.014-.122-.055-.236-.078-.355-1.309.848-2.379 2.178-3.324 4.127-.169.35-.311.719-.434 1.098v.09c.207.929.391 1.915.532 2.967a.748.748 0 01-.744.85c-.037 0-.069-.014-.105-.019-.062.024-.123.052-.192.059a.645.645 0 01-.076.004c-.028 0-.052-.012-.08-.015a21.28 21.28 0 00.052 2.964.75.75 0 00.745.673c.019 0 .038 0 .057-.002l.018-.001c.263-.021 3.874-.374 6.207-3.512 2.35-3.156 1.56-9.485 1.525-9.753a.752.752 0 00-.813-.65 8.158 8.158 0 00-1.972.424c.074.287.136.578.171.877a.748.748 0 01-.657.831zm.543 7.375c-1.367 1.838-3.321 2.529-4.382 2.778-.058-1.402-.037-4.337.955-6.385 1.28-2.639 2.649-3.905 4.74-4.305.129 1.693.253 5.808-1.313 7.912z"/><path fill="#E5E5E5" d="M-103.494-84.842a.75.75 0 00.657-.833c-.014-.122-.001-.242-.007-.364-.056-1.215.299-2.399 1.06-3.363.153-.193.33-.359.505-.526-.127-.211-.209-.334-.213-.341a.75.75 0 011.237-.848c.018.026.095.142.21.328a5.05 5.05 0 011.641-.502 5.026 5.026 0 011.56.081c.062-.183.103-.293.113-.321a.75.75 0 011.401.538c-.002.006-.038.104-.095.275.259.14.512.294.748.48a5 5 0 011.813 3.024c.023.12.063.233.078.355a.748.748 0 101.489-.175 6.566 6.566 0 00-.171-.877 6.503 6.503 0 00-2.28-3.505 6.52 6.52 0 00-4.832-1.365 6.517 6.517 0 00-4.382 2.45A6.551 6.551 0 00-104-88.434v3.457a.74.74 0 00.506.135zm3.778-13.131a.75.75 0 00-.658.833l.175 1.49a.75.75 0 101.49-.175l-.175-1.49a.752.752 0 00-.832-.658zm8.92 4.114l-.93 1.177a.748.748 0 00.588 1.215.749.749 0 00.589-.285l.93-1.177a.748.748 0 00-.124-1.053.747.747 0 00-1.053.123z"/><path fill="#E5E5E5" d="M-96.622-81.9v-.09c-.03-4.582.895-7.806 1.197-8.729a7.96 7.96 0 01.095-.275.75.75 0 00-.432-.968.746.746 0 00-.969.43c-.01.027-.052.138-.113.321-.229.686-.746 2.431-1.05 4.967a33.89 33.89 0 011.272 4.344zm-.509 3.857c.069-.007.13-.035.192-.059a.742.742 0 01-.637-.631 33.53 33.53 0 00-.547-2.991c.015.952.065 1.954.171 3.01a.743.743 0 00.666.66c.027.003.052.015.08.015a.64.64 0 00.075-.004z"/><path fill="#E5E5E5" d="M-96.939-78.102c.036.005.068.019.105.019a.749.749 0 00.744-.85 35.746 35.746 0 00-.532-2.967 33.72 33.72 0 00-1.273-4.344c-.868-2.349-1.755-3.907-2.15-4.545-.115-.186-.193-.302-.21-.328a.75.75 0 00-1.237.848c.004.007.086.13.213.341.543.9 2.027 3.601 3.031 7.671.043.174.083.354.125.532.214.935.404 1.927.547 2.991.046.34.315.585.637.632zm25.094 32l-11.687-1.665c-1.581-.232-3.017.894-3.235 2.428l-2.209 15.515a2.836 2.836 0 00.543 2.119 2.84 2.84 0 001.883 1.115l11.687 1.665a2.872 2.872 0 003.234-2.427l2.211-15.518a2.864 2.864 0 00-2.427-3.232zm.942 3.022l-2.211 15.517a1.362 1.362 0 01-1.538 1.153l-11.687-1.665a1.348 1.348 0 01-.895-.53 1.343 1.343 0 01-.258-1.006l2.21-15.516a1.364 1.364 0 011.537-1.155l11.688 1.665a1.362 1.362 0 011.154 1.537z"/><path fill="#E5E5E5" d="M-76.901-41.221c-.637 0-1.212.179-1.664.491a2.302 2.302 0 00-.066-.079c-.545-.627-1.399-1.002-2.286-1.002-1.34 0-2.895.865-3.24 3.293-.487 3.412 3.669 6.998 3.846 7.148a.747.747 0 00.778.119c.212-.089 5.195-2.238 5.703-5.797.23-1.615-.277-2.595-.744-3.133a3.066 3.066 0 00-2.327-1.04zm1.587 3.962c-.29 2.029-2.949 3.729-4.375 4.431-1.172-1.109-3.26-3.539-2.982-5.478.181-1.274.821-2.004 1.755-2.004.452 0 .894.186 1.153.485a.82.82 0 01.21.674.75.75 0 001.486.211v-.002c.077-.535.659-.779 1.167-.779.471 0 .907.191 1.196.524.373.432.509 1.102.39 1.938z"/></svg>