<?xml version="1.0" encoding="utf-8"?>
<!-- Generator: Adobe Illustrator 15.0.0, SVG Export Plug-In . SVG Version: 6.00 Build 0)  -->
<!DOCTYPE svg PUBLIC "-//W3C//DTD SVG 1.1//EN" "http://www.w3.org/Graphics/SVG/1.1/DTD/svg11.dtd">
<svg version="1.1" id="Слой_1" xmlns="http://www.w3.org/2000/svg" xmlns:xlink="http://www.w3.org/1999/xlink" x="0px" y="0px"
	 width="32px" height="32px" viewBox="0 0 32 32" enable-background="new 0 0 32 32" xml:space="preserve">
<g>
	<path fill="#339933" d="M26.672,5.268L16.621,26.732l-1.242-9.927L5.329,15.44L26.672,5.268 M26.672,4.268
		c-0.146,0-0.293,0.032-0.431,0.097L4.898,14.537c-0.399,0.19-0.626,0.62-0.558,1.057c0.068,0.437,0.416,0.777,0.854,0.836
		l9.289,1.263l1.146,9.163c0.055,0.442,0.396,0.794,0.836,0.863c0.053,0.009,0.104,0.013,0.156,0.013
		c0.384,0,0.739-0.221,0.905-0.576L27.577,5.692c0.18-0.382,0.099-0.836-0.2-1.133C27.185,4.368,26.93,4.268,26.672,4.268
		L26.672,4.268z"/>
</g>
</svg>
