<?xml version="1.0" encoding="utf-8"?>
<!-- Generator: Adobe Illustrator 15.0.0, SVG Export Plug-In . SVG Version: 6.00 Build 0)  -->
<!DOCTYPE svg PUBLIC "-//W3C//DTD SVG 1.1//EN" "http://www.w3.org/Graphics/SVG/1.1/DTD/svg11.dtd">
<svg version="1.1" id="Слой_1" xmlns="http://www.w3.org/2000/svg" xmlns:xlink="http://www.w3.org/1999/xlink" x="0px" y="0px"
	 width="23.588px" height="32.5px" viewBox="0 0 23.588 32.5" enable-background="new 0 0 23.588 32.5" xml:space="preserve">
<g>
	<path fill="#F8DB1C" d="M11.794,1v30.748c0,0,10.542-3.261,10.781-9.541s0-17.014,0-17.014S19.14,2.292,11.794,1z"/>
	
		<path fill="#F8DB1C" stroke="#311833" stroke-width="2" stroke-linecap="round" stroke-linejoin="round" stroke-miterlimit="10" d="
		M11.794,31.5C11.794,31.5,1,28.475,1,21.126C1,13.778,1,5.471,1,5.471c0-0.334,0.131-0.638,0.344-0.855
		C1.557,4.396,9.823,1,11.794,1s10.238,3.396,10.451,3.615c0.213,0.218,0.343,0.521,0.343,0.855c0,0,0,9.047,0,15.655
		C22.588,28.897,11.794,31.5,11.794,31.5z"/>
	<g>
		
			<circle fill="#FFFFFF" stroke="#311833" stroke-width="2" stroke-linecap="round" stroke-linejoin="round" stroke-miterlimit="10" cx="11.669" cy="9.876" r="2.998"/>
		
			<polyline fill="none" stroke="#311833" stroke-width="2" stroke-linecap="round" stroke-linejoin="round" stroke-miterlimit="10" points="
			11.67,12.874 11.67,24.604 14.177,24.604 		"/>
		
			<line fill="none" stroke="#311833" stroke-width="2" stroke-linecap="round" stroke-linejoin="round" stroke-miterlimit="10" x1="11.717" y1="21.235" x2="14.271" y2="21.235"/>
	</g>
</g>
</svg>
