<svg xmlns="http://www.w3.org/2000/svg" width="211.372" height="27.982"><path d="M13.859 9.457c0 1.871-.612 3.305-1.837 4.301-1.226.996-2.969 1.494-5.232 1.494H4.928v6.702H2V4.042h5.158c2.238 0 3.915.458 5.029 1.372 1.115.915 1.672 2.263 1.672 4.043zM4.928 12.79h1.556c1.503 0 2.605-.262 3.308-.784.702-.523 1.054-1.34 1.054-2.451 0-1.028-.314-1.796-.943-2.303-.629-.506-1.609-.76-2.94-.76H4.928v6.298zm23.221 2.364c0 2.214-.568 3.941-1.703 5.183s-2.716 1.862-4.741 1.862c-1.266 0-2.385-.286-3.357-.857-.972-.572-1.719-1.393-2.242-2.463s-.784-2.312-.784-3.725c0-2.197.564-3.912 1.691-5.146s2.716-1.851 4.766-1.851c1.96 0 3.512.631 4.655 1.894 1.143 1.262 1.715 2.963 1.715 5.103zm-9.863 0c0 3.129 1.156 4.692 3.467 4.692 2.287 0 3.431-1.563 3.431-4.692 0-3.096-1.152-4.643-3.455-4.643-1.209 0-2.085.399-2.628 1.199-.543.801-.815 1.95-.815 3.444zm16.161-1.336c1.315 0 2.283-.145 2.903-.435s.931-.737.931-1.341c0-1.104-.98-1.654-2.94-1.654-1.307 0-2.642.294-4.006.882l-.931-2.144c1.576-.646 3.316-.969 5.219-.969 1.682 0 2.989.309 3.92.926s1.396 1.5 1.396 2.652c0 1.52-.87 2.516-2.609 2.989v.099c1.086.293 1.864.714 2.334 1.262.469.547.704 1.225.704 2.033 0 1.242-.545 2.232-1.635 2.972s-2.612 1.108-4.564 1.108c-2.132 0-3.761-.282-4.888-.846v-2.487a10.79 10.79 0 004.643 1.054c1.152 0 2.04-.161 2.665-.483.625-.322.937-.814.937-1.477 0-.678-.314-1.176-.943-1.495-.629-.318-1.601-.478-2.916-.478h-1.654v-2.169h1.434zm19.512 8.136l-.576-1.887h-.098c-.654.825-1.311 1.387-1.973 1.685s-1.511.447-2.548.447c-1.332 0-2.371-.359-3.118-1.078-.747-.719-1.121-1.735-1.121-3.051 0-1.396.519-2.45 1.556-3.161 1.037-.71 2.618-1.099 4.741-1.163l2.34-.074v-.723c0-.865-.202-1.514-.606-1.941-.404-.43-1.031-.645-1.881-.645a6.54 6.54 0 00-1.997.307 15.08 15.08 0 00-1.837.723l-.931-2.058a9.997 9.997 0 012.414-.876c.874-.2 1.699-.301 2.475-.301 1.723 0 3.024.377 3.902 1.127.878.752 1.317 1.933 1.317 3.541v9.128h-2.059zm-4.288-1.96c1.045 0 1.884-.292 2.518-.876.633-.584.95-1.403.95-2.457v-1.176l-1.74.073c-1.356.049-2.342.275-2.959.68s-.925 1.023-.925 1.856c0 .604.179 1.072.539 1.403.359.331.898.497 1.617.497zm17.238 2.205c-1.715 0-3.047-.616-3.994-1.85h-.171c.114 1.144.171 1.837.171 2.082v5.551h-2.879V8.404h2.328c.065.252.2.857.404 1.812h.147c.898-1.372 2.246-2.059 4.043-2.059 1.691 0 3.008.613 3.951 1.838.943 1.226 1.415 2.945 1.415 5.158 0 2.214-.48 3.941-1.439 5.183-.96 1.242-2.285 1.863-3.976 1.863zm-.698-11.688c-1.144 0-1.979.334-2.506 1.004s-.79 1.74-.79 3.21v.429c0 1.65.261 2.845.784 3.584.522.739 1.376 1.108 2.561 1.108.997 0 1.764-.408 2.303-1.225.539-.817.809-1.981.809-3.492 0-1.519-.268-2.669-.802-3.448-.536-.78-1.322-1.17-2.359-1.17zm12.215-2.107v6.946c0 .809-.065 1.997-.196 3.565l6.799-10.512h3.517v13.55h-2.769V15.13c0-.376.022-.984.067-1.825.045-.842.083-1.454.116-1.838l-6.775 10.487h-3.517V8.404h2.758zm26.242 6.75c0 2.214-.568 3.941-1.703 5.183s-2.716 1.862-4.741 1.862c-1.266 0-2.385-.286-3.357-.857-.972-.572-1.719-1.393-2.242-2.463s-.784-2.312-.784-3.725c0-2.197.564-3.912 1.691-5.146s2.716-1.851 4.766-1.851c1.96 0 3.512.631 4.655 1.894 1.144 1.262 1.715 2.963 1.715 5.103zm-9.862 0c0 3.129 1.156 4.692 3.467 4.692 2.287 0 3.431-1.563 3.431-4.692 0-3.096-1.152-4.643-3.455-4.643-1.209 0-2.085.399-2.628 1.199-.544.801-.815 1.95-.815 3.444zm55.092 4.913h2.107v6.555h-1.973v-4.668h-13.501V4.042h2.082v16.025h9.201V4.042h2.083v16.025zm15.707-8.172c0 .874-.251 1.538-.753 1.991-.503.453-1.207.758-2.113.912v.11c1.143.155 1.979.49 2.505 1.005.527.515.79 1.226.79 2.132 0 1.25-.459 2.214-1.378 2.892s-2.261 1.017-4.024 1.017h-5.918V8.526h5.894c3.331 0 4.997 1.123 4.997 3.369zm-1.984.197c0-.654-.251-1.117-.754-1.391-.502-.273-1.264-.41-2.285-.41h-3.834v3.785h3.442c1.258 0 2.145-.154 2.658-.465.515-.31.773-.817.773-1.519zm.379 5.819c0-.727-.276-1.256-.827-1.587-.552-.331-1.464-.496-2.738-.496h-3.688v4.423h3.736c2.345 0 3.517-.78 3.517-2.34zm10.659 4.288c-1.985 0-3.552-.604-4.699-1.813s-1.721-2.887-1.721-5.035c0-2.165.533-3.884 1.599-5.158s2.497-1.911 4.294-1.911c1.683 0 3.015.553 3.994 1.66.98 1.107 1.471 2.566 1.471 4.38v1.286h-9.25c.04 1.577.438 2.773 1.194 3.59.755.817 1.819 1.226 3.191 1.226 1.445 0 2.875-.303 4.288-.907v1.813c-.719.311-1.398.533-2.04.668s-1.415.201-2.321.201zm-.552-12.215c-1.078 0-1.938.352-2.579 1.053-.641.703-1.019 1.676-1.133 2.916h7.021c0-1.281-.286-2.264-.858-2.945-.572-.683-1.39-1.024-2.451-1.024zm18.01.281h-4.361v11.688h-2.034V10.265h-4.312V8.526h10.708v1.739zm4.693 3.811h3.663c1.707 0 2.971.316 3.792.949.82.634 1.231 1.579 1.231 2.837 0 1.348-.436 2.366-1.306 3.057-.869.69-2.149 1.035-3.841 1.035h-5.574V8.526h2.034v5.55zm0 1.752v4.423h3.442c2.156 0 3.234-.755 3.234-2.267 0-.751-.249-1.299-.747-1.642s-1.348-.515-2.549-.515h-3.38zm12.975 6.126h-2.034V8.526h2.034v13.428zM127.973 3.191l-.469-1.443-1.356.668c-.881.434-1.717.869-2.512 1.307a56.905 56.905 0 00-2.255-2.768l-.991-1.146-.991 1.146a58.139 58.139 0 00-2.256 2.766 59.274 59.274 0 00-2.512-1.306l-1.356-.669-.466 1.443c-2.339 7.223-2.688 12.618-1.863 16.493.188 1.882.976 3.535 2.134 4.859l.008.008c1.922 2.482 4.628 3.512 7.305 3.428 2.674.084 5.38-.945 7.302-3.428l.008-.008c1.158-1.324 1.947-2.978 2.136-4.859.823-3.874.472-9.269-1.866-16.491m-7.583-.135c.483.588.943 1.164 1.386 1.732-.476.297-.936.592-1.384.89-.45-.298-.913-.593-1.387-.89.441-.569.903-1.144 1.385-1.732m-5.54 2.407a49.27 49.27 0 013.251 1.85c-2.038 1.58-3.579 3.152-4.702 4.688.262-1.935.731-4.109 1.451-6.538m10.767 17.486c-1.994 2.576-5.229 2.916-7.854 1.805-2.623-1.11-4.627-3.67-4.165-6.896.512-3.577 3.896-7.982 12.334-12.395 2.703 9.132 1.898 14.629-.315 17.486" fill="#E71F75"/></svg>