<?xml version="1.0" encoding="utf-8"?>
<!-- Generator: Adobe Illustrator 15.0.0, SVG Export Plug-In . SVG Version: 6.00 Build 0)  -->
<!DOCTYPE svg PUBLIC "-//W3C//DTD SVG 1.1//EN" "http://www.w3.org/Graphics/SVG/1.1/DTD/svg11.dtd">
<svg version="1.1" xmlns="http://www.w3.org/2000/svg" x="0px" y="0px"
	 width="260px" height="31px" viewBox="0 0 260 31"
	 xml:space="preserve">
<g>
	<path fill-rule="evenodd" clip-rule="evenodd" fill="#330033" d="M127.42,3.359l-0.464-1.433l-1.348,0.664
		c-0.875,0.43-1.706,0.863-2.494,1.297c-0.681-0.892-1.425-1.807-2.24-2.749L119.889,0l-0.985,1.138
		c-0.813,0.941-1.56,1.857-2.24,2.748c-0.787-0.435-1.617-0.867-2.493-1.297l-1.348-0.664l-0.463,1.433
		c-2.322,7.173-2.67,12.531-1.85,16.38c0.186,1.869,0.969,3.511,2.12,4.826l0.007,0.008c1.909,2.466,4.595,3.487,7.253,3.404
		c2.658,0.083,5.344-0.938,7.253-3.404l0.007-0.008c1.151-1.315,1.934-2.957,2.121-4.826C130.091,15.89,129.742,10.532,127.42,3.359
		 M119.889,3.226c0.48,0.583,0.938,1.156,1.376,1.721c-0.472,0.294-0.929,0.588-1.375,0.883c-0.446-0.295-0.905-0.589-1.376-0.883
		C118.952,4.381,119.41,3.809,119.889,3.226 M114.387,5.615c1.173,0.614,2.247,1.227,3.229,1.837
		c-2.024,1.569-3.556,3.132-4.67,4.656C113.205,10.187,113.672,8.029,114.387,5.615 M125.081,22.982
		c-1.981,2.559-5.194,2.897-7.801,1.793c-2.605-1.103-4.596-3.645-4.137-6.849c0.508-3.553,3.869-7.928,12.25-12.311
		C128.079,14.686,127.277,20.144,125.081,22.982"/>
	<g>
		<g>
			<path fill="#330033" d="M152.615,20.373h2.067v6.432h-1.935v-4.58H139.5V4.65h2.043v15.723h9.027V4.65h2.043V20.373z"/>
			<path fill="#330033" d="M168.025,12.355c0,0.857-0.247,1.508-0.739,1.953c-0.493,0.444-1.184,0.744-2.074,0.896v0.108
				c1.122,0.152,1.941,0.48,2.458,0.985c0.517,0.505,0.775,1.202,0.775,2.091c0,1.227-0.451,2.172-1.352,2.837
				c-0.901,0.665-2.218,0.998-3.949,0.998h-5.807V9.05h5.782C166.391,9.05,168.025,10.151,168.025,12.355z M166.078,12.548
				c0-0.642-0.246-1.096-0.739-1.365c-0.493-0.268-1.24-0.402-2.242-0.402h-3.762v3.714h3.377c1.234,0,2.104-0.151,2.608-0.457
				C165.826,13.734,166.078,13.237,166.078,12.548z M166.451,18.257c0-0.713-0.27-1.232-0.812-1.557
				c-0.541-0.325-1.437-0.487-2.687-0.487h-3.618v4.339H163C165.3,20.553,166.451,19.788,166.451,18.257z"/>
			<path fill="#330033" d="M177.25,22.464c-1.947,0-3.484-0.592-4.609-1.779c-1.126-1.186-1.69-2.832-1.69-4.94
				c0-2.124,0.523-3.811,1.569-5.061c1.046-1.25,2.45-1.875,4.213-1.875c1.651,0,2.958,0.543,3.919,1.629
				c0.961,1.086,1.443,2.518,1.443,4.297v1.262h-9.076c0.04,1.547,0.431,2.721,1.172,3.522c0.74,0.802,1.785,1.202,3.131,1.202
				c1.418,0,2.821-0.296,4.208-0.889v1.779c-0.707,0.304-1.374,0.522-2.002,0.655C178.899,22.398,178.14,22.464,177.25,22.464z
				 M176.709,10.48c-1.057,0-1.901,0.345-2.53,1.034c-0.629,0.689-1,1.644-1.112,2.861h6.888c0-1.258-0.281-2.222-0.841-2.892
				C178.553,10.815,177.751,10.48,176.709,10.48z"/>
			<path fill="#330033" d="M194.038,10.757h-4.28v11.467h-1.995V10.757h-4.231V9.05h10.506V10.757z"/>
			<path fill="#330033" d="M198.642,14.495h3.594c1.674,0,2.915,0.311,3.72,0.932c0.806,0.621,1.208,1.549,1.208,2.783
				c0,1.322-0.427,2.322-1.28,3c-0.854,0.677-2.11,1.016-3.769,1.016h-5.469V9.05h1.996V14.495z M198.642,16.214v4.339h3.378
				c2.115,0,3.173-0.741,3.173-2.224c0-0.737-0.245-1.274-0.734-1.61c-0.488-0.337-1.322-0.505-2.5-0.505H198.642z M211.372,22.224
				h-1.995V9.05h1.995V22.224z"/>
		</g>
	</g>
	<g>
		<g>
			<path fill="#330033" d="M11.636,9.723c0,1.835-0.601,3.242-1.803,4.22C8.631,14.92,6.92,15.408,4.7,15.408H2.873v6.575H0V4.41
				h5.061c2.195,0,3.84,0.449,4.934,1.346C11.089,6.654,11.636,7.976,11.636,9.723z M2.873,12.992h1.526
				c1.475,0,2.557-0.256,3.246-0.769c0.689-0.513,1.034-1.314,1.034-2.404c0-1.01-0.309-1.763-0.926-2.26S6.174,6.814,4.869,6.814
				H2.873V12.992z"/>
			<path fill="#330033" d="M26.087,15.312c0,2.171-0.557,3.867-1.67,5.084c-1.115,1.218-2.665,1.827-4.652,1.827
				c-1.242,0-2.34-0.28-3.293-0.841c-0.954-0.561-1.687-1.366-2.2-2.417c-0.513-1.049-0.77-2.267-0.77-3.654
				c0-2.155,0.554-3.839,1.659-5.048c1.106-1.21,2.665-1.815,4.676-1.815c1.923,0,3.445,0.619,4.567,1.857
				C25.527,11.544,26.087,13.213,26.087,15.312z M16.411,15.312c0,3.069,1.134,4.604,3.402,4.604c2.244,0,3.366-1.535,3.366-4.604
				c0-3.037-1.13-4.556-3.39-4.556c-1.186,0-2.045,0.393-2.578,1.178C16.678,12.72,16.411,13.846,16.411,15.312z"/>
			<path fill="#330033" d="M32.184,14.002c1.291,0,2.24-0.142,2.849-0.427c0.609-0.284,0.914-0.723,0.914-1.315
				c0-1.082-0.962-1.623-2.885-1.623c-1.282,0-2.593,0.289-3.931,0.866l-0.913-2.104c1.546-0.633,3.253-0.95,5.121-0.95
				c1.651,0,2.933,0.303,3.847,0.908c0.913,0.605,1.37,1.473,1.37,2.603c0,1.49-0.853,2.468-2.56,2.933v0.096
				c1.066,0.288,1.829,0.701,2.29,1.237c0.46,0.538,0.691,1.203,0.691,1.996c0,1.218-0.535,2.189-1.604,2.915
				c-1.07,0.725-2.563,1.088-4.478,1.088c-2.092,0-3.691-0.276-4.796-0.829v-2.441c1.466,0.69,2.985,1.034,4.556,1.034
				c1.13,0,2.001-0.158,2.614-0.475c0.613-0.316,0.92-0.799,0.92-1.448c0-0.665-0.309-1.154-0.926-1.467
				c-0.617-0.312-1.571-0.468-2.86-0.468h-1.624v-2.128H32.184z"/>
			<path fill="#330033" d="M50.979,21.983l-0.565-1.851h-0.096c-0.642,0.811-1.287,1.361-1.935,1.653
				c-0.649,0.292-1.483,0.438-2.5,0.438c-1.307,0-2.327-0.353-3.06-1.058c-0.733-0.705-1.1-1.703-1.1-2.993
				c0-1.37,0.509-2.404,1.526-3.102c1.018-0.696,2.568-1.078,4.652-1.142l2.296-0.072v-0.709c0-0.85-0.198-1.485-0.595-1.906
				c-0.397-0.42-1.012-0.631-1.845-0.631c-0.681,0-1.335,0.101-1.96,0.301c-0.625,0.2-1.226,0.437-1.803,0.709l-0.913-2.02
				c0.721-0.376,1.51-0.663,2.368-0.859c0.857-0.196,1.667-0.294,2.427-0.294c1.691,0,2.967,0.368,3.828,1.106
				c0.862,0.737,1.293,1.896,1.293,3.474v8.955H50.979z M46.772,20.061c1.026,0,1.849-0.287,2.47-0.86
				c0.621-0.573,0.932-1.376,0.932-2.409v-1.155l-1.708,0.072c-1.33,0.048-2.298,0.271-2.903,0.667
				c-0.605,0.397-0.907,1.004-0.907,1.822c0,0.593,0.176,1.051,0.528,1.376C45.538,19.898,46.067,20.061,46.772,20.061z"/>
			<path fill="#330033" d="M63.686,22.224c-1.683,0-2.989-0.605-3.919-1.815h-0.168c0.112,1.123,0.168,1.803,0.168,2.043v5.446
				h-2.825V8.689h2.284c0.064,0.249,0.196,0.841,0.397,1.779h0.144c0.882-1.346,2.204-2.019,3.967-2.019
				c1.659,0,2.951,0.602,3.877,1.803c0.926,1.202,1.388,2.889,1.388,5.061s-0.471,3.867-1.413,5.084
				C66.645,21.615,65.344,22.224,63.686,22.224z M63,10.757c-1.122,0-1.942,0.329-2.458,0.985c-0.517,0.657-0.775,1.707-0.775,3.15
				v0.42c0,1.619,0.256,2.791,0.77,3.516c0.513,0.725,1.35,1.087,2.512,1.087c0.978,0,1.731-0.401,2.26-1.202
				s0.793-1.943,0.793-3.426c0-1.49-0.263-2.619-0.788-3.384C64.789,11.14,64.018,10.757,63,10.757z"/>
			<path fill="#330033" d="M74.985,8.689v6.816c0,0.793-0.064,1.959-0.192,3.498l6.672-10.313h3.45v13.294h-2.717v-6.695
				c0-0.369,0.022-0.966,0.066-1.792c0.044-0.825,0.083-1.426,0.114-1.803L75.73,21.983h-3.45V8.689H74.985z"/>
			<path fill="#330033" d="M100.733,15.312c0,2.171-0.557,3.867-1.67,5.084c-1.114,1.218-2.665,1.827-4.652,1.827
				c-1.242,0-2.34-0.28-3.294-0.841c-0.954-0.561-1.687-1.366-2.2-2.417c-0.513-1.049-0.77-2.267-0.77-3.654
				c0-2.155,0.554-3.839,1.659-5.048c1.106-1.21,2.664-1.815,4.676-1.815c1.923,0,3.446,0.619,4.567,1.857
				C100.172,11.544,100.733,13.213,100.733,15.312z M91.057,15.312c0,3.069,1.134,4.604,3.402,4.604
				c2.244,0,3.366-1.535,3.366-4.604c0-3.037-1.13-4.556-3.39-4.556c-1.186,0-2.046,0.393-2.579,1.178
				C91.323,12.72,91.057,13.846,91.057,15.312z"/>
		</g>
	</g>
</g>
</svg>
