<svg width="140" height="18" fill="none" xmlns="http://www.w3.org/2000/svg"><path d="M8.897 4.072c0 1.406-.46 2.484-1.379 3.233-.919.75-2.227 1.124-3.924 1.124H2.197v5.039H0V0h3.87c1.678 0 2.935.344 3.768 1.032.84.688 1.26 1.7 1.26 3.04zm-6.7 2.505h1.167c1.127 0 1.955-.196 2.482-.59.527-.392.79-1.006.79-1.842 0-.773-.236-1.35-.708-1.731-.471-.381-1.207-.572-2.206-.572H2.197v4.735zm18.171 1.778c0 1.664-.426 2.963-1.278 3.897-.852.933-2.037 1.4-3.557 1.4-.95 0-1.79-.215-2.518-.645-.73-.43-1.29-1.047-1.682-1.851-.392-.805-.588-1.738-.588-2.8 0-1.653.422-2.942 1.268-3.87.845-.927 2.037-1.39 3.575-1.39 1.47 0 2.635.475 3.493 1.427.858.946 1.287 2.223 1.287 3.832zm-7.4 0c0 2.352.868 3.528 2.602 3.528 1.715 0 2.573-1.176 2.573-3.528 0-2.327-.864-3.491-2.591-3.491-.907 0-1.566.3-1.977.903-.404.601-.606 1.464-.606 2.588zm12.133-1.004c.987 0 1.713-.107 2.178-.322.466-.221.699-.56.699-1.014 0-.829-.735-1.243-2.206-1.243-.98 0-1.982.22-3.005.663l-.699-1.612c1.183-.485 2.488-.728 3.915-.728 1.263 0 2.243.234 2.942.7.698.46 1.047 1.124 1.047 1.99 0 1.142-.652 1.892-1.957 2.248v.073c.815.222 1.397.538 1.746.95.355.41.533.92.533 1.528 0 .934-.41 1.68-1.232 2.239-.814.553-1.954.829-3.419.829-1.599 0-2.821-.212-3.667-.636v-1.87a8.086 8.086 0 003.484.793c.863 0 1.528-.12 1.994-.36.472-.245.708-.617.708-1.114 0-.51-.236-.885-.708-1.124-.472-.24-1.2-.36-2.188-.36h-1.24v-1.63H25.1zm13.897 6.117l-.432-1.419h-.073c-.49.62-.984 1.044-1.48 1.271-.496.221-1.134.332-1.912.332-.999 0-1.78-.27-2.344-.81-.557-.541-.836-1.306-.836-2.294 0-1.05.39-1.843 1.167-2.377.778-.534 1.964-.826 3.557-.875l1.756-.055v-.544c0-.65-.153-1.136-.46-1.455-.3-.326-.769-.489-1.406-.489-.52 0-1.02.077-1.498.23-.478.154-.938.335-1.379.544L32.96 3.98a7.371 7.371 0 011.81-.655 8.157 8.157 0 011.857-.23c1.293 0 2.267.283 2.923.848.661.565.992 1.452.992 2.662v6.863h-1.544zm-3.217-1.474c.785 0 1.413-.218 1.884-.654.478-.442.717-1.06.717-1.852v-.884l-1.305.055c-1.017.037-1.758.209-2.224.516-.46.3-.69.765-.69 1.391 0 .454.135.808.405 1.06.27.245.674.368 1.213.368zm12.932 1.658c-1.287 0-2.285-.464-2.996-1.391h-.129c.086.86.129 1.382.129 1.566V18h-2.16V3.28h1.746c.05.19.15.644.304 1.363h.11c.674-1.032 1.685-1.548 3.033-1.548 1.268 0 2.255.46 2.96 1.382.71.921 1.066 2.214 1.066 3.878 0 1.664-.362 2.963-1.085 3.897-.717.933-1.71 1.4-2.978 1.4zm-.524-8.788c-.858 0-1.486.252-1.884.755-.392.504-.588 1.308-.588 2.414v.322c0 1.24.196 2.14.588 2.7.392.552 1.033.828 1.921.828.748 0 1.324-.307 1.728-.92.404-.615.607-1.49.607-2.626 0-1.143-.203-2.005-.607-2.589-.398-.59-.986-.884-1.765-.884zm9.164-1.584v5.223c0 .608-.05 1.501-.147 2.68l5.101-7.904h2.638v10.189h-2.077V8.337c0-.283.015-.74.046-1.373a58.49 58.49 0 01.091-1.382l-5.082 7.886h-2.638V3.279h2.068zM77.04 8.355c0 1.664-.425 2.963-1.277 3.897-.852.933-2.038 1.4-3.557 1.4-.95 0-1.79-.215-2.519-.645-.729-.43-1.29-1.047-1.681-1.851-.393-.805-.589-1.738-.589-2.8 0-1.653.423-2.942 1.269-3.87.845-.927 2.037-1.39 3.575-1.39 1.47 0 2.635.475 3.493 1.427.858.946 1.286 2.223 1.286 3.832zm-7.399 0c0 2.352.868 3.528 2.602 3.528 1.715 0 2.573-1.176 2.573-3.528 0-2.327-.864-3.491-2.592-3.491-.907 0-1.565.3-1.976.903-.404.601-.607 1.464-.607 2.588zm9.569 3.961c0-.448.116-.792.349-1.032.233-.239.57-.359 1.01-.359.448 0 .788.126 1.021.378.233.246.35.583.35 1.013 0 .436-.12.783-.36 1.041-.232.252-.569.378-1.01.378-.441 0-.778-.126-1.011-.378-.233-.252-.35-.599-.35-1.04zm15.836-.266h1.58v4.927h-1.479v-3.51H85.018V0h1.563v12.05h6.903V0h1.562v12.05zm11.792-6.145c0 .657-.19 1.157-.57 1.501-.373.338-.9.565-1.58.682v.083c.857.117 1.482.368 1.875.755.398.387.597.921.597 1.603 0 .94-.346 1.664-1.039 2.174-.686.51-1.691.765-3.014.765h-4.44V3.372h4.421c2.5 0 3.75.844 3.75 2.533zm-1.204 4.523c0-.547-.208-.943-.625-1.188-.41-.252-1.094-.378-2.049-.378h-2.767v3.325h2.803c1.759 0 2.638-.586 2.638-1.76zm-.285-4.376c0-.491-.19-.838-.57-1.04-.373-.21-.943-.314-1.709-.314h-2.877v2.847h2.583c.943 0 1.608-.117 1.994-.35.386-.234.579-.615.579-1.143zm8.291 7.6c-1.489 0-2.666-.454-3.53-1.363-.858-.91-1.286-2.171-1.286-3.786 0-1.628.398-2.92 1.194-3.879.803-.958 1.878-1.437 3.226-1.437 1.263 0 2.262.418 2.997 1.253.735.83 1.103 1.925 1.103 3.289v.967h-6.94c.031 1.185.328 2.085.892 2.7.57.613 1.369.92 2.399.92a8.101 8.101 0 003.217-.681v1.363c-.539.233-1.051.4-1.535.497-.478.105-1.057.157-1.737.157zm-.414-9.184c-.809 0-1.455.264-1.939.792-.478.528-.76 1.259-.846 2.192h5.267c0-.964-.215-1.7-.644-2.21-.429-.516-1.041-.774-1.838-.774zm13.52.212h-3.272v8.788h-1.525V4.68h-3.236V3.372h8.033V4.68zm3.521 2.865h2.748c1.28 0 2.227.239 2.84.718.619.473.928 1.182.928 2.128 0 1.013-.328 1.781-.983 2.303-.65.516-1.609.774-2.877.774h-4.182V3.372h1.526v4.173zM140 13.468h-1.526V3.372H140v10.096zm-9.733-4.606v3.325h2.582c1.618 0 2.427-.568 2.427-1.704 0-.565-.187-.976-.561-1.234-.374-.258-1.011-.387-1.912-.387h-2.536z" fill="#303"/></svg>