<svg xmlns="http://www.w3.org/2000/svg" width="32" height="32"><path fill="#393" d="M11.162 9.211c.551 3.286 2.297 9.857 7.648 12.85l-1.936.594a9.21 9.21 0 01-.984.053c-1.193 0-2.872-.232-4.291-1.303-1.13-.852-2.592-2.414-2.814-4.467l2.377-7.727m0-1a1 1 0 00-.956.706L7.83 16.644a.991.991 0 00-.038.401c.291 2.693 2.339 4.505 3.206 5.158 1.647 1.243 3.57 1.504 4.893 1.504.368 0 .735-.02 1.093-.059.062-.007.125-.02.185-.038l1.936-.594a1 1 0 00.195-1.83c-4.911-2.745-6.588-8.786-7.15-12.142a1.002 1.002 0 00-.92-.833h-.068z"/><path fill="#393" d="M12.149 6s4.75.607 8.998 4.854C25.695 15.403 26 19.85 26 19.85l-.5.153c-1.177-.071-4.589-.562-7.809-3.683-2.162-2.097-5.309-6.041-5.542-10.32m6.548 8.397c.91 0 1.646-.738 1.646-1.648a1.647 1.647 0 10-3.294 0c0 .91.738 1.648 1.648 1.648M12.149 5a1 1 0 00-.998 1.055c.276 5.066 4.179 9.369 5.845 10.984 3.428 3.323 7.047 3.878 8.444 3.963l.061.002a1 1 0 00.293-.044l.5-.153c.444-.137.736-.561.705-1.024-.014-.197-.386-4.875-5.145-9.634-4.438-4.438-9.37-5.112-9.578-5.139a.686.686 0 00-.127-.01zm6.548 8.397a.65.65 0 010-1.296.648.648 0 010 1.296zM7.77 20.242c.314 1.624 1.098 3.376 2.918 4.316L6 26l1.77-5.758m0-1c-.437 0-.826.285-.956.706l-1.77 5.758a1.002 1.002 0 001.25 1.25l4.688-1.441a1 1 0 00.165-1.845c-1.25-.646-2.056-1.863-2.395-3.617a1.002 1.002 0 00-.928-.81l-.054-.001z"/><path fill="none" d="M6 6h20v20H6z"/></svg>