<svg xmlns="http://www.w3.org/2000/svg" width="32" height="32"><path d="M11.162 9.211l-2.376 7.727c.222 2.053 1.684 3.615 2.814 4.467 1.88 1.419 4.218 1.365 5.275 1.25l1.936-.594c-5.352-2.993-7.098-9.564-7.649-12.85zm9.984 1.643C16.898 6.607 12.149 6 12.149 6c.233 4.279 3.38 8.223 5.542 10.32 3.22 3.122 6.632 3.612 7.809 3.683l.5-.153s-.305-4.447-4.854-8.996zm-2.449 3.543a1.648 1.648 0 110-3.296 1.648 1.648 0 010 3.296zM7.77 20.242L6 26l4.688-1.441c-1.82-.941-2.604-2.693-2.918-4.317z" fill="#666"/><path fill="none" d="M6 6h20v20H6z"/></svg>