<?xml version="1.0" encoding="utf-8"?>
<!-- Generator: Adobe Illustrator 24.2.1, SVG Export Plug-In . SVG Version: 6.00 Build 0)  -->
<svg version="1.1" id="Layer_1" xmlns="http://www.w3.org/2000/svg" xmlns:xlink="http://www.w3.org/1999/xlink" x="0px" y="0px"
	 viewBox="0 0 32 32" style="enable-background:new 0 0 32 32;" xml:space="preserve">
<style type="text/css">
	.st0{fill:#FF9800;}
</style>
<g>
	<path class="st0" d="M19.5,23.2c1.7-0.4,3.4-1.1,5-2c1.2-0.7,1.5-2.2,0.8-3.3c-0.7-1.1-2.3-1.5-3.5-0.8c-3.5,2.1-8,2.1-11.5,0
		c-1.2-0.7-2.7-0.4-3.5,0.8C6,19,6.4,20.5,7.6,21.3c1.5,0.9,3.2,1.6,5,2l-4.8,4.6c-1,0.9-1,2.5,0,3.4C8.2,31.7,8.9,32,9.5,32
		c0.6,0,1.3-0.2,1.8-0.7l4.7-4.5l4.7,4.5c1,0.9,2.6,0.9,3.5,0c1-0.9,1-2.5,0-3.4L19.5,23.2z"/>
	<path class="st0" d="M16,16.5c4.7,0,8.6-3.7,8.6-8.3C24.6,3.7,20.7,0,16,0S7.4,3.7,7.4,8.2C7.4,12.8,11.3,16.5,16,16.5z M16,4.8
		c2,0,3.5,1.5,3.5,3.4c0,1.9-1.6,3.4-3.5,3.4s-3.5-1.5-3.5-3.4C12.5,6.4,14,4.8,16,4.8z"/>
</g>
</svg>
