<?xml version="1.0" encoding="utf-8"?>
<!-- Generator: Adobe Illustrator 15.0.0, SVG Export Plug-In . SVG Version: 6.00 Build 0)  -->
<!DOCTYPE svg PUBLIC "-//W3C//DTD SVG 1.1//EN" "http://www.w3.org/Graphics/SVG/1.1/DTD/svg11.dtd">
<svg version="1.1" id="Слой_1" xmlns="http://www.w3.org/2000/svg" xmlns:xlink="http://www.w3.org/1999/xlink" x="0px" y="0px"
	 width="240px" height="240px" viewBox="-104 -104 240 240" enable-background="new -104 -104 240 240" xml:space="preserve">
<g>
	<path fill="#F5F5F5" d="M134.319,78.8c0.214,1.122,0.857,1.987,1.681,2.661v-6.558c-0.107-0.207-0.105-0.451,0-0.667v-8.104
		c-1.461,0.841-3.111,1.897-3.637,2.285L134.319,78.8z"/>
	<path fill="#F5F5F5" d="M-47.832,111.008c-0.829-0.416-1.668-1.167-2.556-1.963c-1.401-1.256-2.989-2.679-4.808-3.033
		c-0.321-0.062-0.663-0.095-1.018-0.095c-1.526,0-3.147,0.583-4.578,1.098c-1.122,0.403-2.182,0.784-3.105,0.858
		c-2.483,0.198-3.138,0.812-3.182,1.032c-0.042,0.22,0.334,1.033,2.561,2.153c2.027,1.016,4.815,1.901,7.851,2.492
		c3.01,0.589,5.982,0.82,8.212,0.641c2.486-0.198,3.141-0.811,3.183-1.03C-45.228,112.941-45.604,112.126-47.832,111.008z
		 M-61.268,110.192c-0.111,0.305-0.398,0.493-0.705,0.493c-0.085,0-0.172-0.015-0.256-0.045c-0.262-0.096-0.52-0.192-0.778-0.295
		c-0.385-0.152-0.574-0.588-0.421-0.973c0.152-0.386,0.587-0.575,0.973-0.422c0.246,0.097,0.491,0.189,0.739,0.279
		C-61.327,109.372-61.126,109.803-61.268,110.192z M-55.838,112.435c-0.041,0-0.083-0.003-0.125-0.011
		c-0.281-0.047-0.564-0.097-0.842-0.15c-0.407-0.079-0.672-0.473-0.593-0.879c0.079-0.407,0.469-0.675,0.879-0.594
		c0.265,0.052,0.535,0.1,0.803,0.145c0.409,0.067,0.685,0.454,0.616,0.863C-55.161,112.175-55.478,112.435-55.838,112.435z
		 M-49.829,112.916c-0.003,0-0.007,0-0.011,0c-0.275-0.004-0.55-0.01-0.827-0.02c-0.414-0.016-0.738-0.363-0.723-0.777
		c0.015-0.414,0.346-0.722,0.776-0.723c0.266,0.01,0.53,0.016,0.794,0.02c0.414,0.006,0.745,0.347,0.739,0.761
		C-49.085,112.587-49.42,112.916-49.829,112.916z"/>
	<path fill="#F5F5F5" d="M-31.277-24.718c-0.139,0-0.278,0.022-0.413,0.066c-0.697,0.227-1.081,0.979-0.854,1.676
		c0.222,0.683,0.987,1.08,1.676,0.854c0.699-0.227,1.082-0.979,0.855-1.678C-30.191-24.349-30.7-24.718-31.277-24.718z"/>
	<path fill="#F5F5F5" d="M100.236-18.939c0.013-0.006,0.047-0.026,0.065-0.072l6.661-16.77c0.019-0.046,0.008-0.083,0-0.102
		c-0.009-0.021-0.03-0.052-0.071-0.069l-13.398-5.323c-0.002,0.001-0.101,0.005-0.104,0.006l-6.728,16.842
		c0.001,0.002,0.002,0.1,0.003,0.102l-0.007,0.024l7.417,0.454c0.159,0.01,0.312,0.07,0.435,0.173l5.689,4.746
		C100.211-18.931,100.224-18.934,100.236-18.939z M98.962-24.756c-0.059,0.279-0.271,0.501-0.548,0.571
		c-0.062,0.016-0.124,0.023-0.186,0.023c-0.216,0-0.425-0.093-0.569-0.262l-2.12-2.474l-3.24,0.345
		c-0.283,0.031-0.56-0.104-0.713-0.344c-0.152-0.241-0.155-0.548-0.007-0.792l1.697-2.783l-1.328-2.976
		c-0.116-0.261-0.075-0.565,0.107-0.785c0.183-0.219,0.476-0.314,0.751-0.25l3.169,0.756l2.418-2.183
		c0.213-0.192,0.518-0.245,0.779-0.141c0.266,0.105,0.448,0.353,0.472,0.637l0.262,3.248l2.824,1.627
		c0.248,0.143,0.393,0.413,0.374,0.698c-0.018,0.285-0.196,0.535-0.46,0.644l-3.008,1.251L98.962-24.756z"/>
	<path fill="#F5F5F5" d="M-30.903,61.105c-0.435-0.359-0.861-0.694-1.259-1.007l-0.65-0.513c-0.235-0.188-0.334-0.499-0.253-0.789
		l0.2-0.713c1.209-4.158,2.215-11.139,1.925-12.324c-0.457-0.359-1.108-0.494-1.796-0.637c-0.42-0.087-0.854-0.178-1.262-0.325
		c-0.409-0.15-0.8-0.361-1.177-0.565c-0.639-0.345-1.242-0.671-1.841-0.671c-0.686,0.023-1.312,0.418-1.975,0.835
		c-0.372,0.233-0.756,0.475-1.163,0.664c-0.408,0.19-0.841,0.329-1.26,0.463c-0.745,0.239-1.449,0.464-1.868,0.929
		c-0.415,0.459-0.558,1.15-0.71,1.883c-0.087,0.422-0.178,0.857-0.327,1.266s-0.36,0.799-0.564,1.177
		c-0.333,0.617-0.65,1.202-0.67,1.782c0.711,0.968,6.652,4.669,10.584,6.426l0.847,0.379c0.296,0.133,0.473,0.44,0.439,0.763
		c-0.071,0.678-0.108,1.417-0.117,2.328c-0.006,0.889,0.049,1.695,0.154,2.268c0.033,0.182,0.067,0.313,0.096,0.406
		c0.065-0.017,0.131-0.039,0.2-0.065c0.175-0.064,0.359-0.156,0.588-0.291c0.166-0.097,0.33-0.2,0.495-0.304l0.166-0.104
		c0.253-0.156,0.504-0.302,0.758-0.42c0.251-0.118,0.525-0.216,0.806-0.309c0.299-0.095,0.523-0.166,0.744-0.244
		c0.206-0.072,0.408-0.154,0.596-0.259c0.065-0.037,0.126-0.074,0.181-0.114c-0.052-0.082-0.131-0.192-0.248-0.334
		C-29.639,62.23-30.22,61.67-30.903,61.105z M-38.637,54.697c-0.148,0.163-0.352,0.246-0.555,0.246c-0.18,0-0.361-0.064-0.504-0.195
		l-1.154-1.049c-0.307-0.278-0.329-0.753-0.051-1.059c0.28-0.307,0.754-0.329,1.06-0.051l1.154,1.049
		C-38.381,53.917-38.359,54.392-38.637,54.697z M-36.676,52.889c-0.103,0.048-0.21,0.07-0.316,0.07c-0.283,0-0.554-0.16-0.681-0.434
		l-1.604-3.448c-0.174-0.376-0.012-0.822,0.364-0.996c0.376-0.176,0.822-0.013,0.997,0.363l1.604,3.448
		C-36.138,52.269-36.3,52.715-36.676,52.889z M-33.894,52.489c-0.01,0.001-0.02,0.001-0.029,0.001c-0.401,0-0.733-0.317-0.749-0.722
		l-0.06-1.558c-0.016-0.413,0.307-0.762,0.721-0.777c0.421-0.032,0.763,0.307,0.778,0.721l0.06,1.558
		C-33.158,52.125-33.48,52.474-33.894,52.489z"/>
	<path fill="#F5F5F5" d="M136-79.965v-4.854c-0.455-0.095-0.926-0.134-1.423-0.113C134.753-83.839,135.177-81.755,136-79.965z"/>
	<path fill="#F5F5F5" d="M133.388,4.215c-2.517,0-4.64,1.807-5.047,4.297c-0.222,1.35,0.097,2.705,0.895,3.815
		c0.799,1.111,1.982,1.844,3.333,2.065c0.276,0.045,0.558,0.068,0.835,0.068c0.944,0,1.833-0.254,2.597-0.704V4.936
		c-0.541-0.32-1.139-0.548-1.777-0.652C133.946,4.238,133.665,4.215,133.388,4.215z M134.53,6.307l-0.664,4.055
		c-0.045,0.274-0.238,0.501-0.501,0.59c-0.079,0.026-0.159,0.039-0.239,0.039c-0.189,0-0.375-0.072-0.517-0.207l-2.123-2.02
		c-0.301-0.286-0.312-0.76-0.026-1.061c0.282-0.3,0.76-0.313,1.06-0.026l1.096,1.042l0.435-2.655
		c0.067-0.408,0.454-0.686,0.861-0.619C134.32,5.512,134.597,5.898,134.53,6.307z"/>
	<path fill="#F5F5F5" d="M106.699,112.202c-0.856-0.049-1.723-0.146-2.595-0.344s-1.705-0.469-2.5-0.794
		c-0.122,0.419-0.239,0.854-0.344,1.315c-0.112,0.499-0.199,0.979-0.27,1.443c0.861,0.048,1.735,0.161,2.613,0.359
		c0.86,0.194,1.685,0.462,2.472,0.781c0.133-0.446,0.26-0.913,0.372-1.41C106.551,113.098,106.629,112.648,106.699,112.202z"/>
	<path fill="#F5F5F5" d="M71.659-75.763c-0.291,0.28-0.771,1.027-1.101,2.214c-0.33,1.188-0.305,2.077-0.199,2.466
		c0.29-0.279,0.77-1.027,1.1-2.215C71.789-74.484,71.764-75.373,71.659-75.763z"/>
	<path fill="#F5F5F5" d="M11.182,6.729c-0.1,0-0.202,0.006-0.304,0.019C9.553,6.916,8.609,8.129,8.776,9.453
		c0.164,1.31,1.372,2.269,2.705,2.104c1.323-0.168,2.266-1.383,2.1-2.708C13.429,7.641,12.398,6.729,11.182,6.729z"/>
	<path fill="#F5F5F5" d="M83.667,68.003c0.948-0.026,2.807-0.234,3.99-1.378c1.178-1.136,1.457-2.949,1.519-3.937
		c-0.952,0.027-2.808,0.237-3.988,1.378C84.009,65.205,83.729,67.017,83.667,68.003z"/>
	<path fill="#F5F5F5" d="M0.881,5.211L2.176,15.52l19.298-2.425L20.181,2.787L0.881,5.211z M5.475,7.295L3.066,7.598
		C3.035,7.602,3.003,7.604,2.972,7.604c-0.373,0-0.695-0.277-0.743-0.656c-0.052-0.411,0.24-0.786,0.65-0.838l2.408-0.303
		c0.413-0.05,0.786,0.24,0.838,0.65C6.177,6.868,5.885,7.243,5.475,7.295z M11.669,13.045c-0.167,0.021-0.33,0.031-0.492,0.031
		c-1.972,0-3.644-1.477-3.889-3.436c-0.27-2.143,1.256-4.108,3.403-4.38c2.186-0.269,4.113,1.285,4.378,3.403
		C15.338,10.807,13.812,12.772,11.669,13.045z"/>
	<path fill="#F5F5F5" d="M74.992,58.258c0.335-0.104,0.626-0.208,0.898-0.323c0.303-0.125,0.654-0.044,0.867,0.21
		c0.212,0.253,0.233,0.614,0.054,0.891c-0.192,0.295-0.362,0.587-0.481,0.82c-0.648,1.21-0.839,2.059-0.742,2.368
		c0.025,0.084,0.079,0.15,0.151,0.189c0.057,0.03,0.14,0.034,0.229,0.007c0.312-0.096,0.909-0.728,1.541-1.925
		c0.162-0.312,0.293-0.6,0.404-0.871c0.116-0.283,0.392-0.466,0.694-0.466c0.021,0,0.044,0.001,0.066,0.003
		c0.327,0.029,0.598,0.268,0.667,0.589c0.062,0.29,0.137,0.6,0.241,0.938c0.543,1.761,1.07,2.23,1.296,2.23
		c0.027,0,0.058-0.005,0.092-0.016c0.318-0.099,0.411-0.943-0.103-2.61c-0.104-0.339-0.216-0.638-0.328-0.914
		c-0.123-0.304-0.034-0.653,0.22-0.861c0.254-0.209,0.615-0.226,0.888-0.047c0.247,0.162,0.513,0.327,0.828,0.491
		c0.882,0.472,1.689,0.752,2.166,0.752c0.099,0,0.158-0.013,0.19-0.022c0.089-0.027,0.151-0.074,0.185-0.139
		c0.04-0.074,0.046-0.155,0.021-0.239c-0.095-0.307-0.729-0.901-1.933-1.536c-0.236-0.123-0.546-0.274-0.873-0.412
		c-0.304-0.128-0.488-0.439-0.455-0.767c0.033-0.328,0.276-0.596,0.6-0.66c0.285-0.057,0.587-0.136,0.922-0.239
		c1.666-0.513,2.313-1.065,2.215-1.385c-0.021-0.07-0.08-0.26-0.7-0.26c-0.479,0-1.12,0.123-1.908,0.365
		c-0.334,0.103-0.626,0.206-0.893,0.321c-0.304,0.133-0.658,0.047-0.87-0.205c-0.213-0.252-0.235-0.614-0.056-0.892
		c0.193-0.299,0.362-0.6,0.491-0.838c0.677-1.283,0.816-2.072,0.729-2.355c-0.025-0.084-0.077-0.149-0.144-0.186
		c-0.065-0.034-0.15-0.041-0.24-0.013c-0.307,0.094-0.901,0.727-1.534,1.926c-0.168,0.317-0.299,0.603-0.413,0.875
		c-0.126,0.302-0.434,0.486-0.762,0.457c-0.327-0.031-0.596-0.271-0.663-0.592c-0.061-0.284-0.135-0.591-0.241-0.931
		c-0.541-1.761-1.066-2.23-1.292-2.23c-0.411,0.114-0.506,0.96,0.007,2.624c0.106,0.343,0.218,0.64,0.33,0.916
		c0.123,0.305,0.033,0.654-0.221,0.862c-0.255,0.207-0.615,0.227-0.889,0.044c-0.246-0.163-0.516-0.328-0.828-0.496
		c-0.9-0.475-1.69-0.748-2.165-0.748c-0.097,0-0.155,0.012-0.188,0.022c-0.089,0.027-0.157,0.078-0.19,0.14
		c-0.035,0.067-0.042,0.153-0.016,0.24c0.096,0.309,0.731,0.904,1.935,1.535c0.241,0.13,0.544,0.279,0.868,0.413
		c0.306,0.125,0.493,0.437,0.461,0.766c-0.031,0.329-0.274,0.599-0.599,0.663c-0.29,0.058-0.588,0.134-0.924,0.238
		c-1.167,0.359-1.719,0.695-1.975,0.915c-0.308,0.262-0.267,0.395-0.244,0.467c0.022,0.071,0.081,0.263,0.706,0.263
		C73.565,58.622,74.206,58.499,74.992,58.258z"/>
	<path fill="#F5F5F5" d="M98.442-31.651l-0.171-2.126l-1.583,1.429c-0.184,0.166-0.436,0.23-0.677,0.173l-2.074-0.495l0.869,1.948
		c0.101,0.225,0.084,0.485-0.044,0.696l-1.111,1.822l2.121-0.226c0.026-0.003,0.053-0.004,0.079-0.004
		c0.218,0,0.426,0.095,0.569,0.262l1.389,1.62l0.441-2.087c0.051-0.242,0.218-0.442,0.445-0.537l1.969-0.819l-1.849-1.065
		C98.603-31.185,98.463-31.406,98.442-31.651z"/>
	<path fill="#F5F5F5" d="M-22.968-23.04l-2.023-6.224c-0.2-0.618-0.77-1.033-1.418-1.033c-0.157,0-0.312,0.025-0.464,0.074
		l-12.067,3.92c-0.38,0.123-0.688,0.387-0.87,0.743c-0.181,0.356-0.213,0.761-0.09,1.14l2.022,6.225
		c0.249,0.767,1.109,1.213,1.882,0.958l12.067-3.92C-23.145-21.411-22.714-22.256-22.968-23.04z M-36.174-23.766l-1.421,0.463
		c-0.077,0.025-0.156,0.037-0.232,0.037c-0.316,0-0.61-0.201-0.713-0.518c-0.128-0.394,0.087-0.817,0.48-0.945l1.421-0.463
		c0.396-0.129,0.817,0.087,0.945,0.48C-35.565-24.317-35.78-23.894-36.174-23.766z M-30.404-20.695
		c-0.284,0.092-0.579,0.139-0.875,0.139c-1.229,0-2.312-0.786-2.692-1.957c-0.481-1.483,0.333-3.083,1.817-3.566
		c0.285-0.092,0.58-0.139,0.877-0.139c1.23,0,2.311,0.786,2.691,1.955C-28.104-22.778-28.919-21.177-30.404-20.695z"/>
	<path fill="#F5F5F5" d="M-16.458-94.897c-0.729-0.202-1.478-0.305-2.228-0.309c2.047,2.484,2.805,5.871,1.932,9.026
		s-3.265,5.67-6.299,6.748c0.643,0.382,1.334,0.676,2.069,0.88c0.743,0.206,1.506,0.31,2.27,0.31h0c3.795,0,7.153-2.558,8.167-6.221
		C-9.3-88.968-11.952-93.648-16.458-94.897z"/>
	<path fill="#F5F5F5" d="M81.629-85.495c-0.416-0.007-1.297,0.193-2.339,0.784c-1.07,0.604-1.68,1.248-1.884,1.597
		c0.417,0.017,1.296-0.193,2.339-0.784C80.813-84.501,81.424-85.144,81.629-85.495z"/>
	<path fill="#F5F5F5" d="M19.639,93.629l1.103-0.162l-0.22-1.488c-0.09-0.615-0.625-1.079-1.245-1.079
		c-0.062,0-0.124,0.005-0.187,0.015L8.173,92.523c-0.333,0.049-0.628,0.225-0.829,0.496c-0.202,0.271-0.286,0.604-0.236,0.938
		l1.889,12.809c0.099,0.677,0.743,1.173,1.434,1.064l0.964-0.142c0.116-1.336,1.128-2.471,2.51-2.675
		c1.393-0.203,2.68,0.61,3.174,1.837l1.658-0.244c0.002-0.026,0.008-0.052,0.011-0.077l-1.439-9.764
		C17.087,95.258,18.133,93.852,19.639,93.629z"/>
	<path fill="#F5F5F5" d="M75.461-87.704c0.33-1.188,0.305-2.076,0.2-2.465c-0.291,0.279-0.771,1.027-1.101,2.215
		c-0.33,1.188-0.305,2.075-0.2,2.465C74.651-85.769,75.131-86.517,75.461-87.704z"/>
	<path fill="#F5F5F5" d="M73.257-81.514c-0.083-0.023-0.166-0.035-0.249-0.035c-0.411,0-0.775,0.278-0.887,0.677
		c-0.137,0.49,0.151,1,0.643,1.137c0.478,0.129,1.002-0.165,1.135-0.642c0.066-0.239,0.036-0.488-0.086-0.704
		C73.691-81.295,73.494-81.449,73.257-81.514z"/>
	<path fill="#F5F5F5" d="M77.877-79.271c0.281,0.291,1.027,0.768,2.211,1.097c1.004,0.278,2.092,0.294,2.461,0.195
		c-0.283-0.291-1.029-0.767-2.211-1.096C79.33-79.355,78.245-79.37,77.877-79.271z"/>
	<path fill="#F5F5F5" d="M-92.863,76.359l-1.975-10.365l0.002-0.004c-0.835-0.215-4.884-1.018-6.499-1.018
		c-0.135,0-0.249,0.004-0.334,0.02c-0.389,0.074-1.315,0.555-2.332,1.14v8.104c0.021-0.041,0.03-0.086,0.059-0.124
		c0.248-0.333,0.717-0.399,1.05-0.151l2.553,1.91l3.41-5.306c0.224-0.35,0.688-0.45,1.036-0.226c0.349,0.224,0.45,0.688,0.226,1.036
		l-3.845,5.983c-0.112,0.176-0.293,0.296-0.498,0.333c-0.044,0.008-0.089,0.012-0.133,0.012c-0.161,0-0.319-0.052-0.449-0.149
		l-3.197-2.393c-0.093-0.07-0.16-0.159-0.21-0.257v6.557c2.001,1.638,5.097,2.119,5.904,2.218
		C-97.083,83.168-92.088,80.426-92.863,76.359z"/>
	<path fill="#F5F5F5" d="M70.526-85.02c0.007-0.404-0.184-1.272-0.789-2.344c-0.606-1.071-1.251-1.681-1.601-1.883
		c-0.007,0.404,0.183,1.271,0.788,2.343C69.53-85.833,70.176-85.222,70.526-85.02z"/>
	<path fill="#F5F5F5" d="M-101.55,10.166c0.221-1.351-0.097-2.706-0.895-3.817c-0.42-0.585-0.953-1.058-1.555-1.414v8.822
		C-102.729,13.009-101.805,11.721-101.55,10.166z"/>
	<path fill="#F5F5F5" d="M-97.4-75.856c-0.269-1.376-0.971-4.229-2.414-5.991c-1.418-1.733-2.707-2.672-4.186-2.976v4.857
		c0.441,0.959,0.991,1.837,1.69,2.423C-100.53-76.055-98.496-75.845-97.4-75.856z"/>
	<path fill="#F5F5F5" d="M-96.845-91.211c-0.509-0.099-1.03-0.143-1.56-0.081c-0.583,0.069-1.13,0.251-1.641,0.502
		c0.395,0.638,1.282,2.196,2.15,4.545C-97.591-88.78-97.074-90.525-96.845-91.211z"/>
	<path fill="#F5F5F5" d="M-94.839-82.434c-0.991,2.047-1.012,4.983-0.955,6.385c1.061-0.25,3.015-0.94,4.382-2.778
		c1.566-2.104,1.441-6.219,1.313-7.912C-92.189-86.338-93.559-85.073-94.839-82.434z"/>
	<path fill="#F5F5F5" d="M-28.397-88.676l-0.415,0.881l0.952-0.207c0.053-0.012,0.106-0.017,0.159-0.017
		c0.189,0,0.373,0.071,0.514,0.204l0.709,0.666l0.098-0.968c0.024-0.246,0.168-0.463,0.385-0.582l0.855-0.47l-0.894-0.394
		c-0.226-0.1-0.388-0.304-0.435-0.546l-0.182-0.957l-0.65,0.728c-0.165,0.185-0.408,0.272-0.654,0.245l-0.964-0.122l0.491,0.842
		C-28.304-89.16-28.292-88.899-28.397-88.676z"/>
	<path fill="#F5F5F5" d="M-96.623-81.99c0.124-0.378,0.265-0.748,0.434-1.098c0.945-1.949,2.016-3.279,3.324-4.127
		c-0.228-1.195-0.849-2.263-1.813-3.024c-0.236-0.186-0.489-0.34-0.748-0.48C-95.728-89.796-96.652-86.571-96.623-81.99z"/>
	<path fill="#F5F5F5" d="M-72.057-44.617l-11.688-1.665c-0.066-0.01-0.13-0.014-0.195-0.014c-0.67,0-1.248,0.502-1.342,1.169
		l-2.21,15.516c-0.052,0.359,0.04,0.716,0.258,1.006c0.218,0.291,0.536,0.479,0.895,0.53l11.687,1.665
		c0.75,0.109,1.434-0.424,1.538-1.153l2.211-15.517C-70.798-43.821-71.316-44.512-72.057-44.617z M-73.829-37.047
		c-0.508,3.559-5.491,5.708-5.703,5.797c-0.094,0.04-0.194,0.06-0.292,0.06c-0.175,0-0.348-0.062-0.486-0.179
		c-0.177-0.151-4.333-3.737-3.846-7.148c0.345-2.428,1.9-3.293,3.24-3.293c0.887,0,1.741,0.375,2.286,1.002
		c0.022,0.026,0.044,0.052,0.066,0.079c0.452-0.312,1.026-0.491,1.664-0.491c0.906,0,1.755,0.379,2.329,1.041
		C-74.106-39.643-73.599-38.663-73.829-37.047z"/>
	<path fill="#F5F5F5" d="M-76.901-39.721c-0.508,0-1.09,0.244-1.167,0.779c0,0,0,0.001,0,0.002c-0.058,0.41-0.437,0.697-0.848,0.637
		c-0.41-0.058-0.696-0.438-0.638-0.848c0,0,0,0,0,0c0.035-0.247-0.036-0.474-0.21-0.674c-0.26-0.299-0.702-0.485-1.153-0.485
		c-0.934,0-1.574,0.73-1.755,2.004c-0.277,1.939,1.811,4.369,2.982,5.478c1.426-0.702,4.085-2.401,4.375-4.431
		c0.119-0.835-0.016-1.505-0.391-1.938C-75.994-39.53-76.43-39.721-76.901-39.721z"/>
	<path fill="#F5F5F5" d="M-101.785-89.401c-0.761,0.964-1.116,2.147-1.06,3.363c1.468,0.52,2.818,1.563,4.191,3.241
		c0.142,0.173,0.277,0.354,0.406,0.542c-1.004-4.07-2.488-6.771-3.031-7.671C-101.455-89.76-101.632-89.595-101.785-89.401z"/>
	<path fill="#F5F5F5" d="M77.883-72.005c0.007-0.404-0.183-1.272-0.788-2.344c-0.605-1.073-1.252-1.683-1.601-1.883
		c-0.008,0.403,0.181,1.271,0.787,2.343S77.533-72.208,77.883-72.005z"/>
	<path fill="#F5F5F5" d="M108.376,110.715c1.045-0.068,2.038-0.271,2.942-0.59c-0.635-1.669-1.82-3.104-3.384-4.034
		c0.146,0.414,0.261,0.879,0.343,1.395C108.431,108.45,108.457,109.551,108.376,110.715z"/>
	<path fill="#F5F5F5" d="M78.491,66.128c-1.613-0.279-3.237,0.572-4.072,1.105c0.609,0.782,1.864,2.126,3.468,2.4
		c1.624,0.279,3.239-0.571,4.073-1.104C81.351,67.747,80.096,66.404,78.491,66.128z"/>
	<path fill="#F5F5F5" d="M136,83.301c-1.492-0.914-2.778-2.252-3.153-4.22l-1.975-10.364c-0.077-0.413,0.006-0.826,0.233-1.166
		c0.225-0.344,2.868-2.038,4.895-3.122V15.414c-0.802,0.342-1.674,0.547-2.597,0.547c-0.358,0-0.721-0.03-1.077-0.088
		c-1.746-0.286-3.276-1.234-4.309-2.67s-1.443-3.188-1.157-4.933c0.527-3.219,3.272-5.555,6.527-5.555
		c0.358,0,0.721,0.03,1.077,0.088c0.536,0.088,1.048,0.245,1.535,0.453v-80.393c-2.399-2.842-2.996-8.143-3.021-8.388
		c-0.042-0.401,0.24-0.765,0.641-0.822c0.708-0.101,1.375-0.112,2.016-0.044c0.013-0.702,0.136-1.389,0.365-2.042V-104h-240v15.566
		c0.237-0.676,0.581-1.318,1.038-1.897c1.085-1.375,2.642-2.246,4.382-2.45c1.743-0.205,3.456,0.28,4.832,1.365
		c1.139,0.899,1.925,2.123,2.28,3.505c0.608-0.214,1.259-0.358,1.972-0.424c0.393-0.042,0.761,0.25,0.813,0.65
		c0.035,0.268,0.825,6.597-1.525,9.753c-2.333,3.138-5.944,3.49-6.207,3.512c-0.063,0.009-0.438,0.064-1.031,0.064
		c-1.267,0-3.708-0.265-5.827-2.036c-0.262-0.219-0.5-0.475-0.728-0.745V3.255c1.1,0.469,2.058,1.223,2.773,2.218
		c1.032,1.437,1.443,3.189,1.157,4.935c-0.378,2.306-1.904,4.141-3.931,5.006v49.015c0.888-0.476,1.658-0.835,2.051-0.909
		c0.157-0.03,0.365-0.047,0.614-0.047c1.644,0,6.893,0.939,7.329,1.243c0.335,0.235,0.562,0.588,0.641,0.995l1.975,10.367
		c1.079,5.66-5.963,8.917-6.264,9.053c-0.097,0.044-0.203,0.066-0.309,0.066c-0.021,0-0.042-0.001-0.063-0.003
		c-0.209-0.018-3.4-0.318-5.974-1.894V136h240V83.301z M131.293,17.541c0.067-0.409,0.453-0.688,0.861-0.619
		c0.409,0.067,0.687,0.453,0.619,0.861l-0.318,1.94c-0.061,0.368-0.379,0.629-0.739,0.629c-0.04,0-0.081-0.003-0.122-0.01
		c-0.409-0.067-0.687-0.453-0.619-0.861L131.293,17.541z M134.336-1.048c0.067-0.408,0.452-0.687,0.861-0.619
		c0.409,0.067,0.687,0.453,0.619,0.862l-0.318,1.941c-0.061,0.367-0.379,0.628-0.739,0.628c-0.04,0-0.081-0.003-0.122-0.01
		c-0.409-0.067-0.687-0.453-0.619-0.862L134.336-1.048z M-99.367-94.993c-0.03,0.003-0.059,0.005-0.088,0.005
		c-0.375,0-0.699-0.281-0.744-0.663l-0.175-1.49c-0.048-0.412,0.246-0.784,0.658-0.833c0.411-0.045,0.784,0.246,0.833,0.658
		l0.175,1.49C-98.661-95.414-98.955-95.042-99.367-94.993z M-89.62-92.93l-0.93,1.177c-0.148,0.188-0.367,0.285-0.589,0.285
		c-0.163,0-0.327-0.053-0.464-0.162c-0.325-0.256-0.38-0.728-0.124-1.053l0.93-1.177c0.256-0.325,0.728-0.38,1.053-0.124
		C-89.418-93.727-89.363-93.255-89.62-92.93z M-100.098,18.394c-0.132,0.095-0.285,0.141-0.437,0.141
		c-0.233,0-0.463-0.108-0.61-0.312l-1.147-1.598c-0.241-0.336-0.165-0.805,0.172-1.047c0.336-0.24,0.806-0.165,1.047,0.172
		l1.147,1.598C-99.685,17.683-99.761,18.151-100.098,18.394z M-99.755,5.166c-0.233,0-0.463-0.108-0.609-0.312
		c-0.242-0.336-0.165-0.805,0.171-1.047l1.598-1.148c0.338-0.241,0.806-0.165,1.047,0.171c0.242,0.336,0.165,0.805-0.171,1.047
		l-1.598,1.148C-99.451,5.12-99.604,5.166-99.755,5.166z M-96.338,11.77c-0.041,0-0.081-0.003-0.122-0.01l-1.942-0.318
		c-0.409-0.067-0.686-0.453-0.619-0.861c0.067-0.409,0.456-0.685,0.861-0.619l1.942,0.318c0.409,0.067,0.686,0.453,0.619,0.861
		C-95.659,11.508-95.977,11.77-96.338,11.77z M131.512-91.774c0.255-0.325,0.727-0.382,1.053-0.125l1.18,0.929
		c0.325,0.256,0.382,0.728,0.125,1.053c-0.147,0.188-0.367,0.286-0.59,0.286c-0.162,0-0.325-0.052-0.463-0.161l-1.18-0.929
		C131.312-90.978,131.255-91.449,131.512-91.774z M126.889,0.281c0.339-0.24,0.806-0.165,1.047,0.172l1.147,1.599
		c0.241,0.336,0.164,0.805-0.172,1.047c-0.133,0.095-0.285,0.141-0.437,0.141c-0.233,0-0.464-0.108-0.61-0.312l-1.147-1.599
		C126.476,0.992,126.553,0.523,126.889,0.281z M84.119-77.541c-0.117,0.424-0.567,1.133-2.253,1.133c-0.001,0,0,0-0.001,0
		c-0.664,0-1.418-0.111-2.179-0.322c-1.943-0.54-3.741-1.67-3.378-2.979c0.117-0.424,0.565-1.135,2.25-1.135
		c0.664,0,1.419,0.112,2.181,0.323C82.684-79.98,84.481-78.849,84.119-77.541z M74.693-77.646c0.187-0.106,0.396-0.16,0.621-0.16
		c1.144,0,2.345,1.404,3.087,2.719c0.991,1.755,1.463,3.827,0.284,4.497c-0.189,0.107-0.397,0.16-0.622,0.16
		c-1.141,0-2.343-1.406-3.087-2.722c-0.478-0.842-0.807-1.715-0.927-2.457C73.832-76.942,74.359-77.458,74.693-77.646z
		 M73.01-78.202c-0.218,0-0.436-0.03-0.647-0.088c-1.289-0.359-2.045-1.698-1.687-2.985c0.35-1.257,1.727-2.04,2.982-1.685
		c0.622,0.171,1.142,0.577,1.46,1.141c0.319,0.564,0.399,1.219,0.226,1.843C75.055-78.932,74.095-78.202,73.01-78.202z
		 M81.602-86.995c0.868,0,1.266,0.378,1.445,0.695c0.189,0.335,0.375,1.049-0.5,2.08c-0.486,0.573-1.22,1.151-2.062,1.628
		c-1.098,0.622-2.21,0.979-3.051,0.979c-0.915,0-1.298-0.437-1.444-0.697c-0.118-0.208-0.232-0.559-0.101-1.035
		c0.283-1.02,1.561-2.048,2.662-2.671C79.648-86.638,80.761-86.995,81.602-86.995z M73.115-88.355
		c0.438-1.579,1.396-3.423,2.654-3.423c0.11,0,0.22,0.015,0.325,0.044c0.37,0.103,1.007,0.476,1.118,1.824
		c0.062,0.749-0.048,1.675-0.307,2.608c-0.438,1.58-1.397,3.423-2.654,3.423c-0.11,0-0.221-0.015-0.326-0.044
		c-0.369-0.103-1.006-0.476-1.117-1.824C72.747-86.495,72.856-87.421,73.115-88.355z M67.335-90.661
		c0.188-0.106,0.397-0.16,0.622-0.16c1.141,0,2.343,1.405,3.086,2.72c0.477,0.844,0.806,1.716,0.927,2.458
		c0.219,1.336-0.311,1.852-0.645,2.041c-0.186,0.105-0.395,0.159-0.618,0.159c-1.143,0-2.345-1.406-3.089-2.721
		C66.627-87.922,66.155-89.992,67.335-90.661z M-30.959-91.563c0.157-0.238,0.434-0.368,0.72-0.331l2.082,0.263l1.399-1.567
		c0.19-0.213,0.487-0.301,0.76-0.223c0.275,0.076,0.483,0.302,0.537,0.582l0.393,2.062l1.922,0.847
		c0.261,0.115,0.435,0.369,0.447,0.654c0.012,0.285-0.138,0.553-0.388,0.69l-1.84,1.011l-0.21,2.088
		c-0.028,0.284-0.216,0.527-0.483,0.627c-0.085,0.032-0.174,0.047-0.263,0.047c-0.188,0-0.372-0.07-0.514-0.204l-1.529-1.437
		l-2.052,0.446c-0.281,0.062-0.568-0.042-0.746-0.266c-0.178-0.224-0.213-0.529-0.092-0.787l0.895-1.899l-1.059-1.814
		C-31.125-91.018-31.117-91.325-30.959-91.563z M-69.417-42.869l-2.211,15.518c-0.2,1.4-1.416,2.456-2.829,2.456
		c-0.134,0-0.269-0.01-0.405-0.029l-11.687-1.665c-0.755-0.108-1.424-0.503-1.883-1.115c-0.459-0.611-0.652-1.364-0.543-2.119
		l2.209-15.515c0.218-1.534,1.654-2.66,3.235-2.428l11.687,1.665C-70.287-45.88-69.198-44.43-69.417-42.869z M-52.502,125.948
		c-0.897,0.224-1.916,0.336-3,0.336c-1.003,0-2.062-0.096-3.133-0.288c-2.229-0.4-4.265-1.172-5.732-2.174
		c-0.342-0.233-0.43-0.7-0.197-1.042c0.234-0.344,0.701-0.431,1.042-0.196c1.297,0.885,3.126,1.572,5.152,1.936
		c2.024,0.364,3.978,0.354,5.504-0.026c0.402-0.105,0.809,0.145,0.909,0.546C-51.855,125.441-52.1,125.848-52.502,125.948z
		 M-57.854,121.26c1.373,0.247,2.746,0.24,3.771-0.015c0.401-0.104,0.809,0.145,0.909,0.546c0.101,0.402-0.144,0.809-0.546,0.909
		c-0.646,0.161-1.378,0.242-2.157,0.242c-0.718,0-1.476-0.068-2.241-0.206c-1.589-0.284-3.049-0.838-4.109-1.56
		c-0.342-0.233-0.431-0.7-0.198-1.042c0.234-0.344,0.7-0.431,1.042-0.198C-60.506,120.533-59.22,121.016-57.854,121.26z
		 M-60.609,117.291c0.249-0.332,0.72-0.397,1.05-0.147c0.551,0.415,1.374,0.744,2.258,0.901c0.885,0.16,1.77,0.137,2.427-0.063
		c0.395-0.117,0.815,0.103,0.936,0.5c0.12,0.396-0.104,0.815-0.5,0.936c-0.512,0.155-1.097,0.233-1.715,0.233
		c-0.458,0-0.934-0.043-1.413-0.129c-1.123-0.2-2.152-0.619-2.896-1.181C-60.793,118.092-60.859,117.621-60.609,117.291z
		 M-43.798,113.448c-0.246,1.265-1.772,2.018-4.536,2.239c-0.533,0.042-1.11,0.063-1.714,0.063c-2.082,0-4.47-0.251-6.905-0.728
		c-3.165-0.616-6.09-1.549-8.236-2.624c-2.477-1.246-3.607-2.518-3.36-3.781c0.248-1.266,1.773-2.02,4.533-2.241
		c0.725-0.058,1.693-0.405,2.718-0.774c1.546-0.556,3.298-1.186,5.085-1.186c0.451,0,0.89,0.041,1.305,0.122
		c2.224,0.434,3.976,2.004,5.521,3.389c0.812,0.727,1.578,1.414,2.228,1.74C-44.682,110.911-43.551,112.184-43.798,113.448z
		 M-27.677,63.826c-0.219,0.241-0.478,0.442-0.792,0.617c-0.235,0.131-0.499,0.247-0.826,0.363
		c-0.237,0.083-0.476,0.159-0.713,0.234c-0.281,0.092-0.499,0.168-0.701,0.263c-0.205,0.095-0.403,0.213-0.602,0.335l-0.158,0.1
		c-0.177,0.111-0.353,0.222-0.533,0.328c-0.308,0.181-0.568,0.308-0.818,0.4c-0.321,0.124-0.652,0.194-0.975,0.206
		c-0.009,0.001-0.026,0.001-0.036,0.001c-0.983,0-1.215-1.265-1.292-1.68c-0.122-0.662-0.185-1.568-0.178-2.552
		c0.007-0.727,0.032-1.353,0.076-1.928l-0.357-0.16c-1.688-0.754-11.405-5.784-11.471-7.627c-0.036-1.024,0.434-1.896,0.849-2.663
		c0.187-0.347,0.364-0.673,0.475-0.979c0.111-0.305,0.187-0.669,0.267-1.055c0.177-0.855,0.378-1.823,1.065-2.585
		c0.69-0.764,1.665-1.076,2.524-1.352c0.392-0.125,0.762-0.243,1.084-0.394s0.65-0.356,0.998-0.575
		c0.765-0.48,1.631-1.025,2.663-1.062c0.009,0,0.102-0.002,0.111-0.002c0.978,0,1.815,0.452,2.554,0.852
		c0.346,0.187,0.673,0.363,0.979,0.476c0.304,0.11,0.667,0.186,1.052,0.266c0.855,0.177,1.825,0.378,2.586,1.067
		c1.369,1.237-1.078,12.059-1.577,13.774l-0.063,0.226l0.25,0.197c0.407,0.32,0.843,0.662,1.288,1.03
		c0.754,0.624,1.408,1.256,1.84,1.781C-27.833,62.062-26.997,63.076-27.677,63.826z M-18.009-11.076
		c-0.139,0.24-0.391,0.375-0.649,0.375c-0.128,0-0.257-0.032-0.375-0.101l-9.125-5.281l2.281,7.018
		c0.128,0.394-0.087,0.817-0.481,0.945c-0.077,0.025-0.155,0.037-0.232,0.037c-0.316,0-0.61-0.201-0.713-0.518l-2.351-7.233
		l-4.401,9.915c-0.124,0.28-0.398,0.446-0.686,0.446c-0.102,0-0.205-0.021-0.304-0.064c-0.379-0.168-0.549-0.611-0.381-0.99
		l4.832-10.885l-4.936,1.604c-0.3,0.098-0.613,0.148-0.927,0.148c-1.3,0-2.444-0.832-2.846-2.069l-2.022-6.225
		c-0.247-0.76-0.183-1.572,0.18-2.285s0.982-1.242,1.743-1.489l12.066-3.92c0.301-0.098,0.613-0.148,0.928-0.148
		c1.301,0,2.444,0.832,2.845,2.069l2.023,6.224c0.509,1.572-0.354,3.264-1.924,3.773l-5.124,1.665l10.307,5.965
		C-17.924-11.893-17.802-11.434-18.009-11.076z M-9.102-84.062c-1.192,4.31-5.145,7.321-9.612,7.321c0,0,0,0,0,0
		c-0.898,0-1.797-0.123-2.67-0.365c-1.446-0.4-2.75-1.1-3.877-2.078c-0.218-0.189-0.308-0.488-0.231-0.767
		c0.077-0.278,0.308-0.488,0.592-0.539c3.203-0.566,5.833-2.957,6.701-6.09c0.867-3.133-0.159-6.536-2.615-8.669
		c-0.218-0.19-0.308-0.488-0.231-0.766c0.077-0.279,0.307-0.488,0.592-0.539c1.453-0.257,2.962-0.186,4.396,0.211
		C-10.755-94.873-7.634-89.364-9.102-84.062z M1.525,17.107c-0.166,0-0.328-0.055-0.46-0.157c-0.157-0.122-0.259-0.302-0.284-0.5
		L-0.7,4.654c-0.052-0.411,0.24-0.786,0.651-0.837l20.787-2.611c0.199-0.023,0.397,0.03,0.554,0.152
		c0.157,0.122,0.26,0.301,0.284,0.499l1.481,11.797c0.052,0.411-0.239,0.786-0.65,0.837L1.619,17.102
		C1.588,17.105,1.557,17.107,1.525,17.107z M27.408,106.045c-0.44,0.593-1.085,0.979-1.814,1.086l-1,0.147
		c-0.068,0.481-0.242,0.945-0.541,1.348c-0.472,0.635-1.162,1.048-1.943,1.163c-0.146,0.021-0.291,0.031-0.435,0.031
		c-1.171,0-2.204-0.71-2.677-1.735l-1.742,0.256c-0.175,1.271-1.156,2.334-2.487,2.53c-0.146,0.021-0.292,0.032-0.435,0.032
		c-1.172,0-2.206-0.71-2.679-1.737l-1.006,0.148c-0.136,0.02-0.272,0.029-0.405,0.029c-1.359,0-2.533-1.014-2.731-2.359
		L5.623,94.176c-0.107-0.73,0.076-1.459,0.517-2.052s1.085-0.978,1.815-1.085L18.87,89.43c1.531-0.217,2.921,0.854,3.136,2.331
		l0.211,1.428l1.293-0.19c1.514-0.216,2.919,0.853,3.137,2.331l0.007,0.048c0.001,0.004,0.002,0.007,0.003,0.011l0.548,3.718
		l0.177,1.2c0,0.001,0,0.001,0,0.002l0.543,3.688C28.031,104.725,27.849,105.453,27.408,106.045z M29.268-49.533
		c-0.394,1.191-1.14,2.372-2.25,3.241c0.125,1.403-0.503,3.753-3.716,4.973c-0.824,0.313-1.754,0.46-2.72,0.46
		c-2.855,0-6.036-1.283-7.783-3.362c-0.591-0.705-0.983-1.465-1.207-2.257c-1.018-0.329-1.775-1.18-2.153-2.442
		c-0.837-2.79,0.25-7.663,3.202-10.47c1.712-1.628,3.434-2.368,5.115-2.203c1.67,0.165,2.803,1.191,3.299,1.74
		c1.159-0.438,2.597-0.472,4.221,0.447C29.287-57.133,30.32-52.719,29.268-49.533z M61.9-83.709
		c0.119-0.425,0.569-1.135,2.255-1.135c0.664,0,1.417,0.111,2.178,0.322c1.944,0.54,3.743,1.671,3.38,2.981
		c-0.117,0.423-0.566,1.133-2.251,1.133c-0.666,0-1.42-0.112-2.183-0.324C63.336-81.272,61.537-82.402,61.9-83.709z M64.417-74.257
		c-0.868,0-1.264-0.378-1.443-0.695c-0.188-0.333-0.376-1.048,0.5-2.08c0.486-0.572,1.218-1.15,2.062-1.627
		c1.101-0.622,2.213-0.978,3.053-0.978c0.867,0,1.263,0.377,1.443,0.693c0.669,1.184-0.805,2.715-2.561,3.709
		C66.37-74.613,65.257-74.257,64.417-74.257z M70.25-69.473c-0.11,0-0.22-0.015-0.325-0.044c-1.31-0.367-1.351-2.491-0.812-4.433
		c0.438-1.579,1.397-3.423,2.656-3.423c0.11,0,0.22,0.015,0.325,0.044c1.309,0.364,1.35,2.489,0.81,4.433
		C72.466-71.317,71.507-69.473,70.25-69.473C70.25-69.473,70.25-69.473,70.25-69.473z M70.946,58.801
		c-0.132-0.428-0.217-1.265,0.703-2.05c0.405-0.345,0.971-0.654,1.717-0.938c-1.081-0.663-1.734-1.339-1.942-2.01
		c-0.142-0.464-0.099-0.952,0.12-1.378c0.227-0.425,0.607-0.733,1.078-0.877c0.734-0.229,1.832,0.064,2.748,0.471
		c-0.485-2.064-0.112-3.301,1.113-3.68c0.178-0.055,0.356-0.082,0.533-0.082c1.312,0,2.065,1.448,2.459,2.493
		c0.666-1.077,1.339-1.727,2.006-1.933c0.472-0.146,0.957-0.099,1.378,0.12c0.427,0.226,0.737,0.605,0.88,1.072
		c0.205,0.664,0.045,1.589-0.475,2.754c0.59-0.141,1.101-0.21,1.547-0.21c1.501,0,1.981,0.825,2.134,1.317
		c0.377,1.227-0.437,2.23-2.419,2.99c1.086,0.669,1.737,1.343,1.943,2.011c0.144,0.47,0.098,0.96-0.129,1.384
		c-0.217,0.413-0.598,0.723-1.067,0.868c-0.192,0.059-0.404,0.089-0.633,0.089c-0.672,0-1.445-0.258-2.12-0.559
		c0.487,2.066,0.115,3.304-1.109,3.682c-0.177,0.055-0.356,0.082-0.533,0.082c-1.311,0-2.065-1.446-2.461-2.491
		c-0.666,1.075-1.339,1.721-2.008,1.926c-0.466,0.146-0.974,0.101-1.382-0.12c-0.423-0.229-0.732-0.607-0.873-1.068
		c-0.207-0.669-0.048-1.593,0.474-2.752c-0.588,0.141-1.097,0.209-1.542,0.209C71.579,60.122,71.099,59.295,70.946,58.801z
		 M88.699,67.704c-1.623,1.568-3.996,1.803-5.267,1.803c-0.089,0-0.168-0.001-0.239-0.003c-0.681,0.492-2.54,1.684-4.66,1.684
		c-0.306,0-0.608-0.025-0.9-0.075c-2.962-0.507-4.824-3.542-4.902-3.671c-0.192-0.319-0.121-0.731,0.167-0.968
		c0.095-0.077,2.345-1.899,4.95-1.899c0.306,0,0.607,0.025,0.898,0.075c1.51,0.261,2.731,1.176,3.579,2.027
		c0.222-1.181,0.718-2.624,1.819-3.688c1.625-1.569,4.002-1.804,5.273-1.804c0.366,0,0.587,0.021,0.587,0.021
		c0.37,0.034,0.661,0.335,0.682,0.706C90.694,62.062,90.861,65.619,88.699,67.704z M86.411-22.813
		c-0.079-0.005-0.157-0.022-0.23-0.051c-0.407-0.162-0.726-0.472-0.896-0.875c-0.171-0.395-0.178-0.838-0.016-1.243l6.661-16.772
		c0.162-0.408,0.473-0.726,0.876-0.896c0.379-0.165,0.836-0.176,1.237-0.02l13.401,5.324c0.404,0.16,0.723,0.469,0.896,0.87
		c0.172,0.401,0.177,0.844,0.017,1.249l-6.662,16.772c-0.162,0.406-0.471,0.723-0.867,0.896c-0.211,0.089-0.428,0.134-0.649,0.134
		c-0.206,0-0.408-0.039-0.601-0.115c-0.074-0.029-0.143-0.07-0.204-0.122l-5.636-4.702L86.411-22.813z M113.108,115.044
		c-0.968,4.286-4.854,7.397-9.242,7.397c-0.702,0-1.408-0.079-2.099-0.235c-2.471-0.558-4.577-2.045-5.931-4.188
		c-1.353-2.143-1.791-4.684-1.232-7.154c0.985-4.356,4.787-7.399,9.246-7.399c0.702,0,1.407,0.079,2.098,0.235
		C111.05,104.854,114.262,109.943,113.108,115.044z M122.39,7.537c0.067-0.408,0.455-0.683,0.861-0.619l1.941,0.318
		c0.409,0.067,0.687,0.453,0.619,0.862c-0.061,0.367-0.379,0.628-0.739,0.628c-0.04,0-0.081-0.003-0.122-0.01l-1.941-0.318
		C122.6,8.331,122.322,7.946,122.39,7.537z M126.984,14.869l-1.598,1.147c-0.133,0.095-0.285,0.141-0.437,0.141
		c-0.233,0-0.464-0.108-0.61-0.312c-0.241-0.336-0.165-0.805,0.172-1.047l1.598-1.147c0.339-0.24,0.806-0.164,1.047,0.172
		C127.397,14.159,127.321,14.627,126.984,14.869z"/>
	<path fill="#F5F5F5" d="M106.797,107.721c-0.212-1.332-0.681-2.235-1.224-2.358c-0.048-0.011-0.096-0.016-0.146-0.016
		c-0.84,0-2.263,1.48-3.342,4.289c0.748,0.314,1.533,0.575,2.349,0.76c0.812,0.184,1.631,0.285,2.438,0.323
		C106.954,109.63,106.938,108.606,106.797,107.721z"/>
	<path fill="#F5F5F5" d="M14.549,109.387c0.496-0.073,0.897-0.389,1.101-0.81l-2.385,0.352
		C13.581,109.27,14.053,109.46,14.549,109.387z"/>
	<path fill="#F5F5F5" d="M14.339,106.482c-0.071,0-0.144,0.005-0.216,0.016c-0.552,0.081-0.98,0.466-1.156,0.958l2.523-0.371
		C15.221,106.727,14.809,106.482,14.339,106.482z"/>
	<path fill="#F5F5F5" d="M64.392-75.757c0.407-0.007,1.299-0.194,2.341-0.784c1.066-0.603,1.675-1.245,1.881-1.596
		c-0.463,0.012-1.297,0.194-2.34,0.784C65.206-76.75,64.597-76.107,64.392-75.757z"/>
	<path fill="#F5F5F5" d="M21.027,107.856c-0.11,0.029-0.216,0.054-0.322,0.078c0.312,0.283,0.738,0.438,1.186,0.37
		c0.385-0.057,0.726-0.26,0.958-0.573c0.051-0.068,0.092-0.141,0.129-0.215l-1.264,0.187
		C21.468,107.739,21.237,107.802,21.027,107.856z"/>
	<path fill="#F5F5F5" d="M108.219,112.219c-0.08,0.549-0.182,1.105-0.308,1.665c-0.13,0.576-0.289,1.151-0.469,1.718
		c1.072,0.571,2.037,1.259,2.856,2.048c0.632-0.86,1.102-1.853,1.347-2.936c0.241-1.066,0.255-2.132,0.074-3.146
		C110.631,111.943,109.451,112.16,108.219,112.219z"/>
	<path fill="#F5F5F5" d="M100.741,108.99c0.643-1.619,1.471-3.054,2.404-3.994c-1.856,0.16-3.54,0.952-4.822,2.185
		C99.006,107.862,99.821,108.476,100.741,108.99z"/>
	<path fill="#F5F5F5" d="M102.139,120.569c0.809,0.193,2.311-1.264,3.448-4.179c-0.737-0.308-1.511-0.564-2.312-0.745
		c-0.816-0.185-1.639-0.286-2.449-0.324C100.621,118.365,101.32,120.385,102.139,120.569z"/>
	<path fill="#F5F5F5" d="M99.798,112.05c0.123-0.545,0.271-1.09,0.438-1.626c-1.091-0.584-2.066-1.289-2.891-2.098
		c-0.594,0.841-1.038,1.807-1.278,2.868c-0.246,1.09-0.257,2.194-0.052,3.26c1.077-0.367,2.245-0.58,3.463-0.639
		C99.561,113.225,99.666,112.632,99.798,112.05z"/>
	<path fill="#F5F5F5" d="M21.682,105.4c-0.071,0-0.144,0.006-0.216,0.017c-0.388,0.057-0.729,0.261-0.961,0.574
		c-0.083,0.111-0.142,0.234-0.188,0.36c0.512-0.148,1.178-0.503,1.63-0.902C21.857,105.433,21.774,105.4,21.682,105.4z"/>
	<path fill="#F5F5F5" d="M68.144-81.979c-0.282-0.292-1.028-0.769-2.212-1.098c-1.005-0.279-2.092-0.294-2.461-0.195
		c0.283,0.291,1.03,0.767,2.211,1.095C66.687-81.898,67.771-81.882,68.144-81.979z"/>
	<path fill="#F5F5F5" d="M106.931,117.031c-0.631,1.565-1.435,2.951-2.339,3.875c1.785-0.167,3.435-0.941,4.708-2.13
		C108.625,118.119,107.826,117.528,106.931,117.031z"/>
	<path fill="#F5F5F5" d="M26.303-51.412c0.007,0.042,0.025,0.081,0.025,0.126c0,0.264-0.028,0.52-0.069,0.771
		c-0.106,0.955-0.415,1.901-0.956,2.769c-0.248,0.397-0.54,0.751-0.854,1.081c1.604-0.448,2.819-1.594,3.395-3.338
		c0.861-2.605,0.001-6.222-3.307-8.096c-1.809-1.023-3.169-0.426-3.988,0.249c0.931,0.125,1.828,0.444,2.635,0.947
		C25.151-55.675,26.251-53.576,26.303-51.412z"/>
	<path fill="#F5F5F5" d="M13.675-58.302c-2.515,2.391-3.493,6.637-2.799,8.952c0.128,0.426,0.305,0.76,0.525,1.008
		c0.071-1.022,0.404-2.075,1.031-3.129c0.134-0.226,0.37-0.342,0.613-0.353c0.084-1.02,0.399-2.034,0.977-2.96
		c1.009-1.616,2.627-2.683,4.459-3.011c0.28-0.418,0.69-0.886,1.22-1.296c-0.422-0.395-1.148-0.919-2.107-1.01
		C16.367-60.216,15.051-59.61,13.675-58.302z"/>
	<path fill="#F5F5F5" d="M24.493,101.515c-0.123,0.035-0.346,0.087-0.62,0.087c-0.113,0-0.263-0.017-0.424-0.048l0.445,3.017
		c0.015,0.102,0.016,0.225,0.006,0.358c0.221,0.252,0.398,0.541,0.524,0.857l0.95-0.14c0.334-0.049,0.628-0.226,0.829-0.496
		s0.285-0.604,0.235-0.937l-0.434-2.945c-0.427,0.065-0.599,0.096-0.749,0.123C25.089,101.421,24.938,101.448,24.493,101.515z"/>
	<path fill="#F5F5F5" d="M16.938-46.896c0.817,0.51,1.758,0.78,2.717,0.78c0.953,0,1.858-0.263,2.644-0.732
		c-0.216,0.027-0.434,0.045-0.652,0.045c-0.731,0-1.475-0.151-2.17-0.456c-2.448-1.074-3.14-3.188-2.739-4.806
		c0.381-1.542,1.644-2.5,3.174-2.397c1.054,0.075,1.855,0.457,2.382,1.133c0.814,1.046,0.608,2.357,0.582,2.503
		c-0.073,0.408-0.46,0.68-0.871,0.606c-0.405-0.073-0.677-0.46-0.606-0.866c0.004-0.022,0.121-0.804-0.294-1.329
		c-0.255-0.323-0.691-0.508-1.3-0.552c-0.94-0.063-1.456,0.638-1.61,1.261c-0.231,0.934,0.124,2.298,1.886,3.072
		c1.161,0.509,2.491,0.427,3.473-0.215c0.647-0.423,1.056-1.053,1.205-1.801c0.229-1.92-0.623-3.893-2.369-4.983
		c-0.818-0.511-1.759-0.781-2.719-0.781c-1.792,0-3.427,0.906-4.375,2.423C13.793-51.581,14.53-48.398,16.938-46.896z"/>
	<path fill="#F5F5F5" d="M19.655-44.616c-1.24,0-2.454-0.349-3.511-1.008c-1.52-0.948-2.519-2.415-2.923-4.03
		c-0.615,1.621-0.38,3.15,0.727,4.468c1.938,2.307,6.141,3.481,8.82,2.464c1.96-0.744,2.556-1.878,2.713-2.696
		c-0.747,0.295-1.591,0.478-2.556,0.478c-0.334,0-0.684-0.023-1.045-0.066C21.178-44.758,20.431-44.616,19.655-44.616
		C19.655-44.616,19.655-44.616,19.655-44.616z"/>
	<path fill="#F5F5F5" d="M99.326,115.327c-1.024,0.067-2,0.263-2.89,0.571c0.182,0.454,0.402,0.896,0.669,1.319
		c0.682,1.079,1.594,1.956,2.66,2.591C99.353,118.594,99.223,117.008,99.326,115.327z"/>
	<path fill="#F5F5F5" d="M21.54,99.031l-0.6-4.078l-1.083,0.16c-0.688,0.102-1.167,0.745-1.065,1.435l1.168,7.918
		c0.378-0.272,0.812-0.463,1.286-0.533c0.357-0.053,0.709-0.027,1.045,0.046l-0.689-4.674C21.582,99.21,21.555,99.133,21.54,99.031z
		"/>
	<path fill="#F5F5F5" d="M23.924,94.527c-0.061,0-0.123,0.004-0.186,0.014l-1.294,0.19l0.644,4.368
		c0.146,0.652,0.404,1.002,0.785,1.002c0.116,0,0.202-0.027,0.203-0.028c0.039-0.013,0.098-0.028,0.139-0.034
		c0.464-0.068,0.612-0.095,0.777-0.124c0.159-0.028,0.333-0.061,0.795-0.131l-0.617-4.184
		C25.076,94.988,24.543,94.527,23.924,94.527z"/>
	<path fill="#E5E5E5" d="M131.105,67.551c-0.228,0.34-0.311,0.753-0.233,1.166l1.975,10.364c0.375,1.968,1.661,3.306,3.153,4.22
		v-1.84c-0.823-0.674-1.467-1.539-1.681-2.661l-1.956-10.383c0.525-0.388,2.176-1.444,3.637-2.285v-1.703
		C133.974,65.513,131.33,67.207,131.105,67.551z"/>
	<path fill="#E5E5E5" d="M136,74.903v-0.667C135.895,74.452,135.893,74.696,136,74.903z"/>
	<path fill="#E5E5E5" d="M74.628,59.913c-0.521,1.159-0.681,2.083-0.474,2.752c0.141,0.461,0.45,0.84,0.873,1.068
		c0.408,0.221,0.916,0.266,1.382,0.12c0.669-0.205,1.342-0.851,2.008-1.926c0.396,1.045,1.15,2.491,2.461,2.491
		c0.177,0,0.356-0.027,0.533-0.082c1.225-0.378,1.597-1.615,1.109-3.682c0.675,0.301,1.448,0.559,2.12,0.559
		c0.229,0,0.44-0.03,0.633-0.089c0.47-0.146,0.851-0.455,1.067-0.868c0.227-0.424,0.272-0.914,0.129-1.384
		c-0.206-0.668-0.857-1.342-1.943-2.011c1.982-0.76,2.796-1.764,2.419-2.99c-0.152-0.492-0.633-1.317-2.134-1.317
		c-0.446,0-0.957,0.069-1.547,0.21c0.52-1.165,0.68-2.09,0.475-2.754c-0.143-0.467-0.453-0.847-0.88-1.072
		c-0.421-0.219-0.906-0.266-1.378-0.12c-0.667,0.206-1.34,0.855-2.006,1.933c-0.394-1.045-1.147-2.493-2.459-2.493
		c-0.177,0-0.355,0.027-0.533,0.082c-1.226,0.379-1.599,1.615-1.113,3.68c-0.916-0.406-2.014-0.7-2.748-0.471
		c-0.471,0.144-0.852,0.452-1.078,0.877c-0.219,0.426-0.262,0.914-0.12,1.378c0.208,0.671,0.861,1.347,1.942,2.01
		c-0.746,0.283-1.312,0.593-1.717,0.938c-0.92,0.785-0.835,1.622-0.703,2.05c0.152,0.494,0.633,1.321,2.14,1.321
		C73.531,60.122,74.04,60.054,74.628,59.913z M72.38,58.359c-0.022-0.072-0.063-0.205,0.244-0.467
		c0.256-0.22,0.808-0.556,1.975-0.915c0.336-0.104,0.634-0.181,0.924-0.238c0.324-0.064,0.567-0.334,0.599-0.663
		c0.032-0.329-0.155-0.641-0.461-0.766c-0.324-0.134-0.627-0.283-0.868-0.413c-1.203-0.631-1.839-1.227-1.935-1.535
		c-0.026-0.087-0.02-0.173,0.016-0.24c0.033-0.062,0.102-0.112,0.19-0.14c0.032-0.011,0.091-0.022,0.188-0.022
		c0.475,0,1.265,0.273,2.165,0.748c0.312,0.168,0.582,0.333,0.828,0.496c0.273,0.183,0.634,0.163,0.889-0.044
		c0.254-0.208,0.344-0.558,0.221-0.862c-0.112-0.276-0.224-0.573-0.33-0.916c-0.513-1.664-0.418-2.51-0.007-2.624
		c0.226,0,0.751,0.47,1.292,2.23c0.106,0.34,0.181,0.646,0.241,0.931c0.067,0.321,0.336,0.561,0.663,0.592
		c0.328,0.029,0.636-0.155,0.762-0.457c0.114-0.272,0.245-0.558,0.413-0.875c0.633-1.199,1.228-1.832,1.534-1.926
		c0.09-0.028,0.175-0.021,0.24,0.013c0.066,0.036,0.118,0.102,0.144,0.186c0.087,0.283-0.053,1.072-0.729,2.355
		c-0.129,0.238-0.298,0.539-0.491,0.838c-0.18,0.277-0.157,0.64,0.056,0.892c0.212,0.252,0.566,0.338,0.87,0.205
		c0.267-0.115,0.559-0.219,0.893-0.321c0.788-0.242,1.43-0.365,1.908-0.365c0.62,0,0.679,0.189,0.7,0.26
		c0.099,0.319-0.549,0.872-2.215,1.385c-0.335,0.104-0.637,0.183-0.922,0.239c-0.323,0.064-0.566,0.332-0.6,0.66
		c-0.033,0.327,0.151,0.639,0.455,0.767c0.327,0.138,0.637,0.289,0.873,0.412c1.203,0.635,1.838,1.229,1.933,1.536
		c0.025,0.084,0.02,0.165-0.021,0.239c-0.033,0.064-0.096,0.111-0.185,0.139c-0.032,0.01-0.092,0.022-0.19,0.022
		c-0.477,0-1.284-0.28-2.166-0.752c-0.315-0.164-0.581-0.329-0.828-0.491c-0.272-0.179-0.634-0.162-0.888,0.047
		c-0.254,0.208-0.343,0.558-0.22,0.861c0.112,0.276,0.224,0.575,0.328,0.914c0.514,1.667,0.421,2.512,0.103,2.61
		c-0.034,0.011-0.064,0.016-0.092,0.016c-0.226,0-0.753-0.47-1.296-2.23c-0.104-0.339-0.179-0.648-0.241-0.938
		c-0.069-0.321-0.34-0.56-0.667-0.589c-0.022-0.002-0.045-0.003-0.066-0.003c-0.303,0-0.578,0.183-0.694,0.466
		c-0.111,0.271-0.242,0.56-0.404,0.871c-0.632,1.197-1.229,1.829-1.541,1.925c-0.089,0.027-0.172,0.023-0.229-0.007
		c-0.072-0.039-0.126-0.105-0.151-0.189c-0.097-0.31,0.094-1.158,0.742-2.368c0.119-0.233,0.289-0.525,0.481-0.82
		c0.18-0.276,0.158-0.638-0.054-0.891c-0.213-0.254-0.564-0.335-0.867-0.21c-0.272,0.115-0.563,0.22-0.898,0.323
		c-0.786,0.241-1.427,0.364-1.906,0.364C72.461,58.622,72.402,58.431,72.38,58.359z"/>
	<path fill="#E5E5E5" d="M90.005,61.205c0,0-0.221-0.021-0.587-0.021c-1.271,0-3.648,0.234-5.273,1.804
		c-1.102,1.064-1.598,2.508-1.819,3.688c0.815,0.819,1.284,1.58,1.322,1.644c0.193,0.318,0.122,0.73-0.165,0.967
		c-0.018,0.015-0.132,0.103-0.289,0.217c0.071,0.002,0.15,0.003,0.239,0.003c1.271,0,3.644-0.234,5.267-1.803
		c2.162-2.085,1.995-5.643,1.987-5.793C90.666,61.54,90.375,61.239,90.005,61.205z M87.657,66.625
		c-1.184,1.144-3.042,1.352-3.99,1.378c0.062-0.986,0.342-2.798,1.521-3.937c1.181-1.141,3.036-1.351,3.988-1.378
		C89.114,63.676,88.835,65.489,87.657,66.625z"/>
	<path fill="#E5E5E5" d="M83.647,68.32c-0.038-0.063-0.507-0.824-1.322-1.644c-0.848-0.852-2.069-1.767-3.579-2.027
		c-0.291-0.05-0.593-0.075-0.898-0.075c-2.605,0-4.855,1.822-4.95,1.899c-0.288,0.236-0.359,0.648-0.167,0.968
		c0.078,0.129,1.94,3.164,4.902,3.671c0.292,0.05,0.595,0.075,0.9,0.075c2.12,0,3.979-1.191,4.66-1.684
		c0.157-0.114,0.271-0.202,0.289-0.217C83.77,69.051,83.841,68.639,83.647,68.32z M77.887,69.634
		c-1.604-0.274-2.858-1.618-3.468-2.4c0.835-0.533,2.459-1.385,4.072-1.105c1.604,0.276,2.859,1.619,3.469,2.401
		C81.126,69.062,79.511,69.913,77.887,69.634z"/>
	<path fill="#E5E5E5" d="M106.699,112.202c-0.07,0.446-0.148,0.896-0.251,1.352c-0.112,0.497-0.239,0.964-0.372,1.41
		c0.472,0.192,0.928,0.404,1.366,0.638c0.18-0.566,0.339-1.142,0.469-1.718c0.126-0.56,0.228-1.116,0.308-1.665
		c-0.226,0.011-0.449,0.031-0.678,0.031C107.264,112.25,106.98,112.218,106.699,112.202z"/>
	<path fill="#E5E5E5" d="M105.587,116.391c-1.138,2.915-2.64,4.372-3.448,4.179c-0.818-0.185-1.518-2.204-1.313-5.248
		c-0.506-0.023-1.009-0.026-1.499,0.006c-0.104,1.681,0.026,3.267,0.439,4.481c0.715,0.426,1.497,0.746,2.333,0.935
		c0.582,0.132,1.177,0.198,1.768,0.198c0.244,0,0.485-0.013,0.726-0.035c0.904-0.924,1.708-2.31,2.339-3.875
		C106.504,116.794,106.051,116.584,105.587,116.391z"/>
	<path fill="#E5E5E5" d="M102.086,109.636c1.079-2.809,2.502-4.289,3.342-4.289c0.05,0,0.098,0.005,0.146,0.016
		c0.543,0.123,1.012,1.026,1.224,2.358c0.141,0.886,0.157,1.909,0.075,2.998c0.508,0.024,1.012,0.028,1.504-0.004
		c0.081-1.164,0.055-2.265-0.099-3.229c-0.082-0.516-0.197-0.98-0.343-1.395c-0.702-0.418-1.478-0.738-2.316-0.928
		c-0.582-0.131-1.177-0.198-1.768-0.198c-0.237,0-0.473,0.011-0.705,0.031c-0.934,0.94-1.762,2.375-2.404,3.994
		C101.169,109.229,101.621,109.44,102.086,109.636z"/>
	<path fill="#E5E5E5" d="M101.604,111.064c-0.473-0.193-0.93-0.406-1.368-0.641c-0.168,0.536-0.315,1.081-0.438,1.626
		c-0.132,0.582-0.237,1.175-0.319,1.766c0.497-0.023,1.002-0.021,1.513,0.008c0.07-0.465,0.157-0.944,0.27-1.443
		C101.365,111.918,101.482,111.483,101.604,111.064z"/>
	<path fill="#E5E5E5" d="M107.442,115.602c-0.438-0.233-0.895-0.445-1.366-0.638c-0.787-0.319-1.611-0.587-2.472-0.781
		c-0.878-0.198-1.752-0.312-2.613-0.359c-0.511-0.028-1.016-0.031-1.513-0.008c-1.218,0.059-2.386,0.271-3.463,0.639
		c0.094,0.492,0.233,0.976,0.421,1.444c0.89-0.309,1.865-0.504,2.89-0.571c0.49-0.032,0.993-0.029,1.499-0.006
		c0.811,0.038,1.633,0.14,2.449,0.324c0.802,0.181,1.575,0.438,2.312,0.745c0.464,0.193,0.917,0.403,1.344,0.641
		c0.896,0.497,1.694,1.088,2.369,1.745c0.367-0.343,0.7-0.721,0.999-1.127C109.479,116.86,108.515,116.173,107.442,115.602z"/>
	<path fill="#E5E5E5" d="M100.236,110.424c0.438,0.234,0.896,0.447,1.368,0.641c0.795,0.325,1.628,0.597,2.5,0.794
		s1.738,0.295,2.595,0.344c0.281,0.016,0.564,0.048,0.842,0.048c0.229,0,0.452-0.021,0.678-0.031
		c1.232-0.059,2.412-0.275,3.501-0.65c-0.088-0.496-0.224-0.979-0.401-1.443c-0.904,0.318-1.897,0.521-2.942,0.59
		c-0.492,0.032-0.996,0.028-1.504,0.004c-0.807-0.038-1.625-0.14-2.438-0.323c-0.815-0.185-1.601-0.445-2.349-0.76
		c-0.465-0.195-0.917-0.407-1.345-0.646c-0.92-0.515-1.735-1.128-2.418-1.81c-0.36,0.348-0.687,0.732-0.978,1.146
		C98.17,109.135,99.146,109.84,100.236,110.424z"/>
	<path fill="#E5E5E5" d="M105.948,103.7c-0.69-0.156-1.396-0.235-2.098-0.235c-4.459,0-8.261,3.043-9.246,7.399
		c-0.559,2.471-0.12,5.012,1.232,7.154c1.354,2.143,3.46,3.63,5.931,4.188c0.69,0.156,1.396,0.235,2.099,0.235
		c4.388,0,8.274-3.111,9.242-7.397C114.262,109.943,111.05,104.854,105.948,103.7z M111.646,114.714
		c-0.245,1.083-0.715,2.075-1.347,2.936c-0.299,0.406-0.632,0.784-0.999,1.127c-1.273,1.188-2.923,1.963-4.708,2.13
		c-0.24,0.022-0.481,0.035-0.726,0.035c-0.591,0-1.186-0.066-1.768-0.198c-0.836-0.188-1.618-0.509-2.333-0.935
		c-1.066-0.635-1.979-1.512-2.66-2.591c-0.267-0.423-0.487-0.865-0.669-1.319c-0.188-0.469-0.327-0.952-0.421-1.444
		c-0.205-1.065-0.194-2.17,0.052-3.26c0.24-1.062,0.685-2.027,1.278-2.868c0.291-0.413,0.617-0.798,0.978-1.146
		c1.282-1.232,2.966-2.024,4.822-2.185c0.232-0.021,0.468-0.031,0.705-0.031c0.591,0,1.186,0.067,1.768,0.198
		c0.839,0.189,1.614,0.51,2.316,0.928c1.563,0.931,2.749,2.365,3.384,4.034c0.178,0.465,0.313,0.947,0.401,1.443
		C111.9,112.582,111.887,113.647,111.646,114.714z"/>
	<path fill="#E5E5E5" d="M15.781,107.729c-0.036-0.245-0.149-0.456-0.291-0.645l-2.523,0.371c-0.078,0.218-0.111,0.455-0.075,0.699
		c0.044,0.298,0.179,0.564,0.374,0.773l2.385-0.352C15.774,108.323,15.825,108.03,15.781,107.729z"/>
	<path fill="#E5E5E5" d="M23.895,104.57l-0.445-3.017c-0.635-0.126-1.518-0.616-1.848-2.249l0.689,4.674
		c0.627,0.139,1.191,0.474,1.609,0.95C23.91,104.795,23.909,104.672,23.895,104.57z"/>
	<path fill="#E5E5E5" d="M22.425,94.734l0.6,4.078c0.016,0.109,0.042,0.191,0.063,0.287l-0.644-4.368L22.425,94.734z"/>
	<path fill="#E5E5E5" d="M21.495,106.219l1.349-0.199c-0.215-0.297-0.53-0.499-0.897-0.57c-0.452,0.399-1.118,0.754-1.63,0.902
		c-0.019,0.05-0.041,0.098-0.054,0.148c0.112-0.022,0.252-0.059,0.382-0.094C20.904,106.338,21.19,106.264,21.495,106.219z"/>
	<path fill="#E5E5E5" d="M11.394,107.688l-0.964,0.142c-0.691,0.108-1.334-0.388-1.434-1.064L7.107,93.957
		c-0.049-0.334,0.035-0.667,0.236-0.938c0.201-0.271,0.496-0.447,0.829-0.496l10.917-1.609c0.062-0.01,0.125-0.015,0.187-0.015
		c0.62,0,1.155,0.464,1.245,1.079l0.22,1.488l0.434-0.064c0.083-0.051,0.178-0.086,0.28-0.102l0.762-0.112l-0.211-1.428
		c-0.215-1.478-1.604-2.548-3.136-2.331L7.955,91.039c-0.729,0.107-1.375,0.492-1.815,1.085s-0.624,1.321-0.517,2.052l1.889,12.809
		c0.199,1.346,1.373,2.359,2.731,2.359c0.133,0,0.269-0.01,0.405-0.029l1.006-0.148c-0.115-0.249-0.206-0.511-0.248-0.792
		C11.373,108.142,11.375,107.913,11.394,107.688z"/>
	<path fill="#E5E5E5" d="M18.736,106.606l-1.658,0.244c0.085,0.21,0.153,0.429,0.188,0.66c0.042,0.283,0.028,0.56-0.01,0.83
		l1.742-0.256c-0.115-0.249-0.207-0.512-0.248-0.793C18.716,107.062,18.717,106.833,18.736,106.606z"/>
	<path fill="#E5E5E5" d="M27.381,100.308c0.028,0.195-0.021,0.396-0.141,0.555c-0.118,0.16-0.296,0.266-0.492,0.295
		c-0.316,0.046-0.552,0.082-0.742,0.111l0.434,2.945c0.05,0.333-0.034,0.666-0.235,0.937s-0.495,0.447-0.829,0.496l-0.95,0.14
		c0.082,0.205,0.146,0.418,0.18,0.644c0.042,0.286,0.029,0.569-0.011,0.849l1-0.147c0.729-0.107,1.374-0.493,1.814-1.086
		c0.44-0.592,0.623-1.32,0.516-2.05L27.381,100.308z"/>
	<polygon fill="#E5E5E5" points="26.656,95.388 26.653,95.377 27.204,99.105 	"/>
	<path fill="#E5E5E5" d="M23.12,106.647c-0.034-0.237-0.142-0.442-0.276-0.628l-1.349,0.199c-0.305,0.045-0.591,0.119-0.851,0.188
		c-0.13,0.035-0.27,0.071-0.382,0.094c-0.047,0.185-0.058,0.378-0.028,0.572c0.051,0.344,0.227,0.642,0.471,0.862
		c0.106-0.024,0.212-0.049,0.322-0.078c0.21-0.055,0.44-0.117,0.687-0.153l1.264-0.187C23.113,107.25,23.165,106.949,23.12,106.647z
		"/>
	<path fill="#E5E5E5" d="M19.857,95.113l1.083-0.16l-0.118-0.802c-0.045-0.307,0.104-0.597,0.353-0.749l-0.434,0.064l-1.103,0.162
		c-1.506,0.223-2.552,1.629-2.331,3.137l1.439,9.764c0.058-0.513,0.237-1.006,0.554-1.432c0.186-0.25,0.413-0.455,0.659-0.632
		l-1.168-7.918C18.69,95.858,19.169,95.215,19.857,95.113z"/>
	<path fill="#E5E5E5" d="M23.738,94.541c0.062-0.01,0.125-0.014,0.186-0.014c0.619,0,1.152,0.461,1.246,1.073l-0.008-0.053
		c-0.1-0.677-0.743-1.175-1.433-1.065l-1.313,0.193l0.009,0.059l0.02-0.003L23.738,94.541z"/>
	<path fill="#E5E5E5" d="M21.175,93.402c-0.249,0.152-0.397,0.442-0.353,0.749l0.118,0.802l0.6,4.078
		c0.015,0.102,0.042,0.179,0.062,0.273c0.33,1.633,1.213,2.123,1.848,2.249c0.161,0.031,0.311,0.048,0.424,0.048
		c0.274,0,0.497-0.052,0.62-0.087c0.445-0.066,0.596-0.094,0.764-0.123c0.15-0.027,0.322-0.058,0.749-0.123
		c0.19-0.029,0.426-0.065,0.742-0.111c0.196-0.029,0.374-0.135,0.492-0.295c0.119-0.159,0.169-0.359,0.141-0.555
		c0-0.001,0-0.001,0-0.002l-0.177-1.2l-0.551-3.729l-0.007-0.048c-0.218-1.479-1.623-2.547-3.137-2.331l-1.293,0.19l-0.762,0.112
		C21.353,93.316,21.258,93.352,21.175,93.402z M24.992,99.915c-0.165,0.029-0.313,0.056-0.777,0.124
		c-0.041,0.006-0.1,0.021-0.139,0.034c-0.001,0.001-0.087,0.028-0.203,0.028c-0.381,0-0.64-0.35-0.785-1.002
		c-0.021-0.096-0.048-0.178-0.063-0.287l-0.6-4.078l-0.009-0.059l1.313-0.193c0.689-0.109,1.333,0.389,1.433,1.065l0.008,0.053
		l0.617,4.184C25.325,99.854,25.151,99.887,24.992,99.915z"/>
	<path fill="#E5E5E5" d="M17.266,107.511c-0.034-0.231-0.103-0.45-0.188-0.66c-0.494-1.227-1.781-2.04-3.174-1.837
		c-1.382,0.204-2.394,1.339-2.51,2.675c-0.02,0.225-0.021,0.453,0.013,0.686c0.042,0.281,0.133,0.543,0.248,0.792
		c0.473,1.027,1.507,1.737,2.679,1.737c0.144,0,0.289-0.011,0.435-0.032c1.331-0.196,2.312-1.259,2.487-2.53
		C17.294,108.07,17.308,107.794,17.266,107.511z M14.549,109.387c-0.497,0.073-0.969-0.117-1.284-0.458
		c-0.194-0.209-0.33-0.476-0.374-0.773c-0.036-0.244-0.003-0.481,0.075-0.699c0.176-0.492,0.604-0.877,1.156-0.958
		c0.073-0.011,0.145-0.016,0.216-0.016c0.47,0,0.882,0.244,1.151,0.603c0.142,0.188,0.255,0.399,0.291,0.645
		c0.044,0.301-0.007,0.594-0.131,0.848C15.446,108.998,15.045,109.313,14.549,109.387z"/>
	<path fill="#E5E5E5" d="M24.604,106.43c-0.033-0.226-0.098-0.438-0.18-0.644c-0.126-0.316-0.304-0.605-0.524-0.857
		c-0.418-0.477-0.982-0.812-1.609-0.95c-0.336-0.073-0.688-0.099-1.045-0.046c-0.475,0.07-0.908,0.261-1.286,0.533
		c-0.246,0.177-0.474,0.382-0.659,0.632c-0.316,0.426-0.496,0.919-0.554,1.432c-0.003,0.025-0.009,0.051-0.011,0.077
		c-0.02,0.227-0.021,0.455,0.014,0.686c0.041,0.281,0.133,0.544,0.248,0.793c0.473,1.025,1.506,1.735,2.677,1.735
		c0.144,0,0.288-0.01,0.435-0.031c0.781-0.115,1.472-0.528,1.943-1.163c0.299-0.402,0.473-0.866,0.541-1.348
		C24.634,106.999,24.646,106.716,24.604,106.43z M22.849,107.731c-0.232,0.313-0.573,0.517-0.958,0.573
		c-0.447,0.068-0.873-0.087-1.186-0.37c-0.244-0.221-0.42-0.519-0.471-0.862c-0.029-0.194-0.019-0.388,0.028-0.572
		c0.013-0.051,0.035-0.099,0.054-0.148c0.047-0.126,0.105-0.249,0.188-0.36c0.232-0.313,0.573-0.518,0.961-0.574
		c0.072-0.011,0.145-0.017,0.216-0.017c0.093,0,0.176,0.032,0.265,0.049c0.367,0.071,0.683,0.273,0.897,0.57
		c0.135,0.186,0.242,0.391,0.276,0.628c0.045,0.302-0.007,0.603-0.143,0.869C22.94,107.591,22.899,107.663,22.849,107.731z"/>
	<path fill="#E5E5E5" d="M-29.947,59.949c-0.445-0.368-0.881-0.71-1.288-1.03l-0.25-0.197l0.063-0.226
		c0.499-1.716,2.946-12.537,1.577-13.774c-0.761-0.689-1.731-0.891-2.586-1.067c-0.385-0.08-0.749-0.155-1.052-0.266
		c-0.306-0.112-0.633-0.289-0.979-0.476c-0.738-0.399-1.576-0.852-2.554-0.852c-0.009,0-0.102,0.002-0.111,0.002
		c-1.031,0.037-1.898,0.582-2.663,1.062c-0.348,0.219-0.676,0.425-0.998,0.575s-0.692,0.269-1.084,0.394
		c-0.859,0.275-1.833,0.588-2.524,1.352c-0.688,0.762-0.889,1.729-1.065,2.585c-0.08,0.386-0.156,0.75-0.267,1.055
		c-0.111,0.306-0.288,0.632-0.475,0.979c-0.415,0.768-0.885,1.639-0.849,2.663c0.066,1.843,9.784,6.873,11.471,7.627l0.357,0.16
		c-0.044,0.575-0.069,1.201-0.076,1.928c-0.006,0.983,0.057,1.89,0.178,2.552c0.076,0.415,0.308,1.68,1.292,1.68
		c0.01,0,0.027,0,0.036-0.001c0.323-0.012,0.654-0.082,0.975-0.206c0.25-0.093,0.51-0.22,0.818-0.4
		c0.18-0.106,0.356-0.217,0.533-0.328l0.158-0.1c0.198-0.122,0.396-0.24,0.602-0.335c0.202-0.095,0.42-0.171,0.701-0.263
		c0.237-0.075,0.476-0.151,0.713-0.234c0.328-0.116,0.591-0.232,0.826-0.363c0.313-0.175,0.572-0.376,0.792-0.617
		c0.68-0.75-0.156-1.764-0.431-2.096C-28.54,61.205-29.193,60.573-29.947,59.949z M-29.198,63.133
		c-0.188,0.104-0.39,0.187-0.596,0.259c-0.221,0.078-0.445,0.149-0.744,0.244c-0.28,0.093-0.554,0.19-0.806,0.309
		c-0.253,0.118-0.504,0.264-0.758,0.42l-0.166,0.104c-0.165,0.104-0.329,0.207-0.495,0.304c-0.229,0.135-0.414,0.227-0.588,0.291
		c-0.069,0.026-0.135,0.049-0.2,0.065c-0.029-0.093-0.063-0.225-0.096-0.406c-0.105-0.572-0.16-1.379-0.154-2.268
		c0.009-0.911,0.046-1.65,0.117-2.328c0.034-0.322-0.144-0.63-0.439-0.763l-0.847-0.379c-3.933-1.757-9.873-5.458-10.584-6.426
		c0.02-0.58,0.336-1.165,0.67-1.782c0.204-0.378,0.416-0.769,0.564-1.177s0.239-0.844,0.327-1.266
		c0.152-0.732,0.295-1.424,0.71-1.883c0.419-0.465,1.123-0.689,1.868-0.929c0.418-0.134,0.852-0.272,1.26-0.463
		c0.407-0.189,0.792-0.431,1.163-0.664c0.663-0.417,1.29-0.812,1.975-0.835c0.599,0,1.202,0.326,1.841,0.671
		c0.377,0.204,0.768,0.415,1.177,0.565c0.407,0.147,0.842,0.238,1.262,0.325c0.688,0.143,1.339,0.277,1.796,0.637
		c0.29,1.186-0.715,8.166-1.925,12.324l-0.2,0.713c-0.081,0.29,0.019,0.601,0.253,0.789l0.65,0.513
		c0.398,0.312,0.824,0.647,1.259,1.007c0.683,0.564,1.264,1.125,1.638,1.579c0.117,0.142,0.196,0.252,0.248,0.334
		C-29.072,63.059-29.132,63.096-29.198,63.133z"/>
	<path fill="#E5E5E5" d="M-39.842,52.59c-0.305-0.278-0.78-0.256-1.06,0.051c-0.278,0.306-0.256,0.78,0.051,1.059l1.154,1.049
		c0.144,0.131,0.324,0.195,0.504,0.195c0.204,0,0.407-0.083,0.555-0.246c0.278-0.306,0.256-0.78-0.051-1.059L-39.842,52.59z"/>
	<path fill="#E5E5E5" d="M-37.916,48.444c-0.174-0.376-0.62-0.539-0.997-0.363c-0.375,0.174-0.538,0.62-0.364,0.996l1.604,3.448
		c0.127,0.273,0.398,0.434,0.681,0.434c0.106,0,0.213-0.022,0.316-0.07c0.375-0.174,0.538-0.62,0.364-0.996L-37.916,48.444z"/>
	<path fill="#E5E5E5" d="M-34.011,49.434c-0.414,0.016-0.736,0.364-0.721,0.777l0.06,1.558c0.016,0.404,0.348,0.722,0.749,0.722
		c0.01,0,0.02,0,0.029-0.001c0.414-0.016,0.736-0.364,0.721-0.777l-0.06-1.558C-33.249,49.74-33.59,49.401-34.011,49.434z"/>
	<path fill="#E5E5E5" d="M-97.962,85.197c0.106,0,0.212-0.022,0.309-0.066c0.3-0.136,7.342-3.393,6.264-9.053l-1.975-10.367
		c-0.079-0.407-0.306-0.76-0.641-0.995c-0.436-0.304-5.685-1.243-7.329-1.243c-0.249,0-0.458,0.017-0.614,0.047
		c-0.393,0.074-1.164,0.434-2.051,0.909v1.703c1.017-0.585,1.942-1.065,2.332-1.14c0.085-0.016,0.199-0.02,0.334-0.02
		c1.614,0,5.664,0.803,6.499,1.018l-0.002,0.004l1.975,10.365c0.775,4.066-4.219,6.809-5.232,7.319
		c-0.808-0.099-3.903-0.58-5.904-2.218v1.84c2.574,1.575,5.765,1.876,5.974,1.894C-98.005,85.196-97.983,85.197-97.962,85.197z"/>
	<path fill="#E5E5E5" d="M-100.592,77.554c0.13,0.098,0.289,0.149,0.449,0.149c0.044,0,0.089-0.004,0.133-0.012
		c0.205-0.037,0.385-0.157,0.498-0.333l3.845-5.983c0.224-0.349,0.123-0.812-0.226-1.036c-0.348-0.225-0.812-0.124-1.036,0.226
		l-3.41,5.306l-2.553-1.91c-0.333-0.248-0.802-0.182-1.05,0.151c-0.029,0.038-0.039,0.083-0.059,0.124v0.669
		c0.05,0.098,0.117,0.187,0.21,0.257L-100.592,77.554z"/>
	<path fill="#E5E5E5" d="M-47.159,109.668c-0.65-0.326-1.417-1.014-2.228-1.74c-1.545-1.385-3.297-2.955-5.521-3.389
		c-0.415-0.081-0.854-0.122-1.305-0.122c-1.788,0-3.54,0.63-5.085,1.186c-1.025,0.369-1.993,0.717-2.718,0.774
		c-2.76,0.222-4.286,0.976-4.533,2.241c-0.248,1.264,0.883,2.535,3.36,3.781c2.146,1.075,5.071,2.008,8.236,2.624
		c2.436,0.477,4.823,0.728,6.905,0.728c0.604,0,1.182-0.021,1.714-0.063c2.764-0.222,4.29-0.975,4.536-2.239
		C-43.551,112.184-44.682,110.911-47.159,109.668z M-48.454,114.191c-2.23,0.18-5.203-0.052-8.212-0.641
		c-3.035-0.591-5.824-1.477-7.851-2.492c-2.227-1.12-2.604-1.934-2.561-2.153c0.043-0.22,0.699-0.834,3.182-1.032
		c0.923-0.074,1.983-0.455,3.105-0.858c1.431-0.515,3.052-1.098,4.578-1.098c0.354,0,0.697,0.032,1.018,0.095
		c1.819,0.354,3.407,1.777,4.808,3.033c0.888,0.796,1.727,1.547,2.556,1.963c2.228,1.118,2.604,1.934,2.561,2.153
		C-45.313,113.381-45.968,113.993-48.454,114.191z"/>
	<path fill="#E5E5E5" d="M-61.716,109.23c-0.248-0.09-0.494-0.183-0.739-0.279c-0.386-0.153-0.821,0.036-0.973,0.422
		c-0.152,0.385,0.036,0.82,0.421,0.973c0.258,0.103,0.517,0.199,0.778,0.295c0.084,0.03,0.171,0.045,0.256,0.045
		c0.306,0,0.594-0.188,0.705-0.493C-61.126,109.803-61.327,109.372-61.716,109.23z"/>
	<path fill="#E5E5E5" d="M-55.715,110.945c-0.268-0.045-0.538-0.093-0.803-0.145c-0.41-0.081-0.8,0.187-0.879,0.594
		c-0.079,0.406,0.187,0.8,0.593,0.879c0.278,0.054,0.561,0.104,0.842,0.15c0.042,0.008,0.083,0.011,0.125,0.011
		c0.36,0,0.677-0.26,0.739-0.626C-55.031,111.399-55.307,111.013-55.715,110.945z"/>
	<path fill="#E5E5E5" d="M-49.818,111.416c-0.264-0.004-0.528-0.01-0.794-0.02c-0.431,0.001-0.762,0.309-0.776,0.723
		c-0.015,0.414,0.309,0.762,0.723,0.777c0.277,0.01,0.552,0.016,0.827,0.02c0.003,0,0.007,0,0.011,0c0.409,0,0.744-0.329,0.75-0.739
		C-49.073,111.763-49.404,111.422-49.818,111.416z"/>
	<path fill="#E5E5E5" d="M-56.153,119.65c0.618,0,1.203-0.078,1.715-0.233c0.396-0.12,0.62-0.539,0.5-0.936
		c-0.12-0.397-0.541-0.617-0.936-0.5c-0.658,0.2-1.542,0.224-2.427,0.063c-0.884-0.157-1.707-0.486-2.258-0.901
		c-0.331-0.25-0.801-0.185-1.05,0.147c-0.25,0.33-0.184,0.801,0.147,1.05c0.744,0.562,1.773,0.98,2.896,1.181
		C-57.087,119.607-56.611,119.65-56.153,119.65z"/>
	<path fill="#E5E5E5" d="M-52.865,124.493c-1.526,0.381-3.48,0.391-5.504,0.026c-2.025-0.363-3.855-1.051-5.152-1.936
		c-0.342-0.234-0.808-0.147-1.042,0.196c-0.233,0.342-0.145,0.809,0.197,1.042c1.468,1.002,3.503,1.773,5.732,2.174
		c1.071,0.192,2.129,0.288,3.133,0.288c1.084,0,2.103-0.112,3-0.336c0.402-0.101,0.646-0.507,0.546-0.909
		C-52.056,124.638-52.463,124.388-52.865,124.493z"/>
	<path fill="#E5E5E5" d="M-62.425,120.135c-0.233,0.342-0.145,0.809,0.198,1.042c1.061,0.722,2.52,1.275,4.109,1.56
		c0.765,0.138,1.522,0.206,2.241,0.206c0.779,0,1.512-0.081,2.157-0.242c0.402-0.101,0.646-0.507,0.546-0.909
		c-0.101-0.401-0.508-0.649-0.909-0.546c-1.025,0.255-2.398,0.262-3.771,0.015c-1.366-0.244-2.652-0.727-3.529-1.323
		C-61.725,119.704-62.19,119.791-62.425,120.135z"/>
	<path fill="#E5E5E5" d="M103.104-29.839c0.019-0.285-0.126-0.556-0.374-0.698l-2.824-1.627l-0.262-3.248
		c-0.023-0.284-0.206-0.531-0.472-0.637c-0.262-0.104-0.566-0.052-0.779,0.141l-2.418,2.183l-3.169-0.756
		c-0.275-0.064-0.568,0.031-0.751,0.25c-0.183,0.22-0.224,0.524-0.107,0.785l1.328,2.976l-1.697,2.783
		c-0.148,0.244-0.146,0.551,0.007,0.792c0.153,0.241,0.43,0.375,0.713,0.344l3.24-0.345l2.12,2.474
		c0.145,0.168,0.354,0.262,0.569,0.262c0.062,0,0.124-0.008,0.186-0.023c0.276-0.07,0.489-0.292,0.548-0.571l0.675-3.188
		l3.008-1.251C102.908-29.305,103.087-29.555,103.104-29.839z M98.696-29.178c-0.228,0.095-0.395,0.295-0.445,0.537l-0.441,2.087
		l-1.389-1.62c-0.144-0.167-0.352-0.262-0.569-0.262c-0.026,0-0.053,0.001-0.079,0.004l-2.121,0.226l1.111-1.822
		c0.128-0.211,0.145-0.471,0.044-0.696l-0.869-1.948l2.074,0.495c0.241,0.058,0.493-0.007,0.677-0.173l1.583-1.429l0.171,2.126
		c0.021,0.246,0.16,0.466,0.374,0.589l1.849,1.065L98.696-29.178z"/>
	<path fill="#E5E5E5" d="M99.578-17.542c0.192,0.076,0.395,0.115,0.601,0.115c0.222,0,0.438-0.044,0.649-0.134
		c0.396-0.172,0.705-0.49,0.867-0.896l6.662-16.772c0.16-0.405,0.155-0.847-0.017-1.249c-0.174-0.4-0.492-0.709-0.896-0.87
		L94.043-42.67c-0.401-0.156-0.858-0.146-1.237,0.02c-0.403,0.17-0.714,0.489-0.876,0.896l-6.661,16.772
		c-0.162,0.405-0.155,0.849,0.016,1.243c0.171,0.403,0.489,0.713,0.896,0.875c0.073,0.029,0.151,0.046,0.23,0.051l7.327,0.448
		l5.636,4.702C99.436-17.612,99.504-17.571,99.578-17.542z M94.075-23.847l-7.417-0.454l0.007-0.024
		c-0.001-0.002-0.002-0.1-0.003-0.102l6.728-16.842c0.003-0.001,0.102-0.004,0.104-0.006l13.398,5.323
		c0.041,0.017,0.062,0.048,0.071,0.069c0.008,0.019,0.019,0.056,0,0.102l-6.661,16.77c-0.019,0.046-0.053,0.066-0.065,0.072
		c-0.013,0.005-0.025,0.009-0.037,0.011l-5.689-4.746C94.387-23.777,94.234-23.837,94.075-23.847z"/>
	<path fill="#E5E5E5" d="M75.344-79.976c0.174-0.625,0.094-1.279-0.226-1.843c-0.318-0.564-0.838-0.969-1.46-1.141
		c-1.256-0.354-2.633,0.428-2.982,1.685c-0.358,1.287,0.397,2.625,1.687,2.985c0.212,0.058,0.43,0.088,0.647,0.088
		C74.095-78.202,75.055-78.932,75.344-79.976z M73.898-80.377c-0.133,0.477-0.657,0.771-1.135,0.642
		c-0.491-0.137-0.779-0.646-0.643-1.137c0.111-0.398,0.476-0.677,0.887-0.677c0.083,0,0.166,0.011,0.249,0.035
		c0.237,0.065,0.435,0.219,0.556,0.434C73.935-80.865,73.965-80.616,73.898-80.377z"/>
	<path fill="#E5E5E5" d="M74.977-73.151c0.744,1.316,1.946,2.722,3.087,2.722c0.225,0,0.433-0.053,0.622-0.16
		c1.179-0.67,0.707-2.742-0.284-4.497c-0.742-1.315-1.943-2.719-3.087-2.719c-0.225,0-0.435,0.054-0.621,0.16
		c-0.334,0.188-0.861,0.704-0.644,2.038C74.17-74.866,74.499-73.994,74.977-73.151z M77.095-74.349
		c0.605,1.072,0.795,1.94,0.788,2.344c-0.35-0.203-0.995-0.813-1.602-1.885s-0.795-1.94-0.787-2.343
		C75.843-76.032,76.489-75.422,77.095-74.349z"/>
	<path fill="#E5E5E5" d="M70.707-83.445c0.224,0,0.433-0.054,0.618-0.159c0.334-0.188,0.863-0.704,0.645-2.041
		c-0.121-0.741-0.45-1.614-0.927-2.458c-0.743-1.315-1.945-2.72-3.086-2.72c-0.225,0-0.434,0.054-0.622,0.16
		c-1.18,0.669-0.708,2.739,0.283,4.495C68.362-84.851,69.564-83.445,70.707-83.445z M69.737-87.364
		c0.605,1.072,0.796,1.94,0.789,2.344c-0.351-0.203-0.996-0.813-1.602-1.884c-0.605-1.072-0.795-1.939-0.788-2.343
		C68.486-89.045,69.131-88.435,69.737-87.364z"/>
	<path fill="#E5E5E5" d="M75.889-83.345c-0.132,0.476-0.018,0.826,0.101,1.035c0.146,0.26,0.529,0.697,1.444,0.697
		c0.841,0,1.953-0.357,3.051-0.979c0.843-0.477,1.576-1.055,2.062-1.628c0.875-1.031,0.689-1.745,0.5-2.08
		c-0.18-0.317-0.577-0.695-1.445-0.695c-0.841,0-1.953,0.357-3.051,0.979C77.449-85.394,76.172-84.365,75.889-83.345z M79.29-84.711
		c1.042-0.59,1.923-0.791,2.339-0.784c-0.205,0.351-0.815,0.994-1.884,1.597c-1.043,0.591-1.922,0.8-2.339,0.784
		C77.61-83.463,78.22-84.106,79.29-84.711z"/>
	<path fill="#E5E5E5" d="M70.031-78.944c-0.181-0.316-0.576-0.693-1.443-0.693c-0.84,0-1.952,0.356-3.053,0.978
		c-0.844,0.478-1.575,1.055-2.062,1.627c-0.876,1.032-0.688,1.747-0.5,2.08c0.18,0.317,0.575,0.695,1.443,0.695
		c0.84,0,1.953-0.356,3.054-0.978C69.227-76.229,70.7-77.76,70.031-78.944z M66.732-76.541c-1.042,0.59-1.934,0.777-2.341,0.784
		c0.205-0.35,0.814-0.993,1.882-1.596c1.043-0.589,1.877-0.772,2.34-0.784C68.407-77.786,67.799-77.144,66.732-76.541z"/>
	<path fill="#E5E5E5" d="M78.559-80.844c-1.685,0-2.133,0.711-2.25,1.135c-0.363,1.309,1.435,2.44,3.378,2.979
		c0.761,0.211,1.515,0.322,2.179,0.322c0.001,0,0,0,0.001,0c1.686,0,2.136-0.709,2.253-1.133c0.362-1.308-1.436-2.439-3.38-2.979
		C79.978-80.732,79.223-80.844,78.559-80.844z M80.088-78.175c-1.184-0.329-1.93-0.806-2.211-1.097
		c0.368-0.099,1.453-0.083,2.461,0.196c1.182,0.329,1.928,0.805,2.211,1.096C82.18-77.881,81.092-77.896,80.088-78.175z"/>
	<path fill="#E5E5E5" d="M67.462-80.408c1.685,0,2.134-0.71,2.251-1.133c0.363-1.31-1.436-2.441-3.38-2.981
		c-0.761-0.21-1.514-0.322-2.178-0.322c-1.686,0-2.136,0.71-2.255,1.135c-0.363,1.307,1.436,2.438,3.379,2.978
		C66.042-80.52,66.796-80.408,67.462-80.408z M65.932-83.077c1.184,0.329,1.93,0.806,2.212,1.098
		c-0.372,0.098-1.457,0.082-2.462-0.197c-1.181-0.328-1.928-0.805-2.211-1.095C63.84-83.372,64.927-83.356,65.932-83.077z"/>
	<path fill="#E5E5E5" d="M73.926-83.923c0.105,0.029,0.216,0.044,0.326,0.044c1.257,0,2.216-1.844,2.654-3.423
		c0.259-0.934,0.368-1.86,0.307-2.608c-0.111-1.348-0.748-1.721-1.118-1.824c-0.105-0.029-0.215-0.044-0.325-0.044
		c-1.258,0-2.216,1.844-2.654,3.423c-0.259,0.934-0.368,1.86-0.307,2.608C72.92-84.398,73.557-84.025,73.926-83.923z M74.561-87.954
		c0.33-1.188,0.81-1.936,1.101-2.215c0.104,0.389,0.13,1.277-0.2,2.465c-0.33,1.187-0.81,1.935-1.101,2.215
		C74.256-85.878,74.23-86.766,74.561-87.954z"/>
	<path fill="#E5E5E5" d="M72.904-72.896c0.54-1.944,0.499-4.069-0.81-4.433c-0.105-0.029-0.215-0.044-0.325-0.044
		c-1.259,0-2.218,1.844-2.656,3.423c-0.539,1.942-0.498,4.066,0.812,4.433c0.105,0.029,0.215,0.044,0.325,0.044c0,0,0,0,0.001,0
		C71.507-69.473,72.466-71.317,72.904-72.896z M70.359-71.083c-0.105-0.389-0.131-1.277,0.199-2.466
		c0.33-1.187,0.81-1.935,1.101-2.214c0.104,0.39,0.13,1.278-0.2,2.465C71.129-72.109,70.649-71.362,70.359-71.083z"/>
	<path fill="#E5E5E5" d="M133.388,2.715c-3.255,0-6,2.336-6.527,5.555c-0.286,1.745,0.125,3.497,1.157,4.933s2.562,2.384,4.309,2.67
		c0.356,0.058,0.719,0.088,1.077,0.088c0.923,0,1.795-0.205,2.597-0.547v-1.656c-0.764,0.449-1.652,0.704-2.597,0.704
		c-0.277,0-0.559-0.023-0.835-0.068c-1.351-0.221-2.534-0.955-3.333-2.065c-0.798-1.111-1.116-2.466-0.895-3.815
		c0.407-2.49,2.53-4.297,5.047-4.297c0.277,0,0.559,0.023,0.835,0.068c0.639,0.104,1.236,0.333,1.777,0.652v-1.68
		c-0.487-0.208-0.999-0.365-1.535-0.453C134.108,2.745,133.746,2.715,133.388,2.715z"/>
	<path fill="#E5E5E5" d="M126.109,13.65l-1.598,1.147c-0.337,0.242-0.413,0.71-0.172,1.047c0.146,0.204,0.377,0.312,0.61,0.312
		c0.151,0,0.304-0.046,0.437-0.141l1.598-1.147c0.337-0.242,0.413-0.71,0.172-1.047C126.915,13.486,126.448,13.41,126.109,13.65z"/>
	<path fill="#E5E5E5" d="M127.864,2.927c0.146,0.204,0.377,0.312,0.61,0.312c0.151,0,0.304-0.046,0.437-0.141
		c0.336-0.242,0.413-0.71,0.172-1.047l-1.147-1.599c-0.241-0.336-0.708-0.412-1.047-0.172c-0.336,0.242-0.413,0.71-0.172,1.047
		L127.864,2.927z"/>
	<path fill="#E5E5E5" d="M125.072,8.727c0.36,0,0.679-0.261,0.739-0.628c0.067-0.409-0.21-0.794-0.619-0.862l-1.941-0.318
		c-0.406-0.064-0.794,0.211-0.861,0.619c-0.067,0.409,0.21,0.794,0.619,0.862l1.941,0.318
		C124.991,8.724,125.032,8.727,125.072,8.727z"/>
	<path fill="#E5E5E5" d="M134.637,1.755c0.041,0.007,0.082,0.01,0.122,0.01c0.36,0,0.679-0.261,0.739-0.628l0.318-1.941
		c0.067-0.409-0.21-0.794-0.619-0.862c-0.409-0.068-0.794,0.211-0.861,0.619l-0.318,1.941C133.95,1.302,134.228,1.688,134.637,1.755
		z"/>
	<path fill="#E5E5E5" d="M131.594,20.343c0.041,0.007,0.082,0.01,0.122,0.01c0.36,0,0.679-0.261,0.739-0.629l0.318-1.94
		c0.067-0.408-0.21-0.794-0.619-0.861c-0.408-0.068-0.794,0.21-0.861,0.619l-0.318,1.94
		C130.907,19.89,131.185,20.275,131.594,20.343z"/>
	<path fill="#E5E5E5" d="M133.05,6.064l-0.435,2.655l-1.096-1.042c-0.3-0.287-0.777-0.274-1.06,0.026
		c-0.286,0.3-0.274,0.775,0.026,1.061l2.123,2.02c0.142,0.135,0.327,0.207,0.517,0.207c0.08,0,0.16-0.013,0.239-0.039
		c0.263-0.088,0.456-0.315,0.501-0.59l0.664-4.055c0.066-0.409-0.21-0.794-0.619-0.861C133.504,5.379,133.117,5.656,133.05,6.064z"
		/>
	<path fill="#E5E5E5" d="M132.816-89.792c0.138,0.108,0.301,0.161,0.463,0.161c0.223,0,0.442-0.098,0.59-0.286
		c0.257-0.325,0.2-0.797-0.125-1.053l-1.18-0.929c-0.326-0.257-0.798-0.199-1.053,0.125c-0.257,0.325-0.2,0.797,0.125,1.053
		L132.816-89.792z"/>
	<path fill="#E5E5E5" d="M135.673-85.499c-0.035-0.299-0.043-0.597-0.038-0.893c-0.641-0.067-1.308-0.056-2.016,0.044
		c-0.4,0.057-0.683,0.42-0.641,0.822c0.025,0.245,0.622,5.546,3.021,8.388v-2.828c-0.823-1.79-1.247-3.874-1.423-4.966
		c0.497-0.021,0.968,0.018,1.423,0.113v-0.158C135.827-85.095,135.699-85.275,135.673-85.499z"/>
	<path fill="#E5E5E5" d="M135.673-85.499c0.026,0.224,0.154,0.404,0.327,0.522v-3.457c-0.229,0.654-0.353,1.341-0.365,2.042
		C135.63-86.096,135.638-85.798,135.673-85.499z"/>
	<path fill="#E5E5E5" d="M23.057,13.653L21.575,1.856c-0.024-0.198-0.127-0.377-0.284-0.499c-0.156-0.122-0.354-0.175-0.554-0.152
		L-0.049,3.816C-0.46,3.868-0.752,4.243-0.7,4.654l1.481,11.797c0.025,0.198,0.127,0.377,0.284,0.5
		c0.132,0.103,0.294,0.157,0.46,0.157c0.031,0,0.062-0.002,0.093-0.006l20.788-2.611C22.817,14.438,23.108,14.063,23.057,13.653z
		 M2.176,15.52L0.881,5.211l19.299-2.425l1.294,10.309L2.176,15.52z"/>
	<path fill="#E5E5E5" d="M10.691,5.26C8.544,5.532,7.018,7.497,7.288,9.64c0.245,1.958,1.917,3.436,3.889,3.436
		c0.162,0,0.325-0.01,0.492-0.031c2.144-0.272,3.669-2.238,3.4-4.382C14.804,6.545,12.876,4.991,10.691,5.26z M11.481,11.557
		c-1.333,0.165-2.542-0.793-2.705-2.104c-0.167-1.324,0.777-2.537,2.102-2.705c0.102-0.013,0.204-0.019,0.304-0.019
		c1.216,0,2.248,0.912,2.399,2.12C13.747,10.174,12.804,11.389,11.481,11.557z"/>
	<path fill="#E5E5E5" d="M5.287,5.807L2.879,6.109c-0.411,0.052-0.702,0.427-0.65,0.838c0.048,0.379,0.371,0.656,0.743,0.656
		c0.031,0,0.063-0.002,0.095-0.006l2.408-0.303c0.411-0.052,0.702-0.427,0.65-0.838C6.073,6.046,5.7,5.756,5.287,5.807z"/>
	<path fill="#E5E5E5" d="M-16.058-96.343c-1.433-0.396-2.942-0.468-4.396-0.211c-0.285,0.05-0.515,0.26-0.592,0.539
		c-0.077,0.278,0.013,0.576,0.231,0.766c2.456,2.133,3.482,5.536,2.615,8.669c-0.867,3.134-3.498,5.524-6.701,6.09
		c-0.285,0.051-0.515,0.26-0.592,0.539c-0.077,0.279,0.013,0.577,0.231,0.767c1.127,0.979,2.432,1.678,3.877,2.078
		c0.873,0.242,1.771,0.365,2.67,0.365c0,0,0,0,0,0c4.467,0,8.419-3.011,9.612-7.321C-7.634-89.364-10.755-94.873-16.058-96.343z
		 M-10.547-84.463c-1.014,3.663-4.372,6.221-8.167,6.221h0c-0.763,0-1.527-0.104-2.27-0.31c-0.735-0.204-1.427-0.498-2.069-0.88
		c3.034-1.078,5.426-3.593,6.299-6.748s0.115-6.542-1.932-9.026c0.75,0.003,1.499,0.107,2.228,0.309
		C-11.952-93.648-9.3-88.968-10.547-84.463z"/>
	<path fill="#E5E5E5" d="M-29.923-88.958l-0.895,1.899c-0.122,0.258-0.086,0.563,0.092,0.787c0.178,0.223,0.465,0.327,0.746,0.266
		l2.052-0.446l1.529,1.437c0.142,0.133,0.326,0.204,0.514,0.204c0.088,0,0.177-0.016,0.263-0.047c0.268-0.1,0.455-0.343,0.483-0.627
		l0.21-2.088l1.84-1.011c0.25-0.137,0.4-0.405,0.388-0.69c-0.013-0.285-0.186-0.539-0.447-0.654l-1.922-0.847l-0.393-2.062
		c-0.054-0.28-0.262-0.506-0.537-0.582c-0.273-0.078-0.57,0.01-0.76,0.223l-1.399,1.567l-2.082-0.263
		c-0.286-0.037-0.562,0.093-0.72,0.331c-0.158,0.238-0.166,0.545-0.022,0.792L-29.923-88.958z M-27.956-90.093
		c0.246,0.027,0.489-0.06,0.654-0.245l0.65-0.728l0.182,0.957c0.046,0.242,0.208,0.446,0.435,0.546l0.894,0.394l-0.855,0.47
		c-0.216,0.119-0.36,0.336-0.385,0.582l-0.098,0.968l-0.709-0.666c-0.141-0.132-0.325-0.204-0.514-0.204
		c-0.053,0-0.106,0.005-0.159,0.017l-0.952,0.207l0.415-0.881c0.105-0.223,0.094-0.484-0.031-0.697l-0.491-0.842L-27.956-90.093z"/>
	<path fill="#E5E5E5" d="M26.303-51.412c0.007,0.299-0.011,0.598-0.044,0.897c0.041-0.251,0.069-0.507,0.069-0.771
		C26.328-51.331,26.31-51.37,26.303-51.412z"/>
	<path fill="#E5E5E5" d="M23.552-48.847c-0.981,0.643-2.312,0.725-3.473,0.215c-1.762-0.773-2.117-2.138-1.886-3.072
		c0.154-0.624,0.67-1.325,1.61-1.261c0.608,0.043,1.045,0.229,1.3,0.552c0.415,0.525,0.298,1.306,0.294,1.329
		c-0.07,0.406,0.201,0.793,0.606,0.866c0.411,0.074,0.798-0.198,0.871-0.606c0.026-0.146,0.232-1.457-0.582-2.503
		c-0.526-0.677-1.328-1.058-2.382-1.133c-1.53-0.104-2.793,0.855-3.174,2.397c-0.4,1.618,0.291,3.731,2.739,4.806
		c0.695,0.305,1.438,0.456,2.17,0.456c0.219,0,0.437-0.018,0.652-0.045c0.689-0.412,1.288-0.981,1.73-1.692
		c0.413-0.662,0.641-1.381,0.728-2.109C24.607-49.9,24.199-49.271,23.552-48.847z"/>
	<path fill="#E5E5E5" d="M14.021-54.784c-0.577,0.926-0.892,1.94-0.977,2.96c0.141-0.006,0.284,0.013,0.415,0.091
		c0.356,0.212,0.473,0.672,0.261,1.028c-0.211,0.354-0.368,0.705-0.5,1.051c0.404,1.615,1.403,3.082,2.923,4.03
		c1.057,0.659,2.271,1.008,3.511,1.008c0,0,0,0,0.001,0c0.774,0,1.521-0.142,2.225-0.39c-0.013-0.001-0.024-0.001-0.037-0.002
		c-0.411-0.05-0.703-0.425-0.652-0.836c0.051-0.411,0.424-0.702,0.836-0.652c0.879,0.108,1.687,0.036,2.421-0.169
		c0.314-0.329,0.606-0.684,0.854-1.081c0.541-0.868,0.85-1.814,0.956-2.769c0.033-0.299,0.051-0.599,0.044-0.897
		c-0.052-2.164-1.151-4.263-3.12-5.492c-0.807-0.503-1.704-0.822-2.635-0.947c-0.506,0.416-0.808,0.861-0.88,0.976
		c-0.222,0.349-0.684,0.454-1.034,0.233c-0.349-0.22-0.455-0.68-0.236-1.031c0.024-0.04,0.056-0.081,0.083-0.122
		C16.648-57.466,15.031-56.4,14.021-54.784z M19.669-56.413c0.96,0,1.9,0.271,2.719,0.781c1.746,1.09,2.598,3.062,2.369,4.983
		c-0.087,0.728-0.314,1.447-0.728,2.109c-0.442,0.71-1.041,1.28-1.73,1.692c-0.785,0.469-1.69,0.732-2.644,0.732
		c-0.959,0-1.899-0.27-2.717-0.78c-2.408-1.502-3.146-4.685-1.644-7.093C16.242-55.507,17.877-56.413,19.669-56.413z"/>
	<path fill="#E5E5E5" d="M25.275-59.405c-1.624-0.918-3.062-0.884-4.221-0.447c0.173,0.191,0.271,0.326,0.285,0.346
		c0.238,0.339,0.157,0.807-0.182,1.045c-0.338,0.238-0.805,0.157-1.043-0.179c-0.006-0.008-0.152-0.205-0.415-0.451
		c-0.529,0.41-0.939,0.878-1.22,1.296c-0.027,0.041-0.059,0.083-0.083,0.122c-0.219,0.351-0.112,0.811,0.236,1.031
		c0.351,0.22,0.812,0.115,1.034-0.233c0.072-0.114,0.374-0.56,0.88-0.976c0.819-0.675,2.18-1.272,3.988-0.249
		c3.308,1.874,4.168,5.491,3.307,8.096c-0.575,1.744-1.791,2.891-3.395,3.338c-0.734,0.205-1.542,0.277-2.421,0.169
		c-0.412-0.049-0.785,0.242-0.836,0.652c-0.051,0.411,0.241,0.786,0.652,0.836c0.013,0.001,0.024,0.001,0.037,0.002
		c0.361,0.043,0.711,0.066,1.045,0.066c0.965,0,1.809-0.182,2.556-0.478c0.097-0.506,0.026-0.893,0.005-0.988
		c-0.09-0.401,0.16-0.804,0.561-0.897c0.4-0.096,0.802,0.149,0.898,0.549c0.033,0.137,0.057,0.294,0.072,0.462
		c1.11-0.87,1.856-2.05,2.25-3.241C30.32-52.719,29.287-57.133,25.275-59.405z"/>
	<path fill="#E5E5E5" d="M26.047-47.303c-0.4,0.094-0.65,0.496-0.561,0.897c0.021,0.096,0.092,0.482-0.005,0.988
		c-0.157,0.818-0.753,1.952-2.713,2.696c-2.68,1.017-6.882-0.157-8.82-2.464c-1.107-1.318-1.342-2.847-0.727-4.468
		c0.132-0.347,0.289-0.697,0.5-1.051c0.212-0.356,0.095-0.816-0.261-1.028c-0.13-0.078-0.273-0.098-0.415-0.091
		c-0.244,0.011-0.479,0.126-0.613,0.353c-0.627,1.054-0.96,2.107-1.031,3.129c0.234,0.264,0.518,0.431,0.853,0.491
		c0.407,0.073,0.679,0.463,0.605,0.871c-0.065,0.363-0.381,0.617-0.737,0.617c-0.044,0-0.089-0.004-0.133-0.012
		c-0.137-0.024-0.268-0.061-0.396-0.102c0.224,0.792,0.615,1.552,1.207,2.257c1.747,2.079,4.927,3.362,7.783,3.362
		c0.966,0,1.896-0.147,2.72-0.46c3.213-1.22,3.841-3.57,3.716-4.973c-0.016-0.168-0.039-0.325-0.072-0.462
		C26.849-47.153,26.447-47.398,26.047-47.303z"/>
	<path fill="#E5E5E5" d="M12.122-46.363c0.356,0,0.672-0.254,0.737-0.617c0.073-0.408-0.198-0.798-0.605-0.871
		c-0.335-0.06-0.619-0.227-0.853-0.491c-0.22-0.248-0.397-0.582-0.525-1.008c-0.694-2.315,0.285-6.561,2.799-8.952
		c1.375-1.308,2.691-1.914,3.917-1.798c0.959,0.09,1.686,0.615,2.107,1.01c0.263,0.247,0.409,0.443,0.415,0.451
		c0.238,0.336,0.705,0.417,1.043,0.179c0.339-0.238,0.42-0.706,0.182-1.045c-0.014-0.02-0.112-0.155-0.285-0.346
		c-0.496-0.549-1.629-1.575-3.299-1.74c-1.681-0.165-3.403,0.574-5.115,2.203c-2.951,2.807-4.039,7.68-3.202,10.47
		c0.378,1.263,1.136,2.114,2.153,2.442c0.128,0.042,0.259,0.078,0.396,0.102C12.033-46.367,12.078-46.363,12.122-46.363z"/>
	<path fill="#E5E5E5" d="M-100.069,10.408c0.286-1.746-0.125-3.498-1.157-4.935c-0.715-0.996-1.673-1.75-2.773-2.218v1.68
		c0.603,0.356,1.135,0.828,1.555,1.414c0.798,1.111,1.116,2.466,0.895,3.817c-0.255,1.555-1.179,2.843-2.45,3.591v1.657
		C-101.973,14.549-100.447,12.714-100.069,10.408z"/>
	<path fill="#E5E5E5" d="M-97.549,2.83c-0.241-0.336-0.709-0.412-1.047-0.171l-1.598,1.148c-0.336,0.242-0.413,0.71-0.171,1.047
		c0.146,0.204,0.376,0.312,0.609,0.312c0.152,0,0.305-0.046,0.438-0.141l1.598-1.148C-97.384,3.635-97.308,3.166-97.549,2.83z"/>
	<path fill="#E5E5E5" d="M-101.073,15.749c-0.241-0.336-0.71-0.412-1.047-0.172c-0.336,0.242-0.413,0.71-0.172,1.047l1.147,1.598
		c0.146,0.204,0.376,0.312,0.61,0.312c0.152,0,0.305-0.046,0.437-0.141c0.336-0.242,0.413-0.711,0.172-1.047L-101.073,15.749z"/>
	<path fill="#E5E5E5" d="M-96.218,10.279l-1.942-0.318c-0.406-0.066-0.794,0.21-0.861,0.619c-0.067,0.409,0.21,0.794,0.619,0.861
		l1.942,0.318c0.041,0.007,0.082,0.01,0.122,0.01c0.361,0,0.679-0.261,0.739-0.629C-95.532,10.732-95.809,10.346-96.218,10.279z"/>
	<path fill="#E5E5E5" d="M-29.798-18.376c0.031-0.015,0.056-0.039,0.089-0.05c0.007-0.002,0.014,0,0.021-0.002
		c0.054-0.016,0.109-0.016,0.166-0.019c0.042-0.002,0.083-0.013,0.123-0.008c0.043,0.004,0.083,0.024,0.125,0.036
		c0.052,0.015,0.105,0.026,0.154,0.052c0.006,0.003,0.012,0.003,0.018,0.006l0.512,0.296l5.124-1.665
		c1.57-0.509,2.434-2.202,1.924-3.773l-2.023-6.224c-0.401-1.238-1.544-2.069-2.845-2.069c-0.315,0-0.627,0.05-0.928,0.148
		l-12.066,3.92c-0.761,0.247-1.38,0.776-1.743,1.489s-0.427,1.524-0.18,2.285l2.022,6.225c0.402,1.237,1.546,2.069,2.846,2.069
		c0.314,0,0.627-0.05,0.927-0.148l4.936-1.604l0.24-0.541C-30.25-18.192-30.035-18.334-29.798-18.376z M-35.997-17.236
		c-0.773,0.254-1.633-0.192-1.882-0.958l-2.022-6.225c-0.124-0.379-0.091-0.784,0.09-1.14c0.182-0.356,0.49-0.62,0.87-0.743
		l12.067-3.92c0.151-0.049,0.307-0.074,0.464-0.074c0.648,0,1.218,0.415,1.418,1.033l2.023,6.224
		c0.254,0.784-0.177,1.629-0.961,1.883L-35.997-17.236z"/>
	<path fill="#E5E5E5" d="M-36.639-25.191l-1.421,0.463c-0.394,0.128-0.609,0.551-0.48,0.945c0.103,0.316,0.397,0.518,0.713,0.518
		c0.077,0,0.155-0.012,0.232-0.037l1.421-0.463c0.394-0.128,0.609-0.551,0.48-0.945C-35.821-25.104-36.243-25.321-36.639-25.191z"/>
	<path fill="#E5E5E5" d="M-30.192-17.501c-0.016-0.052-0.015-0.107-0.019-0.162c-0.003-0.043-0.014-0.086-0.009-0.129
		c0.004-0.039,0.022-0.075,0.032-0.112c0.016-0.058,0.028-0.115,0.056-0.167c0.003-0.005,0.002-0.012,0.006-0.018
		c0.018-0.03,0.046-0.048,0.067-0.075c0.036-0.046,0.068-0.093,0.115-0.13c0.041-0.033,0.086-0.051,0.132-0.075
		c0.005-0.002,0.009-0.005,0.014-0.008c-0.237,0.042-0.453,0.184-0.558,0.421l-0.24,0.541l-4.832,10.885
		c-0.168,0.378,0.002,0.822,0.381,0.99c0.099,0.044,0.202,0.064,0.304,0.064c0.288,0,0.562-0.166,0.686-0.446l4.401-9.915
		l-0.535-1.646C-30.192-17.488-30.19-17.495-30.192-17.501z"/>
	<path fill="#E5E5E5" d="M-18.283-12.1l-10.307-5.965l-0.512-0.296c-0.006-0.003-0.012-0.003-0.018-0.006
		c0.162,0.088,0.294,0.234,0.356,0.423l0.605,1.861l9.125,5.281c0.118,0.069,0.247,0.101,0.375,0.101
		c0.259,0,0.511-0.134,0.649-0.375C-17.802-11.434-17.924-11.893-18.283-12.1z"/>
	<path fill="#E5E5E5" d="M-29.398-18.456c0.044,0.004,0.083,0.023,0.125,0.036C-29.315-18.432-29.355-18.452-29.398-18.456z"/>
	<path fill="#E5E5E5" d="M-29.521-18.448c-0.056,0.003-0.112,0.003-0.166,0.019C-29.632-18.445-29.577-18.444-29.521-18.448z"/>
	<path fill="#E5E5E5" d="M-30.192-17.501c-0.016-0.054-0.015-0.108-0.019-0.162C-30.207-17.608-30.208-17.554-30.192-17.501z"/>
	<path fill="#E5E5E5" d="M-30.131-18.071c0.019-0.035,0.048-0.062,0.073-0.093c-0.021,0.027-0.049,0.045-0.067,0.075
		C-30.129-18.083-30.128-18.076-30.131-18.071z"/>
	<path fill="#E5E5E5" d="M-30.22-17.792c0.004-0.04,0.022-0.075,0.032-0.112C-30.198-17.867-30.216-17.831-30.22-17.792z"/>
	<path fill="#E5E5E5" d="M-29.944-18.293c0.039-0.031,0.086-0.051,0.132-0.075C-29.857-18.345-29.903-18.326-29.944-18.293z"/>
	<path fill="#E5E5E5" d="M-29.119-18.368c-0.048-0.026-0.102-0.037-0.154-0.052c-0.042-0.012-0.082-0.031-0.125-0.036
		c-0.041-0.004-0.082,0.006-0.123,0.008c-0.055,0.003-0.11,0.003-0.166,0.019c-0.007,0.002-0.014,0-0.021,0.002
		c-0.034,0.011-0.058,0.035-0.089,0.05c-0.005,0.002-0.009,0.005-0.014,0.008c-0.045,0.023-0.093,0.043-0.132,0.075
		c-0.046,0.037-0.079,0.083-0.115,0.13c-0.024,0.031-0.054,0.058-0.073,0.093c-0.028,0.052-0.041,0.109-0.056,0.167
		c-0.01,0.038-0.028,0.073-0.032,0.112c-0.005,0.042,0.006,0.085,0.009,0.129c0.003,0.054,0.003,0.108,0.019,0.162
		c0.002,0.007,0,0.014,0.002,0.021l0.535,1.646l2.351,7.233c0.103,0.317,0.397,0.518,0.713,0.518c0.077,0,0.155-0.012,0.232-0.037
		c0.394-0.128,0.609-0.551,0.481-0.945l-2.281-7.018l-0.605-1.861C-28.825-18.134-28.957-18.28-29.119-18.368z"/>
	<path fill="#E5E5E5" d="M-31.277-26.218c-0.297,0-0.592,0.047-0.877,0.139c-1.483,0.483-2.298,2.083-1.817,3.566
		c0.38,1.17,1.462,1.957,2.692,1.957c0.297,0,0.591-0.047,0.875-0.139c1.484-0.482,2.3-2.083,1.817-3.568
		C-28.966-25.432-30.047-26.218-31.277-26.218z M-30.868-22.122c-0.689,0.226-1.455-0.171-1.676-0.854
		c-0.227-0.697,0.157-1.449,0.854-1.676c0.134-0.044,0.273-0.066,0.413-0.066c0.578,0,1.086,0.369,1.264,0.918
		C-29.786-23.101-30.169-22.348-30.868-22.122z"/>
	<path fill="#E5E5E5" d="M-103.272-76.393c2.118,1.771,4.56,2.036,5.827,2.036c0.593,0,0.967-0.055,1.031-0.064
		c-0.004,0-0.015,0.001-0.018,0.001c-0.019,0.001-0.038,0.002-0.057,0.002c-0.38,0-0.705-0.288-0.745-0.673
		c-0.01-0.1-0.133-1.348-0.052-2.964c-0.344-0.038-0.629-0.301-0.666-0.66c-0.106-1.056-0.157-2.058-0.171-3.01
		c-0.041-0.179-0.082-0.358-0.125-0.532c-0.129-0.187-0.264-0.368-0.406-0.542c-1.373-1.678-2.723-2.721-4.191-3.241
		c0.006,0.122-0.007,0.242,0.007,0.364c0.049,0.412-0.246,0.784-0.657,0.833c-0.03,0.004-0.06,0.005-0.089,0.005
		c-0.155,0-0.295-0.057-0.417-0.14v0.154c1.479,0.304,2.767,1.243,4.186,2.976c1.443,1.762,2.145,4.615,2.414,5.991
		c-1.095,0.012-3.13-0.198-4.909-1.687c-0.7-0.585-1.25-1.464-1.69-2.423v2.828C-103.772-76.868-103.534-76.612-103.272-76.393z"/>
	<path fill="#E5E5E5" d="M-91.955-86.202c-0.404,0.049-0.785-0.246-0.832-0.657c-0.014-0.122-0.055-0.236-0.078-0.355
		c-1.309,0.848-2.379,2.178-3.324,4.127c-0.169,0.35-0.311,0.719-0.434,1.098c0,0.03,0,0.06,0,0.09
		c0.207,0.929,0.391,1.915,0.532,2.967c0.056,0.411-0.232,0.788-0.643,0.843c-0.034,0.005-0.068,0.007-0.101,0.007
		c-0.037,0-0.069-0.014-0.105-0.019c-0.062,0.024-0.123,0.052-0.192,0.059c-0.025,0.003-0.051,0.004-0.076,0.004
		c-0.028,0-0.052-0.012-0.08-0.015c-0.081,1.616,0.042,2.865,0.052,2.964c0.04,0.385,0.365,0.673,0.745,0.673
		c0.019,0,0.038,0,0.057-0.002c0.002,0,0.013-0.001,0.018-0.001c0.263-0.021,3.874-0.374,6.207-3.512
		c2.35-3.156,1.56-9.485,1.525-9.753c-0.052-0.4-0.42-0.691-0.813-0.65c-0.713,0.066-1.364,0.21-1.972,0.424
		c0.074,0.287,0.136,0.578,0.171,0.877C-91.249-86.623-91.543-86.25-91.955-86.202z M-91.412-78.827
		c-1.367,1.838-3.321,2.529-4.382,2.778c-0.058-1.402-0.037-4.337,0.955-6.385c1.28-2.639,2.649-3.905,4.74-4.305
		C-89.97-85.046-89.846-80.931-91.412-78.827z"/>
	<path fill="#E5E5E5" d="M-103.494-84.842c0.411-0.048,0.706-0.421,0.657-0.833c-0.014-0.122-0.001-0.242-0.007-0.364
		c-0.056-1.215,0.299-2.399,1.06-3.363c0.153-0.193,0.33-0.359,0.505-0.526c-0.127-0.211-0.209-0.334-0.213-0.341
		c-0.233-0.342-0.146-0.809,0.195-1.042c0.34-0.233,0.807-0.148,1.042,0.194c0.018,0.026,0.095,0.142,0.21,0.328
		c0.511-0.251,1.059-0.434,1.641-0.502c0.529-0.062,1.051-0.019,1.56,0.081c0.062-0.183,0.103-0.293,0.113-0.321
		c0.148-0.386,0.579-0.581,0.969-0.43c0.386,0.148,0.58,0.582,0.432,0.968c-0.002,0.006-0.038,0.104-0.095,0.275
		c0.259,0.14,0.512,0.294,0.748,0.48c0.965,0.761,1.586,1.829,1.813,3.024c0.023,0.12,0.063,0.233,0.078,0.355
		c0.047,0.412,0.428,0.706,0.832,0.657c0.412-0.048,0.706-0.421,0.657-0.832c-0.035-0.299-0.097-0.59-0.171-0.877
		c-0.355-1.382-1.141-2.606-2.28-3.505c-1.376-1.085-3.088-1.569-4.832-1.365c-1.74,0.205-3.297,1.075-4.382,2.45
		c-0.457,0.579-0.801,1.221-1.038,1.897v3.457c0.122,0.083,0.262,0.14,0.417,0.14C-103.554-84.837-103.524-84.838-103.494-84.842z"
		/>
	<path fill="#E5E5E5" d="M-99.716-97.973c-0.412,0.048-0.706,0.421-0.658,0.833l0.175,1.49c0.045,0.382,0.369,0.663,0.744,0.663
		c0.029,0,0.059-0.001,0.088-0.005c0.412-0.048,0.706-0.421,0.658-0.833l-0.175-1.49C-98.933-97.727-99.306-98.019-99.716-97.973z"
		/>
	<path fill="#E5E5E5" d="M-90.796-93.859l-0.93,1.177c-0.257,0.325-0.202,0.797,0.124,1.053c0.138,0.109,0.302,0.162,0.464,0.162
		c0.222,0,0.441-0.098,0.589-0.285l0.93-1.177c0.257-0.325,0.202-0.797-0.124-1.053C-90.068-94.24-90.54-94.185-90.796-93.859z"/>
	<path fill="#E5E5E5" d="M-96.622-81.9c0-0.03,0-0.06,0-0.09c-0.03-4.582,0.895-7.806,1.197-8.729
		c0.057-0.171,0.092-0.269,0.095-0.275c0.148-0.387-0.045-0.82-0.432-0.968c-0.39-0.151-0.821,0.044-0.969,0.43
		c-0.01,0.027-0.052,0.138-0.113,0.321c-0.229,0.686-0.746,2.431-1.05,4.967C-97.438-85.008-96.991-83.554-96.622-81.9z"/>
	<path fill="#E5E5E5" d="M-97.131-78.043c0.069-0.007,0.13-0.035,0.192-0.059c-0.322-0.047-0.591-0.292-0.637-0.631
		c-0.144-1.063-0.333-2.056-0.547-2.991c0.015,0.952,0.065,1.954,0.171,3.01c0.036,0.358,0.322,0.622,0.666,0.66
		c0.027,0.003,0.052,0.015,0.08,0.015C-97.182-78.039-97.156-78.04-97.131-78.043z"/>
	<path fill="#E5E5E5" d="M-96.939-78.102c0.036,0.005,0.068,0.019,0.105,0.019c0.033,0,0.067-0.002,0.101-0.007
		c0.411-0.055,0.699-0.433,0.643-0.843c-0.142-1.052-0.326-2.038-0.532-2.967c-0.369-1.654-0.816-3.108-1.273-4.344
		c-0.868-2.349-1.755-3.907-2.15-4.545c-0.115-0.186-0.193-0.302-0.21-0.328c-0.234-0.342-0.702-0.427-1.042-0.194
		c-0.342,0.233-0.429,0.7-0.195,1.042c0.004,0.007,0.086,0.13,0.213,0.341c0.543,0.9,2.027,3.601,3.031,7.671
		c0.043,0.174,0.083,0.354,0.125,0.532c0.214,0.935,0.404,1.927,0.547,2.991C-97.53-78.394-97.261-78.149-96.939-78.102z"/>
	<path fill="#E5E5E5" d="M-71.845-46.102l-11.687-1.665c-1.581-0.232-3.017,0.894-3.235,2.428l-2.209,15.515
		c-0.108,0.755,0.084,1.508,0.543,2.119c0.458,0.611,1.127,1.007,1.883,1.115l11.687,1.665c0.136,0.019,0.271,0.029,0.405,0.029
		c1.414,0,2.629-1.056,2.829-2.456l2.211-15.518C-69.198-44.43-70.287-45.88-71.845-46.102z M-70.903-43.08l-2.211,15.517
		c-0.104,0.729-0.788,1.262-1.538,1.153l-11.687-1.665c-0.359-0.051-0.677-0.239-0.895-0.53c-0.218-0.291-0.31-0.647-0.258-1.006
		l2.21-15.516c0.095-0.667,0.672-1.169,1.342-1.169c0.064,0,0.129,0.004,0.195,0.014l11.688,1.665
		C-71.316-44.512-70.798-43.821-70.903-43.08z"/>
	<path fill="#E5E5E5" d="M-76.901-41.221c-0.637,0-1.212,0.179-1.664,0.491c-0.021-0.026-0.043-0.053-0.066-0.079
		c-0.545-0.627-1.399-1.002-2.286-1.002c-1.34,0-2.895,0.865-3.24,3.293c-0.487,3.412,3.669,6.998,3.846,7.148
		c0.138,0.118,0.311,0.179,0.486,0.179c0.099,0,0.198-0.02,0.292-0.06c0.212-0.089,5.195-2.238,5.703-5.797
		c0.23-1.615-0.277-2.595-0.744-3.133C-75.146-40.842-75.995-41.221-76.901-41.221z M-75.314-37.259
		c-0.29,2.029-2.949,3.729-4.375,4.431c-1.172-1.109-3.26-3.539-2.982-5.478c0.181-1.274,0.821-2.004,1.755-2.004
		c0.452,0,0.894,0.186,1.153,0.485c0.174,0.201,0.245,0.428,0.21,0.674c0,0,0,0,0,0c-0.058,0.41,0.228,0.79,0.638,0.848
		c0.411,0.06,0.79-0.227,0.848-0.637c0-0.001,0-0.001,0-0.002c0.077-0.535,0.659-0.779,1.167-0.779c0.471,0,0.907,0.191,1.196,0.524
		C-75.331-38.765-75.195-38.095-75.314-37.259z"/>
</g>
</svg>
