<svg version="1.1" id="Layer_1" xmlns="http://www.w3.org/2000/svg" x="0" y="0" viewBox="0 0 120 32" xml:space="preserve"><style>.st0{fill:#253b80}.st1{fill:#179bd7}</style><path class="st0" d="M44.7 6.5h-6.6c-.2 0-.4.1-.6.2-.2.1-.3.3-.3.6l-2.7 17v.2c0 .1.1.1.1.2.1.1.1.1.2.1s.2.1.2.1h3.2c.2 0 .4-.1.6-.2.2-.1.3-.3.3-.6l.7-4.6c0-.2.1-.4.3-.6.2-.1.4-.2.6-.2h2.1c4.4 0 6.9-2.1 7.5-6.3.3-1.8 0-3.3-.8-4.3-.9-1-2.6-1.6-4.8-1.6zm.8 6.3c-.4 2.4-2.2 2.4-3.9 2.4h-1l.7-4.4c0-.1.1-.2.2-.3s.2-.1.4-.1h.5c1.2 0 2.3 0 2.9.7.2.2.3.8.2 1.7zm19-.1h-3.2c-.1 0-.3 0-.4.1-.1.1-.2.2-.2.3l-.1.9-.2-.3c-.7-1-2.2-1.3-3.7-1.3-3.5 0-6.5 2.7-7.1 6.4-.3 1.9.1 3.6 1.2 4.9 1 1.1 2.3 1.6 4 1.6 2.8 0 4.4-1.8 4.4-1.8l-.2.8v.2c0 .1.1.1.1.2.1.1.1.1.2.1s.2.1.2.1h2.9c.2 0 .4-.1.6-.2.2-.1.3-.3.3-.6L65 13.3v-.2s-.1-.1-.1-.2c-.1-.1-.1-.1-.2-.1 0-.1-.1-.1-.2-.1zm-4.4 6.2c-.3 1.8-1.7 3-3.6 3-.9 0-1.7-.3-2.1-.9-.5-.6-.6-1.3-.5-2.2.3-1.8 1.7-3.1 3.6-3.1.9 0 1.6.3 2.1.9.4.6.6 1.4.5 2.3zm21.3-6.2h-3.2c-.2 0-.3 0-.4.1l-.3.3-4.5 6.5-1.9-6.2c-.1-.2-.2-.4-.3-.5-.2-.1-.4-.2-.5-.2h-3.1c-.1 0-.2 0-.3.1l-.2.2c-.1.1-.1.2-.1.2v.3l3.5 10.3-3.3 4.7c-.1.1-.1.2-.1.3 0 .1 0 .2.1.3 0 .1.1.2.2.2.1.1.2.1.3.1h3.2c.1 0 .3 0 .4-.1l.3-.3 10.6-15.3c.1-.1.1-.2.1-.3 0-.1 0-.2-.1-.3 0-.1-.1-.2-.2-.2 0-.2-.1-.2-.2-.2z"/><path class="st1" d="M91.9 6.5h-6.6c-.2 0-.4.1-.6.2-.2.1-.3.3-.3.6l-2.7 17v.2c0 .1.1.1.1.2.1.1.1.1.2.1s.2.1.2.1h3.4c.2 0 .3-.1.4-.2.1-.1.2-.2.2-.4l.8-4.8c0-.2.1-.4.3-.6.2-.1.4-.2.6-.2H90c4.4 0 6.9-2.1 7.5-6.3.3-1.8 0-3.3-.8-4.3-.9-1-2.6-1.6-4.8-1.6zm.8 6.3c-.4 2.4-2.2 2.4-3.9 2.4h-1l.7-4.4c0-.1.1-.2.2-.3.1-.1.2-.1.4-.1h.5c1.2 0 2.3 0 2.9.7.2.2.3.8.2 1.7zm19-.1h-3.2c-.1 0-.3 0-.4.1-.1.1-.2.2-.2.3l-.1.9-.2-.3c-.7-1-2.2-1.3-3.7-1.3-3.5 0-6.5 2.7-7.1 6.4-.3 1.9.1 3.6 1.2 4.9 1 1.1 2.3 1.6 4 1.6 2.8 0 4.4-1.8 4.4-1.8l-.1.9v.2c0 .1.1.1.1.2.1.1.1.1.2.1s.2.1.2.1h2.9c.2 0 .4-.1.6-.2.2-.1.3-.3.3-.6l1.7-10.9v-.2c0-.1-.1-.1-.1-.2-.1-.1-.1-.1-.2-.1-.1-.1-.2-.1-.3-.1zm-4.4 6.2c-.3 1.8-1.7 3-3.6 3-.9 0-1.7-.3-2.1-.9-.5-.6-.6-1.3-.5-2.2.3-1.8 1.7-3.1 3.6-3.1.9 0 1.6.3 2.1.9.4.6.6 1.4.5 2.3zM115.4 7l-2.7 17.3v.2c0 .1.1.1.1.2.1.1.1.1.2.1s.2.1.2.1h2.7c.5 0 .8-.3.9-.8l2.7-17v-.2c0-.1-.1-.1-.1-.2-.1-.1-.1-.1-.2-.1s-.2-.1-.2-.1h-3c-.1 0-.3 0-.4.1-.1.2-.1.3-.2.4z"/><path class="st0" d="M7 28.3l.5-3.3H1L4.8 1.3c0-.1 0-.1.1-.2S5 1 5.1 1h9.1c3 0 5.1.6 6.2 1.9.5.6.8 1.2 1 1.9.2.7.2 1.5 0 2.6V8l.5.3c.4.2.7.5 1 .8.4.5.7 1.1.8 1.9.1.8.1 1.7-.1 2.7-.2 1.2-.6 2.2-1.1 3.1-.4.8-1 1.4-1.8 1.9-.7.5-1.5.8-2.4 1.1-.9.2-1.9.3-3 .3h-.7c-.5 0-1 .2-1.4.5-.4.3-.6.8-.7 1.3l-.1.3-.9 5.7v.2c0 .1 0 .1-.1.1H7z"/><path class="st1" d="M22.3 7.4c0 .2-.1.4-.1.5-1.2 6.2-5.3 8.3-10.5 8.3H9c-.6 0-1.2.5-1.3 1.1L6.4 26 6 28.5v.3c0 .1.1.2.1.3l.2.2c.1 0 .2.1.3.1h4.7c.6 0 1-.4 1.1-1v-.2l.9-5.7.1-.3c.1-.6.6-1 1.1-1h.7c4.6 0 8.2-1.9 9.2-7.2.4-2.3.2-4.1-.9-5.5-.3-.5-.7-.8-1.2-1.1z"/><path d="M21.1 6.9l-1.2-.3c-.8-.1-1.6-.2-2.3-.2h-7.1c-.3 0-.5.1-.7.3-.3.3-.5.5-.5.8l-1.5 9.6v.3c0-.3.2-.6.4-.8.2-.2.5-.3.8-.3h2.7c5.2 0 9.3-2.1 10.5-8.3 0-.2.1-.4.1-.5-.3-.2-.6-.3-1-.4-.1-.1-.2-.1-.2-.2z" fill="#222d65"/><path class="st0" d="M9.3 7.5c0-.3.2-.5.4-.7.2-.2.5-.3.7-.3h7.1c.8 0 1.6.1 2.3.2.5.1 1 .2 1.4.3.4.1.7.3 1 .4.4-2.3 0-3.8-1.2-5.2C19.7.7 17.3 0 14.2 0H5.1c-.7 0-1.2.5-1.3 1.1L0 25.1v.3c0 .1.1.2.2.3.1.1.2.2.3.2.1.1.2.1.3.1h5.6l1.4-8.9 1.5-9.6z"/></svg>