<svg xmlns="http://www.w3.org/2000/svg" width="32" height="32"><path fill="#393" d="M16.042 5.623c3.783 0 6.852 3.245 6.852 7.243 0 2.635-1.328 4.935-3.317 6.2 3.8.971 7.944 3.149 7.944 5.526 0 0-.735 1.783-11.403 1.783-10.524 0-11.638-1.783-11.638-1.783 0-2.318 4.138-4.578 8.008-5.536-1.978-1.271-3.3-3.564-3.3-6.19 0-3.998 3.065-7.243 6.854-7.243m0-1c-4.332 0-7.854 3.698-7.854 8.243 0 2.194.811 4.238 2.23 5.758-3.607 1.232-6.938 3.418-6.938 5.971v.285l.151.243c.423.678 2.485 2.254 12.485 2.254 7.311 0 11.689-.853 12.328-2.4l.076-.185v-.197c0-2.797-3.756-4.854-6.881-5.945 1.436-1.52 2.254-3.572 2.254-5.782.001-4.547-3.522-8.245-7.851-8.245z"/></svg>