<svg width="20" height="25" fill="none" xmlns="http://www.w3.org/2000/svg"><path d="M19 10.545c0 1.344-1.051 2.439-2.353 2.439H3.353C2.057 12.984 1 11.894 1 10.545V3.44C1 2.095 2.051 1 3.353 1h13.294C17.949 1 19 2.095 19 3.439v7.106zM5.29 4.55H3.728m-2.69 19.411l8.757-10.098m8.965 10.098l-8.752-10.098m0 10.137V13.863" stroke="#999" stroke-width="1.5" stroke-miterlimit="10" stroke-linecap="round" stroke-linejoin="round"/><path d="M12.228 7.398c0 1.25-.976 2.262-2.177 2.262-1.206 0-2.183-1.012-2.183-2.262 0-1.244.977-2.256 2.183-2.256 1.2-.005 2.177 1.007 2.177 2.256z" stroke="#999" stroke-width="1.5" stroke-miterlimit="10" stroke-linecap="round" stroke-linejoin="round"/></svg>