<svg width="116" height="35" fill="none" xmlns="http://www.w3.org/2000/svg"><path d="M112.03 34.5H3.97A3.476 3.476 0 01.5 31.016V3.984A3.476 3.476 0 013.97.5h108.06a3.476 3.476 0 013.47 3.484v27.032c0 1.918-1.555 3.484-3.47 3.484z" stroke="#E5E5E5"/><path d="M10.68 6.305c-.23.06-.388.259-.388.597V27.77c0 .249.11.408.278.468l11.056-11.026L10.679 6.305z" fill="#4DB6AC"/><path d="M24.663 14.183l-4.555-2.64s-8.347-4.84-8.843-5.119c-.209-.12-.427-.16-.596-.11l10.947 10.907 3.047-3.038z" fill="#DCE775"/><path d="M11.066 28.167c.288-.17 8.376-4.85 13.627-7.888l-3.067-3.058L10.57 28.247c.129.05.307.03.496-.08z" fill="#D32F2F"/><path d="M29.139 16.773a721.98 721.98 0 01-4.436-2.57l-.03-.02-3.047 3.038 3.067 3.058a1172.08 1172.08 0 004.416-2.56c.516-.299.467-.717.03-.946z" fill="#FBC02D"/><path d="M44.278 22.948c0 1.378-.387 2.457-1.16 3.237-.768.776-1.839 1.164-3.212 1.164-1.452 0-2.605-.475-3.457-1.425-.849-.954-1.273-2.247-1.273-3.879 0-1.603.422-2.873 1.265-3.809.849-.935 1.996-1.403 3.444-1.403 1.13 0 2.085.308 2.868.924.787.616 1.27 1.431 1.447 2.447h-1.616c-.187-.63-.518-1.119-.99-1.467-.474-.348-1.041-.522-1.702-.522-.97 0-1.73.339-2.284 1.016-.548.672-.822 1.606-.822 2.8 0 1.218.281 2.18.843 2.885.563.7 1.326 1.05 2.291 1.05.82 0 1.49-.24 2.01-.719.52-.484.785-1.112.795-1.883v-.176h-2.622V21.91h4.175v1.037zm7.084 3.342c-.637.687-1.488 1.03-2.551 1.03-1.064 0-1.914-.343-2.551-1.03-.638-.69-.956-1.63-.956-2.82 0-1.185.318-2.12.956-2.807.637-.692 1.487-1.037 2.55-1.037 1.064 0 1.915.345 2.552 1.037.637.686.956 1.622.956 2.807 0 1.19-.319 2.13-.956 2.82zm-2.551-.225c.604 0 1.082-.228 1.434-.684.35-.456.527-1.093.527-1.911 0-.814-.178-1.448-.535-1.905-.35-.456-.827-.684-1.426-.684-.6 0-1.078.228-1.434.684-.351.456-.527 1.091-.527 1.905 0 .818.176 1.455.527 1.911.356.456.834.684 1.434.684zm10.409.225c-.638.687-1.488 1.03-2.552 1.03-1.063 0-1.914-.343-2.551-1.03-.637-.69-.956-1.63-.956-2.82 0-1.185.319-2.12.956-2.807.637-.692 1.488-1.037 2.551-1.037 1.064 0 1.914.345 2.551 1.037.637.686.956 1.622.956 2.807 0 1.19-.319 2.13-.956 2.82zm-2.552-.225c.605 0 1.082-.228 1.434-.684.351-.456.527-1.093.527-1.911 0-.814-.178-1.448-.534-1.905-.352-.456-.827-.684-1.427-.684-.6 0-1.078.228-1.434.684-.351.456-.527 1.091-.527 1.905 0 .818.176 1.455.527 1.911.356.456.834.684 1.434.684zm7.829-.12c.595 0 1.07-.225 1.427-.677.36-.451.541-1.058.541-1.82 0-.761-.18-1.372-.541-1.833-.356-.461-.832-.691-1.427-.691-.585 0-1.054.228-1.405.684-.347.456-.52 1.07-.52 1.84 0 .772.173 1.38.52 1.827.351.447.82.67 1.405.67zm.014 4.028c-.862 0-1.593-.207-2.192-.621-.596-.414-.94-.945-1.034-1.594h1.526c.107.31.318.56.632.748.319.188.693.282 1.124.282.586 0 1.048-.155 1.385-.466.337-.305.506-.714.506-1.227v-1.22h-.028c-.21.409-.525.733-.942.973a2.73 2.73 0 01-1.398.36c-.933 0-1.678-.339-2.235-1.016-.558-.682-.837-1.599-.837-2.75 0-1.167.28-2.09.837-2.772.562-.687 1.319-1.03 2.27-1.03.52 0 .986.125 1.398.374.413.244.731.583.956 1.015h.028v-1.27h1.476v7.287c0 .884-.316 1.591-.949 2.123-.628.536-1.469.804-2.523.804zm5.032-2.793V17.002h1.518V27.18h-1.518zM77 21.39c-.333-.358-.761-.537-1.286-.537s-.96.181-1.307.543c-.347.357-.54.82-.577 1.39h3.697c-.019-.574-.194-1.04-.527-1.397zm.52 3.61h1.44c-.107.682-.454 1.24-1.04 1.672-.585.432-1.3.649-2.143.649-1.082 0-1.935-.341-2.558-1.023-.618-.686-.928-1.617-.928-2.793 0-1.166.31-2.104.928-2.814.623-.71 1.455-1.065 2.495-1.065 1.021 0 1.832.336 2.431 1.008.6.668.9 1.566.9 2.695v.522h-5.222v.091c0 .65.18 1.169.542 1.559.36.39.843.585 1.447.585.427 0 .792-.098 1.097-.296.304-.197.508-.46.611-.79zm5.812-7.998h3.802c.984 0 1.785.31 2.404.931.623.62.935 1.425.935 2.412 0 .992-.317 1.801-.95 2.427-.627.62-1.44.93-2.438.93h-2.179v3.478h-1.574V17.002zm1.574 1.333v4.041h1.807c.684 0 1.213-.176 1.588-.529.375-.352.562-.85.562-1.495 0-.64-.187-1.135-.562-1.488-.37-.353-.897-.529-1.581-.529h-1.814zm6.818 8.845V17.002h1.518V27.18h-1.518zm5.664-1.08c.534 0 .982-.162 1.343-.486a1.57 1.57 0 00.548-1.213v-.586l-1.82.113c-.455.033-.806.146-1.055.339a.912.912 0 00-.365.761c0 .325.122.586.365.783.249.193.577.29.984.29zm-.422 1.207c-.726 0-1.319-.207-1.778-.621-.454-.414-.681-.952-.681-1.615 0-.65.239-1.164.716-1.545.478-.385 1.155-.602 2.032-.649l2.024-.12v-.571c0-.414-.132-.736-.394-.966-.262-.235-.625-.353-1.09-.353-.43 0-.782.096-1.053.29a1.262 1.262 0 00-.507.796h-1.433c.042-.686.337-1.246.885-1.678.549-.433 1.27-.65 2.165-.65s1.607.222 2.136.664c.535.442.802 1.034.802 1.777v5.114h-1.455v-1.22H99.3a2.36 2.36 0 01-.963.98 2.71 2.71 0 01-1.37.367zm6.03 2.637a3.75 3.75 0 01-.618-.035v-1.234c.075.019.239.028.492.028.356 0 .635-.082.836-.247.202-.16.361-.43.478-.81 0-.006.024-.083.07-.234l.064-.225-2.671-7.427h1.645l1.876 6.037h.021l1.877-6.037h1.602l-2.776 7.807c-.314.899-.682 1.52-1.103 1.863-.422.343-1.019.514-1.793.514zM38.258 9.183c-.02.326-.056.59-.11.791-.05.202-.136.377-.258.526v.029h2.545V6.446h-2.007l-.17 2.737zm-.96 1.937v1.04h-.607v-1.631h.389a.87.87 0 00.4-.478c.087-.224.142-.518.163-.883l.2-3.313h3.246v4.674h.655v1.63h-.607v-1.04h-3.839zm6.678.065c-.528 0-.953-.176-1.272-.529-.32-.355-.48-.833-.48-1.433 0-.601.16-1.078.48-1.43.32-.355.744-.533 1.272-.533.526 0 .949.178 1.269.533.32.352.48.829.48 1.43 0 .598-.16 1.075-.48 1.43-.32.355-.743.532-1.27.532zm-.81-.93a.99.99 0 00.81.372c.34 0 .608-.123.807-.368.199-.248.298-.594.298-1.036 0-.443-.1-.787-.298-1.033-.199-.248-.468-.372-.807-.372a.99.99 0 00-.81.372c-.2.248-.299.593-.299 1.033 0 .44.1.784.298 1.032zm6.39-1.762h-.625a.938.938 0 00-.331-.485c-.163-.127-.37-.19-.622-.19a.95.95 0 00-.792.387c-.199.255-.298.595-.298 1.018 0 .43.099.772.298 1.025a.97.97 0 00.8.38c.247 0 .452-.06.614-.176a.878.878 0 00.338-.492h.625c-.063.364-.237.66-.523.886-.286.226-.639.34-1.058.34-.528 0-.95-.177-1.265-.53-.315-.355-.473-.833-.473-1.433 0-.591.158-1.066.473-1.423.315-.36.734-.54 1.258-.54.433 0 .79.12 1.068.358.282.238.452.53.513.875zm3.359-1.167v.521h-1.222v3.273h-.625V7.847h-1.221v-.521h3.068zm.901 5.213c-.114 0-.204-.007-.272-.022v-.533c.058.013.14.019.247.019a.617.617 0 00.425-.143c.107-.092.197-.249.27-.47l.087-.267-1.396-3.797h.676l1.047 3.159h.01l1.048-3.16h.665l-1.487 4.061c-.162.443-.338.746-.527.909-.187.162-.45.244-.793.244zm5.824-1.419V7.847h-1.828v3.273h-.626V7.326h3.083v3.794h-.629zm4.006 0V9.412h-1.865v1.708h-.625V7.326h.625V8.89h1.865V7.326h.625v3.794h-.625zm3.086.065c-.528 0-.952-.176-1.272-.529-.32-.355-.48-.833-.48-1.433 0-.601.16-1.078.48-1.43.32-.355.744-.533 1.272-.533.526 0 .95.178 1.269.533.32.352.48.829.48 1.43 0 .598-.16 1.075-.48 1.43-.32.355-.743.532-1.269.532zm-.81-.93a.99.99 0 00.81.372c.34 0 .609-.123.807-.368.199-.248.298-.594.298-1.036 0-.443-.099-.787-.298-1.033-.198-.248-.467-.372-.807-.372a.99.99 0 00-.81.372c-.2.248-.298.593-.298 1.033 0 .44.099.784.298 1.032zM72.24 7.84h-.905v1.062h.81c.47 0 .705-.18.705-.54 0-.168-.052-.297-.156-.387-.104-.09-.256-.135-.454-.135zm-.044 1.572h-.861v1.193h.974c.228 0 .402-.05.523-.15.121-.101.182-.248.182-.44 0-.402-.273-.603-.818-.603zm-1.487 1.708V7.326h1.618c.354 0 .632.086.836.259.204.172.305.41.305.711 0 .192-.06.367-.181.525a.727.727 0 01-.44.292v.03a.908.908 0 01.57.291c.146.16.218.36.218.595 0 .336-.116.602-.348.799-.23.195-.547.292-.95.292H70.71z" fill="#999"/></svg>