<svg xmlns="http://www.w3.org/2000/svg" width="32" height="32"><path fill="none" d="M6 6h20v20H6z"/><path d="M16 12.169c-5.519 0-9.992 4.01-9.992 8.957 0 4.946 3.305 4.833 9.992 4.833 6.562 0 9.993.113 9.993-4.833 0-4.947-4.474-8.957-9.993-8.957zm.032-1.741c3.067 0 4.474-2.384 4.474-2.384.106-.196.185-.41.185-.651 0-.746-.586-1.351-1.309-1.351-.722 0-1.307.604-1.307 1.351 0 .06.024.11.033.169-.479.305-1.205.536-2.076.536-.87 0-1.593-.23-2.071-.533.008-.059.033-.11.033-.172 0-.746-.586-1.351-1.309-1.351-.721 0-1.307.604-1.307 1.351 0 .239.076.453.182.648.001 0 1.399 2.387 4.472 2.387z" fill="#999"/></svg>