<svg xmlns="http://www.w3.org/2000/svg" width="32" height="32"><path fill="none" d="M6 6h20v20H6z"/><path fill="#FFF" d="M15.141 26.459c-5.801 0-9.633 0-9.633-5.333 0-5.215 4.707-9.457 10.492-9.457 5.786 0 10.493 4.242 10.493 9.457 0 2.453-.837 3.933-2.633 4.654-1.572.632-3.799.679-7.017.679h-1.702z"/><path fill="#393" d="M16 12.169c5.519 0 9.993 4.01 9.993 8.957 0 4.729-3.137 4.833-9.149 4.833h-1.703c-6.111 0-9.133-.104-9.133-4.833 0-4.947 4.473-8.957 9.992-8.957m0-1c-6.061 0-10.992 4.467-10.992 9.957 0 5.833 4.25 5.833 10.133 5.833h1.703c5.671 0 10.149 0 10.149-5.833 0-5.49-4.931-9.957-10.993-9.957z"/><path fill="#FFF" d="M16.032 10.928c-3.322 0-4.84-2.526-4.903-2.634-.171-.316-.25-.606-.25-.901 0-1.021.811-1.851 1.807-1.851.962 0 1.751.772 1.806 1.743.43.201.975.313 1.541.313.569 0 1.115-.113 1.546-.315.056-.969.844-1.741 1.804-1.741.997 0 1.809.83 1.809 1.851 0 .294-.08.585-.245.89-.074.122-1.6 2.645-4.915 2.645z"/><path fill="#393" d="M19.382 6.042c.723 0 1.309.604 1.309 1.351 0 .241-.078.455-.185.651 0 0-1.406 2.384-4.474 2.384-3.073 0-4.472-2.387-4.472-2.387a1.357 1.357 0 01-.182-.648c0-.746.586-1.351 1.307-1.351.723 0 1.309.604 1.309 1.351 0 .062-.025.113-.033.172.479.303 1.201.533 2.071.533.871 0 1.598-.231 2.076-.536-.009-.059-.033-.109-.033-.169 0-.747.585-1.351 1.307-1.351m0-1c-1.116 0-2.049.812-2.262 1.886-.321.109-.701.17-1.088.17-.46 0-.821-.078-1.083-.167-.211-1.076-1.146-1.888-2.264-1.888-1.272 0-2.307 1.055-2.307 2.351 0 .38.099.748.302 1.124.086.148 1.747 2.912 5.352 2.912 3.597 0 5.266-2.758 5.335-2.875.224-.411.323-.78.323-1.16 0-1.298-1.035-2.353-2.308-2.353z"/></svg>