<svg xmlns="http://www.w3.org/2000/svg" viewBox="0 0 88 32"><path d="M58.4 6.7v14.8c0 .2-.2.4-.4.4h-3c-.2 0-.4-.2-.4-.4V6.7c0-.2.2-.4.4-.4h3c.3 0 .4.1.4.4zm24-.4H79c-.2 0-.3.1-.4.3l-2.7 8.7-3-8.7c-.1-.2-.2-.3-.4-.3H70c-.2 0-.3.1-.4.3l-3 8.7-2.7-8.7c-.1-.2-.2-.3-.4-.3h-3.4c-.1 0-.3.1-.3.2-.1.1-.1.2-.1.4l5 14.8c.1.2.2.3.4.3h2.7c.2 0 .3-.1.4-.3l3-8.6 3 8.6c.1.2.2.3.4.3h2.7c.2 0 .3-.1.4-.3l5-14.8c0-.1 0-.3-.1-.4 0-.2-.1-.2-.2-.2zm5.1 0h-3.1c-.2 0-.4.2-.4.4v14.8c0 .2.2.4.4.4h3.1c.2 0 .4-.2.4-.4V6.7c0-.3-.2-.4-.4-.4zm-34.7 15c.2.2 0 .5-.2.5h-3.8c-.2 0-.3-.1-.4-.2l-.6-.8c-1.3.8-2.8 1.3-4.5 1.3-4.6 0-8.3-3.7-8.3-8.2 0-4.5 3.7-8.2 8.3-8.2s8.3 3.7 8.3 8.2c0 1.6-.5 3.1-1.3 4.4l2.5 3zM45.3 18l-1.6-1.9c-.2-.2 0-.5.2-.5h3.4c.2-.5.3-1 .3-1.5 0-2.4-1.8-4.5-4.4-4.5s-4.4 2.1-4.4 4.5 1.8 4.5 4.4 4.5c.8 0 1.5-.2 2.1-.6zm-19.8 3.3c.1.6-.1.9-.3.9-.2 0-.5-.2-.8-.7-.3-.5-.4-1-.3-1.3.1-.2.3-.3.6-.2.5.1.8.9.8 1.3zm-2.9 1.3c.6.5.8 1.2.5 1.6-.2.2-.5.4-.9.4s-.7-.1-1-.3c-.6-.5-.7-1.3-.4-1.8.1-.2.4-.3.7-.3.4 0 .8.1 1.1.4zm-1.1 5.1c2.7 0 5.7.9 9 3.8.3.3.8-.1.5-.4-3.2-4-6.2-4.8-9.2-5.4-3.6-.8-5.5-2.8-6.8-5-.3-.4-.4-.4-.4.2 0 .7 0 1.6.2 2.5h-.4c-5.2 0-9.4-4.2-9.4-9.3C5 9 9.2 4.8 14.4 4.8s9.4 4.2 9.4 9.3c0 .4 0 .7-.1 1.1-.7-.1-2-.1-3-.1-.4 0-.3.2 0 .2 3.1.6 5.3 2.5 5.8 5.9 0 .1.1.1.2 0 1.3-2.1 2-4.6 2-7.2-.1-7.7-6.5-14-14.4-14S0 6.3 0 14.1s6.4 14.1 14.3 14.1c2.1-.1 4.2-.5 7.2-.5z" fill="#ff8c00"/></svg>