<svg width="51" height="51" fill="none" xmlns="http://www.w3.org/2000/svg"><path d="M25.002 50.004c13.808 0 25.002-11.194 25.002-25.002C50.004 11.194 38.81 0 25.002 0 11.194 0 0 11.194 0 25.002 0 38.81 11.194 50.004 25.002 50.004z" fill="#EB5F9E"/><path d="M36.762 25.002c0 6.49-5.27 11.76-11.76 11.76s-11.76-5.27-11.76-11.76 5.27-11.76 11.76-11.76 11.76 5.27 11.76 11.76z" stroke="#fff" stroke-miterlimit="10" stroke-linecap="round" stroke-linejoin="round"/><path d="M25.002 17.51v8.857l-3.848-2.628m12.734 1.263h-1.54m-14.693 0h-1.524m8.871 7.347v1.539" stroke="#fff" stroke-miterlimit="10" stroke-linecap="round" stroke-linejoin="round"/></svg>