<svg width="51" height="51" fill="none" xmlns="http://www.w3.org/2000/svg"><path d="M50.004 25.002c0 13.807-11.195 25.002-25.002 25.002C11.194 50.004 0 38.809 0 25.002 0 11.194 11.194 0 25.002 0c13.807-.015 25.002 11.18 25.002 25.002z" fill="#EB5D73"/><path d="M33.916 31.216s-2.105-4.908-3.426-9.466c-.958-3.325-3.34-.973-2.89 2.366.407 3.05-5.575-1.321-7.317-3.122-2.047-2.105-3.15-1.001-2.584.509-.77-.77-1.438-1.612-2.106-1.104-.42.32-.334 1.772.102 2.541-1.176-1.103-1.38.77-1.133 1.438.305.842.305.842.944 1.77-1.568-.972-.552 1.612-.072 2.44 2.236 4.022 6.33 7.042 10.874 7.899 6.026 1.132 7.245-2.295 7.608-5.271z" stroke="#fff" stroke-miterlimit="10" stroke-linecap="round" stroke-linejoin="round"/><path d="M33.916 31.216s.552-5.024 1.54-9.655c.725-3.383-2.483-2.425-3.674.711-.203.537-.479.74-.798.697m-2.512-2.729c-.915-1.569-1.35-3.093-1.67-4.196-.798-2.832-2.294-2.367-2.512-.77-.32-1.045-.508-2.105-1.335-1.974-.523.072-1.133 1.408-1.118 2.293-.509-1.524-1.583.03-1.685.726-.13.886-.13.886-.014 2.004-.74-1.277-1.09.232-1.19 1.365m-1.264 1.8l2.977 3.325m-5.126-2.119l3.906 4.878m-4.036-1.626l3.586 4.515" stroke="#fff" stroke-miterlimit="10" stroke-linecap="round" stroke-linejoin="round"/></svg>