<svg width="51" height="51" fill="none" xmlns="http://www.w3.org/2000/svg"><path d="M50.004 25.002c0 13.807-11.195 25.002-25.002 25.002C11.194 50.004 0 38.809 0 25.002 0 11.194 11.194 0 25.002 0c13.807 0 25.002 11.194 25.002 25.002z" fill="#22A1DB"/><path d="M31.143 21.764v8.93h8.828v-2.57c0-5.445-4.414-6.36-8.828-6.36zm-12.065-5.749h11.964v14.65H13.256m8.754-4.908h-7.143m8.131-4.98h-6.214" stroke="#fff" stroke-miterlimit="10" stroke-linecap="round" stroke-linejoin="round"/><path d="M15.739 32.813a2.252 2.252 0 01-2.25 2.25 2.243 2.243 0 01-2.251-2.25 2.243 2.243 0 012.25-2.25 2.243 2.243 0 012.25 2.25zm19.833 0a2.253 2.253 0 01-2.25 2.25 2.252 2.252 0 01-2.251-2.25 2.243 2.243 0 012.25-2.25 2.243 2.243 0 012.25 2.25z" stroke="#fff" stroke-miterlimit="10" stroke-linecap="round" stroke-linejoin="round"/></svg>