<svg width="51" height="51" fill="none" xmlns="http://www.w3.org/2000/svg"><path d="M50.004 25.002c0 13.807-11.195 25.002-25.002 25.002C11.194 50.004 0 38.809 0 25.002 0 11.194 11.194 0 25.002 0c13.807 0 25.002 11.194 25.002 25.002z" fill="#64B769"/><path d="M33.002 15.666l-7.942-1.205-7.637 1.423m7.637 21.27l5.082-13.865m2.86-7.623l3.66 5.706L25.06 37.154 13.344 21.372l4.08-5.488 7.535 1.423 8.043-1.64zm-2.758 7.884l6.417-2.178" stroke="#fff" stroke-miterlimit="10" stroke-linecap="round" stroke-linejoin="round"/><path d="M13.344 21.372l6.722 2.178 4.893-6.243m-4.893 6.243h10.178" stroke="#fff" stroke-miterlimit="10" stroke-linecap="round" stroke-linejoin="round"/></svg>