<svg width="20" height="25" fill="none" xmlns="http://www.w3.org/2000/svg"><style>path{stroke:currentColor}</style><path d="M19 21.571C19 22.909 17.949 24 16.646 24H3.354C2.057 24 1 22.915 1 21.57V3.461c0-1.338 1.051-2.428 2.353-2.428h13.293C17.95 1.033 19 2.123 19 3.462V21.57zM1.107 16.735h17.525" stroke-width="1.5" stroke-miterlimit="10" stroke-linecap="round" stroke-linejoin="round"/><path d="M18.99 7.025c0 1.443-1.132 2.617-2.535 2.617-1.398 0-2.535-1.174-2.535-2.617h-1.526c0 1.443-1.132 2.617-2.535 2.617-1.398 0-2.535-1.174-2.535-2.617H6.081c0 1.443-1.137 2.617-2.535 2.617-1.398 0-2.535-1.174-2.535-2.617v-3.8c0-.76.688-2.225 2.444-2.225h13.347c1.136 0 2.172 1.14 2.172 2.242 0 1.101.01 3.337.01 3.337l.006.446z" stroke-width="1.5" stroke-miterlimit="10" stroke-linecap="round" stroke-linejoin="round"/></svg>