<?xml version="1.0" encoding="utf-8"?>
<!-- Generator: Adobe Illustrator 15.0.0, SVG Export Plug-In . SVG Version: 6.00 Build 0)  -->
<!DOCTYPE svg PUBLIC "-//W3C//DTD SVG 1.1//EN" "http://www.w3.org/Graphics/SVG/1.1/DTD/svg11.dtd">
<svg version="1.1" id="Слой_1" xmlns="http://www.w3.org/2000/svg" xmlns:xlink="http://www.w3.org/1999/xlink" x="0px" y="0px"
	 width="32px" height="32px" viewBox="0 0 32 32" enable-background="new 0 0 32 32" xml:space="preserve">
<g>
	<g>
		<path fill="#339933" d="M16.001,5.792c5.638,0,10.208,4.569,10.208,10.207c0,5.64-4.57,10.209-10.208,10.209
			c-5.641,0-10.21-4.569-10.21-10.209C5.792,10.361,10.361,5.792,16.001,5.792 M15.761,18.13c0.096,0,0.189-0.021,0.283-0.062
			l5.452-2.361c0.365-0.158,0.529-0.579,0.373-0.944c-0.119-0.271-0.381-0.43-0.658-0.43c-0.096,0-0.191,0.021-0.285,0.06
			l-4.451,1.932V10.51c0-0.397-0.32-0.717-0.714-0.717c-0.398,0-0.72,0.317-0.72,0.717v6.906c0,0.242,0.123,0.467,0.324,0.602
			C15.486,18.092,15.621,18.13,15.761,18.13 M16.001,4.792c-6.182,0-11.21,5.026-11.21,11.207c0,6.181,5.028,11.209,11.21,11.209
			c6.181,0,11.208-5.028,11.208-11.209C27.209,9.818,22.182,4.792,16.001,4.792L16.001,4.792z"/>
	</g>
</g>
</svg>
