<?xml version="1.0" encoding="utf-8"?>
<!-- Generator: Adobe Illustrator 15.0.0, SVG Export Plug-In . SVG Version: 6.00 Build 0)  -->
<!DOCTYPE svg PUBLIC "-//W3C//DTD SVG 1.1//EN" "http://www.w3.org/Graphics/SVG/1.1/DTD/svg11.dtd">
<svg version="1.1" id="Слой_1" xmlns="http://www.w3.org/2000/svg" xmlns:xlink="http://www.w3.org/1999/xlink" x="0px" y="0px"
	 width="32px" height="32px" viewBox="0 0 32 32" enable-background="new 0 0 32 32" xml:space="preserve">
<g>
	<g>
		<path fill="#666666" d="M25.164,14.831c-2.346-0.656-5.586-3.848-9.164-3.848c-3.579,0-6.819,3.191-9.165,3.848
			c-2.346,0.656-3.796,1.563-3.796,2.563c0,1,1.45,1.905,3.796,2.562c2.345,0.653,5.586,1.062,9.165,1.062
			c3.578,0,6.818-0.404,9.164-1.062c2.346-0.656,3.797-1.562,3.797-2.562C28.961,16.394,27.51,15.487,25.164,14.831z M9.552,18.432
			c-0.053,0-0.107-0.004-0.162-0.014c-0.3-0.051-0.599-0.1-0.895-0.154c-0.544-0.102-0.902-0.623-0.802-1.166
			c0.102-0.543,0.621-0.91,1.166-0.801c0.282,0.053,0.566,0.101,0.853,0.147c0.545,0.09,0.915,0.605,0.826,1.148
			C10.458,18.082,10.032,18.432,9.552,18.432z M16.521,19.023c-0.31,0.008-0.621,0.012-0.931,0.016c-0.003,0-0.007,0-0.01,0
			c-0.549,0-0.995-0.441-1-0.99c-0.006-0.555,0.438-1.006,0.989-1.01c0.3-0.004,0.6-0.008,0.897-0.016
			c0.537-0.034,1.012,0.42,1.024,0.975C17.508,18.549,17.072,19.008,16.521,19.023z M23.227,18.264
			c-0.299,0.055-0.596,0.104-0.896,0.154c-0.055,0.01-0.109,0.014-0.162,0.014c-0.48,0-0.906-0.35-0.984-0.84
			c-0.09-0.545,0.279-1.059,0.824-1.148c0.287-0.046,0.57-0.094,0.854-0.146c0.543-0.107,1.064,0.257,1.166,0.802
			C24.127,17.641,23.77,18.164,23.227,18.264z"/>
	</g>
</g>
</svg>
