<svg width="17" height="24" fill="none" xmlns="http://www.w3.org/2000/svg"><g clip-path="url(#clip0)"><path d="M8.5.738V23.41s7.564-2.437 7.78-7.015c.144-4.652 0-12.554 0-12.554S13.758 1.698 8.5.738z" fill="#FFDC00"/><path d="M8.5 23.262S.72 21.046.72 15.582V4.062c0-.222.072-.444.216-.665C1.153 3.249 7.06.738 8.5.738c1.44 0 7.348 2.511 7.492 2.659.144.148.216.37.216.665v11.593c.072 5.687-7.708 7.607-7.708 7.607z" fill="#FFDC00" stroke="#303" stroke-width="1.5" stroke-miterlimit="10" stroke-linecap="round" stroke-linejoin="round"/><path d="M10.589 7.31c0 1.256-.936 2.216-2.161 2.216s-2.161-.96-2.161-2.215c0-1.256.936-2.216 2.161-2.216 1.153 0 2.161.96 2.161 2.216z" fill="#fff" stroke="#303" stroke-width="1.2" stroke-miterlimit="10" stroke-linecap="round" stroke-linejoin="round"/><path d="M8.428 9.526v8.64h1.8m-1.8-2.511h1.873" stroke="#303" stroke-width="1.2" stroke-miterlimit="10" stroke-linecap="round" stroke-linejoin="round"/></g><defs><clipPath id="clip0"><path fill="#fff" d="M0 0h17v24H0z"/></clipPath></defs></svg>