<?xml version="1.0" encoding="utf-8"?>
<!-- Generator: Adobe Illustrator 15.0.0, SVG Export Plug-In . SVG Version: 6.00 Build 0)  -->
<!DOCTYPE svg PUBLIC "-//W3C//DTD SVG 1.1//EN" "http://www.w3.org/Graphics/SVG/1.1/DTD/svg11.dtd">
<svg version="1.1" id="Слой_1" xmlns="http://www.w3.org/2000/svg" xmlns:xlink="http://www.w3.org/1999/xlink" x="0px" y="0px"
	 width="22.47px" height="22.469px" viewBox="0 0 22.47 22.469" enable-background="new 0 0 22.47 22.469" xml:space="preserve">
<g>
	<g>
		<path fill="#289548" d="M11.246,1.037c5.638,0,10.207,4.569,10.207,10.207c0,5.64-4.569,10.209-10.207,10.209
			c-5.641,0-10.21-4.569-10.21-10.209C1.036,5.606,5.605,1.037,11.246,1.037 M11.006,13.375c0.095,0,0.189-0.02,0.283-0.06
			l5.451-2.363c0.365-0.158,0.529-0.579,0.373-0.944c-0.118-0.27-0.381-0.43-0.658-0.43c-0.095,0-0.191,0.02-0.285,0.059
			l-4.451,1.932V5.754c0-0.398-0.32-0.717-0.713-0.717c-0.399,0-0.72,0.318-0.72,0.717v6.906c0,0.242,0.123,0.467,0.324,0.601
			C10.73,13.337,10.865,13.375,11.006,13.375 M11.246,0.037c-6.182,0-11.21,5.027-11.21,11.207c0,6.181,5.028,11.209,11.21,11.209
			c6.18,0,11.207-5.028,11.207-11.209C22.453,5.064,17.426,0.037,11.246,0.037L11.246,0.037z"/>
	</g>
</g>
</svg>
