<?xml version="1.0" encoding="utf-8"?>
<!-- Generator: Adobe Illustrator 15.0.0, SVG Export Plug-In . SVG Version: 6.00 Build 0)  -->
<!DOCTYPE svg PUBLIC "-//W3C//DTD SVG 1.1//EN" "http://www.w3.org/Graphics/SVG/1.1/DTD/svg11.dtd">
<svg version="1.1" id="Слой_1" xmlns="http://www.w3.org/2000/svg" xmlns:xlink="http://www.w3.org/1999/xlink" x="0px" y="0px"
	 width="22.47px" height="22.469px" viewBox="0 0 22.47 22.469" enable-background="new 0 0 22.47 22.469" xml:space="preserve">
<g>
	<g>
		<path fill="#585857" d="M11.246,1.037c-5.641,0-10.21,4.569-10.21,10.207c0,5.64,4.569,10.209,10.21,10.209
			c5.638,0,10.207-4.569,10.207-10.209C21.453,5.606,16.884,1.037,11.246,1.037z M16.74,10.952l-5.451,2.363
			c-0.094,0.04-0.188,0.06-0.283,0.06c-0.141,0-0.275-0.038-0.396-0.114c-0.201-0.134-0.324-0.358-0.324-0.601V5.754
			c0-0.398,0.32-0.717,0.72-0.717c0.393,0,0.713,0.318,0.713,0.717v5.814l4.451-1.932c0.366-0.155,0.785,0.01,0.943,0.371
			C17.27,10.373,17.105,10.794,16.74,10.952z"/>
	</g>
</g>
</svg>
