<svg version="1.1" id="Layer_1" xmlns="http://www.w3.org/2000/svg" x="0" y="0" viewBox="0 0 133 30" xml:space="preserve" enable-background="new 0 0 133 30"><style>.st0{fill:#036cb5}</style><path class="st0" d="M117.5 0c2.4 0 4.7.5 6.8 1.5.3.1.6.3 1 .5l-1.4 1.2-2.1-2.1-3.7 3.2-2.2-2.3-6.7 5.9 4.3 4.6-1.7 1.4 4.2 4.6-1.7 1.4 6.1 6.6 3.6-3.2 3.1 3.4c-.6.5-1.3.9-2 1.3-2.2 1.2-4.8 1.9-7.6 1.9-8.5 0-15.5-6.7-15.5-15 .1-8.1 7-14.9 15.5-14.9zm-2.8 14.1l3.7-3.2 3.3 3.6-3.7 3.2-3.3-3.6zm2.6 6.2L121 17l3.3 3.6-3.7 3.2-3.3-3.5zM112.1 8l3.7-3.2 3.3 3.6-3.7 3.2-3.3-3.6zm6.7-1.8l2.7-2.4 2.5 2.7-2.7 2.4-2.5-2.7zm4.9 11.1l2.7-2.4 2.5 2.7-2.7 2.4-2.5-2.7zm2.4 5.4l2.7-2.4 2.5 2.7-2.7 2.4-2.5-2.7zm1.1-12.4l1.8-1.6 1.7 1.8-1.8 1.6-1.7-1.8zM124.9 5l1.8-1.6 1.7 1.8-1.8 1.6-1.7-1.8zm4.7 10.6l1.8-1.6 1.7 1.8-1.9 1.6-1.6-1.8zm-8.3-4l2.7-2.4 2.5 2.7-2.7 2.4-2.5-2.7z"/><defs><filter id="Adobe_OpacityMaskFilter" filterUnits="userSpaceOnUse" x="-.1" y="8.3" width="16.1" height="13.8"><feColorMatrix values="1 0 0 0 0 0 1 0 0 0 0 0 1 0 0 0 0 0 1 0"/></filter></defs><mask maskUnits="userSpaceOnUse" x="-.1" y="8.3" width="16.1" height="13.8" id="mask0_1_"><path d="M-.1 8.3v13.8H16V8.3H-.1z" fill="#fff" filter="url(#Adobe_OpacityMaskFilter)"/></mask><g mask="url(#mask0_1_)"><path class="st0" d="M8 12.4h-.1l-2.6 9.7H3.1L-.1 8.3h2.2l2.2 10.3h.1L7.1 8.3h1.8l2.7 10.3h.1l2-10.3H16l-3.2 13.8h-2.1L8 12.4z"/></g><path class="st0" d="M18.9 16.2h4.5c-.1-2-1.1-2.9-2.2-2.9-1.2.1-2.1 1-2.3 2.9zm6.1 3.7v1.5c-.9.5-2.1.9-3.5.9-3.3 0-4.7-2-4.7-5.1 0-3 1.5-5.1 4.5-5.1 2.5 0 4 1.6 4 4.8v.7h-6.4c0 2.3 1 3.4 3 3.4 1-.1 2-.5 3.1-1.1zm4.9.8c.6.3 1.3.3 1.8.3 1.5 0 2.6-.9 2.6-4.1 0-2.5-.9-3.3-2.2-3.3-.8 0-1.4.2-2.2.6v6.5zm0-7.8c.6-.3 1.6-.7 2.7-.7 2.5 0 3.8 1.7 3.8 4.8 0 3.7-1.8 5.4-4.6 5.4-1 0-2.7-.3-3.9-1V7.8l2.1-.5v5.6h-.1zm15.3 6.3l4.3-10.9H52v13.8h-2.1v-10h-.2l-4 10h-1.3l-4-9.8h-.2v9.8h-1.8V8.3h2.4l4.4 10.9zm15.5-2c0-2.6-1.1-3.7-2.4-3.7-1.3 0-2.4 1.1-2.4 3.7 0 2.7 1 3.7 2.4 3.7s2.4-1.1 2.4-3.7zm-6.9 0c0-3.4 1.9-5.1 4.5-5.1s4.5 1.7 4.5 5.1c0 3.3-1.8 5.1-4.5 5.1s-4.5-1.8-4.5-5.1zm10.6-3.7c.9-.5 2.8-1.4 5-1.4 2.4 0 3.3.9 3.3 2.9v7h-2.1v-6.6c0-1.5-.8-1.8-1.8-1.8-.8 0-1.8.4-2.4.7V22h-2.1v-8.5h.1zM77 16.2h4.5c-.1-2-1.1-2.9-2.2-2.9-1.1.1-2 1-2.3 2.9zm6.2 3.7v1.5c-.9.5-2.1.9-3.5.9-3.3 0-4.7-2-4.7-5.1 0-3 1.5-5.1 4.5-5.1 2.5 0 4 1.6 4 4.8v.7H77c0 2.3 1 3.4 3 3.4 1.1-.1 2.1-.5 3.2-1.1zm8.5-7.9h2.1l-3.6 9.8c-1 2.7-2.2 4.1-4.5 4.1v-1.6c1.3 0 2.2-1.1 2.7-2.5L84.6 12h2.2l2.5 7.2h.1l2.3-7.2z"/></svg>